<svg xmlns="http://www.w3.org/2000/svg" viewBox="0 0 512 512">
  <defs>
    <linearGradient id="background" x1="64" y1="32" x2="448" y2="480" gradientUnits="userSpaceOnUse">
      <stop stop-color="#6670f5"/>
      <stop offset="1" stop-color="#454bd7"/>
    </linearGradient>
  </defs>
  <rect width="512" height="512" rx="112" fill="url(#background)"/>
  <path d="M132 182c35 0 72 39 124 99 52-60 89-99 124-99 50 0 81 39 81 86 0 83-95 139-205 211C146 407 51 351 51 268c0-47 31-86 81-86Z" fill="#fff" opacity=".96"/>
  <path d="M256 75c52 0 94 42 94 94s-42 94-94 94-94-42-94-94 42-94 94-94Z" fill="#ff4d5f"/>
  <text x="256" y="206" text-anchor="middle" fill="#fff" font-family="Arial, Helvetica, sans-serif" font-size="108" font-weight="800">J</text>
</svg>
