<svg xmlns="http://www.w3.org/2000/svg" fill="none" class="w-20 md:w-24 text-black dark:text-white" viewBox="0 0 386 146">
  <path fill="currentColor" d="M176.725 33.865h11.55V22.7h-11.55zM164.9 129.4h7.975c9.845 0 15.4-5.5 15.4-15.18V43.6h-11.55v65.945c0 6.105-2.75 8.965-8.8 8.965H164.9zm80.398-76.12c-3.685-7.81-11.935-11.33-22.55-11.33-13.75 0-22 6.49-24.86 16.665l10.725 3.3c2.035-6.6 7.755-9.35 14.025-9.35 9.295 0 13.035 3.85 13.42 12.045-9.625 1.32-19.415 2.585-26.29 4.62-9.185 2.915-14.025 8.635-14.025 17.6 0 9.68 6.93 17.82 20.075 17.82 9.625 0 16.5-3.3 21.395-10.285V103h10.175V66.425c0-4.95-.22-9.24-2.09-13.145m-27.445 41.965c-7.37 0-10.725-3.905-10.725-8.525 0-4.675 3.465-7.205 8.195-8.8 5.005-1.485 11.66-2.42 20.625-3.74-.055 2.75-.275 6.545-1.21 9.295-1.32 5.775-7.095 11.77-16.885 11.77M251.22 103h50.325V92.715h-32.01l33.66-47.245V43.6H254.3v10.285h30.635l-33.715 47.3zm53.595 0h50.325V92.715h-32.01l33.66-47.245V43.6h-48.895v10.285h30.635l-33.715 47.3z"/>
  <path fill="#146aff" fill-rule="evenodd" d="M136.179 44.828v-23.66c-18.248 7.385-38.194 11.451-59.09 11.451a158 158 0 0 1-34.758-3.845V81.15a15.6 15.6 0 0 0-3.39-1.76 16.7 16.7 0 0 0-8.75-.776c-2.939.526-5.637 1.827-7.755 3.737s-3.56 4.342-4.145 6.991a12.4 12.4 0 0 0 .862 7.89c1.146 2.495 3.087 4.628 5.578 6.128s5.418 2.301 8.414 2.301c.461 0 .691 0 .886-.003 10.527-.21 19.011-8.693 19.22-19.22l.004-.39v-32.85a181.4 181.4 0 0 0 25.573 1.558v55.939a15.6 15.6 0 0 0-3.391-1.76 16.7 16.7 0 0 0-8.75-.777c-2.938.527-5.637 1.828-7.755 3.737s-3.56 4.343-4.145 6.992a12.4 12.4 0 0 0 .862 7.89c1.147 2.495 3.088 4.627 5.578 6.128 2.49 1.5 5.419 2.301 8.414 2.301.461 0 .692 0 .887-.004 10.527-.209 19.01-8.693 19.22-19.22.004-.195.004-.425.004-.886v-60.77c12.21-.85 24.085-2.92 35.503-6.087v32.662a15.6 15.6 0 0 0-3.391-1.76 16.7 16.7 0 0 0-8.75-.777c-2.938.527-5.636 1.828-7.754 3.738s-3.561 4.342-4.145 6.991a12.4 12.4 0 0 0 .862 7.89c1.146 2.495 3.087 4.628 5.578 6.128s5.418 2.301 8.414 2.301c.461 0 .691 0 .886-.004 10.527-.209 19.011-8.693 19.22-19.22.004-.194.004-.425.004-.886V44.827" clip-rule="evenodd"/>
</svg>

