<svg width="84" height="33" viewBox="0 0 84 33" fill="none" xmlns="http://www.w3.org/2000/svg">
<path d="M63.2109 32.1752V17.6875H83.1315V21.3094H68.6438V23.1204H81.3206V26.7423H68.6438V32.1752H63.2109Z" fill="white"/>
<path d="M42.3477 32.1752V17.6875H49.5915V19.4985H51.4025V21.3094H53.2134V23.1204H55.0244V24.9314H56.8354V17.6875H62.2683V32.1752H55.0244V30.3643H53.2134V28.5533H51.4025V26.7423H49.5915V24.9314H47.7806V32.1752H42.3477Z" fill="white"/>
<path d="M23.2953 32.1752V30.3643H21.4844V19.4985H23.2953V17.6875H39.594V19.4985H41.405V30.3643H39.594V32.1752H23.2953ZM35.9721 21.3094H26.9173V28.5533H35.9721V21.3094Z" fill="white"/>
<path d="M2.43206 32.1752V30.3643H0.621094V19.4985H2.43206V17.6875H18.7307V19.4985H20.5417V23.1204H15.1088V21.3094H6.05398V28.5533H15.1088V26.7423H20.5417V30.3643H18.7307V32.1752H2.43206Z" fill="white"/>
<path d="M65.4828 14.6596V12.8486H63.6719V1.98284H65.4828V0.171875H81.7815V1.98284H83.5925V5.60477H78.1596V3.7938H69.1048V11.0377H78.1596V9.2267H83.5925V12.8486H81.7815V14.6596H65.4828Z" fill="white"/>
<path d="M42.8125 14.6596V0.171875H50.0564V1.98284H51.8673V3.7938H53.6783V5.60477H55.4892V7.41573H57.3002V0.171875H62.7331V14.6596H55.4892V12.8486H53.6783V11.0377H51.8673V9.2267H50.0564V7.41573H48.2454V14.6596H42.8125Z" fill="white"/>
<path d="M21.9492 3.7938V0.171875H27.3821V1.98284H29.1931V3.7938H31.004V5.60477H32.815V3.7938H34.626V1.98284H36.4369V0.171875H41.8698V3.7938H40.0589V5.60477H38.2479V7.41573H36.4369V9.2267H34.626V14.6596H29.1931V9.2267H27.3821V7.41573H25.5711V5.60477H23.7602V3.7938H21.9492Z" fill="white"/>
<path d="M1.08594 14.6596V11.0377H15.5736V9.2267H2.8969V7.41573H1.08594V1.98284H2.8969V0.171875H21.0065V3.7938H6.51883V5.60477H19.1956V7.41573H21.0065V12.8486H19.1956V14.6596H1.08594Z" fill="white"/>
</svg>
