<svg width="609" height="164" viewBox="0 0 609 164" fill="none" xmlns="http://www.w3.org/2000/svg">
<path d="M197.436 87.472C193.964 87.472 190.772 86.828 187.86 85.54C184.948 84.308 182.652 82.628 180.972 80.5C179.348 78.372 178.536 76.076 178.536 73.612C178.536 73.332 178.676 73.192 178.956 73.192H188.028C188.252 73.192 188.42 73.332 188.532 73.612C188.644 74.116 189.008 74.732 189.624 75.46C190.296 76.188 191.276 76.832 192.564 77.392C193.852 77.952 195.476 78.232 197.436 78.232C201.076 78.232 203.708 77.336 205.332 75.544C207.012 73.752 207.852 71.484 207.852 68.74V66.976C207.852 66.808 207.768 66.724 207.6 66.724C207.432 66.668 207.292 66.668 207.18 66.724C206.284 67.62 204.8 68.544 202.728 69.496C200.656 70.392 198.332 70.84 195.756 70.84C192.228 70.84 189.008 69.916 186.096 68.068C183.184 66.164 180.86 63.532 179.124 60.172C177.444 56.812 176.604 53.004 176.604 48.748C176.604 44.492 177.444 40.684 179.124 37.324C180.86 33.964 183.184 31.36 186.096 29.512C189.008 27.608 192.228 26.656 195.756 26.656C198.108 26.656 200.264 27.02 202.224 27.748C204.24 28.476 205.892 29.456 207.18 30.688C207.292 30.8 207.432 30.856 207.6 30.856C207.768 30.856 207.88 30.744 207.936 30.52L208.692 28C208.748 27.776 208.86 27.636 209.028 27.58C209.196 27.524 209.392 27.496 209.616 27.496H217.512C217.792 27.496 217.932 27.636 217.932 27.916V68.74C217.932 72.436 217.036 75.684 215.244 78.484C213.452 81.34 210.988 83.552 207.852 85.12C204.772 86.688 201.3 87.472 197.436 87.472ZM197.436 61.6C204.38 61.6 207.852 57.316 207.852 48.748C207.852 44.828 206.956 41.72 205.164 39.424C203.428 37.072 200.852 35.896 197.436 35.896C193.964 35.896 191.304 37.072 189.456 39.424C187.608 41.72 186.684 44.828 186.684 48.748C186.684 52.668 187.608 55.804 189.456 58.156C191.304 60.452 193.964 61.6 197.436 61.6ZM237.669 70.84C232.517 70.84 228.513 69.58 225.657 67.06C222.857 64.54 221.457 61.292 221.457 57.316C221.457 54.852 222.157 52.584 223.557 50.512C225.013 48.44 227.085 46.788 229.773 45.556C232.517 44.324 235.737 43.708 239.433 43.708H246.909C247.693 43.708 248.309 43.512 248.757 43.12C249.205 42.728 249.429 42.308 249.429 41.86C249.429 40.292 248.897 38.92 247.833 37.744C246.825 36.512 244.557 35.896 241.029 35.896C235.653 35.896 232.965 37.744 232.965 41.44C232.965 41.72 232.825 41.86 232.545 41.86H223.389C223.109 41.86 222.969 41.72 222.969 41.44C222.969 36.68 224.677 33.04 228.093 30.52C231.509 27.944 235.821 26.656 241.029 26.656C246.909 26.656 251.445 28.028 254.637 30.772C257.885 33.46 259.509 37.408 259.509 42.616V58.912C259.509 59.752 259.789 60.424 260.349 60.928C260.909 61.376 261.637 61.6 262.533 61.6H262.953C263.233 61.6 263.373 61.74 263.373 62.02V69.58C263.373 69.86 263.233 70 262.953 70H259.509C257.437 70 255.757 69.664 254.469 68.992C253.237 68.264 252.173 67.256 251.277 65.968C251.221 65.856 251.081 65.828 250.857 65.884C250.689 65.884 250.577 65.912 250.521 65.968C249.233 67.256 247.497 68.404 245.313 69.412C243.185 70.364 240.637 70.84 237.669 70.84ZM237.669 61.6C241.589 61.6 244.529 60.732 246.489 58.996C248.449 57.204 249.429 55.132 249.429 52.78V52.528C249.429 52.248 249.289 52.108 249.009 52.108H239.853C236.717 52.108 234.533 52.64 233.301 53.704C232.125 54.712 231.537 55.916 231.537 57.316C231.537 58.38 232.041 59.36 233.049 60.256C234.057 61.152 235.597 61.6 237.669 61.6ZM266.937 70C266.713 70 266.601 69.86 266.601 69.58V27.916C266.601 27.636 266.713 27.496 266.937 27.496H275.001C275.281 27.496 275.477 27.524 275.589 27.58C275.701 27.636 275.785 27.776 275.841 28L276.681 30.52C276.737 30.744 276.849 30.856 277.017 30.856C277.185 30.856 277.325 30.8 277.437 30.688C280.125 28 283.233 26.656 286.761 26.656H291.381C291.661 26.656 291.801 26.796 291.801 27.076V35.896C291.801 36.176 291.661 36.316 291.381 36.316H285.921C282.841 36.316 280.517 37.212 278.949 39.004C277.437 40.796 276.681 43.064 276.681 45.808V69.58C276.681 69.86 276.541 70 276.261 70H266.937ZM310.674 70.84C306.81 70.84 303.422 69.916 300.51 68.068C297.598 66.22 295.358 63.644 293.79 60.34C292.222 56.98 291.438 53.116 291.438 48.748C291.438 44.436 292.25 40.628 293.874 37.324C295.554 33.964 297.85 31.36 300.762 29.512C303.73 27.608 307.034 26.656 310.674 26.656C313.082 26.656 315.238 27.076 317.142 27.916C319.046 28.7 320.53 29.624 321.594 30.688C321.762 30.856 321.93 30.912 322.098 30.856C322.266 30.8 322.35 30.66 322.35 30.436V11.284C322.35 11.004 322.49 10.864 322.77 10.864H332.01C332.29 10.864 332.43 11.004 332.43 11.284V69.58C332.43 69.86 332.29 70 332.01 70H324.03C323.526 70 323.246 69.86 323.19 69.58L322.35 66.892C322.294 66.724 322.154 66.668 321.93 66.724C321.706 66.724 321.538 66.78 321.426 66.892C320.418 67.9 318.878 68.824 316.806 69.664C314.734 70.448 312.69 70.84 310.674 70.84ZM312.354 61.6C315.602 61.6 318.066 60.452 319.746 58.156C321.482 55.804 322.35 52.668 322.35 48.748C322.35 40.18 319.018 35.896 312.354 35.896C308.882 35.896 306.194 37.072 304.29 39.424C302.442 41.72 301.518 44.828 301.518 48.748C301.518 52.668 302.442 55.804 304.29 58.156C306.194 60.452 308.882 61.6 312.354 61.6ZM356.123 70.84C352.091 70.84 348.507 69.916 345.371 68.068C342.291 66.22 339.883 63.616 338.147 60.256C336.467 56.896 335.627 53.06 335.627 48.748C335.627 44.38 336.467 40.544 338.147 37.24C339.883 33.88 342.291 31.276 345.371 29.428C348.507 27.58 352.091 26.656 356.123 26.656C360.155 26.656 363.711 27.58 366.791 29.428C369.927 31.276 372.335 33.88 374.015 37.24C375.751 40.6 376.619 44.436 376.619 48.748C376.619 49.924 376.479 51.072 376.199 52.192C376.087 52.472 375.947 52.612 375.779 52.612H346.547C346.267 52.612 346.127 52.752 346.127 53.032C346.127 55.384 347.051 57.4 348.899 59.08C350.803 60.76 353.211 61.6 356.123 61.6C360.323 61.6 363.039 60.34 364.271 57.82C364.439 57.54 364.663 57.4 364.943 57.4H374.771C374.883 57.4 374.995 57.456 375.107 57.568C375.219 57.624 375.247 57.736 375.191 57.904C374.183 61.88 371.943 65.044 368.471 67.396C365.055 69.692 360.939 70.84 356.123 70.84ZM365.531 44.212C365.755 44.212 365.867 44.1 365.867 43.876C365.867 42.644 365.503 41.412 364.775 40.18C364.103 38.948 363.011 37.94 361.499 37.156C360.043 36.316 358.251 35.896 356.123 35.896C353.995 35.896 352.175 36.316 350.663 37.156C349.151 37.996 348.003 39.032 347.219 40.264C346.491 41.496 346.127 42.7 346.127 43.876C346.127 44.1 346.239 44.212 346.463 44.212H365.531ZM380.132 70C379.852 70 379.712 69.86 379.712 69.58V27.916C379.712 27.636 379.852 27.496 380.132 27.496H388.28C388.448 27.496 388.588 27.524 388.7 27.58C388.812 27.636 388.896 27.748 388.952 27.916L389.792 30.52C389.904 30.744 390.044 30.884 390.212 30.94C390.38 30.94 390.548 30.828 390.716 30.604C391.5 29.596 392.928 28.7 395 27.916C397.072 27.076 398.976 26.656 400.712 26.656C406.872 26.656 411.352 28.532 414.152 32.284C417.008 35.98 418.436 40.768 418.436 46.648V69.58C418.436 69.86 418.296 70 418.016 70H408.776C408.496 70 408.356 69.86 408.356 69.58V46.648C408.356 43.792 407.572 41.3 406.004 39.172C404.436 36.988 402.112 35.896 399.032 35.896C395.952 35.896 393.628 36.848 392.06 38.752C390.548 40.656 389.792 43.008 389.792 45.808V69.58C389.792 69.86 389.652 70 389.372 70H380.132ZM197.184 146.84C192.872 146.84 189.176 145.916 186.096 144.068C183.016 142.22 180.664 139.644 179.04 136.34C177.416 132.98 176.604 129.116 176.604 124.748C176.604 118.028 178.424 112.68 182.064 108.704C185.704 104.672 190.744 102.656 197.184 102.656C202.504 102.656 206.9 103.972 210.372 106.604C213.9 109.236 216.028 112.792 216.756 117.272C216.812 117.44 216.784 117.58 216.672 117.692C216.56 117.804 216.448 117.86 216.336 117.86H206.844C206.564 117.86 206.368 117.72 206.256 117.44C204.744 113.52 201.72 111.56 197.184 111.56C193.768 111.56 191.164 112.792 189.372 115.256C187.636 117.664 186.768 120.828 186.768 124.748C186.768 128.668 187.636 131.86 189.372 134.324C191.164 136.732 193.768 137.936 197.184 137.936C199.872 137.936 201.888 137.46 203.232 136.508C204.576 135.556 205.64 134.072 206.424 132.056C206.536 131.776 206.732 131.636 207.012 131.636H216.504C216.616 131.636 216.728 131.692 216.84 131.804C216.952 131.916 216.98 132.056 216.924 132.224C216.028 136.928 213.844 140.54 210.372 143.06C206.956 145.58 202.56 146.84 197.184 146.84ZM239.019 146.84C234.707 146.84 230.983 145.916 227.847 144.068C224.711 142.22 222.303 139.644 220.623 136.34C218.999 132.98 218.187 129.116 218.187 124.748C218.187 120.38 218.999 116.544 220.623 113.24C222.303 109.88 224.711 107.276 227.847 105.428C230.983 103.58 234.707 102.656 239.019 102.656C243.331 102.656 247.055 103.58 250.191 105.428C253.327 107.276 255.735 109.88 257.415 113.24C259.095 116.544 259.935 120.38 259.935 124.748C259.935 129.116 259.095 132.98 257.415 136.34C255.735 139.644 253.327 142.22 250.191 144.068C247.055 145.916 243.331 146.84 239.019 146.84ZM239.019 137.6C242.547 137.6 245.235 136.48 247.083 134.24C248.931 131.944 249.855 128.78 249.855 124.748C249.855 120.716 248.931 117.58 247.083 115.34C245.235 113.044 242.547 111.896 239.019 111.896C235.547 111.896 232.887 113.044 231.039 115.34C229.191 117.58 228.267 120.716 228.267 124.748C228.267 128.78 229.191 131.944 231.039 134.24C232.887 136.48 235.547 137.6 239.019 137.6ZM264.353 146C264.073 146 263.933 145.86 263.933 145.58V103.916C263.933 103.636 264.073 103.496 264.353 103.496H272.333C272.613 103.496 272.809 103.552 272.921 103.664C273.033 103.72 273.117 103.86 273.173 104.084L274.013 106.52C274.069 106.744 274.181 106.856 274.349 106.856C274.517 106.856 274.657 106.8 274.769 106.688C275.721 105.736 277.205 104.84 279.221 104C281.237 103.104 283.141 102.656 284.933 102.656C287.341 102.656 289.469 103.104 291.317 104C293.165 104.896 294.649 106.1 295.769 107.612C295.881 107.724 295.993 107.78 296.105 107.78C296.273 107.78 296.413 107.724 296.525 107.612C297.981 106.1 299.577 104.896 301.313 104C303.105 103.104 305.233 102.656 307.697 102.656C313.129 102.656 317.301 104.252 320.213 107.444C323.125 110.58 324.581 115.368 324.581 121.808V145.58C324.581 145.86 324.441 146 324.161 146H314.921C314.641 146 314.501 145.86 314.501 145.58V122.312C314.501 119.4 313.885 116.936 312.653 114.92C311.477 112.904 309.545 111.896 306.857 111.896C301.817 111.896 299.297 115.368 299.297 122.312V145.58C299.297 145.86 299.157 146 298.877 146H289.637C289.357 146 289.217 145.86 289.217 145.58V122.312C289.217 119.4 288.601 116.936 287.369 114.92C286.193 112.904 284.261 111.896 281.573 111.896C276.533 111.896 274.013 115.368 274.013 122.312V145.58C274.013 145.86 273.873 146 273.593 146H264.353ZM330.792 162.632C330.512 162.632 330.372 162.492 330.372 162.212V103.916C330.372 103.636 330.512 103.496 330.792 103.496H339.108C339.388 103.496 339.556 103.636 339.612 103.916L340.452 106.604C340.508 106.772 340.62 106.884 340.788 106.94C340.956 106.996 341.124 106.94 341.292 106.772C342.356 105.708 343.924 104.756 345.996 103.916C348.068 103.076 350.112 102.656 352.128 102.656C355.992 102.656 359.38 103.58 362.292 105.428C365.204 107.276 367.444 109.88 369.012 113.24C370.58 116.544 371.364 120.38 371.364 124.748C371.364 129.06 370.524 132.896 368.844 136.256C367.22 139.56 364.924 142.164 361.956 144.068C359.044 145.916 355.768 146.84 352.128 146.84C349.72 146.84 347.536 146.42 345.576 145.58C343.616 144.684 342.16 143.76 341.208 142.808C341.096 142.696 340.928 142.668 340.704 142.724C340.536 142.78 340.452 142.892 340.452 143.06V162.212C340.452 162.492 340.312 162.632 340.032 162.632H330.792ZM350.448 137.6C353.92 137.6 356.58 136.452 358.428 134.156C360.332 131.804 361.284 128.668 361.284 124.748C361.284 120.828 360.332 117.72 358.428 115.424C356.58 113.072 353.92 111.896 350.448 111.896C347.2 111.896 344.708 113.072 342.972 115.424C341.292 117.72 340.452 120.828 340.452 124.748C340.452 133.316 343.784 137.6 350.448 137.6ZM393.125 146.84C386.573 146.84 381.841 144.992 378.929 141.296C376.017 137.544 374.561 132.728 374.561 126.848V103.916C374.561 103.636 374.701 103.496 374.981 103.496H384.221C384.501 103.496 384.641 103.636 384.641 103.916V126.848C384.641 129.704 385.425 132.224 386.993 134.408C388.561 136.536 390.885 137.6 393.965 137.6C397.045 137.6 399.341 136.648 400.853 134.744C402.421 132.84 403.205 130.488 403.205 127.688V103.916C403.205 103.636 403.345 103.496 403.625 103.496H412.949C413.173 103.496 413.285 103.636 413.285 103.916V145.58C413.285 145.86 413.145 146 412.865 146H404.801C404.633 146 404.465 145.972 404.297 145.916C404.185 145.86 404.101 145.72 404.045 145.496L403.205 142.976C403.149 142.808 403.009 142.696 402.785 142.64C402.617 142.584 402.449 142.668 402.281 142.892C401.441 143.956 400.125 144.88 398.333 145.664C396.597 146.448 394.861 146.84 393.125 146.84ZM434.553 146C430.129 146 426.937 145.076 424.977 143.228C423.017 141.38 422.037 138.356 422.037 134.156V112.736C422.037 112.456 421.897 112.316 421.617 112.316H414.729C414.449 112.316 414.309 112.176 414.309 111.896V103.916C414.309 103.636 414.449 103.496 414.729 103.496H421.617C421.897 103.496 422.037 103.356 422.037 103.076V91.736C422.037 91.456 422.177 91.316 422.457 91.316H431.697C431.977 91.316 432.117 91.456 432.117 91.736V103.076C432.117 103.356 432.257 103.496 432.537 103.496H441.105C441.385 103.496 441.525 103.636 441.525 103.916V111.896C441.525 112.176 441.385 112.316 441.105 112.316H432.537C432.257 112.316 432.117 112.456 432.117 112.736V134.072C432.117 134.912 432.397 135.584 432.957 136.088C433.573 136.536 434.301 136.76 435.141 136.76H441.105C441.385 136.76 441.525 136.9 441.525 137.18V145.58C441.525 145.86 441.385 146 441.105 146H434.553ZM445.78 146C445.5 146 445.36 145.86 445.36 145.58V103.916C445.36 103.636 445.5 103.496 445.78 103.496H455.02C455.3 103.496 455.44 103.636 455.44 103.916V145.58C455.44 145.86 455.3 146 455.02 146H445.78ZM445.36 97.952C445.08 97.952 444.94 97.812 444.94 97.532V87.284C444.94 87.004 445.08 86.864 445.36 86.864H455.44C455.72 86.864 455.86 87.004 455.86 87.284V97.532C455.86 97.812 455.72 97.952 455.44 97.952H445.36ZM462.508 146C462.228 146 462.088 145.86 462.088 145.58V103.916C462.088 103.636 462.228 103.496 462.508 103.496H470.656C470.824 103.496 470.964 103.524 471.076 103.58C471.188 103.636 471.272 103.748 471.328 103.916L472.168 106.52C472.28 106.744 472.42 106.884 472.588 106.94C472.756 106.94 472.924 106.828 473.092 106.604C473.876 105.596 475.304 104.7 477.376 103.916C479.448 103.076 481.352 102.656 483.088 102.656C489.248 102.656 493.728 104.532 496.528 108.284C499.384 111.98 500.812 116.768 500.812 122.648V145.58C500.812 145.86 500.672 146 500.392 146H491.152C490.872 146 490.732 145.86 490.732 145.58V122.648C490.732 119.792 489.948 117.3 488.38 115.172C486.812 112.988 484.488 111.896 481.408 111.896C478.328 111.896 476.004 112.848 474.436 114.752C472.924 116.656 472.168 119.008 472.168 121.808V145.58C472.168 145.86 472.028 146 471.748 146H462.508ZM524.852 163.472C521.38 163.472 518.188 162.828 515.276 161.54C512.364 160.308 510.068 158.628 508.388 156.5C506.764 154.372 505.952 152.076 505.952 149.612C505.952 149.332 506.092 149.192 506.372 149.192H515.444C515.668 149.192 515.836 149.332 515.948 149.612C516.06 150.116 516.424 150.732 517.04 151.46C517.712 152.188 518.692 152.832 519.98 153.392C521.268 153.952 522.892 154.232 524.852 154.232C528.492 154.232 531.124 153.336 532.748 151.544C534.428 149.752 535.268 147.484 535.268 144.74V142.976C535.268 142.808 535.184 142.724 535.016 142.724C534.848 142.668 534.708 142.668 534.596 142.724C533.7 143.62 532.216 144.544 530.144 145.496C528.072 146.392 525.748 146.84 523.172 146.84C519.644 146.84 516.424 145.916 513.512 144.068C510.6 142.164 508.276 139.532 506.54 136.172C504.86 132.812 504.02 129.004 504.02 124.748C504.02 120.492 504.86 116.684 506.54 113.324C508.276 109.964 510.6 107.36 513.512 105.512C516.424 103.608 519.644 102.656 523.172 102.656C525.524 102.656 527.68 103.02 529.64 103.748C531.656 104.476 533.308 105.456 534.596 106.688C534.708 106.8 534.848 106.856 535.016 106.856C535.184 106.856 535.296 106.744 535.352 106.52L536.108 104C536.164 103.776 536.276 103.636 536.444 103.58C536.612 103.524 536.808 103.496 537.032 103.496H544.928C545.208 103.496 545.348 103.636 545.348 103.916V144.74C545.348 148.436 544.452 151.684 542.66 154.484C540.868 157.34 538.404 159.552 535.268 161.12C532.188 162.688 528.716 163.472 524.852 163.472ZM524.852 137.6C531.796 137.6 535.268 133.316 535.268 124.748C535.268 120.828 534.372 117.72 532.58 115.424C530.844 113.072 528.268 111.896 524.852 111.896C521.38 111.896 518.72 113.072 516.872 115.424C515.024 117.72 514.1 120.828 514.1 124.748C514.1 128.668 515.024 131.804 516.872 134.156C518.72 136.452 521.38 137.6 524.852 137.6Z" fill="black"/>
<path d="M78.5508 109.488C90.713 109.488 101.405 115.782 107.549 125.289C107.969 125.94 108.18 126.266 108.452 126.266C108.724 126.266 108.935 125.94 109.356 125.289C115.5 115.781 126.192 109.488 138.354 109.488H140.805C141.276 109.488 141.512 109.488 141.658 109.635C141.805 109.781 141.805 110.017 141.805 110.489C141.803 113.041 141.792 114.442 141.687 115.644C140.373 130.656 128.471 142.558 113.459 143.872C113.339 143.882 113.218 143.891 113.093 143.899C113.069 143.901 113.051 143.921 113.052 143.945C113.053 143.97 113.032 143.99 113.007 143.99H109.603C109.194 143.99 108.811 143.988 108.452 143.988C108.093 143.988 107.711 143.99 107.303 143.99H103.898C103.873 143.99 103.853 143.97 103.853 143.945C103.853 143.921 103.835 143.901 103.811 143.899C103.687 143.891 103.566 143.882 103.446 143.872C88.4343 142.558 76.5321 130.656 75.2188 115.644C75.1136 114.442 75.102 113.041 75.1007 110.489C75.1005 110.017 75.1004 109.781 75.2469 109.635C75.3933 109.488 75.6291 109.488 76.1006 109.488H78.5508Z" fill="#42BB69"/>
<path d="M11.8464 64.2411C24.0087 64.2411 34.7002 70.5346 40.8443 80.0421C41.2652 80.6934 41.4756 81.0191 41.7478 81.0191C42.02 81.0191 42.2304 80.6934 42.6513 80.0421C48.7954 70.5344 59.4878 64.2411 71.6501 64.2411H74.1003C74.5719 64.2411 74.8076 64.2411 74.9541 64.3876C75.1005 64.5342 75.1004 64.7702 75.1002 65.2422C75.0989 67.7943 75.0873 69.1954 74.9822 70.3973C73.6688 85.4093 61.7666 97.3115 46.7546 98.6249C46.635 98.6353 46.5134 98.6438 46.3889 98.6523C46.365 98.6539 46.3466 98.6737 46.3474 98.6977C46.3482 98.7227 46.3281 98.743 46.303 98.743H42.8982C42.4896 98.743 42.1071 98.7413 41.7478 98.7411C41.3888 98.7413 41.0066 98.743 40.5984 98.743H37.1936C37.1685 98.743 37.1483 98.7227 37.1487 98.6977C37.1491 98.6737 37.1306 98.6539 37.1068 98.6523C36.9826 98.6438 36.8612 98.6353 36.7419 98.6249C21.7299 97.3115 9.82778 85.4093 8.5144 70.3973C8.40927 69.1954 8.39768 67.7943 8.3964 65.2422C8.39616 64.7702 8.39604 64.5342 8.54251 64.3876C8.68897 64.2411 8.92473 64.2411 9.39624 64.2411H11.8464Z" fill="#42BB69"/>
<path d="M78.5508 22.7258C90.713 22.7258 101.405 29.0194 107.549 38.5269C107.969 39.1782 108.18 39.5038 108.452 39.5038C108.724 39.5038 108.935 39.1782 109.356 38.5269C115.5 29.0191 126.192 22.7259 138.354 22.7258H140.805C141.276 22.7258 141.512 22.7258 141.658 22.8724C141.805 23.0189 141.805 23.2549 141.805 23.7269C141.803 26.279 141.792 27.6801 141.687 28.8821C140.373 43.8941 128.471 55.7962 113.459 57.1096C113.339 57.1201 113.218 57.1285 113.093 57.137C113.069 57.1386 113.051 57.1585 113.052 57.1824C113.053 57.2075 113.032 57.2278 113.007 57.2278H109.603C109.194 57.2278 108.811 57.2261 108.452 57.2258C108.093 57.2261 107.711 57.2278 107.303 57.2278H103.898C103.873 57.2278 103.853 57.2075 103.853 57.1824C103.853 57.1585 103.835 57.1386 103.811 57.137C103.687 57.1285 103.566 57.1201 103.446 57.1096C88.4343 55.7962 76.5321 43.8941 75.2188 28.8821C75.1136 27.6801 75.102 26.279 75.1007 23.7269C75.1005 23.2549 75.1004 23.0189 75.2469 22.8724C75.3933 22.7258 75.6291 22.7258 76.1006 22.7258H78.5508Z" fill="#42BB69"/>
<path d="M119.931 74.9695C121.004 74.9695 122.046 75.1013 123.042 75.3495C123.465 75.455 123.515 76.0128 123.138 76.231C117.213 79.6539 112.421 84.818 109.46 91.0238C109.446 91.052 109.436 91.0813 109.428 91.1115C109.218 91.8985 108.936 92.656 108.588 93.3758C108.574 93.4056 108.53 93.4038 108.518 93.3731C108.505 93.3411 108.459 93.3411 108.446 93.3732C108.434 93.4039 108.391 93.4057 108.376 93.376C108.028 92.656 107.745 91.8987 107.535 91.1115C107.527 91.0813 107.516 91.052 107.503 91.0238C104.541 84.8183 99.7512 79.6539 93.8266 76.231C93.4489 76.0128 93.4993 75.4549 93.9225 75.3495C94.9186 75.1013 95.9606 74.9695 97.0334 74.9695C101.682 74.9695 105.752 77.4423 108.002 81.1438C108.215 81.4937 108.748 81.4937 108.961 81.1438C111.211 77.4422 115.283 74.9695 119.931 74.9695Z" fill="#42BB69"/>
<path d="M53.2268 120.216C54.2995 120.216 55.3417 120.348 56.3377 120.596C56.761 120.702 56.8114 121.26 56.4337 121.478C50.5087 124.901 45.717 130.065 42.7558 136.271C42.7423 136.299 42.7316 136.328 42.7236 136.358C42.5137 137.145 42.2321 137.903 41.884 138.623C41.8696 138.653 41.8263 138.651 41.8138 138.62C41.8008 138.588 41.7546 138.588 41.7419 138.62C41.7297 138.651 41.6866 138.653 41.6722 138.623C41.3239 137.903 41.0406 137.146 40.8306 136.358C40.8226 136.328 40.8119 136.299 40.7984 136.271C37.8371 130.065 33.0471 124.901 27.1225 121.478C26.7448 121.26 26.7952 120.702 27.2184 120.596C28.2145 120.348 29.2565 120.216 30.3293 120.216C34.9776 120.216 39.048 122.689 41.2981 126.391C41.5108 126.741 42.0443 126.741 42.257 126.391C44.5073 122.689 48.5784 120.216 53.2268 120.216Z" fill="#42BB69"/>
<path d="M53.2268 33.4542C54.2995 33.4543 55.3417 33.5861 56.3377 33.8342C56.761 33.9397 56.8114 34.4975 56.4337 34.7157C50.5087 38.1387 45.717 43.3028 42.7558 49.5086C42.7423 49.5367 42.7316 49.5661 42.7236 49.5962C42.5137 50.3832 42.2321 51.1408 41.884 51.8605C41.8696 51.8904 41.8263 51.8885 41.8138 51.8578C41.8008 51.8259 41.7546 51.8258 41.7419 51.8579C41.7297 51.8886 41.6866 51.8905 41.6722 51.8607C41.3239 51.1408 41.0406 50.3834 40.8306 49.5962C40.8226 49.5661 40.8119 49.5367 40.7984 49.5086C37.8371 43.303 33.0471 38.1386 27.1225 34.7157C26.7448 34.4975 26.7952 33.9397 27.2184 33.8342C28.2145 33.586 29.2565 33.4543 30.3293 33.4542C34.9776 33.4542 39.048 35.927 41.2981 39.6286C41.5108 39.9785 42.0443 39.9785 42.257 39.6286C44.5073 35.9269 48.5784 33.4542 53.2268 33.4542Z" fill="#42BB69"/>
</svg>
