<?xml version="1.0" encoding="UTF-8"?>
<svg id="Layer_2" data-name="Layer 2" xmlns="http://www.w3.org/2000/svg" viewBox="0 0 1138.27 334.57">
  <defs>
    <style>
      .cls-1 {
        fill: none;
        stroke: #2e4ae3;
        stroke-miterlimit: 10;
        stroke-width: 3.28px;
      }
    </style>
  </defs>
  <g id="Layer_1-2" data-name="Layer 1">
    <g>
      <g>
        <path class="cls-1" d="M576.14,283.24c-3.98,0-7.89-.02-11.72-.05s-7.59-.08-11.28-.15-7.31-.15-10.86-.25c-3.55-.1-7.04-.21-10.46-.34-3.42-.13-6.77-.27-10.06-.43-3.29-.16-6.52-.33-9.68-.51-3.17-.19-6.27-.38-9.31-.6-3.04-.21-6.03-.44-8.96-.68-2.93-.24-5.8-.49-8.61-.75-2.81-.26-5.57-.54-8.28-.83s-5.36-.59-7.96-.9c-2.6-.31-5.15-.63-7.64-.97-2.5-.33-4.94-.68-7.34-1.03s-4.75-.72-7.05-1.1c-2.3-.38-4.56-.76-6.77-1.16s-4.38-.8-6.5-1.22c-2.12-.42-4.2-.84-6.23-1.27-2.03-.43-4.03-.88-5.98-1.33-1.95-.45-3.86-.91-5.73-1.38-1.87-.47-3.7-.94-5.5-1.43s-3.55-.98-5.27-1.48c-1.72-.5-3.4-1.01-5.05-1.52-1.65-.52-3.26-1.04-4.83-1.57-1.58-.53-3.12-1.07-4.63-1.61-1.51-.54-2.98-1.09-4.43-1.65-1.44-.56-2.86-1.12-4.24-1.69-1.38-.57-2.73-1.15-4.05-1.73-1.32-.58-2.61-1.17-3.87-1.76-1.26-.59-2.5-1.19-3.7-1.8s-2.39-1.22-3.54-1.83c-1.15-.62-2.28-1.24-3.38-1.86-1.1-.63-2.17-1.26-3.22-1.89-1.05-.64-2.08-1.28-3.08-1.92s-1.98-1.3-2.94-1.95c-.96-.65-1.89-1.31-2.8-1.98-.91-.66-1.8-1.33-2.67-2s-1.71-1.35-2.54-2.03-1.63-1.36-2.42-2.05c-.79-.69-1.55-1.38-2.3-2.07-.75-.69-1.48-1.39-2.19-2.09s-1.41-1.41-2.08-2.11c-.68-.71-1.34-1.42-1.98-2.13-.64-.71-1.27-1.43-1.88-2.15-.61-.72-1.21-1.44-1.79-2.17-.58-.73-1.15-1.46-1.7-2.19-.55-.73-1.09-1.47-1.61-2.2s-1.03-1.48-1.53-2.22-.98-1.49-1.45-2.23c-.47-.75-.93-1.5-1.38-2.25-.45-.75-.88-1.5-1.31-2.26-.43-.76-.84-1.51-1.24-2.27s-.8-1.52-1.18-2.28c-.38-.76-.76-1.53-1.12-2.29-.36-.77-.72-1.53-1.06-2.3s-.68-1.54-1.01-2.31-.65-1.55-.96-2.32c-.31-.78-.61-1.55-.91-2.33-.3-.78-.58-1.56-.87-2.34s-.56-1.56-.83-2.35-.53-1.57-.79-2.35c-.26-.79-.51-1.57-.75-2.36-.25-.79-.49-1.58-.72-2.37s-.46-1.58-.69-2.37c-.23-.79-.45-1.58-.66-2.38-.22-.79-.43-1.59-.64-2.38-.21-.79-.42-1.59-.62-2.38-.2-.8-.4-1.59-.6-2.39-.2-.8-.39-1.59-.59-2.39-.19-.8-.38-1.6-.57-2.39s-.38-1.6-.56-2.4c-.19-.8-.37-1.6-.55-2.4-.18-.8-.37-1.6-.55-2.4-.18-.8-.36-1.6-.55-2.4s-.36-1.6-.55-2.4c-.18-.8-.37-1.6-.55-2.4-.18-.8-.37-1.6-.56-2.4s-.37-1.6-.56-2.4c-.19-.8-.38-1.6-.58-2.4s-.39-1.6-.59-2.4c-.2-.8-.4-1.6-.6-2.4-.2-.8-.41-1.6-.62-2.39-.21-.8-.43-1.59-.65-2.39s-.44-1.59-.67-2.39-.46-1.59-.7-2.38c-.24-.79-.48-1.59-.73-2.38-.25-.79-.5-1.58-.76-2.38-.26-.79-.52-1.58-.79-2.37-.27-.79-.55-1.58-.83-2.37-.28-.79-.57-1.57-.87-2.36-.3-.79-.6-1.57-.92-2.35s-.64-1.57-.96-2.35c-.33-.78-.67-1.56-1.01-2.34-.35-.78-.7-1.56-1.07-2.33s-.74-1.55-1.12-2.32c-.38-.77-.78-1.54-1.18-2.31-.4-.77-.82-1.54-1.25-2.3s-.86-1.53-1.31-2.29-.91-1.52-1.38-2.28-.96-1.52-1.46-2.27-1.01-1.51-1.53-2.26c-.52-.75-1.06-1.5-1.61-2.25-.55-.75-1.12-1.49-1.7-2.23-.58-.74-1.18-1.48-1.79-2.22-.61-.74-1.24-1.47-1.88-2.2-.64-.73-1.3-1.46-1.97-2.19-.67-.73-1.37-1.45-2.07-2.17-.71-.72-1.44-1.44-2.18-2.15-.74-.71-1.51-1.43-2.29-2.13-.78-.71-1.58-1.41-2.4-2.11s-1.66-1.4-2.52-2.09c-.86-.69-1.74-1.39-2.64-2.07-.9-.69-1.83-1.37-2.77-2.05s-1.91-1.36-2.9-2.03-2-1.34-3.04-2c-1.04-.66-2.1-1.32-3.18-1.98-1.09-.65-2.2-1.31-3.33-1.95-1.14-.65-2.3-1.29-3.49-1.92s-2.4-1.27-3.65-1.89c-1.24-.63-2.51-1.25-3.81-1.86-1.3-.62-2.63-1.23-3.99-1.83-1.36-.6-2.75-1.2-4.16-1.8-1.42-.59-2.87-1.18-4.35-1.76s-2.99-1.16-4.54-1.73c-1.55-.57-3.12-1.13-4.74-1.69-1.61-.56-3.26-1.11-4.94-1.65s-3.4-1.08-5.16-1.61c-1.76-.53-3.55-1.05-5.38-1.57s-3.7-1.02-5.6-1.52-3.85-.99-5.84-1.48c-1.99-.48-4.01-.96-6.08-1.43-2.07-.47-4.18-.93-6.34-1.38-2.16-.45-4.35-.89-6.6-1.33-2.24-.43-4.53-.86-6.87-1.27-2.34-.41-4.72-.82-7.15-1.22s-4.91-.78-7.44-1.16c-2.53-.38-5.11-.74-7.73-1.1-2.63-.35-5.31-.7-8.04-1.03-2.73-.33-5.52-.66-8.36-.97-2.84-.31-5.74-.61-8.69-.9s-5.96-.56-9.03-.83c-3.07-.26-6.2-.51-9.38-.75-3.19-.24-6.44-.46-9.75-.68-3.31-.21-6.69-.41-10.12-.6s-6.94-.36-10.51-.51c-3.57-.16-7.21-.3-10.91-.43s-7.48-.24-11.33-.34c-3.85-.1-7.76-.18-11.75-.25s-8.05-.12-12.19-.15c-4.14-.03-8.36-.05-12.65-.05V1.64c4.25,0,8.42.02,12.52.05,4.1.03,8.12.08,12.07.15,3.95.07,7.82.15,11.63.25s7.54.21,11.2.34c3.66.13,7.26.27,10.79.43,3.53.16,6.99.33,10.39.51,3.4.19,6.74.38,10.01.6,3.27.21,6.48.44,9.64.68,3.15.24,6.24.49,9.27.75,3.03.26,6.01.54,8.93.83,2.92.29,5.78.59,8.59.9,2.81.31,5.56.63,8.26.97,2.7.33,5.35.68,7.94,1.03s5.14.72,7.64,1.1c2.5.38,4.94.76,7.34,1.16s4.75.8,7.05,1.22c2.3.42,4.56.84,6.78,1.27s4.38.88,6.51,1.33c2.13.45,4.21.91,6.25,1.38,2.04.47,4.04.94,6,1.43s3.88.98,5.76,1.48c1.88.5,3.72,1.01,5.52,1.52,1.8.52,3.57,1.04,5.3,1.57,1.73.53,3.42,1.07,5.08,1.61,1.66.54,3.28,1.09,4.87,1.65,1.59.56,3.14,1.12,4.67,1.69,1.52.57,3.01,1.15,4.47,1.73,1.46.58,2.88,1.17,4.28,1.76,1.4.59,2.76,1.19,4.1,1.8,1.34.6,2.64,1.22,3.92,1.83,1.28.62,2.53,1.24,3.75,1.86,1.22.63,2.42,1.26,3.59,1.89,1.17.64,2.31,1.28,3.43,1.92,1.12.65,2.21,1.3,3.28,1.95,1.07.65,2.11,1.31,3.13,1.98,1.02.66,2.01,1.33,2.99,2,.97.67,1.92,1.35,2.85,2.03.93.68,1.84,1.36,2.72,2.05.89.69,1.75,1.38,2.59,2.07.84.69,1.67,1.39,2.47,2.09.8.7,1.59,1.41,2.36,2.11.77.71,1.51,1.42,2.24,2.13.73.71,1.44,1.43,2.14,2.15s1.37,1.44,2.03,2.17,1.31,1.46,1.94,2.19,1.24,1.47,1.84,2.2c.6.74,1.18,1.48,1.75,2.22.57.74,1.12,1.49,1.66,2.23.54.75,1.07,1.5,1.58,2.25s1.01,1.5,1.5,2.26c.49.75.96,1.51,1.43,2.27s.91,1.52,1.35,2.28c.44.76.87,1.53,1.29,2.29.42.77.82,1.53,1.22,2.3.4.77.78,1.54,1.16,2.31s.74,1.55,1.1,2.32c.36.78.71,1.55,1.05,2.33.34.78.67,1.56.99,2.34s.64,1.56.94,2.35.61,1.57.9,2.35c.29.79.58,1.57.86,2.36.28.79.55,1.58.82,2.37.27.79.53,1.58.78,2.37.25.79.5,1.58.75,2.38.24.79.48,1.59.71,2.38.23.79.46,1.59.69,2.38.22.8.44,1.59.66,2.39.22.8.43,1.59.64,2.39.21.8.41,1.6.62,2.39.2.8.4,1.6.6,2.4.2.8.39,1.6.58,2.4.19.8.38,1.6.57,2.4.19.8.38,1.6.56,2.4.19.8.37,1.6.55,2.4.18.8.37,1.6.55,2.4.18.8.37,1.6.55,2.4.18.8.37,1.6.55,2.4.18.8.37,1.6.55,2.4.19.8.37,1.6.56,2.4.19.8.38,1.6.57,2.4s.38,1.6.58,2.39c.2.8.39,1.59.59,2.39s.4,1.59.61,2.39c.21.8.42,1.59.63,2.38.21.79.43,1.59.65,2.38.22.79.45,1.58.68,2.38s.47,1.58.71,2.37c.24.79.49,1.58.74,2.37.25.79.51,1.57.77,2.36.26.79.53,1.57.81,2.35s.56,1.56.84,2.35c.29.78.58,1.56.89,2.34s.61,1.56.93,2.33.65,1.55.98,2.32c.34.77.68,1.54,1.03,2.31s.72,1.54,1.09,2.3c.37.77.75,1.53,1.15,2.29s.79,1.52,1.21,2.28c.41.76.84,1.52,1.27,2.27.44.75.88,1.51,1.34,2.26.46.75.93,1.5,1.41,2.25.48.75.98,1.49,1.49,2.23.51.74,1.03,1.48,1.57,2.22s1.09,1.47,1.65,2.2c.56.73,1.14,1.46,1.74,2.19s1.2,1.45,1.83,2.17c.63.72,1.27,1.44,1.93,2.15s1.33,1.43,2.03,2.13c.69.71,1.4,1.41,2.13,2.11.73.7,1.47,1.4,2.24,2.09.76.69,1.55,1.39,2.35,2.07s1.63,1.37,2.47,2.05c.84.68,1.71,1.36,2.59,2.03.89.67,1.79,1.34,2.72,2,.93.66,1.88,1.32,2.85,1.98.97.65,1.97,1.3,2.99,1.95,1.02.65,2.07,1.29,3.14,1.92,1.07.64,2.16,1.27,3.28,1.89,1.12.63,2.27,1.25,3.44,1.86s2.37,1.23,3.6,1.83,2.48,1.2,3.77,1.8c1.28.59,2.6,1.18,3.94,1.76s2.72,1.16,4.12,1.73,2.84,1.13,4.31,1.69c1.47.56,2.97,1.11,4.5,1.65,1.53.54,3.1,1.08,4.7,1.61,1.6.53,3.24,1.05,4.91,1.57s3.38,1.02,5.13,1.52c1.75.5,3.53.99,5.35,1.48,1.82.48,3.68.96,5.58,1.43,1.9.47,3.84.93,5.82,1.38,1.98.45,4,.89,6.07,1.33s4.17.86,6.32,1.27c2.15.42,4.35.82,6.59,1.22s4.53.78,6.86,1.16c2.33.38,4.72.74,7.15,1.1,2.43.35,4.91.7,7.44,1.03,2.53.33,5.11.66,7.75.97,2.63.31,5.32.61,8.06.9,2.74.29,5.53.56,8.39.83s5.76.51,8.72.75c2.96.24,5.99.46,9.07.68,3.08.21,6.22.41,9.43.6,3.2.19,6.47.36,9.8.51,3.33.16,6.72.3,10.18.43s6.99.24,10.58.34,7.26.18,10.99.25c3.73.07,7.54.12,11.41.15s7.83.05,11.85.05c0,1.66,0,3.11,0,4.45v12.11Z"/>
        <path class="cls-1" d="M576.14,299.8c-3.94,0-7.8-.02-11.59-.05-3.79-.03-7.51-.08-11.16-.15-3.65-.07-7.23-.15-10.74-.25s-6.96-.21-10.33-.34-6.69-.27-9.94-.43c-3.25-.16-6.44-.33-9.56-.51-3.13-.19-6.19-.38-9.2-.6-3.01-.21-5.95-.44-8.84-.68s-5.72-.49-8.5-.75c-2.78-.26-5.5-.54-8.17-.83s-5.29-.59-7.85-.9c-2.56-.31-5.08-.63-7.54-.97s-4.88-.68-7.24-1.03c-2.37-.35-4.68-.72-6.95-1.1-2.27-.38-4.49-.76-6.67-1.16-2.18-.4-4.31-.8-6.4-1.22-2.09-.41-4.14-.84-6.14-1.27s-3.97-.88-5.89-1.33-3.8-.91-5.65-1.38c-1.84-.47-3.65-.94-5.41-1.43-1.77-.48-3.49-.98-5.19-1.48s-3.35-1.01-4.97-1.52c-1.62-.52-3.2-1.04-4.76-1.57-1.55-.53-3.07-1.07-4.55-1.61s-2.94-1.09-4.36-1.65c-1.42-.56-2.81-1.12-4.17-1.69-1.36-.57-2.69-1.15-3.98-1.73s-2.57-1.17-3.81-1.76c-1.24-.59-2.45-1.19-3.64-1.8-1.18-.6-2.34-1.22-3.47-1.83-1.13-.62-2.24-1.24-3.32-1.86-1.08-.63-2.13-1.26-3.16-1.89-1.03-.64-2.04-1.28-3.02-1.92-.98-.65-1.94-1.3-2.88-1.95-.94-.65-1.85-1.31-2.74-1.98s-1.76-1.33-2.61-2c-.85-.67-1.68-1.35-2.49-2.03s-1.6-1.36-2.37-2.05-1.52-1.38-2.26-2.07c-.73-.69-1.45-1.39-2.14-2.09-.7-.7-1.38-1.41-2.04-2.11-.66-.71-1.31-1.42-1.94-2.13-.63-.71-1.24-1.43-1.84-2.15-.6-.72-1.18-1.44-1.75-2.17s-1.12-1.46-1.66-2.19c-.54-.73-1.06-1.47-1.58-2.2-.51-.74-1.01-1.48-1.5-2.22-.49-.74-.96-1.49-1.42-2.23-.46-.75-.91-1.49-1.35-2.25-.44-.75-.86-1.5-1.28-2.26-.41-.75-.82-1.51-1.21-2.27s-.78-1.52-1.15-2.28c-.37-.76-.74-1.53-1.09-2.29-.35-.77-.7-1.53-1.04-2.3s-.66-1.54-.98-2.31c-.32-.77-.63-1.55-.93-2.32-.3-.78-.6-1.55-.89-2.33s-.57-1.56-.85-2.34c-.27-.78-.54-1.56-.81-2.35s-.52-1.57-.77-2.35c-.25-.79-.5-1.57-.73-2.36s-.47-1.58-.7-2.37c-.23-.79-.45-1.58-.68-2.37s-.44-1.58-.65-2.38c-.21-.79-.42-1.59-.63-2.38-.21-.79-.41-1.59-.61-2.38s-.4-1.59-.59-2.39c-.19-.8-.39-1.59-.58-2.39-.19-.8-.38-1.6-.57-2.39-.19-.8-.37-1.6-.56-2.4-.18-.8-.37-1.6-.55-2.4s-.36-1.6-.55-2.4c-.18-.8-.36-1.6-.55-2.4-.18-.8-.36-1.6-.55-2.4-.18-.8-.37-1.6-.55-2.4-.18-.8-.37-1.6-.56-2.4-.19-.8-.38-1.6-.57-2.4-.19-.8-.38-1.6-.58-2.4-.2-.8-.39-1.6-.59-2.4-.2-.8-.4-1.6-.61-2.4-.21-.8-.42-1.6-.63-2.39-.21-.8-.43-1.59-.65-2.39-.22-.8-.45-1.59-.68-2.39s-.47-1.59-.71-2.38-.49-1.59-.74-2.38c-.25-.79-.51-1.58-.77-2.38-.26-.79-.53-1.58-.81-2.37-.28-.79-.56-1.58-.85-2.37-.29-.79-.59-1.57-.89-2.36-.3-.79-.62-1.57-.94-2.35-.32-.78-.65-1.57-.98-2.35-.34-.78-.68-1.56-1.04-2.34s-.72-1.56-1.09-2.33c-.37-.78-.76-1.55-1.15-2.32s-.8-1.54-1.21-2.31c-.41-.77-.84-1.54-1.27-2.3s-.88-1.53-1.34-2.29c-.46-.76-.93-1.52-1.41-2.28-.48-.76-.98-1.52-1.49-2.27-.51-.75-1.03-1.51-1.56-2.26s-1.08-1.5-1.65-2.25c-.56-.75-1.14-1.49-1.73-2.23s-1.2-1.48-1.82-2.22c-.62-.74-1.26-1.47-1.92-2.2-.65-.73-1.33-1.46-2.01-2.19-.69-.73-1.39-1.45-2.12-2.17s-1.46-1.44-2.22-2.15c-.76-.71-1.54-1.43-2.33-2.13-.8-.71-1.61-1.41-2.45-2.11-.84-.7-1.69-1.4-2.57-2.09-.88-.69-1.77-1.39-2.69-2.07-.92-.69-1.86-1.37-2.82-2.05-.96-.68-1.95-1.36-2.95-2.03-1.01-.67-2.04-1.34-3.09-2-1.06-.66-2.13-1.32-3.24-1.98s-2.23-1.31-3.39-1.95-2.34-1.29-3.55-1.92c-1.21-.64-2.44-1.27-3.71-1.89-1.26-.63-2.55-1.25-3.88-1.86-1.32-.62-2.67-1.23-4.05-1.83-1.38-.6-2.79-1.2-4.23-1.8s-2.91-1.18-4.42-1.76c-1.5-.58-3.04-1.16-4.61-1.73-1.57-.57-3.17-1.13-4.81-1.69-1.64-.56-3.31-1.11-5.02-1.65-1.71-.54-3.45-1.08-5.23-1.61-1.78-.53-3.6-1.05-5.45-1.57s-3.75-1.02-5.68-1.52-3.91-.99-5.92-1.48-4.07-.96-6.17-1.43c-2.1-.47-4.24-.93-6.42-1.38-2.18-.45-4.41-.89-6.69-1.33s-4.59-.86-6.96-1.27c-2.37-.41-4.78-.82-7.24-1.22s-4.97-.78-7.53-1.16c-2.56-.38-5.17-.74-7.83-1.1s-5.38-.7-8.14-1.03c-2.77-.33-5.59-.66-8.46-.97s-5.81-.61-8.8-.9c-2.99-.29-6.03-.56-9.14-.83-3.1-.26-6.27-.51-9.49-.75s-6.51-.46-9.86-.68c-3.35-.21-6.76-.41-10.24-.6-3.48-.19-7.02-.36-10.63-.51-3.61-.16-7.29-.3-11.03-.43-3.75-.13-7.56-.24-11.45-.34s-7.85-.18-11.88-.25c-4.03-.07-8.14-.12-12.32-.15s-8.44-.05-12.78-.05v-16.56c4.29,0,8.51.02,12.65.05,4.14.03,8.2.08,12.19.15s7.91.15,11.75.25c3.85.1,7.62.21,11.33.34s7.34.27,10.91.43c3.57.16,7.07.33,10.51.51s6.81.38,10.12.6c3.31.21,6.56.44,9.75.68,3.19.24,6.32.49,9.38.75,3.07.26,6.08.54,9.03.83s5.85.59,8.69.9c2.84.31,5.63.63,8.36.97,2.73.33,5.41.68,8.04,1.03,2.63.35,5.21.72,7.73,1.1,2.53.38,5.01.76,7.44,1.16s4.81.8,7.15,1.22c2.34.42,4.62.84,6.87,1.27,2.24.43,4.44.88,6.6,1.33,2.16.45,4.27.91,6.34,1.38,2.07.47,4.1.94,6.08,1.43,1.99.48,3.93.98,5.84,1.48s3.77,1.01,5.6,1.52,3.62,1.04,5.38,1.57c1.75.53,3.47,1.07,5.16,1.61s3.33,1.09,4.94,1.65c1.61.56,3.19,1.12,4.74,1.69,1.55.57,3.06,1.15,4.54,1.73s2.93,1.17,4.35,1.76c1.42.59,2.81,1.19,4.16,1.8,1.36.6,2.69,1.22,3.99,1.83,1.3.62,2.57,1.24,3.81,1.86,1.24.63,2.46,1.26,3.65,1.89s2.35,1.28,3.49,1.92c1.14.65,2.25,1.3,3.33,1.95,1.09.65,2.15,1.31,3.18,1.98,1.04.66,2.05,1.33,3.04,2s1.96,1.35,2.9,2.03,1.87,1.36,2.77,2.05c.9.69,1.78,1.38,2.64,2.07.86.69,1.7,1.39,2.52,2.09s1.62,1.41,2.4,2.11c.78.71,1.54,1.42,2.29,2.13.74.71,1.47,1.43,2.18,2.15.71.72,1.4,1.44,2.07,2.17.67.73,1.33,1.46,1.97,2.19.64.73,1.27,1.47,1.88,2.2.61.74,1.21,1.48,1.79,2.22.58.74,1.15,1.49,1.7,2.23.55.75,1.09,1.5,1.61,2.25.52.75,1.04,1.5,1.53,2.26s.98,1.51,1.46,2.27.93,1.52,1.38,2.28.89,1.53,1.31,2.29.84,1.53,1.25,2.3c.41.77.8,1.54,1.18,2.31.38.77.76,1.55,1.12,2.32s.72,1.55,1.07,2.33c.35.78.68,1.56,1.01,2.34.33.78.65,1.56.96,2.35s.62,1.57.92,2.35c.3.79.59,1.57.87,2.36.28.79.56,1.58.83,2.37.27.79.54,1.58.79,2.37.26.79.51,1.58.76,2.38.25.79.49,1.59.73,2.38.24.79.47,1.59.7,2.38s.45,1.59.67,2.39.43,1.59.65,2.39c.21.8.42,1.6.62,2.39.2.8.41,1.6.6,2.4.2.8.4,1.6.59,2.4s.39,1.6.58,2.4c.19.8.38,1.6.56,2.4s.37,1.6.56,2.4c.18.8.37,1.6.55,2.4.18.8.37,1.6.55,2.4s.36,1.6.55,2.4c.18.8.37,1.6.55,2.4.18.8.37,1.6.55,2.4.19.8.37,1.6.56,2.4s.38,1.6.57,2.39c.19.8.39,1.59.59,2.39.2.8.4,1.59.6,2.39.2.8.41,1.59.62,2.38.21.79.42,1.59.64,2.38.22.79.44,1.58.66,2.38.23.79.46,1.58.69,2.37s.47,1.58.72,2.37c.25.79.5,1.57.75,2.36.26.79.52,1.57.79,2.35s.54,1.57.83,2.35.57,1.56.87,2.34c.3.78.6,1.56.91,2.33.31.78.63,1.55.96,2.32s.66,1.54,1.01,2.31.7,1.54,1.06,2.3c.36.77.74,1.53,1.12,2.29.38.76.78,1.52,1.18,2.28s.82,1.52,1.24,2.27c.42.75.86,1.51,1.31,2.26.45.75.91,1.5,1.38,2.25.47.75.96,1.49,1.45,2.23s1.01,1.48,1.53,2.22,1.06,1.47,1.61,2.2c.55.73,1.12,1.46,1.7,2.19.58.73,1.18,1.45,1.79,2.17.61.72,1.24,1.44,1.88,2.15.64.71,1.3,1.43,1.98,2.13.68.71,1.37,1.41,2.08,2.11s1.44,1.4,2.19,2.09c.75.69,1.52,1.39,2.3,2.07.79.69,1.59,1.37,2.42,2.05s1.67,1.36,2.54,2.03,1.76,1.34,2.67,2c.91.66,1.84,1.32,2.8,1.98.96.65,1.93,1.31,2.94,1.95s2.03,1.29,3.08,1.92c1.05.64,2.12,1.27,3.22,1.89,1.1.63,2.23,1.25,3.38,1.86,1.15.62,2.33,1.23,3.54,1.83s2.44,1.2,3.7,1.8c1.26.59,2.55,1.18,3.87,1.76,1.32.58,2.67,1.16,4.05,1.73,1.38.57,2.79,1.13,4.24,1.69,1.44.56,2.92,1.11,4.43,1.65,1.51.54,3.05,1.08,4.63,1.61,1.58.53,3.19,1.05,4.83,1.57,1.65.52,3.33,1.02,5.05,1.52,1.72.5,3.47.99,5.27,1.48s3.62.96,5.5,1.43c1.87.47,3.78.93,5.73,1.38,1.95.45,3.94.89,5.98,1.33,2.03.43,4.11.86,6.23,1.27,2.12.41,4.29.82,6.5,1.22s4.47.78,6.77,1.16c2.3.38,4.65.74,7.05,1.1s4.84.7,7.34,1.03c2.5.33,5.04.66,7.64.97,2.6.31,5.25.61,7.96.9s5.46.56,8.28.83c2.81.26,5.68.51,8.61.75,2.93.24,5.91.46,8.96.68,3.04.21,6.15.41,9.31.6,3.17.19,6.39.36,9.68.51,3.29.16,6.64.3,10.06.43,3.42.13,6.9.24,10.46.34,3.55.1,7.17.18,10.86.25s7.45.12,11.28.15,7.74.05,11.72.05v16.57Z"/>
        <path class="cls-1" d="M576.14,316.37c-3.89,0-7.71-.02-11.45-.05-3.75-.03-7.42-.08-11.03-.15-3.61-.07-7.14-.15-10.61-.25s-6.87-.21-10.21-.34c-3.34-.13-6.61-.27-9.82-.43-3.21-.16-6.36-.33-9.45-.51-3.09-.19-6.11-.38-9.08-.6s-5.88-.44-8.73-.68c-2.85-.24-5.65-.49-8.39-.75-2.74-.26-5.43-.54-8.06-.83s-5.22-.59-7.75-.9c-2.53-.31-5.01-.63-7.44-.97-2.43-.33-4.81-.68-7.14-1.03s-4.62-.72-6.86-1.1-4.43-.76-6.58-1.16c-2.15-.4-4.25-.8-6.31-1.22-2.06-.41-4.08-.84-6.05-1.27s-3.91-.88-5.8-1.33c-1.89-.45-3.75-.91-5.56-1.38s-3.59-.94-5.33-1.43c-1.74-.48-3.44-.98-5.1-1.48-1.67-.5-3.29-1.01-4.89-1.52-1.59-.52-3.15-1.04-4.68-1.57-1.53-.53-3.02-1.07-4.48-1.61-1.46-.54-2.89-1.09-4.28-1.65-1.4-.56-2.76-1.12-4.09-1.69-1.33-.57-2.64-1.15-3.91-1.73s-2.52-1.17-3.74-1.76c-1.22-.59-2.41-1.19-3.57-1.8-1.16-.61-2.3-1.22-3.41-1.83-1.11-.62-2.19-1.24-3.25-1.86-1.06-.63-2.09-1.26-3.1-1.89-1.01-.64-2-1.28-2.96-1.92-.96-.65-1.9-1.3-2.82-1.95-.92-.65-1.81-1.31-2.69-1.98-.87-.66-1.73-1.33-2.56-2-.83-.67-1.65-1.35-2.44-2.03-.79-.68-1.57-1.36-2.32-2.05-.75-.69-1.49-1.38-2.21-2.07-.72-.69-1.42-1.39-2.1-2.09-.68-.7-1.35-1.41-1.99-2.11s-1.28-1.42-1.89-2.13-1.22-1.43-1.8-2.15c-.58-.72-1.15-1.44-1.71-2.17s-1.1-1.45-1.62-2.19c-.53-.73-1.04-1.47-1.54-2.2-.5-.74-.99-1.48-1.46-2.22-.47-.74-.94-1.49-1.39-2.23-.45-.75-.89-1.49-1.31-2.25-.43-.75-.84-1.5-1.25-2.26s-.8-1.51-1.18-2.27c-.38-.76-.76-1.52-1.12-2.28-.36-.76-.72-1.53-1.06-2.29-.35-.77-.68-1.53-1.01-2.3s-.65-1.54-.96-2.31c-.31-.77-.61-1.55-.91-2.32-.3-.78-.58-1.55-.87-2.33s-.56-1.56-.82-2.34c-.27-.78-.53-1.56-.79-2.35-.26-.78-.51-1.57-.75-2.35-.24-.79-.48-1.57-.72-2.36s-.46-1.58-.69-2.37c-.22-.79-.45-1.58-.66-2.37-.22-.79-.43-1.58-.64-2.38-.21-.79-.41-1.59-.62-2.38-.2-.79-.4-1.59-.6-2.38s-.39-1.59-.58-2.39c-.19-.8-.38-1.59-.57-2.39-.19-.8-.37-1.6-.56-2.39s-.37-1.6-.55-2.4c-.18-.8-.36-1.6-.54-2.4-.18-.8-.36-1.6-.54-2.4-.18-.8-.36-1.6-.54-2.4s-.36-1.6-.55-2.4-.37-1.6-.55-2.4-.37-1.6-.56-2.4-.38-1.6-.57-2.4c-.19-.8-.39-1.6-.58-2.4-.2-.8-.4-1.6-.6-2.4-.2-.8-.41-1.6-.62-2.4-.21-.8-.42-1.6-.64-2.39-.22-.8-.44-1.59-.66-2.39-.23-.8-.45-1.59-.69-2.39s-.47-1.59-.72-2.38c-.24-.79-.49-1.59-.75-2.38-.26-.79-.52-1.58-.79-2.38-.27-.79-.54-1.58-.82-2.37-.28-.79-.57-1.58-.86-2.37s-.6-1.57-.91-2.36c-.31-.79-.63-1.57-.95-2.35-.33-.78-.66-1.57-1-2.35-.34-.78-.7-1.56-1.06-2.34-.36-.78-.73-1.56-1.11-2.33-.38-.78-.77-1.55-1.17-2.32-.4-.77-.81-1.54-1.23-2.31s-.86-1.54-1.3-2.3-.9-1.53-1.37-2.29c-.47-.76-.95-1.52-1.44-2.28-.49-.76-1-1.52-1.52-2.27s-1.05-1.51-1.6-2.26c-.55-.75-1.11-1.5-1.68-2.25-.57-.75-1.16-1.49-1.77-2.23-.6-.74-1.22-1.48-1.86-2.22-.64-.74-1.29-1.47-1.95-2.2-.67-.73-1.35-1.46-2.05-2.19s-1.42-1.45-2.16-2.17c-.74-.72-1.49-1.44-2.26-2.15s-1.56-1.43-2.38-2.13-1.64-1.41-2.49-2.11c-.85-.7-1.72-1.4-2.61-2.09-.89-.69-1.8-1.39-2.74-2.07-.93-.69-1.89-1.37-2.87-2.05-.98-.68-1.98-1.36-3.01-2.03-1.03-.67-2.07-1.34-3.15-2-1.07-.66-2.17-1.32-3.29-1.98s-2.27-1.31-3.45-1.95c-1.17-.65-2.38-1.29-3.6-1.92-1.23-.64-2.48-1.27-3.77-1.89-1.28-.63-2.6-1.25-3.94-1.86-1.34-.62-2.71-1.23-4.11-1.83-1.4-.6-2.83-1.2-4.29-1.8-1.46-.59-2.96-1.18-4.48-1.76s-3.09-1.16-4.68-1.73-3.22-1.13-4.88-1.69c-1.66-.56-3.36-1.11-5.09-1.65-1.73-.54-3.5-1.08-5.31-1.61-1.81-.53-3.65-1.05-5.53-1.57s-3.8-1.02-5.76-1.52c-1.96-.5-3.96-.99-6-1.48-2.04-.48-4.13-.96-6.25-1.43-2.13-.47-4.29-.93-6.51-1.38-2.21-.45-4.47-.89-6.77-1.33-2.3-.43-4.65-.86-7.05-1.27s-4.84-.82-7.33-1.22-5.03-.78-7.63-1.16c-2.59-.38-5.23-.74-7.93-1.1-2.69-.35-5.44-.7-8.24-1.03-2.8-.33-5.66-.66-8.57-.97-2.91-.31-5.88-.61-8.9-.9-3.02-.29-6.11-.56-9.25-.83s-6.34-.51-9.6-.75-6.59-.46-9.97-.68-6.84-.41-10.35-.6c-3.52-.19-7.1-.36-10.75-.51-3.65-.16-7.37-.3-11.15-.43-3.79-.13-7.64-.24-11.57-.34-3.93-.1-7.93-.18-12.01-.25-4.08-.07-8.23-.12-12.45-.15-4.23-.03-8.53-.05-12.91-.05v-16.57c4.34,0,8.6.02,12.78.05s8.29.08,12.32.15c4.03.07,7.99.15,11.88.25s7.7.21,11.45.34c3.75.13,7.42.27,11.03.43,3.61.16,7.15.33,10.63.51,3.48.19,6.89.38,10.24.6,3.35.21,6.64.44,9.86.68s6.39.49,9.49.75c3.1.26,6.15.54,9.14.83,2.99.29,5.92.59,8.8.9s5.7.63,8.46.97c2.77.33,5.48.68,8.14,1.03s5.27.72,7.83,1.1c2.56.38,5.07.76,7.53,1.16s4.87.8,7.24,1.22c2.37.42,4.68.84,6.96,1.27s4.5.88,6.69,1.33c2.18.45,4.32.91,6.42,1.38,2.1.47,4.15.94,6.17,1.43s3.99.98,5.92,1.48,3.83,1.01,5.68,1.52,3.67,1.04,5.45,1.57c1.78.53,3.52,1.07,5.23,1.61,1.71.54,3.38,1.09,5.02,1.65,1.64.56,3.24,1.12,4.81,1.69,1.57.57,3.11,1.15,4.61,1.73,1.5.58,2.98,1.17,4.42,1.76s2.85,1.19,4.23,1.8c1.38.6,2.73,1.22,4.05,1.83,1.32.62,2.61,1.24,3.88,1.86,1.26.63,2.5,1.26,3.71,1.89,1.21.64,2.39,1.28,3.55,1.92s2.28,1.3,3.39,1.95,2.18,1.31,3.24,1.98c1.06.66,2.09,1.33,3.09,2,1.01.67,1.99,1.35,2.95,2.03.96.68,1.9,1.36,2.82,2.05.92.69,1.81,1.38,2.69,2.07.88.69,1.73,1.39,2.57,2.09.84.7,1.65,1.41,2.45,2.11.8.71,1.57,1.42,2.33,2.13.76.71,1.5,1.43,2.22,2.15s1.43,1.44,2.12,2.17c.69.73,1.36,1.46,2.01,2.19.65.73,1.29,1.47,1.92,2.2.62.74,1.23,1.48,1.82,2.22s1.17,1.49,1.73,2.23c.56.75,1.11,1.5,1.65,2.25s1.06,1.5,1.56,2.26c.51.75,1,1.51,1.49,2.27.48.76.95,1.52,1.41,2.28.46.76.91,1.53,1.34,2.29s.86,1.53,1.27,2.3c.41.77.82,1.54,1.21,2.31s.78,1.55,1.15,2.32c.37.78.74,1.55,1.09,2.33s.7,1.56,1.04,2.34c.34.78.66,1.56.98,2.35.32.78.63,1.57.94,2.35.3.79.6,1.57.89,2.36.29.79.57,1.58.85,2.37.28.79.55,1.58.81,2.37.26.79.52,1.58.77,2.38.25.79.5,1.59.74,2.38s.48,1.59.71,2.38.46,1.59.68,2.39c.22.8.44,1.59.65,2.39.21.8.42,1.6.63,2.39.21.8.41,1.6.61,2.4.2.8.4,1.6.59,2.4.2.8.39,1.6.58,2.4.19.8.38,1.6.57,2.4.19.8.37,1.6.56,2.4.18.8.37,1.6.55,2.4.18.8.36,1.6.55,2.4.18.8.36,1.6.55,2.4.18.8.36,1.6.55,2.4s.37,1.6.55,2.4c.18.8.37,1.6.56,2.4.19.8.38,1.6.57,2.39.19.8.38,1.59.58,2.39.19.8.39,1.59.59,2.39s.4,1.59.61,2.38c.21.79.42,1.59.63,2.38.21.79.43,1.58.65,2.38s.45,1.58.68,2.37c.23.79.46,1.58.7,2.37s.48,1.57.73,2.36c.25.79.51,1.57.77,2.35s.53,1.56.81,2.35c.27.78.56,1.56.85,2.34s.58,1.56.89,2.33c.3.78.61,1.55.93,2.32.32.77.65,1.54.98,2.31s.68,1.54,1.04,2.3c.35.77.72,1.53,1.09,2.29.37.76.76,1.52,1.15,2.28s.8,1.52,1.21,2.27c.41.75.84,1.51,1.28,2.26.44.75.89,1.5,1.35,2.25.46.75.93,1.49,1.42,2.23.49.74.98,1.48,1.5,2.22.51.74,1.04,1.47,1.58,2.2.54.73,1.09,1.46,1.66,2.19s1.15,1.45,1.75,2.17c.6.72,1.21,1.44,1.84,2.15.63.71,1.28,1.43,1.94,2.13.66.71,1.34,1.41,2.04,2.11.7.7,1.41,1.4,2.14,2.09.73.69,1.48,1.39,2.26,2.07s1.56,1.37,2.37,2.05,1.64,1.36,2.49,2.03c.85.67,1.72,1.34,2.61,2s1.81,1.32,2.74,1.98c.94.65,1.9,1.3,2.88,1.95.98.65,1.99,1.29,3.02,1.92,1.03.64,2.08,1.27,3.16,1.89,1.08.63,2.18,1.25,3.32,1.86,1.13.62,2.29,1.23,3.47,1.83,1.18.6,2.4,1.2,3.64,1.8,1.24.59,2.51,1.18,3.81,1.76s2.62,1.16,3.98,1.73c1.36.57,2.75,1.13,4.17,1.69,1.42.56,2.87,1.11,4.36,1.65s3,1.08,4.55,1.61c1.55.53,3.14,1.05,4.76,1.57,1.62.52,3.28,1.02,4.97,1.52s3.42.99,5.19,1.48c1.77.48,3.57.96,5.41,1.43,1.84.47,3.72.93,5.65,1.38s3.89.89,5.89,1.33,4.05.86,6.14,1.27c2.09.42,4.22.82,6.4,1.22,2.18.4,4.4.78,6.67,1.16,2.27.38,4.59.74,6.95,1.1,2.37.35,4.78.7,7.24,1.03s4.98.66,7.54.97c2.56.31,5.18.61,7.85.9s5.39.56,8.17.83c2.78.26,5.61.51,8.5.75s5.84.46,8.84.68c3.01.21,6.07.41,9.2.6,3.13.19,6.31.36,9.56.51,3.25.16,6.56.3,9.94.43s6.82.24,10.33.34,7.09.18,10.74.25c3.65.07,7.37.12,11.16.15,3.79.03,7.65.05,11.59.05v16.57Z"/>
        <path class="cls-1" d="M576.14,332.93c-3.85,0-7.62-.02-11.32-.05-3.7-.03-7.33-.08-10.9-.15-3.56-.07-7.06-.15-10.49-.25s-6.79-.21-10.09-.34c-3.3-.13-6.53-.27-9.7-.43-3.17-.16-6.28-.33-9.33-.51-3.05-.19-6.04-.38-8.97-.6s-5.8-.44-8.62-.68c-2.82-.24-5.58-.49-8.28-.75s-5.36-.54-7.96-.83c-2.6-.29-5.15-.59-7.64-.9-2.5-.31-4.94-.63-7.34-.97-2.4-.33-4.74-.68-7.04-1.03-2.3-.35-4.55-.72-6.76-1.1s-4.37-.76-6.48-1.16c-2.12-.4-4.19-.8-6.22-1.22-2.03-.41-4.02-.84-5.96-1.27s-3.85-.88-5.72-1.33c-1.86-.45-3.69-.91-5.48-1.38-1.79-.47-3.53-.94-5.25-1.43-1.71-.48-3.38-.98-5.02-1.48s-3.24-1.01-4.81-1.52c-1.57-.52-3.1-1.04-4.6-1.57s-2.97-1.07-4.4-1.61-2.84-1.09-4.21-1.65c-1.37-.56-2.71-1.12-4.02-1.69-1.31-.57-2.59-1.15-3.84-1.73-1.25-.58-2.48-1.17-3.67-1.76-1.2-.59-2.36-1.19-3.51-1.8s-2.26-1.22-3.35-1.83-2.15-1.24-3.19-1.86c-1.04-.63-2.05-1.26-3.04-1.89-.99-.64-1.96-1.28-2.9-1.92-.94-.65-1.87-1.3-2.77-1.95-.9-.65-1.78-1.31-2.63-1.98-.86-.66-1.69-1.33-2.51-2-.82-.67-1.61-1.35-2.39-2.03-.78-.68-1.53-1.36-2.27-2.05s-1.46-1.38-2.16-2.07c-.7-.69-1.39-1.39-2.05-2.09-.67-.7-1.32-1.41-1.95-2.11-.63-.71-1.25-1.42-1.85-2.13-.6-.71-1.19-1.43-1.76-2.15-.57-.72-1.13-1.44-1.67-2.17-.54-.73-1.07-1.46-1.58-2.19-.51-.73-1.01-1.47-1.5-2.2s-.96-1.48-1.42-2.22-.91-1.49-1.35-2.23c-.44-.75-.86-1.49-1.28-2.25-.42-.75-.82-1.5-1.21-2.26-.39-.75-.78-1.51-1.15-2.27s-.74-1.52-1.09-2.28-.7-1.53-1.04-2.29-.66-1.53-.98-2.3-.63-1.54-.93-2.31c-.3-.77-.6-1.55-.89-2.32-.29-.78-.57-1.55-.84-2.33s-.54-1.56-.8-2.34c-.26-.78-.52-1.56-.77-2.35-.25-.78-.49-1.57-.73-2.35-.24-.79-.47-1.57-.7-2.36-.23-.79-.45-1.58-.67-2.37-.22-.79-.43-1.58-.65-2.37-.21-.79-.42-1.58-.62-2.38-.2-.79-.41-1.59-.6-2.38-.2-.79-.39-1.59-.59-2.38s-.38-1.59-.57-2.39c-.19-.8-.37-1.59-.56-2.39-.18-.8-.37-1.6-.55-2.39s-.36-1.6-.54-2.4c-.18-.8-.36-1.6-.54-2.4-.18-.8-.36-1.6-.54-2.4-.18-.8-.36-1.6-.54-2.4-.18-.8-.36-1.6-.54-2.4s-.37-1.6-.55-2.4c-.19-.8-.37-1.6-.56-2.4s-.38-1.6-.57-2.4c-.19-.8-.39-1.6-.59-2.4-.2-.8-.4-1.6-.6-2.4-.2-.8-.41-1.6-.62-2.4s-.43-1.6-.65-2.39c-.22-.8-.44-1.59-.67-2.39-.23-.8-.46-1.59-.7-2.39s-.48-1.59-.73-2.38-.5-1.59-.76-2.38c-.26-.79-.53-1.58-.8-2.38-.27-.79-.55-1.58-.84-2.37-.29-.79-.58-1.58-.88-2.37s-.61-1.57-.93-2.36-.64-1.57-.97-2.35c-.33-.78-.67-1.57-1.02-2.35s-.71-1.56-1.08-2.34c-.37-.78-.75-1.56-1.14-2.33-.39-.78-.79-1.55-1.2-2.32-.41-.77-.83-1.54-1.26-2.31-.43-.77-.87-1.54-1.33-2.3s-.92-1.53-1.4-2.29c-.48-.76-.97-1.52-1.47-2.28-.5-.76-1.02-1.52-1.55-2.27s-1.07-1.51-1.63-2.26c-.56-.75-1.13-1.5-1.71-2.25s-1.19-1.49-1.8-2.23c-.62-.74-1.25-1.48-1.89-2.22-.65-.74-1.31-1.47-1.99-2.2s-1.38-1.46-2.09-2.19-1.45-1.45-2.2-2.17c-.75-.72-1.52-1.44-2.31-2.15-.79-.71-1.59-1.43-2.42-2.13-.83-.71-1.67-1.41-2.54-2.11-.87-.7-1.75-1.4-2.66-2.09-.91-.69-1.84-1.39-2.79-2.07-.95-.69-1.92-1.37-2.92-2.05s-2.02-1.36-3.06-2.03-2.11-1.34-3.2-2c-1.09-.66-2.21-1.32-3.35-1.98s-2.31-1.31-3.5-1.95c-1.19-.65-2.41-1.29-3.66-1.92-1.25-.64-2.52-1.27-3.83-1.89-1.3-.63-2.64-1.25-4-1.86-1.36-.62-2.75-1.23-4.18-1.83-1.42-.61-2.88-1.2-4.36-1.8-1.48-.59-3-1.18-4.55-1.76-1.55-.58-3.13-1.16-4.75-1.73-1.62-.57-3.27-1.13-4.95-1.69-1.69-.56-3.41-1.11-5.16-1.65-1.76-.54-3.55-1.08-5.38-1.61-1.83-.53-3.7-1.05-5.61-1.57s-3.85-1.02-5.84-1.52-4.01-.99-6.08-1.48c-2.07-.48-4.18-.96-6.33-1.43-2.15-.47-4.35-.93-6.59-1.38-2.24-.45-4.53-.89-6.86-1.33s-4.71-.86-7.14-1.27c-2.43-.41-4.9-.82-7.42-1.22-2.52-.4-5.1-.78-7.72-1.16-2.62-.38-5.3-.74-8.03-1.1-2.73-.35-5.51-.7-8.34-1.03-2.83-.33-5.72-.66-8.67-.97-2.94-.31-5.95-.61-9.01-.9s-6.18-.56-9.35-.83c-3.18-.26-6.41-.51-9.71-.75s-6.66-.46-10.08-.68c-3.43-.21-6.91-.41-10.47-.6-3.55-.19-7.18-.36-10.86-.51-3.69-.16-7.45-.3-11.27-.43s-7.73-.24-11.7-.34-8.01-.18-12.13-.25c-4.12-.07-8.31-.12-12.58-.15-4.27-.03-8.62-.05-13.05-.05v-16.56c4.38,0,8.69.02,12.91.05,4.23.03,8.38.08,12.45.15,4.08.07,8.08.15,12.01.25,3.93.1,7.79.21,11.57.34,3.79.13,7.5.27,11.15.43,3.65.16,7.23.33,10.75.51,3.52.19,6.97.38,10.35.6s6.71.44,9.97.68,6.46.49,9.6.75,6.22.54,9.25.83c3.02.29,5.99.59,8.9.9,2.91.31,5.77.63,8.57.97,2.8.33,5.55.68,8.24,1.03,2.69.35,5.34.72,7.93,1.1,2.59.38,5.13.76,7.63,1.16s4.94.8,7.33,1.22,4.75.84,7.05,1.27c2.3.43,4.56.88,6.77,1.33,2.21.45,4.38.91,6.51,1.38,2.13.47,4.21.94,6.25,1.43,2.04.48,4.04.98,6,1.48,1.96.5,3.88,1.01,5.76,1.52s3.73,1.04,5.53,1.57c1.81.53,3.57,1.07,5.31,1.61,1.73.54,3.43,1.09,5.09,1.65,1.66.56,3.29,1.12,4.88,1.69s3.15,1.15,4.68,1.73,3.02,1.17,4.48,1.76c1.46.59,2.89,1.19,4.29,1.8,1.4.61,2.77,1.22,4.11,1.83,1.34.62,2.65,1.24,3.94,1.86,1.28.63,2.54,1.26,3.77,1.89,1.23.64,2.43,1.28,3.6,1.92,1.17.65,2.32,1.3,3.45,1.95s2.22,1.31,3.29,1.98c1.07.66,2.12,1.33,3.15,2,1.03.67,2.03,1.35,3.01,2.03.98.68,1.94,1.36,2.87,2.05.93.69,1.85,1.38,2.74,2.07.89.69,1.76,1.39,2.61,2.09.85.7,1.68,1.41,2.49,2.11s1.6,1.42,2.38,2.13,1.53,1.43,2.26,2.15c.74.72,1.45,1.44,2.16,2.17s1.39,1.45,2.05,2.19c.67.73,1.32,1.47,1.95,2.2.64.74,1.25,1.48,1.86,2.22.6.74,1.19,1.49,1.77,2.23.57.75,1.13,1.49,1.68,2.25.55.75,1.08,1.5,1.6,2.26s1.02,1.51,1.52,2.27c.49.76.97,1.52,1.44,2.28.47.76.92,1.53,1.37,2.29s.88,1.53,1.3,2.3.83,1.54,1.23,2.31c.4.77.79,1.55,1.17,2.32.38.78.75,1.55,1.11,2.33.36.78.71,1.56,1.06,2.34.34.78.68,1.56,1,2.35.33.78.64,1.57.95,2.35.31.79.61,1.57.91,2.36s.58,1.58.86,2.37c.28.79.56,1.58.82,2.37.27.79.53,1.58.79,2.38.26.79.51,1.59.75,2.38.24.79.48,1.59.72,2.38s.46,1.59.69,2.39c.23.8.45,1.59.66,2.39.22.8.43,1.6.64,2.39.21.8.41,1.6.62,2.4.2.8.4,1.6.6,2.4.2.8.39,1.6.58,2.4.19.8.38,1.6.57,2.4s.37,1.6.56,2.4.37,1.6.55,2.4.36,1.6.55,2.4.36,1.6.54,2.4c.18.8.36,1.6.54,2.4.18.8.36,1.6.54,2.4.18.8.37,1.6.55,2.4s.37,1.6.56,2.39c.19.8.38,1.59.57,2.39.19.8.39,1.59.58,2.39s.4,1.59.6,2.38c.2.79.41,1.59.62,2.38.21.79.42,1.58.64,2.38.22.79.44,1.58.66,2.37.22.79.45,1.58.69,2.37s.47,1.57.72,2.36c.24.79.49,1.57.75,2.35.26.78.52,1.57.79,2.35.27.78.54,1.56.82,2.34s.57,1.56.87,2.33c.3.78.6,1.55.91,2.32.31.77.63,1.54.96,2.31s.66,1.54,1.01,2.3c.34.77.7,1.53,1.06,2.29.36.76.74,1.52,1.12,2.28.38.76.78,1.52,1.18,2.27s.82,1.51,1.25,2.26c.43.75.86,1.5,1.31,2.25.45.75.91,1.49,1.39,2.23.47.74.96,1.48,1.46,2.22.5.74,1.01,1.47,1.54,2.2.53.73,1.07,1.46,1.62,2.19s1.12,1.45,1.71,2.17c.58.72,1.18,1.44,1.8,2.15s1.25,1.43,1.89,2.13,1.31,1.41,1.99,2.11c.68.7,1.38,1.4,2.1,2.09.72.69,1.45,1.39,2.21,2.07.75.69,1.53,1.37,2.32,2.05.79.68,1.6,1.36,2.44,2.03.83.67,1.69,1.34,2.56,2,.87.66,1.77,1.32,2.69,1.98.92.65,1.86,1.31,2.82,1.95.96.65,1.95,1.29,2.96,1.92,1.01.64,2.04,1.27,3.1,1.89,1.06.63,2.14,1.25,3.25,1.86,1.11.62,2.25,1.23,3.41,1.83,1.16.6,2.35,1.2,3.57,1.8,1.22.59,2.46,1.18,3.74,1.76s2.58,1.16,3.91,1.73c1.33.57,2.7,1.13,4.09,1.69,1.4.56,2.82,1.11,4.28,1.65,1.46.54,2.95,1.08,4.48,1.61,1.53.53,3.08,1.05,4.68,1.57,1.59.52,3.22,1.02,4.89,1.52,1.66.5,3.37.99,5.1,1.48,1.74.48,3.51.96,5.33,1.43s3.67.93,5.56,1.38c1.89.45,3.83.89,5.8,1.33s3.99.86,6.05,1.27c2.06.41,4.16.82,6.31,1.22,2.15.4,4.34.78,6.58,1.16s4.52.74,6.86,1.1,4.71.7,7.14,1.03c2.43.33,4.91.66,7.44.97,2.53.31,5.11.61,7.75.9s5.32.56,8.06.83c2.74.26,5.54.51,8.39.75,2.85.24,5.76.46,8.73.68s6,.41,9.08.6c3.09.19,6.24.36,9.45.51,3.21.16,6.48.3,9.82.43,3.34.13,6.74.24,10.21.34s7.01.18,10.61.25c3.61.07,7.28.12,11.03.15,3.75.03,7.56.05,11.45.05v16.56Z"/>
      </g>
      <g>
        <rect class="cls-1" x="996.51" y="266.68" width="140.12" height="16.56" transform="translate(2133.13 549.92) rotate(180)"/>
        <rect class="cls-1" x="856.38" y="266.68" width="140.12" height="16.56" transform="translate(1852.89 549.92) rotate(180)"/>
        <rect class="cls-1" x="716.26" y="266.68" width="140.12" height="16.56" transform="translate(1572.64 549.92) rotate(180)"/>
        <rect class="cls-1" x="576.14" y="266.68" width="140.12" height="16.56" transform="translate(1292.4 549.92) rotate(180)"/>
        <rect class="cls-1" x="996.51" y="283.24" width="140.12" height="16.56" transform="translate(2133.13 583.05) rotate(180)"/>
        <rect class="cls-1" x="856.38" y="283.24" width="140.12" height="16.56" transform="translate(1852.89 583.05) rotate(180)"/>
        <rect class="cls-1" x="716.26" y="283.24" width="140.12" height="16.56" transform="translate(1572.64 583.05) rotate(180)"/>
        <rect class="cls-1" x="576.14" y="283.24" width="140.12" height="16.56" transform="translate(1292.4 583.05) rotate(180)"/>
        <rect class="cls-1" x="996.51" y="299.8" width="140.12" height="16.56" transform="translate(2133.13 616.17) rotate(180)"/>
        <rect class="cls-1" x="856.38" y="299.8" width="140.12" height="16.56" transform="translate(1852.89 616.17) rotate(180)"/>
        <rect class="cls-1" x="716.26" y="299.8" width="140.12" height="16.56" transform="translate(1572.64 616.17) rotate(180)"/>
        <rect class="cls-1" x="576.14" y="299.8" width="140.12" height="16.56" transform="translate(1292.4 616.17) rotate(180)"/>
        <rect class="cls-1" x="996.51" y="316.37" width="140.12" height="16.56" transform="translate(2133.13 649.3) rotate(180)"/>
        <rect class="cls-1" x="856.38" y="316.37" width="140.12" height="16.56" transform="translate(1852.89 649.3) rotate(180)"/>
        <rect class="cls-1" x="716.26" y="316.37" width="140.12" height="16.56" transform="translate(1572.64 649.3) rotate(180)"/>
        <rect class="cls-1" x="576.14" y="316.37" width="140.12" height="16.56" transform="translate(1292.4 649.3) rotate(180)"/>
      </g>
    </g>
  </g>
</svg>