<svg width="1920" height="1080" viewBox="0 0 1920 1080" fill="none" xmlns="http://www.w3.org/2000/svg">
<g clip-path="url(#clip0_4039_6688)">
<path d="M467.668 638.951H297.508V662.445H467.668V638.951ZM301.462 642.905H463.829V658.607H301.462V642.905Z" fill="black"/>
<path d="M633.879 638.951H463.836V662.445H633.879V638.951ZM467.674 642.905H630.041V658.607H467.674V642.905Z" fill="black"/>
<path d="M800.09 638.951H630.047V662.445H800.207V638.951H800.09ZM633.885 642.905H796.252V658.607H633.885V642.905Z" fill="black"/>
<path d="M966.41 638.951H796.25V662.445H966.41V638.951ZM800.088 642.905H962.455V658.607H800.088V642.905Z" fill="black"/>
<path d="M467.668 619.411H297.508V642.905H467.668V619.411ZM301.462 623.249H463.829V638.951H301.462V623.249Z" fill="black"/>
<path d="M633.879 619.411H463.836V642.905H633.879V619.411ZM467.674 623.249H630.041V638.951H467.674V623.249Z" fill="black"/>
<path d="M800.09 619.411H630.047V642.905H800.207V619.411H800.09ZM633.885 623.249H796.252V638.951H633.885V623.249Z" fill="black"/>
<path d="M966.41 619.411H796.25V642.905H966.41V619.411ZM800.088 623.249H962.455V638.951H800.088V623.249Z" fill="black"/>
<path d="M467.668 599.756H297.508V623.25H467.668V599.756ZM301.462 603.594H463.829V619.412H301.462V603.594Z" fill="black"/>
<path d="M633.879 599.755H463.836V623.249H633.879V599.755ZM467.674 603.593H630.041V619.411H467.674V603.593Z" fill="black"/>
<path d="M800.09 599.756H630.047V623.25H800.207V599.756H800.09ZM633.885 603.594H796.252V619.412H633.885V603.594Z" fill="black"/>
<path d="M966.41 599.756H796.25V623.25H966.41V599.756ZM800.088 603.594H962.455V619.412H800.088V603.594Z" fill="black"/>
<path d="M467.668 580.098H297.508V603.593H467.668V580.098ZM301.462 583.937H463.829V599.638H301.462V583.937Z" fill="black"/>
<path d="M633.879 580.098H463.836V603.593H633.879V580.098ZM467.674 583.937H630.041V599.638H467.674V583.937Z" fill="black"/>
<path d="M800.09 580.098H630.047V603.593H800.207V580.098H800.09ZM633.885 583.937H796.252V599.638H633.885V583.937Z" fill="black"/>
<path d="M966.41 580.098H796.25V603.593H966.41V580.098ZM800.088 583.937H962.455V599.638H800.088V583.937Z" fill="black"/>
<path d="M467.668 717.576H297.508V741.07H467.668V717.576ZM301.462 721.53H463.829V737.232H301.462V721.53Z" fill="black"/>
<path d="M633.879 717.576H463.836V741.07H633.879V717.576ZM467.674 721.53H630.041V737.232H467.674V721.53Z" fill="black"/>
<path d="M800.09 717.576H630.047V741.07H800.207V717.576H800.09ZM633.885 721.53H796.252V737.232H633.885V721.53Z" fill="black"/>
<path d="M966.41 717.576H796.25V741.07H966.41V717.576ZM800.088 721.53H962.455V737.232H800.088V721.53Z" fill="black"/>
<path d="M467.668 697.92H297.508V721.414H467.668V697.92ZM301.462 701.874H463.829V717.576H301.462V701.874Z" fill="black"/>
<path d="M633.879 697.92H463.836V721.414H633.879V697.92ZM467.674 701.874H630.041V717.576H467.674V701.874Z" fill="black"/>
<path d="M800.09 697.92H630.047V721.414H800.207V697.92H800.09ZM633.885 701.874H796.252V717.576H633.885V701.874Z" fill="black"/>
<path d="M966.41 697.92H796.25V721.414H966.41V697.92ZM800.088 701.874H962.455V717.576H800.088V701.874Z" fill="black"/>
<path d="M467.668 678.263H297.508V701.758H467.668V678.263ZM301.462 682.218H463.829V697.92H301.462V682.218Z" fill="black"/>
<path d="M633.879 678.263H463.836V701.758H633.879V678.263ZM467.674 682.218H630.041V697.92H467.674V682.218Z" fill="black"/>
<path d="M800.09 678.263H630.047V701.758H800.207V678.263H800.09ZM633.885 682.218H796.252V697.92H633.885V682.218Z" fill="black"/>
<path d="M966.41 678.263H796.25V701.758H966.41V678.263ZM800.088 682.218H962.455V697.92H800.088V682.218Z" fill="black"/>
<path d="M467.668 658.607H297.508V682.218H467.668V658.607ZM301.462 662.562H463.829V678.263H301.462V662.562Z" fill="black"/>
<path d="M633.879 658.607H463.836V682.218H633.879V658.607ZM467.674 662.562H630.041V678.263H467.674V662.562Z" fill="black"/>
<path d="M800.09 658.607H630.047V682.218H800.207V658.607H800.09ZM633.885 662.562H796.252V678.263H633.885V662.562Z" fill="black"/>
<path d="M966.41 658.607H796.25V682.218H966.41V658.607ZM800.088 662.562H962.455V678.263H800.088V662.562Z" fill="black"/>
<path d="M467.668 560.443H297.508V583.938H467.668V560.443ZM301.462 564.281H463.829V579.983H301.462V564.281Z" fill="black"/>
<path d="M633.879 560.443H463.836V583.938H633.879V560.443ZM467.674 564.281H630.041V579.983H467.674V564.281Z" fill="black"/>
<path d="M800.09 560.443H630.047V583.938H800.207V560.443H800.09ZM633.885 564.281H796.252V579.983H633.885V564.281Z" fill="black"/>
<path d="M966.41 560.443H796.25V583.938H966.41V560.443ZM800.088 564.281H962.455V579.983H800.088V564.281Z" fill="black"/>
<path d="M467.668 540.787H297.508V564.281H467.668V540.787ZM301.462 544.625H463.829V560.327H301.462V544.625Z" fill="black"/>
<path d="M633.879 540.787H463.836V564.281H633.879V540.787ZM467.674 544.625H630.041V560.327H467.674V544.625Z" fill="black"/>
<path d="M800.09 540.787H630.047V564.281H800.207V540.787H800.09ZM633.885 544.625H796.252V560.327H633.885V544.625Z" fill="black"/>
<path d="M966.41 540.787H796.25V564.281H966.41V540.787ZM800.088 544.625H962.455V560.327H800.088V544.625Z" fill="black"/>
<path d="M467.668 521.131H297.508V544.625H467.668V521.131ZM301.462 524.969H463.829V540.67H301.462V524.969Z" fill="black"/>
<path d="M633.879 521.131H463.836V544.625H633.879V521.131ZM467.674 524.969H630.041V540.67H467.674V524.969Z" fill="black"/>
<path d="M800.09 521.131H630.047V544.625H800.207V521.131H800.09ZM633.885 524.969H796.252V540.67H633.885V524.969Z" fill="black"/>
<path d="M966.41 521.131H796.25V544.625H966.41V521.131ZM800.088 524.969H962.455V540.67H800.088V524.969Z" fill="black"/>
<path d="M467.668 501.475H297.508V524.97H467.668V501.475ZM301.462 505.314H463.829V521.015H301.462V505.314Z" fill="black"/>
<path d="M633.879 501.474H463.836V524.969H633.879V501.474ZM467.674 505.313H630.041V521.014H467.674V505.313Z" fill="black"/>
<path d="M800.09 501.475H630.047V524.97H800.207V501.475H800.09ZM633.885 505.314H796.252V521.015H633.885V505.314Z" fill="black"/>
<path d="M966.41 501.475H796.25V524.97H966.41V501.475ZM800.088 505.314H962.455V521.015H800.088V505.314Z" fill="black"/>
<path d="M467.668 481.818H297.508V505.312H467.668V481.818ZM301.462 485.656H463.829V501.358H301.462V485.656Z" fill="black"/>
<path d="M633.879 481.818H463.836V505.312H633.879V481.818ZM467.674 485.656H630.041V501.358H467.674V485.656Z" fill="black"/>
<path d="M800.09 481.818H630.047V505.312H800.207V481.818H800.09ZM633.885 485.656H796.252V501.358H633.885V485.656Z" fill="black"/>
<path d="M966.41 481.818H796.25V505.312H966.41V481.818ZM800.088 485.656H962.455V501.358H800.088V485.656Z" fill="black"/>
<path d="M467.668 462.162H297.508V485.656H467.668V462.162ZM301.462 466H463.829V481.702H301.462V466Z" fill="black"/>
<path d="M633.879 462.162H463.836V485.656H633.879V462.162ZM467.674 466H630.041V481.702H467.674V466Z" fill="black"/>
<path d="M800.09 462.162H630.047V485.656H800.207V462.162H800.09ZM633.885 466H796.252V481.702H633.885V466Z" fill="black"/>
<path d="M966.41 462.162H796.25V485.656H966.41V462.162ZM800.088 466H962.455V481.702H800.088V466Z" fill="black"/>
<path d="M467.668 442.506H297.508V466H467.668V442.506ZM301.462 446.344H463.829V462.046H301.462V446.344Z" fill="black"/>
<path d="M633.879 442.506H463.836V466H633.879V442.506ZM467.674 446.344H630.041V462.046H467.674V446.344Z" fill="black"/>
<path d="M800.09 442.506H630.047V466H800.207V442.506H800.09ZM633.885 446.344H796.252V462.046H633.885V446.344Z" fill="black"/>
<path d="M966.41 442.506H796.25V466H966.41V442.506ZM800.088 446.344H962.455V462.046H800.088V446.344Z" fill="black"/>
<path d="M467.668 422.85H297.508V446.345H467.668V422.85ZM301.462 426.689H463.829V442.39H301.462V426.689Z" fill="black"/>
<path d="M633.879 422.85H463.836V446.345H633.879V422.85ZM467.674 426.689H630.041V442.39H467.674V426.689Z" fill="black"/>
<path d="M800.09 422.85H630.047V446.345H800.207V422.85H800.09ZM633.885 426.689H796.252V442.39H633.885V426.689Z" fill="black"/>
<path d="M966.41 422.85H796.25V446.345H966.41V422.85ZM800.088 426.689H962.455V442.39H800.088V426.689Z" fill="black"/>
</g>
<defs>
<clipPath id="clip0_4039_6688">
<rect width="1920" height="1080" fill="white"/>
</clipPath>
</defs>
</svg>
