<svg width="1920" height="1080" viewBox="0 0 1920 1080" fill="none" xmlns="http://www.w3.org/2000/svg">
<g clip-path="url(#clip0_4039_3889)">
<g clip-path="url(#clip1_4039_3889)">
<path d="M467.668 638.952H297.508V662.446H467.668V638.952ZM301.462 642.906H463.829V658.608H301.462V642.906Z" fill="black"/>
<path d="M633.879 638.952H463.836V662.446H633.879V638.952ZM467.674 642.906H630.041V658.608H467.674V642.906Z" fill="black"/>
<path d="M800.09 638.952H630.047V662.446H800.207V638.952H800.09ZM633.885 642.906H796.252V658.608H633.885V642.906Z" fill="black"/>
<path d="M966.41 638.952H796.25V662.446H966.41V638.952ZM800.088 642.906H962.455V658.608H800.088V642.906Z" fill="black"/>
<path d="M467.668 619.413H297.508V642.907H467.668V619.413ZM301.462 623.251H463.829V638.953H301.462V623.251Z" fill="black"/>
<path d="M633.879 619.413H463.836V642.907H633.879V619.413ZM467.674 623.251H630.041V638.953H467.674V623.251Z" fill="black"/>
<path d="M800.09 619.413H630.047V642.907H800.207V619.413H800.09ZM633.885 623.251H796.252V638.953H633.885V623.251Z" fill="black"/>
<path d="M966.41 619.413H796.25V642.907H966.41V619.413ZM800.088 623.251H962.455V638.953H800.088V623.251Z" fill="black"/>
<path d="M467.668 599.757H297.508V623.251H467.668V599.757ZM301.462 603.595H463.829V619.413H301.462V603.595Z" fill="black"/>
<path d="M633.879 599.757H463.836V623.251H633.879V599.757ZM467.674 603.595H630.041V619.413H467.674V603.595Z" fill="black"/>
<path d="M800.09 599.757H630.047V623.251H800.207V599.757H800.09ZM633.885 603.595H796.252V619.413H633.885V603.595Z" fill="black"/>
<path d="M966.41 599.757H796.25V623.251H966.41V599.757ZM800.088 603.595H962.455V619.413H800.088V603.595Z" fill="black"/>
<path d="M467.668 580.099H297.508V603.594H467.668V580.099ZM301.462 583.938H463.829V599.639H301.462V583.938Z" fill="black"/>
<path d="M633.879 580.099H463.836V603.594H633.879V580.099ZM467.674 583.938H630.041V599.639H467.674V583.938Z" fill="black"/>
<path d="M800.09 580.099H630.047V603.594H800.207V580.099H800.09ZM633.885 583.938H796.252V599.639H633.885V583.938Z" fill="black"/>
<path d="M966.41 580.099H796.25V603.594H966.41V580.099ZM800.088 583.938H962.455V599.639H800.088V583.938Z" fill="black"/>
<g opacity="0.5">
<path d="M467.668 717.576H297.508V741.07H467.668V717.576ZM301.462 721.53H463.829V737.232H301.462V721.53Z" fill="black"/>
<path d="M633.879 717.576H463.836V741.07H633.879V717.576ZM467.674 721.53H630.041V737.232H467.674V721.53Z" fill="black"/>
<path d="M800.09 717.576H630.047V741.07H800.207V717.576H800.09ZM633.885 721.53H796.252V737.232H633.885V721.53Z" fill="black"/>
<path d="M966.41 717.576H796.25V741.07H966.41V717.576ZM800.088 721.53H962.455V737.232H800.088V721.53Z" fill="black"/>
<path d="M467.668 697.92H297.508V721.414H467.668V697.92ZM301.462 701.874H463.829V717.576H301.462V701.874Z" fill="black"/>
<path d="M633.879 697.92H463.836V721.414H633.879V697.92ZM467.674 701.874H630.041V717.576H467.674V701.874Z" fill="black"/>
<path d="M800.09 697.92H630.047V721.414H800.207V697.92H800.09ZM633.885 701.874H796.252V717.576H633.885V701.874Z" fill="black"/>
<path d="M966.41 697.92H796.25V721.414H966.41V697.92ZM800.088 701.874H962.455V717.576H800.088V701.874Z" fill="black"/>
<path d="M467.668 678.264H297.508V701.759H467.668V678.264ZM301.462 682.219H463.829V697.921H301.462V682.219Z" fill="black"/>
<path d="M633.879 678.263H463.836V701.758H633.879V678.263ZM467.674 682.218H630.041V697.92H467.674V682.218Z" fill="black"/>
<path d="M800.09 678.264H630.047V701.759H800.207V678.264H800.09ZM633.885 682.219H796.252V697.921H633.885V682.219Z" fill="black"/>
<path d="M966.41 678.264H796.25V701.759H966.41V678.264ZM800.088 682.219H962.455V697.921H800.088V682.219Z" fill="black"/>
<path d="M467.668 658.607H297.508V682.218H467.668V658.607ZM301.462 662.562H463.829V678.263H301.462V662.562Z" fill="black"/>
<path d="M633.879 658.607H463.836V682.218H633.879V658.607ZM467.674 662.562H630.041V678.263H467.674V662.562Z" fill="black"/>
<path d="M800.09 658.607H630.047V682.218H800.207V658.607H800.09ZM633.885 662.562H796.252V678.263H633.885V662.562Z" fill="black"/>
<path d="M966.41 658.607H796.25V682.218H966.41V658.607ZM800.088 662.562H962.455V678.263H800.088V662.562Z" fill="black"/>
<path d="M467.668 560.443H297.508V583.938H467.668V560.443ZM301.462 564.281H463.829V579.983H301.462V564.281Z" fill="black"/>
<path d="M633.879 560.443H463.836V583.938H633.879V560.443ZM467.674 564.281H630.041V579.983H467.674V564.281Z" fill="black"/>
<path d="M800.09 560.443H630.047V583.938H800.207V560.443H800.09ZM633.885 564.281H796.252V579.983H633.885V564.281Z" fill="black"/>
<path d="M966.41 560.443H796.25V583.938H966.41V560.443ZM800.088 564.281H962.455V579.983H800.088V564.281Z" fill="black"/>
<path d="M467.668 540.787H297.508V564.281H467.668V540.787ZM301.462 544.625H463.829V560.327H301.462V544.625Z" fill="black"/>
<path d="M633.879 540.787H463.836V564.281H633.879V540.787ZM467.674 544.625H630.041V560.327H467.674V544.625Z" fill="black"/>
<path d="M800.09 540.787H630.047V564.281H800.207V540.787H800.09ZM633.885 544.625H796.252V560.327H633.885V544.625Z" fill="black"/>
<path d="M966.41 540.787H796.25V564.281H966.41V540.787ZM800.088 544.625H962.455V560.327H800.088V544.625Z" fill="black"/>
<path d="M467.668 521.132H297.508V544.626H467.668V521.132ZM301.462 524.97H463.829V540.671H301.462V524.97Z" fill="black"/>
<path d="M633.879 521.132H463.836V544.626H633.879V521.132ZM467.674 524.97H630.041V540.671H467.674V524.97Z" fill="black"/>
<path d="M800.09 521.132H630.047V544.626H800.207V521.132H800.09ZM633.885 524.97H796.252V540.671H633.885V524.97Z" fill="black"/>
<path d="M966.41 521.132H796.25V544.626H966.41V521.132ZM800.088 524.97H962.455V540.671H800.088V524.97Z" fill="black"/>
<path d="M467.668 501.475H297.508V524.97H467.668V501.475ZM301.462 505.314H463.829V521.015H301.462V505.314Z" fill="black"/>
<path d="M633.879 501.475H463.836V524.97H633.879V501.475ZM467.674 505.314H630.041V521.015H467.674V505.314Z" fill="black"/>
<path d="M800.09 501.475H630.047V524.97H800.207V501.475H800.09ZM633.885 505.314H796.252V521.015H633.885V505.314Z" fill="black"/>
<path d="M966.41 501.475H796.25V524.97H966.41V501.475ZM800.088 505.314H962.455V521.015H800.088V505.314Z" fill="black"/>
<path d="M467.668 481.818H297.508V505.312H467.668V481.818ZM301.462 485.656H463.829V501.358H301.462V485.656Z" fill="black"/>
<path d="M633.879 481.818H463.836V505.312H633.879V481.818ZM467.674 485.656H630.041V501.358H467.674V485.656Z" fill="black"/>
<path d="M800.09 481.818H630.047V505.312H800.207V481.818H800.09ZM633.885 485.656H796.252V501.358H633.885V485.656Z" fill="black"/>
<path d="M966.41 481.818H796.25V505.312H966.41V481.818ZM800.088 485.656H962.455V501.358H800.088V485.656Z" fill="black"/>
<path d="M467.668 462.162H297.508V485.656H467.668V462.162ZM301.462 466H463.829V481.702H301.462V466Z" fill="black"/>
<path d="M633.879 462.162H463.836V485.656H633.879V462.162ZM467.674 466H630.041V481.702H467.674V466Z" fill="black"/>
<path d="M800.09 462.162H630.047V485.656H800.207V462.162H800.09ZM633.885 466H796.252V481.702H633.885V466Z" fill="black"/>
<path d="M966.41 462.162H796.25V485.656H966.41V462.162ZM800.088 466H962.455V481.702H800.088V466Z" fill="black"/>
<path d="M467.668 442.506H297.508V466H467.668V442.506ZM301.462 446.344H463.829V462.046H301.462V446.344Z" fill="black"/>
<path d="M633.879 442.505H463.836V465.999H633.879V442.505ZM467.674 446.343H630.041V462.045H467.674V446.343Z" fill="black"/>
<path d="M800.09 442.506H630.047V466H800.207V442.506H800.09ZM633.885 446.344H796.252V462.046H633.885V446.344Z" fill="black"/>
<path d="M966.41 442.506H796.25V466H966.41V442.506ZM800.088 446.344H962.455V462.046H800.088V446.344Z" fill="black"/>
<path d="M467.668 422.849H297.508V446.344H467.668V422.849ZM301.462 426.688H463.829V442.389H301.462V426.688Z" fill="black"/>
<path d="M633.879 422.849H463.836V446.344H633.879V422.849ZM467.674 426.688H630.041V442.389H467.674V426.688Z" fill="black"/>
<path d="M800.09 422.849H630.047V446.344H800.207V422.849H800.09ZM633.885 426.688H796.252V442.389H633.885V426.688Z" fill="black"/>
<path d="M966.41 422.849H796.25V446.344H966.41V422.849ZM800.088 426.688H962.455V442.389H800.088V426.688Z" fill="black"/>
</g>
<path d="M1814.18 33.7278H1644.02V10.2334H1814.18V33.7278ZM1647.85 29.8895H1810.22V14.0716H1647.85V29.8895Z" fill="black"/>
<path d="M1980.39 33.7278H1810.23V10.2334H1980.39V33.7278ZM1814.18 29.8895H1976.55V14.0716H1814.18V29.8895Z" fill="black"/>
<path d="M1814.18 14.0706H1644.02V-9.42383H1814.18V14.0706ZM1647.85 10.2324H1810.22V-5.4693H1647.85V10.2324Z" fill="black"/>
<path d="M1980.39 14.0706H1810.23V-9.42383H1980.39V14.0706ZM1814.18 10.2324H1976.55V-5.4693H1814.18V10.2324Z" fill="black"/>
<path d="M1980.39 112.352H1810.23V88.8574H1980.39V112.352ZM1814.18 108.397H1976.55V92.6956H1814.18V108.397Z" fill="black"/>
<path d="M1980.39 92.6955H1810.23V69.2012H1980.39V92.6955ZM1814.18 88.8573H1976.55V73.1556H1814.18V88.8573Z" fill="black"/>
<path d="M1980.39 73.0393H1810.23V49.5449H1980.39V73.0393ZM1814.18 69.2011H1976.55V53.4994H1814.18V69.2011Z" fill="black"/>
<path d="M1980.39 53.384H1810.23V29.8896H1980.39V53.384ZM1814.18 49.5459H1976.55V33.8442H1814.18V49.5459Z" fill="black"/>
<path d="M1814.18 112.352H1644.02V88.8574H1814.18V112.352ZM1647.85 108.397H1810.22V92.6956H1647.85V108.397Z" fill="black"/>
<path d="M1814.18 92.6955H1644.02V69.2012H1814.18V92.6955ZM1647.85 88.8573H1810.22V73.1556H1647.85V88.8573Z" fill="black"/>
<path d="M1814.18 73.0393H1644.02V49.5449H1814.18V73.0393ZM1647.85 69.2011H1810.22V53.4994H1647.85V69.2011Z" fill="black"/>
<path d="M1814.18 53.384H1644.02V29.8896H1814.18V53.384ZM1647.85 49.5459H1810.22V33.8442H1647.85V49.5459Z" fill="black"/>
<path d="M1980.39 289.257H1810.23V265.763H1980.39V289.257ZM1814.18 285.302H1976.55V269.601H1814.18V285.302Z" fill="black"/>
<path d="M1814.18 289.257H1644.02V265.763H1814.18V289.257ZM1647.85 285.302H1810.22V269.601H1647.85V285.302Z" fill="black"/>
<path d="M1980.39 308.913H1810.23V285.419H1980.39V308.913ZM1814.18 304.959H1976.55V289.257H1814.18V304.959Z" fill="black"/>
<path d="M1814.18 308.913H1644.02V285.419H1814.18V308.913ZM1647.85 304.959H1810.22V289.257H1647.85V304.959Z" fill="black"/>
<path d="M1980.39 328.453H1810.23V304.959H1980.39V328.453ZM1814.18 324.615H1976.55V308.914H1814.18V324.615Z" fill="black"/>
<path d="M1814.18 328.453H1644.02V304.959H1814.18V328.453ZM1647.85 324.615H1810.22V308.914H1647.85V324.615Z" fill="black"/>
<path d="M1980.39 348.11H1810.23V324.615H1980.39V348.11ZM1814.18 344.271H1976.55V328.57H1814.18V344.271Z" fill="black"/>
<path d="M1814.18 348.11H1644.02V324.615H1814.18V348.11ZM1647.85 344.271H1810.22V328.57H1647.85V344.271Z" fill="black"/>
<path d="M1814.18 210.633H1644.02V187.139H1814.18V210.633ZM1647.85 206.679H1810.22V190.977H1647.85V206.679Z" fill="black"/>
<path d="M1814.18 230.289H1644.02V206.795H1814.18V230.289ZM1647.85 226.335H1810.22V210.633H1647.85V226.335Z" fill="black"/>
<path d="M1814.18 249.947H1644.02V226.452H1814.18V249.947ZM1647.85 245.992H1810.22V230.29H1647.85V245.992Z" fill="black"/>
<path d="M1814.18 269.601H1644.02V246.106H1814.18V269.601ZM1647.85 265.646H1810.22V249.945H1647.85V265.646Z" fill="black"/>
<path d="M1980.39 210.633H1810.23V187.139H1980.39V210.633ZM1814.18 206.679H1976.55V190.977H1814.18V206.679Z" fill="black"/>
<path d="M1980.39 230.289H1810.23V206.795H1980.39V230.289ZM1814.18 226.335H1976.55V210.633H1814.18V226.335Z" fill="black"/>
<path d="M1980.39 249.947H1810.23V226.452H1980.39V249.947ZM1814.18 245.992H1976.55V230.29H1814.18V245.992Z" fill="black"/>
<path d="M1980.39 269.601H1810.23V246.106H1980.39V269.601ZM1814.18 265.646H1976.55V249.945H1814.18V265.646Z" fill="black"/>
<path d="M1980.39 367.766H1810.23V344.271H1980.39V367.766ZM1814.18 363.928H1976.55V348.226H1814.18V363.928Z" fill="black"/>
<path d="M1814.18 367.766H1644.02V344.271H1814.18V367.766ZM1647.85 363.928H1810.22V348.226H1647.85V363.928Z" fill="black"/>
<path d="M1980.39 387.422H1810.23V363.928H1980.39V387.422ZM1814.18 383.584H1976.55V367.882H1814.18V383.584Z" fill="black"/>
<path d="M1814.18 387.422H1644.02V363.928H1814.18V387.422ZM1647.85 383.584H1810.22V367.882H1647.85V383.584Z" fill="black"/>
<path d="M1980.39 407.078H1810.23V383.584H1980.39V407.078ZM1814.18 403.24H1976.55V387.422H1814.18V403.24Z" fill="black"/>
<path d="M1814.18 407.078H1644.02V383.584H1814.18V407.078ZM1647.85 403.24H1810.22V387.422H1647.85V403.24Z" fill="black"/>
<path d="M1980.39 426.735H1810.23V403.24H1980.39V426.735ZM1814.18 422.896H1976.55V407.195H1814.18V422.896Z" fill="black"/>
<path d="M1814.18 426.735H1644.02V403.24H1814.18V426.735ZM1647.85 422.896H1810.22V407.195H1647.85V422.896Z" fill="black"/>
<path d="M1814.18 132.008H1644.02V108.514H1814.18V132.008ZM1647.85 128.054H1810.22V112.352H1647.85V128.054Z" fill="black"/>
<path d="M1814.18 151.663H1644.02V128.053H1814.18V151.663ZM1647.85 147.709H1810.22V132.007H1647.85V147.709Z" fill="black"/>
<path d="M1814.18 171.321H1644.02V147.826H1814.18V171.321ZM1647.85 167.366H1810.22V151.664H1647.85V167.366Z" fill="black"/>
<path d="M1814.18 190.977H1644.02V167.482H1814.18V190.977ZM1647.85 187.022H1810.22V171.321H1647.85V187.022Z" fill="black"/>
<path d="M1980.39 132.008H1810.23V108.514H1980.39V132.008ZM1814.18 128.054H1976.55V112.352H1814.18V128.054Z" fill="black"/>
<path d="M1980.39 151.663H1810.23V128.053H1980.39V151.663ZM1814.18 147.709H1976.55V132.007H1814.18V147.709Z" fill="black"/>
<path d="M1980.39 171.321H1810.23V147.826H1980.39V171.321ZM1814.18 167.366H1976.55V151.664H1814.18V167.366Z" fill="black"/>
<path d="M1980.39 190.977H1810.23V167.482H1980.39V190.977ZM1814.18 187.022H1976.55V171.321H1814.18V187.022Z" fill="black"/>
<path d="M1814.18 583.985H1644.02V560.49H1814.18V583.985ZM1647.85 580.03H1810.22V564.328H1647.85V580.03Z" fill="black"/>
<path d="M1980.39 583.985H1810.23V560.49H1980.39V583.985ZM1814.18 580.03H1976.55V564.328H1814.18V580.03Z" fill="black"/>
<path d="M1814.18 564.327H1644.02V540.833H1814.18V564.327ZM1647.85 560.373H1810.22V544.671H1647.85V560.373Z" fill="black"/>
<path d="M1980.39 564.327H1810.23V540.833H1980.39V564.327ZM1814.18 560.373H1976.55V544.671H1814.18V560.373Z" fill="black"/>
<path d="M1814.18 544.671H1644.02V521.177H1814.18V544.671ZM1647.85 540.717H1810.22V525.015H1647.85V540.717Z" fill="black"/>
<path d="M1980.39 544.671H1810.23V521.177H1980.39V544.671ZM1814.18 540.717H1976.55V525.015H1814.18V540.717Z" fill="black"/>
<path d="M1814.18 525.016H1644.02V501.521H1814.18V525.016ZM1647.85 521.178H1810.22V505.476H1647.85V521.178Z" fill="black"/>
<path d="M1980.39 525.016H1810.23V501.521H1980.39V525.016ZM1814.18 521.178H1976.55V505.476H1814.18V521.178Z" fill="black"/>
<path d="M1980.39 662.608H1810.23V639.113H1980.39V662.608ZM1814.18 658.653H1976.55V642.951H1814.18V658.653Z" fill="black"/>
<path d="M1980.39 642.951H1810.23V619.457H1980.39V642.951ZM1814.18 638.997H1976.55V623.295H1814.18V638.997Z" fill="black"/>
<path d="M1980.39 623.296H1810.23V599.802H1980.39V623.296ZM1814.18 619.342H1976.55V603.64H1814.18V619.342Z" fill="black"/>
<path d="M1980.39 603.64H1810.23V580.146H1980.39V603.64ZM1814.18 599.685H1976.55V583.984H1814.18V599.685Z" fill="black"/>
<path d="M1814.18 662.608H1644.02V639.113H1814.18V662.608ZM1647.85 658.653H1810.22V642.951H1647.85V658.653Z" fill="black"/>
<path d="M1814.18 642.951H1644.02V619.457H1814.18V642.951ZM1647.85 638.997H1810.22V623.295H1647.85V638.997Z" fill="black"/>
<path d="M1814.18 623.296H1644.02V599.802H1814.18V623.296ZM1647.85 619.342H1810.22V603.64H1647.85V619.342Z" fill="black"/>
<path d="M1814.18 603.64H1644.02V580.146H1814.18V603.64ZM1647.85 599.685H1810.22V583.984H1647.85V599.685Z" fill="black"/>
<path d="M1980.39 505.36H1810.23V481.865H1980.39V505.36ZM1814.18 501.521H1976.55V485.82H1814.18V501.521Z" fill="black"/>
<path d="M1980.39 485.703H1810.23V462.209H1980.39V485.703ZM1814.18 481.865H1976.55V466.163H1814.18V481.865Z" fill="black"/>
<path d="M1980.39 466.047H1810.23V442.553H1980.39V466.047ZM1814.18 462.209H1976.55V446.507H1814.18V462.209Z" fill="black"/>
<path d="M1980.39 446.392H1810.23V422.897H1980.39V446.392ZM1814.18 442.554H1976.55V426.852H1814.18V442.554Z" fill="black"/>
<path d="M1814.18 505.36H1644.02V481.865H1814.18V505.36ZM1647.85 501.521H1810.22V485.82H1647.85V501.521Z" fill="black"/>
<path d="M1814.18 485.703H1644.02V462.209H1814.18V485.703ZM1647.85 481.865H1810.22V466.163H1647.85V481.865Z" fill="black"/>
<path d="M1814.18 466.047H1644.02V442.553H1814.18V466.047ZM1647.85 462.209H1810.22V446.507H1647.85V462.209Z" fill="black"/>
<path d="M1814.18 446.391H1644.02V422.896H1814.18V446.391ZM1647.85 442.553H1810.22V426.851H1647.85V442.553Z" fill="black"/>
<path d="M1980.39 839.398H1810.23V815.903H1980.39V839.398ZM1814.18 835.56H1976.55V819.858H1814.18V835.56Z" fill="black"/>
<path d="M1814.18 839.398H1644.02V815.903H1814.18V839.398ZM1647.85 835.56H1810.22V819.858H1647.85V835.56Z" fill="black"/>
<path d="M1980.39 859.054H1810.23V835.56H1980.39V859.054ZM1814.18 855.216H1976.55V839.514H1814.18V855.216Z" fill="black"/>
<path d="M1814.18 859.054H1644.02V835.56H1814.18V859.054ZM1647.85 855.216H1810.22V839.514H1647.85V855.216Z" fill="black"/>
<path d="M1980.39 878.71H1810.23V855.216H1980.39V878.71ZM1814.18 874.872H1976.55V859.17H1814.18V874.872Z" fill="black"/>
<path d="M1814.18 878.71H1644.02V855.216H1814.18V878.71ZM1647.85 874.872H1810.22V859.17H1647.85V874.872Z" fill="black"/>
<path d="M1980.39 898.368H1810.23V874.873H1980.39V898.368ZM1814.18 894.529H1976.55V878.828H1814.18V894.529Z" fill="black"/>
<path d="M1814.18 898.368H1644.02V874.873H1814.18V898.368ZM1647.85 894.529H1810.22V878.828H1647.85V894.529Z" fill="black"/>
<path d="M1814.18 760.774H1644.02V737.279H1814.18V760.774ZM1647.85 756.935H1810.22V741.234H1647.85V756.935Z" fill="black"/>
<path d="M1814.18 780.43H1644.02V756.936H1814.18V780.43ZM1647.85 776.592H1810.22V760.774H1647.85V776.592Z" fill="black"/>
<path d="M1814.18 800.086H1644.02V776.592H1814.18V800.086ZM1647.85 796.248H1810.22V780.546H1647.85V796.248Z" fill="black"/>
<path d="M1814.18 819.742H1644.02V796.248H1814.18V819.742ZM1647.85 815.904H1810.22V800.203H1647.85V815.904Z" fill="black"/>
<path d="M1980.39 760.774H1810.23V737.279H1980.39V760.774ZM1814.18 756.935H1976.55V741.234H1814.18V756.935Z" fill="black"/>
<path d="M1980.39 780.43H1810.23V756.936H1980.39V780.43ZM1814.18 776.592H1976.55V760.774H1814.18V776.592Z" fill="black"/>
<path d="M1980.39 800.086H1810.23V776.592H1980.39V800.086ZM1814.18 796.248H1976.55V780.546H1814.18V796.248Z" fill="black"/>
<path d="M1980.39 819.742H1810.23V796.248H1980.39V819.742ZM1814.18 815.904H1976.55V800.203H1814.18V815.904Z" fill="black"/>
<path d="M1980.39 918.023H1810.23V894.528H1980.39V918.023ZM1814.18 914.185H1976.55V898.483H1814.18V914.185Z" fill="black"/>
<path d="M1814.18 918.024H1644.02V894.529H1814.18V918.024ZM1647.85 914.186H1810.22V898.484H1647.85V914.186Z" fill="black"/>
<path d="M1980.39 937.679H1810.23V914.185H1980.39V937.679ZM1814.18 933.841H1976.55V918.139H1814.18V933.841Z" fill="black"/>
<path d="M1814.18 937.679H1644.02V914.185H1814.18V937.679ZM1647.85 933.841H1810.22V918.139H1647.85V933.841Z" fill="black"/>
<path d="M1980.39 957.336H1810.23V933.842H1980.39V957.336ZM1814.18 953.498H1976.55V937.796H1814.18V953.498Z" fill="black"/>
<path d="M1814.18 957.336H1644.02V933.842H1814.18V957.336ZM1647.85 953.498H1810.22V937.796H1647.85V953.498Z" fill="black"/>
<path d="M1980.39 976.992H1810.23V953.497H1980.39V976.992ZM1814.18 973.037H1976.55V957.335H1814.18V973.037Z" fill="black"/>
<path d="M1814.18 976.992H1644.02V953.497H1814.18V976.992ZM1647.85 973.037H1810.22V957.335H1647.85V973.037Z" fill="black"/>
<path d="M1814.18 682.265H1644.02V658.771H1814.18V682.265ZM1647.85 678.31H1810.22V662.609H1647.85V678.31Z" fill="black"/>
<path d="M1814.18 701.921H1644.02V678.427H1814.18V701.921ZM1647.85 697.967H1810.22V682.265H1647.85V697.967Z" fill="black"/>
<path d="M1814.18 721.577H1644.02V697.966H1814.18V721.577ZM1647.85 717.622H1810.22V701.92H1647.85V717.622Z" fill="black"/>
<path d="M1814.18 741.233H1644.02V717.738H1814.18V741.233ZM1647.85 737.278H1810.22V721.577H1647.85V737.278Z" fill="black"/>
<path d="M1980.39 682.265H1810.23V658.771H1980.39V682.265ZM1814.18 678.31H1976.55V662.609H1814.18V678.31Z" fill="black"/>
<path d="M1980.39 701.921H1810.23V678.427H1980.39V701.921ZM1814.18 697.967H1976.55V682.265H1814.18V697.967Z" fill="black"/>
<path d="M1980.39 721.577H1810.23V697.966H1980.39V721.577ZM1814.18 717.622H1976.55V701.92H1814.18V717.622Z" fill="black"/>
<path d="M1980.39 741.233H1810.23V717.738H1980.39V741.233ZM1814.18 737.278H1976.55V721.577H1814.18V737.278Z" fill="black"/>
<path d="M1814.18 1094.93H1644.02V1071.32H1814.18V1094.93ZM1647.85 1090.97H1810.22V1075.27H1647.85V1090.97Z" fill="black"/>
<path d="M1980.39 1094.93H1810.23V1071.32H1980.39V1094.93ZM1814.18 1090.97H1976.55V1075.27H1814.18V1090.97Z" fill="black"/>
<path d="M1814.18 1075.27H1644.02V1051.78H1814.18V1075.27ZM1647.85 1071.32H1810.22V1055.62H1647.85V1071.32Z" fill="black"/>
<path d="M1980.39 1075.27H1810.23V1051.78H1980.39V1075.27ZM1814.18 1071.32H1976.55V1055.62H1814.18V1071.32Z" fill="black"/>
<path d="M1980.39 1055.62H1810.23V1032.12H1980.39V1055.62ZM1814.18 1051.66H1976.55V1035.96H1814.18V1051.66Z" fill="black"/>
<path d="M1980.39 1035.96H1810.23V1012.47H1980.39V1035.96ZM1814.18 1032.01H1976.55V1016.3H1814.18V1032.01Z" fill="black"/>
<path d="M1980.39 1016.3H1810.23V992.81H1980.39V1016.3ZM1814.18 1012.35H1976.55V996.648H1814.18V1012.35Z" fill="black"/>
<path d="M1980.39 996.649H1810.23V973.154H1980.39V996.649ZM1814.18 992.694H1976.55V976.993H1814.18V992.694Z" fill="black"/>
<path d="M1814.18 1055.62H1644.02V1032.12H1814.18V1055.62ZM1647.85 1051.66H1810.22V1035.96H1647.85V1051.66Z" fill="black"/>
<path d="M1814.18 1035.96H1644.02V1012.47H1814.18V1035.96ZM1647.85 1032.01H1810.22V1016.3H1647.85V1032.01Z" fill="black"/>
<path d="M1814.18 1016.3H1644.02V992.81H1814.18V1016.3ZM1647.85 1012.35H1810.22V996.648H1647.85V1012.35Z" fill="black"/>
<path d="M1814.18 996.649H1644.02V973.154H1814.18V996.649ZM1647.85 992.694H1810.22V976.993H1647.85V992.694Z" fill="black"/>
</g>
</g>
<defs>
<clipPath id="clip0_4039_3889">
<rect width="1920" height="1080" fill="white"/>
</clipPath>
<clipPath id="clip1_4039_3889">
<rect width="2514" height="2060" fill="white" transform="translate(-209 -890)"/>
</clipPath>
</defs>
</svg>
