<svg width="1920" height="1080" viewBox="0 0 1920 1080" fill="none" xmlns="http://www.w3.org/2000/svg">
<g clip-path="url(#clip0_4039_18369)">
<g clip-path="url(#clip1_4039_18369)">
<path d="M1647.84 324.569H1645.87C1636.79 324.569 1627.72 324.685 1619.12 324.801C1610.63 324.918 1602.25 325.15 1594.23 325.499C1586.32 325.732 1578.64 326.197 1571.08 326.546C1563.75 327.011 1556.54 327.477 1549.68 328.058C1542.93 328.64 1536.19 329.221 1529.91 329.919C1523.63 330.617 1517.46 331.315 1511.53 332.013C1505.71 332.71 1500.02 333.641 1494.55 334.455C1489.2 335.269 1483.97 336.2 1478.85 337.13C1473.85 338.061 1469.08 339.107 1464.43 340.154C1459.89 341.201 1455.35 342.248 1451.05 343.411C1446.86 344.458 1442.79 345.621 1438.72 346.9C1434.88 348.063 1431.04 349.343 1427.44 350.622C1423.83 351.901 1420.34 353.181 1417.09 354.46C1413.83 355.74 1410.57 357.135 1407.55 358.531C1404.53 359.927 1401.62 361.322 1398.83 362.718C1396.04 364.114 1393.36 365.626 1390.8 367.138C1388.36 368.65 1385.8 370.162 1383.47 371.674C1381.15 373.186 1378.94 374.698 1376.84 376.326C1374.75 377.838 1372.77 379.467 1370.8 381.095C1368.94 382.723 1367.07 384.352 1365.33 385.98C1363.59 387.608 1361.96 389.237 1360.33 390.981C1358.82 392.609 1357.19 394.354 1355.79 396.099C1354.4 397.727 1353 399.472 1351.72 401.216C1350.44 402.961 1349.16 404.706 1348 406.45C1346.84 408.195 1345.67 409.94 1344.63 411.8C1343.58 413.545 1342.53 415.29 1341.6 417.151C1340.67 418.895 1339.74 420.756 1338.93 422.501C1338.11 424.246 1337.3 426.106 1336.49 427.967C1335.79 429.712 1334.97 431.573 1334.28 433.434C1333.58 435.178 1332.88 437.039 1332.3 438.9C1331.72 440.645 1331.02 442.506 1330.44 444.483C1329.86 446.344 1329.27 448.205 1328.81 450.066C1328.23 451.927 1327.76 453.788 1327.3 455.649C1326.83 457.51 1326.37 459.371 1325.9 461.232C1325.44 463.093 1324.97 464.954 1324.51 466.814C1324.04 468.675 1323.58 470.536 1323.23 472.397C1323.11 472.746 1322.99 473.212 1322.99 473.56C1322.88 474.142 1322.64 474.724 1322.53 475.305C1322.06 477.166 1321.48 479.027 1321.02 480.888C1320.55 482.749 1320.09 484.61 1319.62 486.471C1319.16 488.332 1318.69 490.193 1318.34 492.054C1317.88 493.914 1317.53 495.775 1317.06 497.636L1315.78 503.219C1315.55 504.15 1315.32 505.08 1315.2 506.011C1314.74 507.755 1314.15 509.616 1313.69 511.361C1313.11 513.222 1312.53 514.966 1311.94 516.827C1311.36 518.688 1310.67 520.549 1310.08 522.294C1309.39 524.155 1308.69 526.016 1307.99 527.76C1307.29 529.621 1306.48 531.366 1305.66 533.111C1304.85 534.971 1304.04 536.716 1303.11 538.461C1302.17 540.205 1301.24 542.066 1300.31 543.695C1299.38 545.439 1298.34 547.184 1297.17 548.929C1296.13 550.673 1294.96 552.418 1293.8 554.162C1292.64 555.907 1291.36 557.652 1289.96 559.28C1288.57 561.025 1287.17 562.653 1285.78 564.281C1284.26 566.026 1282.75 567.654 1281.12 569.283C1279.49 570.911 1277.75 572.656 1276.01 574.168C1274.26 575.796 1272.28 577.424 1270.42 579.052C1268.45 580.681 1266.35 582.309 1264.26 583.821C1262.05 585.449 1259.84 586.961 1257.51 588.474C1255.19 589.986 1252.63 591.498 1250.07 593.01C1247.51 594.522 1244.72 596.034 1242.04 597.429C1239.25 598.941 1236.23 600.337 1233.2 601.733C1230.06 603.128 1226.81 604.524 1223.55 605.92C1220.18 607.316 1216.69 608.595 1213.08 609.874C1209.36 611.154 1205.52 612.433 1201.68 613.713C1197.73 614.992 1193.54 616.155 1189.24 617.318C1184.82 618.481 1180.28 619.644 1175.75 620.691C1170.98 621.854 1166.09 622.901 1161.09 623.948C1155.97 624.994 1150.62 626.041 1145.27 626.972C1139.69 627.902 1133.99 628.833 1128.18 629.647C1122.24 630.461 1115.96 631.275 1109.68 632.089C1103.29 632.903 1096.54 633.601 1089.68 634.183C1082.7 634.881 1075.49 635.462 1068.16 636.044C1060.72 636.625 1052.81 637.091 1045.02 637.44C1036.99 637.905 1028.5 638.254 1020.01 638.486C1011.29 638.835 1002.21 638.952 993.142 639.184C983.837 639.3 974.067 639.417 964.298 639.417H962.32V662.911H964.298C974.067 662.911 983.605 662.795 992.91 662.679C1001.98 662.562 1010.94 662.33 1019.54 661.981C1027.92 661.748 1036.29 661.283 1044.32 660.934C1052.11 660.469 1059.9 660.003 1067.35 659.422C1074.67 658.84 1081.77 658.259 1088.75 657.561C1095.49 656.863 1102.12 656.165 1108.52 655.467C1114.8 654.77 1120.97 653.839 1126.9 653.025C1132.71 652.211 1138.41 651.28 1143.88 650.35C1149.23 649.419 1154.58 648.373 1159.58 647.326C1164.58 646.279 1169.47 645.232 1174.12 644.069C1178.65 643.022 1183.19 641.859 1187.49 640.58C1191.68 639.417 1195.87 638.137 1199.82 636.858C1203.66 635.579 1207.5 634.299 1211.22 633.02C1214.83 631.74 1218.32 630.345 1221.69 628.949C1224.95 627.553 1228.2 626.158 1231.34 624.762C1234.37 623.366 1237.39 621.854 1240.18 620.342C1242.97 618.83 1245.65 617.318 1248.32 615.806C1250.88 614.294 1253.32 612.782 1255.77 611.154C1258.09 609.642 1260.42 608.013 1262.51 606.385C1264.61 604.757 1266.7 603.128 1268.68 601.5C1270.65 599.872 1272.52 598.243 1274.38 596.499C1276.12 594.87 1277.87 593.126 1279.49 591.381C1281.12 589.753 1282.63 588.008 1284.15 586.264C1285.66 584.519 1287.05 582.774 1288.33 581.03C1289.61 579.285 1290.89 577.54 1292.17 575.796C1293.34 574.051 1294.5 572.307 1295.66 570.446C1296.71 568.701 1297.75 566.84 1298.8 565.095C1299.73 563.351 1300.66 561.49 1301.59 559.629C1302.52 557.884 1303.34 556.023 1304.15 554.162C1304.97 552.418 1305.66 550.557 1306.48 548.696C1307.18 546.951 1307.87 545.09 1308.57 543.113C1309.27 541.252 1309.85 539.391 1310.43 537.53C1311.01 535.669 1311.6 533.808 1312.18 531.947C1312.76 530.086 1313.22 528.226 1313.81 526.365C1314.27 524.504 1314.85 522.643 1315.32 520.782C1315.78 518.921 1316.25 517.06 1316.71 515.199C1317.18 513.338 1317.64 511.477 1317.99 509.616C1318.23 508.686 1318.46 507.755 1318.57 506.825V506.708C1319.04 504.847 1319.62 502.987 1320.09 501.126C1320.55 499.265 1321.02 497.404 1321.48 495.543C1321.95 493.682 1322.41 491.821 1322.88 489.96C1323.34 488.099 1323.69 486.238 1324.16 484.377L1325.44 478.794C1325.79 477.399 1326.13 475.887 1326.37 474.491C1326.72 473.211 1327.06 472.048 1327.41 470.769C1328 468.908 1328.46 467.163 1329.04 465.302C1329.62 463.442 1330.21 461.581 1330.9 459.836C1331.6 457.975 1332.18 456.23 1332.88 454.486C1333.58 452.625 1334.39 450.88 1335.09 449.136C1335.9 447.391 1336.72 445.53 1337.53 443.785C1338.35 442.041 1339.28 440.296 1340.21 438.551C1341.14 436.807 1342.18 435.062 1343.23 433.318C1344.28 431.573 1345.44 429.828 1346.49 428.2C1347.65 426.455 1348.93 424.827 1350.21 423.199C1351.49 421.57 1352.89 419.826 1354.28 418.197C1355.68 416.569 1357.19 414.941 1358.82 413.312C1360.45 411.684 1362.07 410.056 1363.82 408.544C1365.56 406.915 1367.42 405.287 1369.28 403.775C1371.15 402.263 1373.24 400.635 1375.33 399.123C1377.43 397.611 1379.64 396.099 1381.96 394.587C1384.29 393.075 1386.73 391.563 1389.17 390.167C1391.73 388.771 1394.41 387.259 1397.08 385.864C1399.87 384.468 1402.78 383.072 1405.81 381.676C1408.83 380.281 1412.09 379.001 1415.34 377.722C1418.72 376.443 1422.21 375.163 1425.69 373.884C1429.3 372.604 1433.14 371.441 1436.98 370.278C1440.93 369.115 1445.12 367.952 1449.31 366.905C1453.61 365.742 1458.14 364.695 1462.68 363.649C1467.33 362.602 1472.22 361.671 1477.22 360.625C1482.34 359.694 1487.57 358.764 1493.04 357.949C1498.62 357.135 1504.32 356.321 1510.13 355.507C1516.18 354.693 1522.35 353.995 1528.63 353.413C1535.14 352.716 1541.77 352.134 1548.63 351.669C1555.61 351.087 1562.94 350.622 1570.27 350.273C1577.83 349.808 1585.62 349.459 1593.53 349.226C1601.67 348.877 1610.16 348.761 1618.65 348.528C1627.37 348.412 1636.45 348.296 1645.63 348.296H1647.61V324.569H1647.84ZM1337.3 436.342C1337.53 435.76 1337.77 435.178 1338 434.597C1338.7 432.736 1339.39 430.991 1340.21 429.247C1341.02 427.502 1341.72 425.641 1342.53 423.897C1343.35 422.152 1344.28 420.291 1345.21 418.663C1346.14 416.918 1347.19 415.173 1348.12 413.429C1349.16 411.684 1350.21 409.94 1351.37 408.311C1352.54 406.567 1353.7 404.938 1354.98 403.31C1356.26 401.565 1357.54 399.937 1358.93 398.309C1360.33 396.68 1361.84 395.052 1363.35 393.424C1364.86 391.795 1366.49 390.167 1368.24 388.655C1369.98 387.027 1371.73 385.398 1373.59 383.886C1375.45 382.258 1377.43 380.746 1379.52 379.234C1381.61 377.722 1383.82 376.21 1386.03 374.698C1388.36 373.186 1390.69 371.674 1393.13 370.278C1395.69 368.766 1398.25 367.37 1400.92 365.975C1403.71 364.579 1406.5 363.183 1409.53 361.788C1412.55 360.392 1415.69 359.113 1418.83 357.833C1422.09 356.554 1425.58 355.274 1429.07 353.995C1432.67 352.716 1436.39 351.553 1440.23 350.389C1444.19 349.226 1448.26 348.063 1452.33 347.016C1456.63 345.853 1461.05 344.807 1465.47 343.76C1470.12 342.713 1474.89 341.783 1479.78 340.736C1484.78 339.805 1490.01 338.875 1495.36 338.061C1500.83 337.246 1506.41 336.432 1512.23 335.618C1518.16 334.804 1524.21 334.106 1530.49 333.525C1536.89 332.827 1543.52 332.245 1550.26 331.78C1557.12 331.198 1564.33 330.733 1571.55 330.384C1578.99 329.919 1586.67 329.57 1594.57 329.337C1602.6 328.989 1610.97 328.872 1619.35 328.64C1627.37 328.523 1635.75 328.407 1644.12 328.407V344.109C1635.52 344.109 1627.14 344.225 1619 344.341C1610.51 344.458 1602.02 344.69 1593.88 345.039C1585.97 345.272 1578.06 345.737 1570.5 346.086C1563.17 346.551 1555.84 347.016 1548.87 347.598C1542 348.18 1535.26 348.761 1528.74 349.459C1522.46 350.157 1516.18 350.855 1510.13 351.553C1504.32 352.25 1498.5 353.181 1492.92 353.995C1487.45 354.809 1482.1 355.74 1476.99 356.67C1471.99 357.601 1466.98 358.647 1462.33 359.694C1457.68 360.741 1453.14 361.788 1448.84 362.951C1444.54 363.998 1440.35 365.161 1436.39 366.44C1432.44 367.603 1428.6 368.883 1424.88 370.162C1421.27 371.441 1417.67 372.721 1414.3 374C1411.04 375.279 1407.78 376.675 1404.64 378.071C1401.62 379.467 1398.59 380.862 1395.8 382.258C1393.01 383.654 1390.22 385.166 1387.66 386.678C1385.1 388.19 1382.66 389.702 1380.22 391.214C1377.89 392.726 1375.57 394.238 1373.47 395.866C1371.38 397.378 1369.28 399.007 1367.31 400.635C1365.33 402.263 1363.47 403.891 1361.72 405.52C1359.98 407.148 1358.24 408.776 1356.61 410.521C1354.98 412.149 1353.47 413.894 1351.95 415.639C1350.56 417.267 1349.05 419.012 1347.77 420.756C1346.49 422.501 1345.21 424.246 1343.93 425.99C1342.77 427.735 1341.6 429.479 1340.56 431.34C1339.28 432.852 1338.23 434.597 1337.3 436.342ZM966.391 642.906C975.58 642.906 984.652 642.79 993.375 642.673C1002.45 642.557 1011.52 642.324 1020.36 641.976C1028.85 641.743 1037.34 641.278 1045.36 640.929C1053.27 640.464 1061.07 639.998 1068.63 639.417C1075.95 638.835 1083.28 638.254 1090.26 637.556C1097.12 636.858 1103.87 636.16 1110.27 635.462C1116.66 634.764 1122.83 633.834 1128.87 633.02C1134.69 632.206 1140.51 631.275 1146.09 630.345C1151.55 629.414 1156.9 628.367 1162.02 627.321C1167.02 626.274 1172.03 625.227 1176.79 624.064C1181.45 623.017 1185.98 621.854 1190.4 620.575C1194.71 619.412 1198.89 618.132 1202.96 616.853C1206.92 615.573 1210.87 614.294 1214.48 613.015C1218.2 611.735 1221.69 610.34 1225.18 608.944C1228.55 607.548 1231.81 606.152 1234.95 604.757C1237.97 603.361 1241 601.849 1243.9 600.337C1246.7 598.825 1249.49 597.313 1252.16 595.801C1254.72 594.289 1257.28 592.777 1259.72 591.149C1262.05 589.637 1264.37 588.008 1266.58 586.38C1268.68 584.868 1270.89 583.123 1272.86 581.495C1274.84 579.867 1276.82 578.238 1278.56 576.494C1280.31 574.865 1282.17 573.121 1283.8 571.376C1285.43 569.748 1287.05 568.003 1288.57 566.259C1290.08 564.514 1291.47 562.769 1292.87 561.025C1294.27 559.28 1295.54 557.535 1296.82 555.791C1297.99 554.046 1299.27 552.185 1300.31 550.441C1301.36 548.696 1302.52 546.835 1303.45 545.09C1303.57 544.741 1303.8 544.509 1303.92 544.16C1303.57 545.09 1303.22 545.904 1302.87 546.835C1302.17 548.696 1301.36 550.441 1300.66 552.185C1299.85 553.93 1299.03 555.791 1298.22 557.535C1297.29 559.28 1296.48 561.141 1295.43 562.769C1294.5 564.514 1293.45 566.259 1292.4 568.003C1291.36 569.748 1290.19 571.492 1289.03 573.237C1287.87 574.982 1286.59 576.726 1285.31 578.355C1284.03 580.099 1282.63 581.728 1281.24 583.472C1279.84 585.217 1278.21 586.845 1276.7 588.474C1275.07 590.102 1273.45 591.846 1271.7 593.358C1269.96 594.987 1268.1 596.615 1266.24 598.243C1264.26 599.872 1262.28 601.5 1260.19 603.012C1258.09 604.64 1255.88 606.152 1253.56 607.664C1251.23 609.176 1248.79 610.688 1246.35 612.2C1243.79 613.713 1241.11 615.225 1238.44 616.62C1235.65 618.132 1232.74 619.528 1229.71 620.924C1226.69 622.319 1223.43 623.715 1220.18 625.111C1216.8 626.506 1213.31 627.786 1209.83 629.065C1206.22 630.345 1202.38 631.624 1198.54 632.903C1194.59 634.183 1190.52 635.346 1186.33 636.509C1182.03 637.672 1177.61 638.835 1173.07 639.882C1168.42 641.045 1163.53 642.092 1158.65 643.139C1153.65 644.185 1148.41 645.232 1143.06 646.163C1137.6 647.093 1131.9 648.024 1126.2 648.838C1120.27 649.652 1114.22 650.466 1107.94 651.28C1101.54 652.094 1094.91 652.792 1088.28 653.374C1081.42 654.072 1074.21 654.653 1067 655.118C1059.55 655.7 1051.88 656.165 1044.09 656.514C1036.06 656.979 1027.8 657.328 1019.43 657.561C1010.82 657.91 1001.87 658.026 992.91 658.259C984.303 658.375 975.347 658.491 966.275 658.491V642.906H966.391Z" fill="black"/>
<path d="M1647.86 304.913H1645.88C1636.93 304.913 1627.97 305.029 1619.36 305.146C1610.99 305.262 1602.73 305.495 1594.82 305.844C1587.03 306.076 1579.35 306.541 1572.02 306.89C1564.93 307.356 1557.72 307.821 1550.86 308.402C1544.23 308.984 1537.6 309.566 1531.32 310.263C1525.15 310.961 1519.1 311.659 1513.17 312.357C1507.47 313.055 1501.89 313.985 1496.42 314.799C1491.07 315.614 1485.96 316.544 1480.96 317.475C1476.07 318.405 1471.3 319.452 1466.65 320.499C1462.11 321.545 1457.69 322.592 1453.51 323.755C1449.32 324.802 1445.25 326.081 1441.41 327.244C1437.57 328.408 1433.85 329.687 1430.24 330.966C1426.76 332.246 1423.27 333.525 1420.01 334.805C1416.87 336.084 1413.61 337.48 1410.59 338.875C1407.68 340.271 1404.77 341.667 1401.98 343.062C1399.31 344.458 1396.63 345.97 1394.19 347.482C1391.75 348.994 1389.3 350.506 1386.98 352.018C1384.77 353.53 1382.56 355.042 1380.46 356.671C1378.37 358.183 1376.39 359.811 1374.53 361.439C1372.67 363.068 1370.81 364.696 1369.18 366.324C1367.55 367.953 1365.81 369.581 1364.3 371.325C1362.79 372.954 1361.27 374.698 1359.88 376.443C1358.48 378.071 1357.2 379.816 1355.92 381.561C1354.64 383.305 1353.48 385.05 1352.32 386.795C1351.15 388.539 1350.11 390.284 1349.06 392.145C1348.01 393.889 1347.08 395.634 1346.15 397.495C1345.22 399.24 1344.41 401.101 1343.48 402.845C1342.66 404.59 1341.85 406.451 1341.04 408.312C1340.34 410.056 1339.52 411.917 1338.83 413.778C1338.13 415.523 1337.55 417.384 1336.85 419.245C1336.27 420.989 1335.69 422.85 1335.1 424.828C1334.52 426.688 1333.94 428.549 1333.48 430.41C1333.01 432.271 1332.43 434.132 1331.96 435.993C1331.5 437.854 1331.03 439.715 1330.57 441.576C1330.1 443.437 1329.64 445.298 1329.17 447.159C1328.71 448.903 1328.36 450.648 1327.89 452.509C1327.54 453.556 1327.31 454.603 1327.08 455.649C1326.61 457.51 1326.15 459.371 1325.68 461.232C1325.22 463.093 1324.75 464.954 1324.29 466.815C1323.82 468.676 1323.36 470.537 1323.01 472.398C1322.54 474.259 1322.19 476.12 1321.73 477.981L1320.45 483.563C1320.33 484.145 1320.22 484.843 1319.98 485.424C1319.87 485.657 1319.87 485.89 1319.75 486.122C1319.29 487.983 1318.7 489.844 1318.12 491.589C1317.54 493.45 1316.96 495.194 1316.38 497.055C1315.8 498.916 1315.1 500.777 1314.4 502.522C1313.7 504.383 1313.01 506.127 1312.31 507.988C1311.61 509.849 1310.8 511.594 1309.98 513.339C1309.17 515.083 1308.24 516.944 1307.42 518.689C1306.49 520.433 1305.56 522.294 1304.51 523.923C1303.47 525.667 1302.42 527.412 1301.37 529.157C1300.21 530.901 1299.05 532.646 1297.89 534.39C1296.61 536.135 1295.33 537.88 1294.05 539.508C1292.65 541.253 1291.26 542.881 1289.74 544.626C1288.23 546.37 1286.6 547.999 1285.09 549.627C1283.46 551.255 1281.72 553 1279.86 554.512C1278 556.14 1276.14 557.768 1274.16 559.397C1272.18 561.025 1270.09 562.653 1267.88 564.165C1265.67 565.794 1263.34 567.306 1261.02 568.818C1258.57 570.33 1256.01 571.842 1253.46 573.354C1250.78 574.866 1248.1 576.378 1245.2 577.774C1242.29 579.286 1239.27 580.681 1236.24 582.077C1233.1 583.473 1229.73 584.868 1226.47 586.264C1222.98 587.66 1219.49 588.939 1215.77 590.219C1212.05 591.498 1208.09 592.777 1204.14 594.057C1200.07 595.336 1195.88 596.499 1191.58 597.662C1187.16 598.825 1182.62 599.989 1177.97 601.035C1173.2 602.198 1168.2 603.245 1163.2 604.292C1158.08 605.339 1152.62 606.386 1147.15 607.316C1141.57 608.247 1135.75 609.177 1129.82 609.991C1123.77 610.805 1117.49 611.619 1111.09 612.434C1104.58 613.248 1097.83 613.946 1090.86 614.527C1083.88 615.225 1076.55 615.807 1069.11 616.272C1061.55 616.853 1053.64 617.319 1045.61 617.668C1037.47 618.133 1028.98 618.482 1020.37 618.714C1011.65 619.063 1002.46 619.18 993.272 619.412C983.851 619.528 973.965 619.645 964.079 619.645H962.102V643.139H964.079C973.965 643.139 983.619 643.023 993.04 642.907C1002.11 642.79 1011.18 642.558 1020.02 642.209C1028.51 641.976 1037 641.511 1045.03 641.162C1052.94 640.697 1060.73 640.231 1068.29 639.65C1075.62 639.068 1082.95 638.487 1089.92 637.789C1096.79 637.091 1103.53 636.393 1109.93 635.695C1116.33 634.998 1122.49 634.067 1128.54 633.253C1134.35 632.439 1140.17 631.508 1145.75 630.578C1151.22 629.647 1156.57 628.601 1161.69 627.554C1166.69 626.507 1171.69 625.46 1176.46 624.297C1181.11 623.25 1185.65 622.087 1190.07 620.808C1194.37 619.645 1198.56 618.365 1202.63 617.086C1206.58 615.807 1210.54 614.527 1214.14 613.248C1217.86 611.968 1221.35 610.573 1224.84 609.177C1228.22 607.781 1231.47 606.386 1234.61 604.99C1237.64 603.594 1240.66 602.082 1243.57 600.57C1246.36 599.058 1249.15 597.546 1251.83 596.034C1254.39 594.522 1256.94 593.01 1259.39 591.382C1261.71 589.87 1264.04 588.241 1266.25 586.613C1268.34 585.101 1270.55 583.356 1272.53 581.728C1274.51 580.1 1276.48 578.471 1278.23 576.727C1279.97 575.099 1281.83 573.354 1283.46 571.609C1285.09 569.981 1286.72 568.236 1288.23 566.492C1289.74 564.747 1291.14 563.002 1292.53 561.258C1293.93 559.513 1295.21 557.769 1296.49 556.024C1297.65 554.279 1298.93 552.418 1299.98 550.674C1301.03 548.929 1302.19 547.068 1303.12 545.323C1304.17 543.579 1305.1 541.718 1306.03 539.857C1306.96 538.112 1307.77 536.251 1308.59 534.39C1309.4 532.646 1310.21 530.785 1310.91 528.924C1311.61 527.179 1312.31 525.318 1313.01 523.341C1313.7 521.596 1314.28 519.736 1314.98 517.758C1315.56 515.897 1316.15 514.036 1316.73 512.175C1317.31 510.314 1317.77 508.454 1318.36 506.593C1318.82 504.732 1319.4 502.871 1319.87 501.01C1320.33 499.149 1320.8 497.288 1321.26 495.427C1321.73 493.566 1322.19 491.705 1322.66 489.844C1322.89 488.681 1323.24 487.402 1323.47 486.239C1323.94 484.61 1324.4 482.982 1324.75 481.47C1325.22 479.609 1325.68 477.748 1326.15 475.887C1326.61 474.026 1327.08 472.165 1327.54 470.304C1328.01 468.443 1328.47 466.582 1328.82 464.721C1329.29 462.861 1329.64 461 1330.1 459.139L1331.38 453.556C1331.38 453.44 1331.38 453.44 1331.38 453.323C1331.61 452.509 1331.85 451.811 1332.08 450.997C1332.66 449.136 1333.13 447.391 1333.71 445.531C1334.29 443.67 1334.87 441.809 1335.45 440.064C1336.15 438.203 1336.73 436.342 1337.43 434.714C1338.13 432.853 1338.83 431.108 1339.64 429.364C1340.45 427.619 1341.15 425.758 1341.97 424.013C1342.78 422.269 1343.71 420.408 1344.64 418.779C1345.57 417.035 1346.62 415.29 1347.55 413.546C1348.6 411.801 1349.64 410.056 1350.81 408.428C1351.97 406.683 1353.13 405.055 1354.41 403.427C1355.69 401.682 1356.97 400.054 1358.37 398.425C1359.76 396.797 1361.27 395.169 1362.79 393.54C1364.3 391.912 1365.93 390.284 1367.67 388.772C1369.42 387.143 1371.16 385.515 1373.02 384.003C1374.88 382.375 1376.86 380.863 1378.95 379.351C1381.05 377.839 1383.26 376.327 1385.47 374.815C1387.79 373.303 1390.12 371.791 1392.56 370.395C1395.12 368.883 1397.68 367.487 1400.35 366.092C1403.14 364.696 1405.94 363.3 1408.96 361.904C1411.98 360.509 1415.12 359.229 1418.26 357.95C1421.52 356.671 1425.01 355.391 1428.5 354.112C1432.11 352.832 1435.83 351.669 1439.67 350.506C1443.62 349.343 1447.69 348.18 1451.76 347.133C1456.07 345.97 1460.48 344.923 1464.9 343.877C1469.56 342.83 1474.33 341.899 1479.21 340.853C1484.21 339.922 1489.45 338.992 1494.8 338.177C1500.26 337.363 1505.85 336.549 1511.66 335.735C1517.59 334.921 1523.64 334.223 1529.92 333.641C1536.32 332.944 1542.95 332.362 1549.69 331.897C1556.56 331.315 1563.77 330.85 1570.98 330.501C1578.42 330.036 1586.1 329.687 1594.01 329.454C1602.03 329.105 1610.41 328.989 1618.78 328.756C1627.39 328.64 1636.46 328.524 1645.53 328.524H1647.51V304.913H1647.86ZM1342.43 415.523C1342.55 415.29 1342.55 415.174 1342.66 414.941C1343.36 413.197 1344.06 411.336 1344.76 409.591C1345.46 407.846 1346.27 405.986 1347.08 404.241C1347.9 402.496 1348.83 400.752 1349.64 399.007C1350.57 397.262 1351.5 395.518 1352.55 393.773C1353.6 392.028 1354.64 390.284 1355.69 388.655C1356.85 386.911 1358.02 385.283 1359.18 383.654C1360.46 381.91 1361.74 380.281 1363.02 378.653C1364.41 377.025 1365.81 375.28 1367.32 373.768C1368.83 372.14 1370.46 370.511 1372.09 368.999C1373.72 367.371 1375.58 365.743 1377.32 364.231C1379.18 362.602 1381.16 361.09 1383.14 359.578C1385.23 358.066 1387.33 356.554 1389.54 355.042C1391.75 353.53 1394.07 352.018 1396.51 350.623C1398.96 349.227 1401.52 347.715 1404.19 346.319C1406.87 344.923 1409.66 343.528 1412.57 342.132C1415.47 340.736 1418.61 339.457 1421.75 338.177C1425.01 336.898 1428.38 335.619 1431.76 334.339C1435.25 333.06 1438.97 331.897 1442.69 330.734C1446.53 329.571 1450.48 328.408 1454.67 327.361C1458.86 326.198 1463.16 325.151 1467.7 324.104C1472.23 323.057 1477 322.011 1481.77 321.196C1486.65 320.266 1491.89 319.335 1497.12 318.521C1502.47 317.707 1508.06 316.893 1513.75 316.079C1519.57 315.265 1525.62 314.567 1531.78 313.985C1538.06 313.287 1544.69 312.706 1551.21 312.241C1558.07 311.659 1565.16 311.194 1572.26 310.845C1579.59 310.38 1587.26 310.031 1594.94 309.798C1602.85 309.449 1611.1 309.333 1619.48 309.1C1627.39 308.984 1635.65 308.868 1644.02 308.868V324.686C1635.53 324.686 1627.27 324.802 1619.13 324.918C1610.64 325.035 1602.27 325.267 1594.24 325.616C1586.33 325.849 1578.65 326.314 1571.09 326.663C1563.77 327.128 1556.56 327.593 1549.69 328.175C1542.95 328.756 1536.2 329.338 1529.92 330.036C1523.64 330.734 1517.48 331.432 1511.54 332.129C1505.73 332.827 1500.03 333.758 1494.56 334.572C1489.21 335.386 1483.98 336.317 1478.86 337.247C1473.86 338.178 1469.09 339.224 1464.44 340.271C1459.9 341.318 1455.37 342.365 1451.06 343.528C1446.88 344.574 1442.81 345.738 1438.74 347.017C1434.9 348.18 1431.06 349.459 1427.45 350.739C1423.85 352.018 1420.36 353.298 1417.1 354.577C1413.84 355.856 1410.59 357.252 1407.56 358.648C1404.54 360.044 1401.63 361.439 1398.84 362.835C1396.05 364.231 1393.37 365.743 1390.82 367.255C1388.37 368.767 1385.81 370.279 1383.49 371.791C1381.16 373.303 1378.95 374.815 1376.86 376.443C1374.77 377.955 1372.79 379.583 1370.81 381.212C1368.95 382.84 1367.09 384.468 1365.34 386.097C1363.6 387.725 1361.97 389.353 1360.34 391.098C1358.83 392.726 1357.2 394.471 1355.81 396.216C1354.41 397.844 1353.02 399.589 1351.74 401.333C1350.46 403.078 1349.18 404.822 1348.01 406.567C1346.85 408.312 1345.69 410.056 1344.64 411.917C1343.94 412.848 1343.25 414.243 1342.43 415.523ZM966.405 623.25C975.71 623.25 984.898 623.134 993.738 623.018C1003.04 622.901 1012.23 622.669 1020.95 622.32C1029.56 622.087 1038.05 621.622 1046.31 621.273C1054.33 620.808 1062.24 620.343 1069.8 619.761C1077.25 619.18 1084.57 618.598 1091.67 617.9C1098.65 617.202 1105.39 616.504 1111.91 615.807C1118.3 615.109 1124.7 614.178 1130.75 613.364C1136.68 612.55 1142.5 611.619 1148.2 610.689C1153.66 609.759 1159.13 608.712 1164.36 607.665C1169.48 606.618 1174.48 605.571 1179.25 604.408C1184.02 603.362 1188.55 602.198 1193.09 600.919C1197.39 599.756 1201.7 598.477 1205.77 597.197C1209.72 595.918 1213.68 594.638 1217.52 593.359C1221.24 592.08 1224.84 590.684 1228.33 589.288C1231.71 587.892 1235.08 586.497 1238.33 585.101C1241.48 583.705 1244.5 582.193 1247.52 580.681C1250.43 579.169 1253.22 577.657 1255.9 576.145C1258.57 574.633 1261.13 573.121 1263.57 571.493C1266.02 569.981 1268.34 568.353 1270.55 566.724C1272.76 565.096 1274.97 563.468 1276.95 561.839C1278.93 560.211 1280.9 558.583 1282.76 556.838C1284.63 555.21 1286.37 553.465 1288.12 551.72C1289.74 550.092 1291.37 548.347 1293 546.603C1294.51 544.858 1296.02 543.114 1297.42 541.369C1298.82 539.624 1300.09 537.88 1301.37 536.135C1302.65 534.39 1303.82 532.646 1304.98 530.785C1306.14 529.04 1307.19 527.179 1308.24 525.435C1308.59 524.853 1308.93 524.155 1309.28 523.574C1308.82 524.853 1308.35 526.016 1307.89 527.179C1307.19 529.04 1306.38 530.785 1305.56 532.529C1304.75 534.39 1303.93 536.135 1303 537.88C1302.07 539.624 1301.14 541.485 1300.21 543.114C1299.28 544.858 1298.23 546.603 1297.07 548.347C1296.02 550.092 1294.86 551.837 1293.7 553.581C1292.53 555.326 1291.26 557.071 1289.86 558.699C1288.46 560.444 1287.07 562.072 1285.67 563.7C1284.16 565.445 1282.65 567.073 1281.02 568.702C1279.39 570.33 1277.65 572.074 1275.9 573.587C1274.16 575.215 1272.18 576.843 1270.32 578.471C1268.34 580.1 1266.25 581.728 1264.16 583.24C1261.95 584.868 1259.74 586.38 1257.41 587.892C1255.08 589.404 1252.52 590.916 1249.97 592.429C1247.41 593.941 1244.62 595.453 1241.94 596.848C1239.15 598.36 1236.13 599.756 1233.1 601.152C1229.96 602.547 1226.7 603.943 1223.45 605.339C1220.07 606.735 1216.59 608.014 1212.98 609.293C1209.26 610.573 1205.42 611.852 1201.58 613.132C1197.63 614.411 1193.44 615.574 1189.14 616.737C1184.72 617.9 1180.18 619.063 1175.64 620.11C1170.88 621.273 1165.99 622.32 1160.99 623.367C1155.87 624.413 1150.52 625.46 1145.17 626.391C1139.59 627.321 1133.89 628.252 1128.07 629.066C1122.14 629.88 1115.86 630.694 1109.58 631.508C1103.18 632.322 1096.44 633.02 1089.58 633.602C1082.6 634.3 1075.39 634.881 1068.06 635.463C1060.62 636.044 1052.71 636.51 1044.91 636.858C1036.89 637.324 1028.4 637.673 1019.91 637.905C1011.18 638.254 1002.11 638.371 993.04 638.603C984.317 638.719 975.244 638.836 966.056 638.836V623.25H966.405Z" fill="black"/>
<path d="M1647.85 285.257H1645.88C1636.92 285.257 1628.08 285.373 1619.71 285.489C1611.45 285.606 1603.19 285.838 1595.4 286.187C1587.72 286.42 1580.16 286.885 1572.84 287.234C1565.74 287.699 1558.65 288.165 1552.02 288.746C1545.39 289.328 1538.87 289.909 1532.71 290.607C1526.54 291.305 1520.61 292.003 1514.8 292.701C1509.1 293.398 1503.63 294.329 1498.28 295.143C1493.05 295.957 1487.93 296.888 1483.05 297.818C1478.28 298.749 1473.51 299.795 1468.97 300.842C1464.55 301.889 1460.25 302.936 1456.06 304.099C1451.99 305.146 1448.04 306.309 1444.2 307.588C1440.48 308.751 1436.75 310.031 1433.27 311.31C1429.89 312.589 1426.52 313.869 1423.26 315.148C1420.12 316.428 1416.98 317.823 1414.07 319.219C1411.17 320.615 1408.37 322.01 1405.7 323.406C1403.02 324.802 1400.47 326.314 1398.02 327.826C1395.58 329.338 1393.25 330.85 1391.04 332.362C1388.84 333.874 1386.74 335.386 1384.65 337.014C1382.67 338.526 1380.69 340.155 1378.83 341.783C1376.97 343.411 1375.23 345.04 1373.6 346.668C1371.97 348.296 1370.34 349.925 1368.83 351.669C1367.32 353.297 1365.92 355.042 1364.53 356.787C1363.13 358.415 1361.85 360.16 1360.57 361.904C1359.41 363.649 1358.13 365.394 1357.08 367.138C1356.04 368.883 1354.87 370.627 1353.94 372.488C1353.01 374.233 1351.97 375.978 1351.03 377.839C1350.1 379.583 1349.29 381.444 1348.48 383.189C1347.66 384.933 1346.85 386.794 1346.15 388.655C1345.45 390.4 1344.75 392.261 1344.06 394.122C1343.36 395.866 1342.78 397.727 1342.2 399.588C1341.61 401.449 1341.03 403.31 1340.45 405.171C1339.87 407.032 1339.4 408.893 1338.82 410.754C1338.36 412.615 1337.78 414.476 1337.31 416.337C1336.85 418.198 1336.38 420.059 1335.91 421.92C1335.45 423.781 1334.98 425.642 1334.64 427.502C1334.29 428.782 1334.05 430.061 1333.82 431.224C1333.36 432.736 1333.01 434.365 1332.54 435.993C1332.08 437.854 1331.61 439.715 1331.15 441.576C1330.68 443.437 1330.22 445.298 1329.75 447.159C1329.29 449.02 1328.94 450.881 1328.47 452.742L1327.19 458.324C1326.73 460.185 1326.38 462.046 1325.91 463.907C1325.8 464.256 1325.8 464.605 1325.68 464.954C1325.56 465.419 1325.45 465.884 1325.21 466.466C1324.63 468.327 1324.17 470.188 1323.59 471.932C1323 473.793 1322.42 475.654 1321.84 477.399C1321.26 479.26 1320.56 481.005 1319.86 482.865C1319.17 484.726 1318.47 486.471 1317.65 488.332C1316.84 490.193 1316.03 491.938 1315.21 493.682C1314.4 495.543 1313.47 497.288 1312.54 499.032C1311.61 500.893 1310.56 502.638 1309.63 504.266C1308.58 506.011 1307.54 507.872 1306.37 509.5C1305.21 511.245 1304.05 512.989 1302.77 514.734C1301.49 516.479 1300.21 518.223 1298.81 519.852C1297.42 521.596 1296.02 523.225 1294.51 524.969C1293 526.714 1291.37 528.342 1289.74 529.971C1288 531.599 1286.25 533.343 1284.51 534.855C1282.65 536.484 1280.67 538.112 1278.69 539.74C1276.6 541.369 1274.5 542.997 1272.29 544.509C1270.08 546.137 1267.76 547.649 1265.32 549.161C1262.87 550.674 1260.31 552.186 1257.64 553.698C1254.96 555.21 1252.17 556.722 1249.26 558.117C1246.36 559.629 1243.22 561.025 1240.19 562.421C1237.05 563.816 1233.68 565.212 1230.31 566.608C1226.82 568.004 1223.21 569.283 1219.49 570.562C1215.77 571.842 1211.7 573.121 1207.74 574.4C1203.67 575.68 1199.37 576.843 1194.95 578.006C1190.53 579.169 1185.88 580.332 1181.11 581.379C1176.22 582.542 1171.22 583.589 1166.1 584.636C1160.87 585.682 1155.4 586.729 1149.82 587.66C1144.12 588.59 1138.19 589.521 1132.26 590.335C1126.21 591.149 1119.81 591.963 1113.3 592.777C1106.67 593.591 1099.81 594.289 1092.83 594.871C1085.73 595.569 1078.29 596.15 1070.85 596.732C1063.05 597.313 1055.15 597.779 1047.12 598.128C1038.86 598.593 1030.26 598.942 1021.65 599.174C1012.69 599.523 1003.5 599.64 994.199 599.872C984.662 599.988 974.776 600.105 964.657 600.105H962.68V623.599H964.657C974.66 623.599 984.429 623.483 993.85 623.366C1003.16 623.25 1012.34 623.018 1021.07 622.669C1029.67 622.436 1038.16 621.971 1046.42 621.622C1054.45 621.157 1062.36 620.691 1069.92 620.11C1077.36 619.528 1084.69 618.947 1091.78 618.249C1098.76 617.551 1105.51 616.853 1112.02 616.155C1118.42 615.458 1124.81 614.527 1130.86 613.713C1136.79 612.899 1142.61 611.968 1148.31 611.038C1153.78 610.107 1159.24 609.061 1164.48 608.014C1169.59 606.967 1174.59 605.92 1179.36 604.757C1184.13 603.71 1188.67 602.547 1193.2 601.268C1197.51 600.105 1201.81 598.825 1205.88 597.546C1209.84 596.267 1213.79 594.987 1217.63 593.708C1221.35 592.428 1224.96 591.033 1228.45 589.637C1231.82 588.241 1235.19 586.846 1238.45 585.45C1241.59 584.054 1244.61 582.542 1247.64 581.03C1250.54 579.518 1253.34 578.006 1256.01 576.494C1258.69 574.982 1261.24 573.47 1263.69 571.842C1266.13 570.33 1268.46 568.701 1270.67 567.073C1272.88 565.445 1275.09 563.816 1277.06 562.188C1279.04 560.56 1281.02 558.931 1282.88 557.187C1284.74 555.558 1286.48 553.814 1288.23 552.069C1289.86 550.441 1291.48 548.696 1293.11 546.952C1294.63 545.207 1296.14 543.462 1297.53 541.718C1298.93 539.973 1300.21 538.228 1301.49 536.484C1302.77 534.739 1303.93 532.995 1305.09 531.134C1306.26 529.389 1307.3 527.528 1308.35 525.783C1309.4 524.039 1310.33 522.178 1311.26 520.317C1312.19 518.572 1313.12 516.711 1313.93 514.85C1314.75 513.106 1315.56 511.245 1316.37 509.384C1317.07 507.523 1317.89 505.662 1318.58 503.801C1319.28 502.056 1319.86 500.079 1320.56 498.218C1321.14 496.357 1321.84 494.496 1322.31 492.635C1322.89 490.774 1323.47 488.914 1323.93 487.053C1324.52 485.192 1324.98 483.331 1325.45 481.47C1325.91 479.609 1326.38 477.748 1326.84 475.887C1327.31 474.026 1327.77 472.165 1328.24 470.304C1328.59 468.792 1328.94 467.396 1329.29 465.884C1329.63 464.605 1329.98 463.209 1330.33 461.93C1330.8 460.069 1331.26 458.208 1331.73 456.347C1332.19 454.486 1332.66 452.625 1333.12 450.764C1333.59 448.903 1334.05 447.042 1334.4 445.181C1334.87 443.32 1335.22 441.46 1335.68 439.599L1336.96 434.016C1337.08 433.434 1337.19 432.853 1337.31 432.271C1337.43 432.038 1337.43 431.806 1337.54 431.573C1338.01 429.712 1338.59 427.968 1339.17 426.107C1339.75 424.246 1340.33 422.385 1340.92 420.64C1341.5 418.779 1342.2 417.035 1342.78 415.29C1343.47 413.545 1344.17 411.685 1344.87 409.94C1345.57 408.195 1346.38 406.334 1347.2 404.59C1348.01 402.845 1348.94 401.1 1349.76 399.356C1350.69 397.611 1351.62 395.866 1352.66 394.122C1353.71 392.377 1354.76 390.633 1355.8 389.004C1356.97 387.26 1358.13 385.631 1359.29 384.003C1360.57 382.258 1361.85 380.63 1363.13 379.002C1364.53 377.373 1365.92 375.629 1367.43 374.117C1368.95 372.488 1370.57 370.86 1372.2 369.348C1373.83 367.72 1375.69 366.091 1377.44 364.579C1379.3 362.951 1381.28 361.439 1383.25 359.927C1385.35 358.415 1387.44 356.903 1389.65 355.391C1391.86 353.879 1394.19 352.367 1396.63 350.971C1399.07 349.576 1401.63 348.064 1404.3 346.668C1406.98 345.272 1409.77 343.876 1412.68 342.481C1415.59 341.085 1418.73 339.806 1421.87 338.526C1425.12 337.247 1428.5 335.967 1431.87 334.688C1435.36 333.409 1439.08 332.246 1442.8 331.082C1446.64 329.919 1450.6 328.756 1454.78 327.71C1458.97 326.546 1463.27 325.5 1467.81 324.453C1472.34 323.406 1477.11 322.359 1481.88 321.545C1486.77 320.615 1492 319.684 1497.23 318.87C1502.59 318.056 1508.17 317.242 1513.87 316.428C1519.68 315.613 1525.73 314.916 1531.89 314.334C1538.18 313.636 1544.81 313.055 1551.32 312.589C1558.18 312.008 1565.28 311.543 1572.37 311.194C1579.7 310.728 1587.37 310.379 1595.05 310.147C1602.96 309.798 1611.22 309.682 1619.59 309.449C1628.2 309.333 1637.04 309.216 1645.99 309.216H1647.97V285.257H1647.85ZM1347.55 394.703C1348.13 393.075 1348.82 391.447 1349.41 389.935C1350.1 388.074 1350.92 386.329 1351.62 384.585C1352.43 382.84 1353.24 381.095 1354.18 379.351C1355.11 377.606 1356.04 375.861 1356.97 374.117C1358.01 372.372 1358.94 370.627 1359.99 368.999C1361.04 367.255 1362.2 365.626 1363.36 363.998C1364.53 362.253 1365.81 360.625 1367.2 358.997C1368.6 357.368 1369.99 355.624 1371.39 354.112C1372.9 352.483 1374.41 350.855 1376.04 349.343C1377.67 347.715 1379.41 346.203 1381.16 344.574C1383.02 342.946 1384.88 341.434 1386.86 339.922C1388.84 338.41 1390.93 336.898 1393.02 335.386C1395.23 333.874 1397.56 332.362 1399.88 330.966C1402.33 329.454 1404.77 328.058 1407.44 326.663C1410.12 325.267 1412.91 323.871 1415.7 322.476C1418.61 321.08 1421.63 319.801 1424.77 318.521C1427.91 317.242 1431.29 315.962 1434.66 314.683C1438.15 313.404 1441.76 312.24 1445.48 311.077C1449.32 309.914 1453.27 308.751 1457.22 307.704C1461.3 306.541 1465.6 305.495 1470.02 304.448C1474.55 303.401 1479.21 302.471 1483.98 301.54C1488.86 300.61 1493.98 299.679 1499.1 298.865C1504.33 298.051 1509.91 297.237 1515.5 296.422C1521.19 295.608 1527.13 294.91 1533.29 294.329C1539.46 293.631 1545.97 293.05 1552.48 292.584C1559.23 292.003 1566.21 291.537 1573.3 291.189C1580.63 290.723 1588.07 290.374 1595.75 290.142C1603.54 289.793 1611.68 289.677 1619.94 289.444C1627.73 289.328 1635.87 289.211 1644.13 289.211V305.029C1635.76 305.029 1627.5 305.146 1619.59 305.262C1611.22 305.378 1602.96 305.611 1595.05 305.96C1587.26 306.192 1579.58 306.658 1572.25 307.007C1565.16 307.472 1557.95 307.937 1551.09 308.519C1544.46 309.1 1537.83 309.682 1531.55 310.38C1525.38 311.077 1519.33 311.775 1513.4 312.473C1507.7 313.171 1502.12 314.101 1496.65 314.916C1491.3 315.73 1486.19 316.66 1481.18 317.591C1476.3 318.521 1471.53 319.568 1466.88 320.615C1462.34 321.661 1457.92 322.708 1453.74 323.871C1449.55 324.918 1445.48 326.198 1441.64 327.361C1437.8 328.524 1434.08 329.803 1430.47 331.082C1426.98 332.362 1423.5 333.641 1420.24 334.921C1417.1 336.2 1413.84 337.596 1410.82 338.992C1407.91 340.387 1405 341.783 1402.21 343.179C1399.54 344.574 1396.86 346.086 1394.42 347.598C1391.98 349.11 1389.53 350.622 1387.21 352.134C1385 353.646 1382.79 355.158 1380.69 356.787C1378.6 358.299 1376.62 359.927 1374.76 361.555C1372.9 363.184 1371.04 364.812 1369.41 366.44C1367.78 368.069 1366.04 369.697 1364.53 371.442C1363.01 373.07 1361.5 374.815 1360.11 376.559C1358.71 378.188 1357.43 379.932 1356.15 381.677C1354.87 383.421 1353.71 385.166 1352.55 386.911C1351.38 388.655 1350.34 390.4 1349.29 392.261C1348.59 392.842 1348.13 393.773 1347.55 394.703ZM966.402 603.594C975.823 603.594 985.011 603.478 993.967 603.361C1003.27 603.245 1012.58 603.012 1021.53 602.664C1030.26 602.431 1038.86 601.966 1047.12 601.617C1055.15 601.152 1063.17 600.686 1070.96 600.105C1078.52 599.523 1085.97 598.942 1093.06 598.244C1100.04 597.546 1106.9 596.848 1113.53 596.15C1120.05 595.452 1126.44 594.522 1132.61 593.708C1138.65 592.894 1144.59 591.963 1150.29 591.033C1155.87 590.102 1161.34 589.055 1166.69 588.009C1171.8 586.962 1176.92 585.915 1181.81 584.752C1186.57 583.705 1191.23 582.542 1195.76 581.263C1200.18 580.1 1204.49 578.82 1208.67 577.541C1212.74 576.261 1216.81 574.982 1220.54 573.703C1224.26 572.423 1227.98 571.028 1231.47 569.632C1234.96 568.236 1238.33 566.84 1241.59 565.445C1244.73 564.049 1247.87 562.537 1250.89 561.025C1253.8 559.513 1256.71 558.001 1259.38 556.489C1262.06 554.977 1264.73 553.465 1267.18 551.837C1269.62 550.325 1272.06 548.696 1274.39 547.068C1276.6 545.44 1278.81 543.811 1280.9 542.183C1282.88 540.555 1284.97 538.926 1286.83 537.182C1288.69 535.553 1290.55 533.809 1292.3 532.064C1294.04 530.436 1295.67 528.691 1297.18 526.947C1298.7 525.202 1300.21 523.457 1301.72 521.713C1303.12 519.968 1304.51 518.223 1305.79 516.479C1307.07 514.734 1308.23 512.989 1309.51 511.129C1310.68 509.384 1311.72 507.523 1312.89 505.778C1313.47 504.848 1313.93 503.801 1314.51 502.871C1313.93 504.383 1313.35 506.011 1312.65 507.523C1311.95 509.384 1311.14 511.129 1310.33 512.873C1309.51 514.618 1308.58 516.479 1307.77 518.223C1306.84 519.968 1305.91 521.829 1304.86 523.457C1303.81 525.202 1302.77 526.947 1301.72 528.691C1300.56 530.436 1299.39 532.18 1298.23 533.925C1296.95 535.67 1295.67 537.414 1294.39 539.043C1293 540.787 1291.6 542.416 1290.09 544.16C1288.58 545.905 1286.95 547.533 1285.44 549.161C1283.81 550.79 1282.06 552.534 1280.2 554.046C1278.34 555.675 1276.48 557.303 1274.5 558.931C1272.53 560.56 1270.43 562.188 1268.22 563.7C1266.01 565.328 1263.69 566.84 1261.36 568.352C1258.92 569.864 1256.36 571.376 1253.8 572.888C1251.13 574.4 1248.45 575.912 1245.54 577.308C1242.63 578.82 1239.61 580.216 1236.59 581.612C1233.45 583.007 1230.07 584.403 1226.82 585.799C1223.33 587.194 1219.84 588.474 1216.12 589.753C1212.39 591.033 1208.44 592.312 1204.49 593.591C1200.41 594.871 1196.23 596.034 1191.92 597.197C1187.5 598.36 1182.97 599.523 1178.32 600.57C1173.55 601.733 1168.55 602.78 1163.54 603.827C1158.43 604.873 1152.96 605.92 1147.49 606.851C1141.91 607.781 1136.1 608.712 1130.16 609.526C1124.12 610.34 1117.84 611.154 1111.44 611.968C1104.93 612.782 1098.18 613.48 1091.2 614.062C1084.22 614.76 1076.89 615.341 1069.45 615.806C1061.89 616.388 1053.98 616.853 1045.96 617.202C1037.82 617.667 1029.32 618.016 1020.72 618.249C1011.99 618.598 1002.81 618.714 993.618 618.947C984.778 619.063 975.59 619.179 966.402 619.179V603.594Z" fill="black"/>
<path d="M1647.85 265.6H1645.87C1637.03 265.6 1628.31 265.717 1619.94 265.833C1611.68 265.949 1603.65 266.182 1595.98 266.531C1588.42 266.763 1580.86 267.229 1573.76 267.578C1566.67 268.043 1559.81 268.508 1553.18 269.09C1546.66 269.671 1540.27 270.253 1534.1 270.951C1528.17 271.648 1522.24 272.346 1516.42 273.044C1510.96 273.742 1505.37 274.672 1500.14 275.487C1495.02 276.301 1489.9 277.231 1485.14 278.162C1480.48 279.092 1475.83 280.139 1471.29 281.186C1466.99 282.233 1462.69 283.279 1458.5 284.442C1454.43 285.489 1450.59 286.769 1446.75 287.932C1443.03 289.095 1439.43 290.374 1435.94 291.654C1432.56 292.933 1429.19 294.212 1426.05 295.492C1422.91 296.771 1419.89 298.167 1416.98 299.563C1414.19 300.958 1411.4 302.354 1408.72 303.75C1406.16 305.145 1403.6 306.657 1401.16 308.169C1398.83 309.681 1396.51 311.193 1394.3 312.705C1392.2 314.217 1389.99 315.729 1388.02 317.358C1386.04 318.87 1384.18 320.498 1382.32 322.126C1380.57 323.755 1378.83 325.383 1377.2 327.011C1375.57 328.64 1374.06 330.268 1372.55 332.013C1371.15 333.641 1369.64 335.386 1368.36 337.13C1367.08 338.875 1365.8 340.503 1364.52 342.248C1363.36 343.993 1362.2 345.737 1361.03 347.482C1359.99 349.226 1358.94 350.971 1357.89 352.716C1356.96 354.46 1356.03 356.205 1355.1 358.066C1354.29 359.81 1353.36 361.671 1352.54 363.416C1351.73 365.161 1351.03 367.022 1350.33 368.883C1349.64 370.627 1348.94 372.488 1348.24 374.349C1347.66 376.094 1346.96 377.955 1346.38 379.816C1345.8 381.677 1345.22 383.538 1344.63 385.282C1344.05 387.143 1343.59 389.004 1343.12 390.865C1342.66 392.726 1342.19 394.587 1341.73 396.448C1341.26 398.309 1340.8 400.17 1340.33 402.031C1339.87 403.892 1339.4 405.753 1339.05 407.613C1338.94 408.311 1338.7 409.009 1338.59 409.707C1338.47 409.94 1338.47 410.289 1338.35 410.521C1337.89 412.382 1337.31 414.243 1336.84 416.104C1336.38 417.965 1335.91 419.826 1335.45 421.687C1334.98 423.548 1334.52 425.409 1334.17 427.27C1333.7 429.131 1333.35 430.991 1332.89 432.852L1331.61 438.435C1331.14 440.296 1330.79 442.157 1330.33 444.018C1330.33 444.134 1330.33 444.251 1330.21 444.367C1329.98 445.065 1329.75 445.879 1329.63 446.577C1329.05 448.438 1328.58 450.299 1328 452.043C1327.42 453.904 1326.84 455.765 1326.14 457.51C1325.44 459.371 1324.86 461.232 1324.16 462.976C1323.47 464.837 1322.65 466.698 1321.95 468.443C1321.14 470.304 1320.33 472.048 1319.51 473.793C1318.7 475.654 1317.77 477.399 1316.84 479.143C1315.91 480.888 1314.86 482.749 1313.81 484.377C1312.77 486.122 1311.6 487.866 1310.56 489.611C1309.39 491.356 1308.11 493.1 1306.95 494.845C1305.67 496.59 1304.28 498.334 1302.88 499.963C1301.48 501.707 1299.97 503.336 1298.46 505.08C1296.95 506.709 1295.2 508.453 1293.57 510.081C1291.83 511.71 1290.09 513.454 1288.22 514.966C1286.36 516.595 1284.39 518.223 1282.29 519.851C1280.2 521.48 1277.99 523.108 1275.78 524.62C1273.45 526.132 1271.13 527.76 1268.68 529.272C1266.13 530.784 1263.57 532.296 1260.89 533.808C1258.22 535.32 1255.31 536.833 1252.4 538.228C1249.38 539.74 1246.35 541.136 1243.1 542.532C1239.84 543.927 1236.47 545.323 1232.98 546.719C1229.49 548.114 1225.77 549.394 1222.04 550.673C1218.21 551.953 1214.14 553.232 1210.07 554.511C1205.88 555.791 1201.57 556.954 1197.15 558.117C1192.62 559.28 1187.97 560.443 1183.08 561.49C1178.2 562.653 1173.08 563.7 1167.84 564.747C1162.49 565.793 1157.03 566.84 1151.45 567.771C1145.75 568.701 1139.7 569.632 1133.65 570.446C1127.37 571.26 1120.97 572.19 1114.46 572.888C1107.83 573.702 1100.85 574.4 1093.76 574.982C1086.55 575.68 1078.99 576.261 1071.42 576.726C1063.63 577.308 1055.61 577.773 1047.47 578.122C1039.09 578.587 1030.48 578.936 1021.64 579.169C1012.69 579.518 1003.38 579.634 993.963 579.867C984.31 579.983 974.307 580.099 964.188 580.099H962.211V603.594H964.188C974.191 603.594 984.193 603.477 993.731 603.361C1003.04 603.245 1012.34 603.012 1021.3 602.663C1030.02 602.431 1038.63 601.965 1046.88 601.617C1054.91 601.151 1062.93 600.686 1070.73 600.104C1078.29 599.523 1085.73 598.941 1092.83 598.244C1099.8 597.546 1106.67 596.848 1113.3 596.15C1119.81 595.452 1126.21 594.522 1132.37 593.708C1138.42 592.893 1144.35 591.963 1150.05 591.032C1155.63 590.102 1161.1 589.055 1166.45 588.008C1171.57 586.962 1176.68 585.915 1181.57 584.752C1186.34 583.705 1190.99 582.542 1195.53 581.262C1199.95 580.099 1204.25 578.82 1208.44 577.541C1212.51 576.261 1216.58 574.982 1220.3 573.702C1224.02 572.423 1227.74 571.027 1231.23 569.632C1234.72 568.236 1238.1 566.84 1241.35 565.444C1244.49 564.049 1247.63 562.537 1250.66 561.025C1253.56 559.513 1256.47 558.001 1259.15 556.489C1261.82 554.977 1264.5 553.465 1266.94 551.836C1269.38 550.324 1271.82 548.696 1274.15 547.068C1276.36 545.439 1278.57 543.811 1280.66 542.183C1282.64 540.554 1284.74 538.926 1286.6 537.181C1288.46 535.553 1290.32 533.808 1292.06 532.064C1293.81 530.436 1295.44 528.691 1296.95 526.946C1298.46 525.202 1299.97 523.457 1301.48 521.712C1302.88 519.968 1304.28 518.223 1305.55 516.478C1306.83 514.734 1308 512.989 1309.28 511.128C1310.44 509.384 1311.49 507.523 1312.65 505.778C1313.7 504.033 1314.63 502.172 1315.67 500.312C1316.6 498.567 1317.53 496.706 1318.35 494.845C1319.16 493.1 1319.98 491.239 1320.79 489.379C1321.61 487.518 1322.3 485.657 1323 483.796C1323.7 481.935 1324.4 480.074 1324.98 478.213C1325.56 476.468 1326.26 474.491 1326.84 472.63C1327.42 470.769 1328 468.908 1328.47 467.047C1329.05 465.186 1329.51 463.325 1329.98 461.464C1330.44 459.603 1330.91 457.743 1331.38 455.882C1331.84 454.021 1332.31 452.16 1332.77 450.299C1333.24 448.554 1333.59 446.809 1333.93 445.181C1334.28 444.134 1334.52 442.971 1334.86 441.925C1335.33 440.064 1335.79 438.203 1336.26 436.342C1336.73 434.481 1337.19 432.62 1337.66 430.759C1338.12 428.898 1338.59 427.037 1338.94 425.176C1339.4 423.315 1339.75 421.454 1340.21 419.593L1341.49 414.01C1341.73 412.847 1341.96 411.801 1342.19 410.637C1342.66 409.125 1343.01 407.613 1343.47 406.101C1344.05 404.24 1344.63 402.496 1345.22 400.635C1345.8 398.774 1346.5 397.029 1347.08 395.285C1347.77 393.424 1348.47 391.679 1349.17 389.934C1349.87 388.074 1350.68 386.329 1351.38 384.584C1352.19 382.84 1353.01 381.095 1353.94 379.35C1354.87 377.606 1355.8 375.861 1356.73 374.116C1357.78 372.372 1358.71 370.627 1359.75 368.999C1360.8 367.254 1361.96 365.626 1363.13 363.998C1364.29 362.253 1365.57 360.625 1366.97 358.996C1368.36 357.368 1369.76 355.623 1371.15 354.111C1372.66 352.483 1374.18 350.855 1375.81 349.343C1377.43 347.714 1379.18 346.202 1380.92 344.574C1382.78 342.946 1384.64 341.434 1386.62 339.922C1388.6 338.41 1390.69 336.898 1392.79 335.386C1395 333.874 1397.32 332.362 1399.65 330.966C1402.09 329.454 1404.53 328.058 1407.21 326.662C1409.88 325.267 1412.67 323.871 1415.47 322.475C1418.37 321.08 1421.4 319.8 1424.54 318.521C1427.68 317.241 1431.05 315.962 1434.42 314.683C1437.91 313.403 1441.52 312.24 1445.24 311.077C1449.08 309.914 1453.03 308.751 1456.99 307.704C1461.06 306.541 1465.36 305.494 1469.78 304.448C1474.32 303.401 1478.97 302.47 1483.74 301.54C1488.62 300.609 1493.74 299.679 1498.86 298.865C1504.09 298.051 1509.68 297.236 1515.26 296.422C1520.96 295.608 1526.89 294.91 1533.05 294.329C1539.22 293.631 1545.73 293.049 1552.25 292.584C1558.99 292.002 1565.97 291.537 1573.06 291.188C1580.39 290.723 1587.84 290.374 1595.51 290.142C1603.31 289.793 1611.45 289.676 1619.7 289.444C1628.08 289.327 1636.92 289.211 1645.87 289.211H1647.85V265.6ZM1352.66 373.884C1353.12 372.604 1353.59 371.441 1354.06 370.278C1354.75 368.534 1355.45 366.673 1356.27 364.928C1357.08 363.183 1357.89 361.439 1358.71 359.694C1359.64 357.95 1360.45 356.205 1361.38 354.46C1362.31 352.716 1363.36 350.971 1364.41 349.343C1365.45 347.598 1366.62 345.97 1367.78 344.341C1368.94 342.713 1370.22 340.968 1371.5 339.34C1372.78 337.712 1374.18 335.967 1375.57 334.455C1376.97 332.827 1378.6 331.199 1380.11 329.687C1381.74 328.058 1383.37 326.546 1385.11 324.918C1386.85 323.406 1388.72 321.778 1390.69 320.265C1392.67 318.753 1394.65 317.241 1396.74 315.729C1398.95 314.217 1401.16 312.705 1403.49 311.31C1405.81 309.798 1408.37 308.402 1410.81 307.006C1413.37 305.611 1416.16 304.215 1418.96 302.819C1421.75 301.423 1424.77 300.144 1427.8 298.865C1430.94 297.585 1434.19 296.306 1437.45 295.026C1440.82 293.747 1444.43 292.584 1448.03 291.421C1451.75 290.258 1455.59 289.095 1459.55 288.048C1463.62 286.885 1467.81 285.838 1472.11 284.791C1476.53 283.745 1481.18 282.698 1485.83 281.884C1490.6 280.953 1495.6 280.023 1500.72 279.208C1505.95 278.394 1511.42 277.58 1516.89 276.766C1522.59 275.952 1528.4 275.254 1534.45 274.672C1540.61 273.975 1547.01 273.393 1553.41 272.928C1560.04 272.346 1566.9 271.881 1573.88 271.532C1581.09 271.067 1588.53 270.718 1596.09 270.485C1603.77 270.136 1611.91 270.02 1620.05 269.788C1627.85 269.671 1635.76 269.555 1643.9 269.555V285.257C1635.64 285.257 1627.5 285.373 1619.59 285.489C1611.33 285.606 1603.07 285.838 1595.28 286.187C1587.6 286.42 1580.04 286.885 1572.72 287.234C1565.62 287.699 1558.53 288.164 1551.9 288.746C1545.27 289.327 1538.75 289.909 1532.59 290.607C1526.42 291.305 1520.49 292.002 1514.68 292.7C1508.98 293.398 1503.51 294.329 1498.16 295.143C1492.93 295.957 1487.81 296.887 1482.93 297.818C1478.16 298.748 1473.39 299.795 1468.85 300.842C1464.43 301.889 1460.13 302.936 1455.94 304.099C1451.87 305.145 1447.92 306.308 1444.08 307.588C1440.36 308.751 1436.63 310.03 1433.15 311.31C1429.77 312.589 1426.4 313.869 1423.14 315.148C1420 316.427 1416.86 317.823 1413.95 319.219C1411.05 320.614 1408.26 322.01 1405.58 323.406C1402.91 324.802 1400.35 326.314 1397.9 327.826C1395.46 329.338 1393.14 330.85 1390.93 332.362C1388.72 333.874 1386.62 335.386 1384.53 337.014C1382.55 338.526 1380.57 340.154 1378.71 341.783C1376.85 343.411 1375.11 345.039 1373.48 346.668C1371.85 348.296 1370.22 349.924 1368.71 351.669C1367.2 353.297 1365.8 355.042 1364.41 356.786C1363.01 358.415 1361.73 360.159 1360.45 361.904C1359.29 363.649 1358.01 365.393 1356.96 367.138C1355.92 368.883 1354.75 370.627 1353.82 372.488C1353.36 372.837 1353.01 373.419 1352.66 373.884ZM966.398 583.938C975.819 583.938 985.24 583.821 994.312 583.705C1003.73 583.589 1013.15 583.356 1022.11 583.007C1030.95 582.774 1039.56 582.309 1047.93 581.96C1056.07 581.495 1064.21 581.03 1072.01 580.448C1079.57 579.867 1087.13 579.285 1094.34 578.587C1101.43 577.89 1108.41 577.192 1115.16 576.494C1121.67 575.796 1128.18 574.982 1134.46 574.051C1140.51 573.237 1146.56 572.307 1152.38 571.376C1157.96 570.446 1163.54 569.399 1168.89 568.352C1174.13 567.305 1179.24 566.259 1184.24 565.096C1189.13 564.049 1193.9 562.886 1198.43 561.606C1202.85 560.443 1207.27 559.164 1211.58 557.884C1215.65 556.605 1219.72 555.326 1223.67 554.046C1227.51 552.767 1231.23 551.371 1234.84 549.975C1238.33 548.58 1241.82 547.184 1245.07 545.788C1248.33 544.393 1251.47 542.881 1254.49 541.369C1257.4 539.857 1260.43 538.345 1263.1 536.833C1265.78 535.32 1268.45 533.808 1271.01 532.18C1273.57 530.668 1276.01 529.04 1278.34 527.411C1280.66 525.783 1282.87 524.155 1284.97 522.527C1287.06 520.898 1289.04 519.27 1291.02 517.525C1292.88 515.897 1294.74 514.152 1296.6 512.408C1298.34 510.779 1300.09 509.035 1301.6 507.29C1303.11 505.545 1304.74 503.801 1306.14 502.056C1307.53 500.312 1308.93 498.567 1310.32 496.822C1311.6 495.078 1312.88 493.333 1314.05 491.472C1315.21 489.727 1316.37 487.866 1317.42 486.122C1318.12 484.842 1318.93 483.563 1319.63 482.284V482.4C1318.93 484.261 1318.23 486.006 1317.42 487.866C1316.6 489.727 1315.79 491.472 1314.98 493.217C1314.16 495.078 1313.23 496.822 1312.3 498.567C1311.37 500.428 1310.32 502.172 1309.39 503.801C1308.35 505.545 1307.3 507.406 1306.14 509.035C1304.97 510.779 1303.81 512.524 1302.53 514.269C1301.25 516.013 1299.97 517.758 1298.58 519.386C1297.18 521.131 1295.78 522.759 1294.27 524.504C1292.76 526.248 1291.13 527.877 1289.5 529.505C1287.76 531.133 1286.01 532.878 1284.27 534.39C1282.41 536.018 1280.43 537.647 1278.45 539.275C1276.36 540.903 1274.27 542.532 1272.06 544.044C1269.85 545.672 1267.52 547.184 1265.08 548.696C1262.64 550.208 1260.08 551.72 1257.4 553.232C1254.73 554.744 1251.94 556.256 1249.03 557.652C1246.12 559.164 1242.98 560.56 1239.96 561.955C1236.82 563.351 1233.44 564.747 1230.07 566.142C1226.58 567.538 1222.98 568.817 1219.25 570.097C1215.53 571.376 1211.46 572.656 1207.51 573.935C1203.44 575.214 1199.13 576.377 1194.71 577.541C1190.29 578.704 1185.64 579.867 1180.87 580.914C1175.99 582.077 1170.99 583.123 1165.87 584.17C1160.63 585.217 1155.17 586.264 1149.58 587.194C1143.89 588.125 1137.95 589.055 1132.02 589.869C1125.97 590.683 1119.58 591.498 1113.06 592.312C1106.43 593.126 1099.57 593.824 1092.59 594.405C1085.5 595.103 1078.05 595.685 1070.61 596.266C1062.82 596.848 1054.91 597.313 1046.88 597.662C1038.63 598.127 1030.02 598.476 1021.41 598.709C1012.46 599.058 1003.27 599.174 993.963 599.407C985.007 599.523 975.819 599.639 966.398 599.639V583.938Z" fill="black"/>
<path d="M467.668 638.952H297.508V662.446H467.668V638.952ZM301.462 642.906H463.829V658.608H301.462V642.906Z" fill="black"/>
<path d="M633.879 638.952H463.836V662.446H633.879V638.952ZM467.674 642.906H630.041V658.608H467.674V642.906Z" fill="black"/>
<path d="M800.09 638.952H630.047V662.446H800.207V638.952H800.09ZM633.885 642.906H796.252V658.608H633.885V642.906Z" fill="black"/>
<path d="M966.41 638.952H796.25V662.446H966.41V638.952ZM800.088 642.906H962.455V658.608H800.088V642.906Z" fill="black"/>
<path d="M467.668 619.412H297.508V642.906H467.668V619.412ZM301.462 623.25H463.829V638.952H301.462V623.25Z" fill="black"/>
<path d="M633.879 619.412H463.836V642.906H633.879V619.412ZM467.674 623.25H630.041V638.952H467.674V623.25Z" fill="black"/>
<path d="M800.09 619.412H630.047V642.906H800.207V619.412H800.09ZM633.885 623.25H796.252V638.952H633.885V623.25Z" fill="black"/>
<path d="M966.41 619.412H796.25V642.906H966.41V619.412ZM800.088 623.25H962.455V638.952H800.088V623.25Z" fill="black"/>
<path d="M467.668 599.756H297.508V623.25H467.668V599.756ZM301.462 603.594H463.829V619.412H301.462V603.594Z" fill="black"/>
<path d="M633.879 599.756H463.836V623.25H633.879V599.756ZM467.674 603.594H630.041V619.412H467.674V603.594Z" fill="black"/>
<path d="M800.09 599.756H630.047V623.25H800.207V599.756H800.09ZM633.885 603.594H796.252V619.412H633.885V603.594Z" fill="black"/>
<path d="M966.41 599.756H796.25V623.25H966.41V599.756ZM800.088 603.594H962.455V619.412H800.088V603.594Z" fill="black"/>
<path d="M467.668 580.1H297.508V603.594H467.668V580.1ZM301.462 583.938H463.829V599.64H301.462V583.938Z" fill="black"/>
<path d="M633.879 580.1H463.836V603.594H633.879V580.1ZM467.674 583.938H630.041V599.64H467.674V583.938Z" fill="black"/>
<path d="M800.09 580.1H630.047V603.594H800.207V580.1H800.09ZM633.885 583.938H796.252V599.64H633.885V583.938Z" fill="black"/>
<path d="M966.41 580.1H796.25V603.594H966.41V580.1ZM800.088 583.938H962.455V599.64H800.088V583.938Z" fill="black"/>
<g opacity="0.5">
<path d="M467.668 717.576H297.508V741.07H467.668V717.576ZM301.462 721.53H463.829V737.232H301.462V721.53Z" fill="black"/>
<path d="M633.879 717.576H463.836V741.07H633.879V717.576ZM467.674 721.53H630.041V737.232H467.674V721.53Z" fill="black"/>
<path d="M800.09 717.576H630.047V741.07H800.207V717.576H800.09ZM633.885 721.53H796.252V737.232H633.885V721.53Z" fill="black"/>
<path d="M966.41 717.576H796.25V741.07H966.41V717.576ZM800.088 721.53H962.455V737.232H800.088V721.53Z" fill="black"/>
<path d="M467.668 697.92H297.508V721.415H467.668V697.92ZM301.462 701.875H463.829V717.576H301.462V701.875Z" fill="black"/>
<path d="M633.879 697.92H463.836V721.415H633.879V697.92ZM467.674 701.875H630.041V717.576H467.674V701.875Z" fill="black"/>
<path d="M800.09 697.92H630.047V721.415H800.207V697.92H800.09ZM633.885 701.875H796.252V717.576H633.885V701.875Z" fill="black"/>
<path d="M966.41 697.92H796.25V721.415H966.41V697.92ZM800.088 701.875H962.455V717.576H800.088V701.875Z" fill="black"/>
<path d="M467.668 678.264H297.508V701.758H467.668V678.264ZM301.462 682.218H463.829V697.92H301.462V682.218Z" fill="black"/>
<path d="M633.879 678.264H463.836V701.758H633.879V678.264ZM467.674 682.218H630.041V697.92H467.674V682.218Z" fill="black"/>
<path d="M800.09 678.264H630.047V701.758H800.207V678.264H800.09ZM633.885 682.218H796.252V697.92H633.885V682.218Z" fill="black"/>
<path d="M966.41 678.264H796.25V701.758H966.41V678.264ZM800.088 682.218H962.455V697.92H800.088V682.218Z" fill="black"/>
<path d="M467.668 658.608H297.508V682.218H467.668V658.608ZM301.462 662.562H463.829V678.264H301.462V662.562Z" fill="black"/>
<path d="M633.879 658.608H463.836V682.218H633.879V658.608ZM467.674 662.562H630.041V678.264H467.674V662.562Z" fill="black"/>
<path d="M800.09 658.608H630.047V682.218H800.207V658.608H800.09ZM633.885 662.562H796.252V678.264H633.885V662.562Z" fill="black"/>
<path d="M966.41 658.608H796.25V682.218H966.41V658.608ZM800.088 662.562H962.455V678.264H800.088V662.562Z" fill="black"/>
<path d="M467.668 560.443H297.508V583.938H467.668V560.443ZM301.462 564.281H463.829V579.983H301.462V564.281Z" fill="black"/>
<path d="M633.879 560.443H463.836V583.938H633.879V560.443ZM467.674 564.281H630.041V579.983H467.674V564.281Z" fill="black"/>
<path d="M800.09 560.443H630.047V583.938H800.207V560.443H800.09ZM633.885 564.281H796.252V579.983H633.885V564.281Z" fill="black"/>
<path d="M966.41 560.443H796.25V583.938H966.41V560.443ZM800.088 564.281H962.455V579.983H800.088V564.281Z" fill="black"/>
<path d="M467.668 540.787H297.508V564.282H467.668V540.787ZM301.462 544.626H463.829V560.327H301.462V544.626Z" fill="black"/>
<path d="M633.879 540.787H463.836V564.281H633.879V540.787ZM467.674 544.625H630.041V560.327H467.674V544.625Z" fill="black"/>
<path d="M800.09 540.787H630.047V564.282H800.207V540.787H800.09ZM633.885 544.626H796.252V560.327H633.885V544.626Z" fill="black"/>
<path d="M966.41 540.787H796.25V564.282H966.41V540.787ZM800.088 544.626H962.455V560.327H800.088V544.626Z" fill="black"/>
<path d="M467.668 521.131H297.508V544.625H467.668V521.131ZM301.462 524.969H463.829V540.67H301.462V524.969Z" fill="black"/>
<path d="M633.879 521.131H463.836V544.625H633.879V521.131ZM467.674 524.969H630.041V540.67H467.674V524.969Z" fill="black"/>
<path d="M800.09 521.131H630.047V544.625H800.207V521.131H800.09ZM633.885 524.969H796.252V540.67H633.885V524.969Z" fill="black"/>
<path d="M966.41 521.131H796.25V544.625H966.41V521.131ZM800.088 524.969H962.455V540.67H800.088V524.969Z" fill="black"/>
<path d="M467.668 501.475H297.508V524.97H467.668V501.475ZM301.462 505.314H463.829V521.015H301.462V505.314Z" fill="black"/>
<path d="M633.879 501.475H463.836V524.969H633.879V501.475ZM467.674 505.313H630.041V521.015H467.674V505.313Z" fill="black"/>
<path d="M800.09 501.475H630.047V524.97H800.207V501.475H800.09ZM633.885 505.314H796.252V521.015H633.885V505.314Z" fill="black"/>
<path d="M966.41 501.475H796.25V524.97H966.41V501.475ZM800.088 505.314H962.455V521.015H800.088V505.314Z" fill="black"/>
<path d="M467.668 481.818H297.508V505.312H467.668V481.818ZM301.462 485.656H463.829V501.358H301.462V485.656Z" fill="black"/>
<path d="M633.879 481.818H463.836V505.312H633.879V481.818ZM467.674 485.656H630.041V501.358H467.674V485.656Z" fill="black"/>
<path d="M800.09 481.818H630.047V505.312H800.207V481.818H800.09ZM633.885 485.656H796.252V501.358H633.885V485.656Z" fill="black"/>
<path d="M966.41 481.818H796.25V505.312H966.41V481.818ZM800.088 485.656H962.455V501.358H800.088V485.656Z" fill="black"/>
<path d="M467.668 462.161H297.508V485.656H467.668V462.161ZM301.462 466H463.829V481.701H301.462V466Z" fill="black"/>
<path d="M633.879 462.161H463.836V485.656H633.879V462.161ZM467.674 466H630.041V481.701H467.674V466Z" fill="black"/>
<path d="M800.09 462.161H630.047V485.656H800.207V462.161H800.09ZM633.885 466H796.252V481.701H633.885V466Z" fill="black"/>
<path d="M966.41 462.161H796.25V485.656H966.41V462.161ZM800.088 466H962.455V481.701H800.088V466Z" fill="black"/>
<path d="M467.668 442.506H297.508V466H467.668V442.506ZM301.462 446.344H463.829V462.046H301.462V446.344Z" fill="black"/>
<path d="M633.879 442.506H463.836V466H633.879V442.506ZM467.674 446.344H630.041V462.046H467.674V446.344Z" fill="black"/>
<path d="M800.09 442.506H630.047V466H800.207V442.506H800.09ZM633.885 446.344H796.252V462.046H633.885V446.344Z" fill="black"/>
<path d="M966.41 442.506H796.25V466H966.41V442.506ZM800.088 446.344H962.455V462.046H800.088V446.344Z" fill="black"/>
<path d="M467.668 422.85H297.508V446.344H467.668V422.85ZM301.462 426.688H463.829V442.39H301.462V426.688Z" fill="black"/>
<path d="M633.879 422.85H463.836V446.344H633.879V422.85ZM467.674 426.688H630.041V442.39H467.674V426.688Z" fill="black"/>
<path d="M800.09 422.85H630.047V446.344H800.207V422.85H800.09ZM633.885 426.688H796.252V442.39H633.885V426.688Z" fill="black"/>
<path d="M966.41 422.85H796.25V446.344H966.41V422.85ZM800.088 426.688H962.455V442.39H800.088V426.688Z" fill="black"/>
</g>
<path d="M1814.18 33.7278H1644.02V10.2334H1814.18V33.7278ZM1647.85 29.8895H1810.22V14.0716H1647.85V29.8895Z" fill="black"/>
<path d="M1980.39 33.7278H1810.23V10.2334H1980.39V33.7278ZM1814.18 29.8895H1976.55V14.0716H1814.18V29.8895Z" fill="black"/>
<path d="M1814.18 14.0715H1644.02V-9.42285H1814.18V14.0715ZM1647.85 10.2334H1810.22V-5.46832H1647.85V10.2334Z" fill="black"/>
<path d="M1980.39 14.0715H1810.23V-9.42285H1980.39V14.0715ZM1814.18 10.2334H1976.55V-5.46832H1814.18V10.2334Z" fill="black"/>
<path d="M1980.39 112.352H1810.23V88.8574H1980.39V112.352ZM1814.18 108.397H1976.55V92.6956H1814.18V108.397Z" fill="black"/>
<path d="M1980.39 92.696H1810.23V69.2017H1980.39V92.696ZM1814.18 88.8578H1976.55V73.1561H1814.18V88.8578Z" fill="black"/>
<path d="M1980.39 73.0398H1810.23V49.5454H1980.39V73.0398ZM1814.18 69.2016H1976.55V53.4999H1814.18V69.2016Z" fill="black"/>
<path d="M1980.39 53.3836H1810.23V29.8892H1980.39V53.3836ZM1814.18 49.5454H1976.55V33.8437H1814.18V49.5454Z" fill="black"/>
<path d="M1814.18 112.352H1644.02V88.8574H1814.18V112.352ZM1647.85 108.397H1810.22V92.6956H1647.85V108.397Z" fill="black"/>
<path d="M1814.18 92.696H1644.02V69.2017H1814.18V92.696ZM1647.85 88.8578H1810.22V73.1561H1647.85V88.8578Z" fill="black"/>
<path d="M1814.18 73.0398H1644.02V49.5454H1814.18V73.0398ZM1647.85 69.2016H1810.22V53.4999H1647.85V69.2016Z" fill="black"/>
<path d="M1814.18 53.3836H1644.02V29.8892H1814.18V53.3836ZM1647.85 49.5454H1810.22V33.8437H1647.85V49.5454Z" fill="black"/>
<path d="M1980.39 289.258H1810.23V265.763H1980.39V289.258ZM1814.18 285.303H1976.55V269.601H1814.18V285.303Z" fill="black"/>
<path d="M1814.18 289.258H1644.02V265.763H1814.18V289.258ZM1647.85 285.303H1810.22V269.601H1647.85V285.303Z" fill="black"/>
<path d="M1980.39 308.914H1810.23V285.419H1980.39V308.914ZM1814.18 304.959H1976.55V289.258H1814.18V304.959Z" fill="black"/>
<path d="M1814.18 308.914H1644.02V285.419H1814.18V308.914ZM1647.85 304.959H1810.22V289.258H1647.85V304.959Z" fill="black"/>
<path d="M1980.39 328.454H1810.23V304.959H1980.39V328.454ZM1814.18 324.616H1976.55V308.914H1814.18V324.616Z" fill="black"/>
<path d="M1814.18 328.454H1644.02V304.959H1814.18V328.454ZM1647.85 324.616H1810.22V308.914H1647.85V324.616Z" fill="black"/>
<path d="M1980.39 348.11H1810.23V324.616H1980.39V348.11ZM1814.18 344.272H1976.55V328.57H1814.18V344.272Z" fill="black"/>
<path d="M1814.18 348.11H1644.02V324.616H1814.18V348.11ZM1647.85 344.272H1810.22V328.57H1647.85V344.272Z" fill="black"/>
<path d="M1814.18 210.633H1644.02V187.139H1814.18V210.633ZM1647.85 206.679H1810.22V190.977H1647.85V206.679Z" fill="black"/>
<path d="M1814.18 230.29H1644.02V206.795H1814.18V230.29ZM1647.85 226.335H1810.22V210.634H1647.85V226.335Z" fill="black"/>
<path d="M1814.18 249.946H1644.02V226.452H1814.18V249.946ZM1647.85 245.992H1810.22V230.29H1647.85V245.992Z" fill="black"/>
<path d="M1814.18 269.602H1644.02V246.107H1814.18V269.602ZM1647.85 265.647H1810.22V249.946H1647.85V265.647Z" fill="black"/>
<path d="M1980.39 210.633H1810.23V187.139H1980.39V210.633ZM1814.18 206.679H1976.55V190.977H1814.18V206.679Z" fill="black"/>
<path d="M1980.39 230.29H1810.23V206.795H1980.39V230.29ZM1814.18 226.335H1976.55V210.634H1814.18V226.335Z" fill="black"/>
<path d="M1980.39 249.946H1810.23V226.452H1980.39V249.946ZM1814.18 245.992H1976.55V230.29H1814.18V245.992Z" fill="black"/>
<path d="M1980.39 269.602H1810.23V246.107H1980.39V269.602ZM1814.18 265.647H1976.55V249.946H1814.18V265.647Z" fill="black"/>
<path d="M1980.39 367.766H1810.23V344.271H1980.39V367.766ZM1814.18 363.928H1976.55V348.226H1814.18V363.928Z" fill="black"/>
<path d="M1814.18 367.766H1644.02V344.271H1814.18V367.766ZM1647.85 363.928H1810.22V348.226H1647.85V363.928Z" fill="black"/>
<path d="M1980.39 387.422H1810.23V363.927H1980.39V387.422ZM1814.18 383.583H1976.55V367.882H1814.18V383.583Z" fill="black"/>
<path d="M1814.18 387.422H1644.02V363.927H1814.18V387.422ZM1647.85 383.583H1810.22V367.882H1647.85V383.583Z" fill="black"/>
<path d="M1980.39 407.078H1810.23V383.583H1980.39V407.078ZM1814.18 403.24H1976.55V387.422H1814.18V403.24Z" fill="black"/>
<path d="M1814.18 407.078H1644.02V383.583H1814.18V407.078ZM1647.85 403.24H1810.22V387.422H1647.85V403.24Z" fill="black"/>
<path d="M1980.39 426.734H1810.23V403.24H1980.39V426.734ZM1814.18 422.896H1976.55V407.194H1814.18V422.896Z" fill="black"/>
<path d="M1814.18 426.734H1644.02V403.24H1814.18V426.734ZM1647.85 422.896H1810.22V407.194H1647.85V422.896Z" fill="black"/>
<path d="M1814.18 132.008H1644.02V108.514H1814.18V132.008ZM1647.85 128.054H1810.22V112.352H1647.85V128.054Z" fill="black"/>
<path d="M1814.18 151.664H1644.02V128.054H1814.18V151.664ZM1647.85 147.71H1810.22V132.008H1647.85V147.71Z" fill="black"/>
<path d="M1814.18 171.321H1644.02V147.826H1814.18V171.321ZM1647.85 167.366H1810.22V151.664H1647.85V167.366Z" fill="black"/>
<path d="M1814.18 190.977H1644.02V167.482H1814.18V190.977ZM1647.85 187.022H1810.22V171.321H1647.85V187.022Z" fill="black"/>
<path d="M1980.39 132.008H1810.23V108.514H1980.39V132.008ZM1814.18 128.054H1976.55V112.352H1814.18V128.054Z" fill="black"/>
<path d="M1980.39 151.664H1810.23V128.054H1980.39V151.664ZM1814.18 147.71H1976.55V132.008H1814.18V147.71Z" fill="black"/>
<path d="M1980.39 171.321H1810.23V147.826H1980.39V171.321ZM1814.18 167.366H1976.55V151.664H1814.18V167.366Z" fill="black"/>
<path d="M1980.39 190.977H1810.23V167.482H1980.39V190.977ZM1814.18 187.022H1976.55V171.321H1814.18V187.022Z" fill="black"/>
<path d="M1814.18 583.985H1644.02V560.49H1814.18V583.985ZM1647.85 580.03H1810.22V564.328H1647.85V580.03Z" fill="black"/>
<path d="M1980.39 583.985H1810.23V560.49H1980.39V583.985ZM1814.18 580.03H1976.55V564.328H1814.18V580.03Z" fill="black"/>
<path d="M1814.18 564.328H1644.02V540.834H1814.18V564.328ZM1647.85 560.374H1810.22V544.672H1647.85V560.374Z" fill="black"/>
<path d="M1980.39 564.328H1810.23V540.834H1980.39V564.328ZM1814.18 560.374H1976.55V544.672H1814.18V560.374Z" fill="black"/>
<path d="M1814.18 544.672H1644.02V521.178H1814.18V544.672ZM1647.85 540.718H1810.22V525.016H1647.85V540.718Z" fill="black"/>
<path d="M1980.39 544.672H1810.23V521.178H1980.39V544.672ZM1814.18 540.718H1976.55V525.016H1814.18V540.718Z" fill="black"/>
<path d="M1814.18 525.016H1644.02V501.522H1814.18V525.016ZM1647.85 521.178H1810.22V505.477H1647.85V521.178Z" fill="black"/>
<path d="M1980.39 525.016H1810.23V501.521H1980.39V525.016ZM1814.18 521.178H1976.55V505.476H1814.18V521.178Z" fill="black"/>
<path d="M1980.39 662.608H1810.23V639.114H1980.39V662.608ZM1814.18 658.654H1976.55V642.952H1814.18V658.654Z" fill="black"/>
<path d="M1980.39 642.952H1810.23V619.458H1980.39V642.952ZM1814.18 638.998H1976.55V623.296H1814.18V638.998Z" fill="black"/>
<path d="M1980.39 623.296H1810.23V599.802H1980.39V623.296ZM1814.18 619.342H1976.55V603.64H1814.18V619.342Z" fill="black"/>
<path d="M1980.39 603.64H1810.23V580.146H1980.39V603.64ZM1814.18 599.685H1976.55V583.984H1814.18V599.685Z" fill="black"/>
<path d="M1814.18 662.608H1644.02V639.114H1814.18V662.608ZM1647.85 658.654H1810.22V642.952H1647.85V658.654Z" fill="black"/>
<path d="M1814.18 642.952H1644.02V619.458H1814.18V642.952ZM1647.85 638.998H1810.22V623.296H1647.85V638.998Z" fill="black"/>
<path d="M1814.18 623.296H1644.02V599.802H1814.18V623.296ZM1647.85 619.342H1810.22V603.64H1647.85V619.342Z" fill="black"/>
<path d="M1814.18 603.64H1644.02V580.146H1814.18V603.64ZM1647.85 599.685H1810.22V583.984H1647.85V599.685Z" fill="black"/>
<path d="M1980.39 505.36H1810.23V481.865H1980.39V505.36ZM1814.18 501.521H1976.55V485.82H1814.18V501.521Z" fill="black"/>
<path d="M1980.39 485.703H1810.23V462.209H1980.39V485.703ZM1814.18 481.865H1976.55V466.163H1814.18V481.865Z" fill="black"/>
<path d="M1980.39 466.047H1810.23V442.552H1980.39V466.047ZM1814.18 462.208H1976.55V446.507H1814.18V462.208Z" fill="black"/>
<path d="M1980.39 446.391H1810.23V422.897H1980.39V446.391ZM1814.18 442.553H1976.55V426.852H1814.18V442.553Z" fill="black"/>
<path d="M1814.18 505.36H1644.02V481.865H1814.18V505.36ZM1647.85 501.521H1810.22V485.82H1647.85V501.521Z" fill="black"/>
<path d="M1814.18 485.703H1644.02V462.209H1814.18V485.703ZM1647.85 481.865H1810.22V466.163H1647.85V481.865Z" fill="black"/>
<path d="M1814.18 466.047H1644.02V442.552H1814.18V466.047ZM1647.85 462.208H1810.22V446.507H1647.85V462.208Z" fill="black"/>
<path d="M1814.18 446.391H1644.02V422.896H1814.18V446.391ZM1647.85 442.553H1810.22V426.851H1647.85V442.553Z" fill="black"/>
<path d="M1980.39 839.398H1810.23V815.904H1980.39V839.398ZM1814.18 835.56H1976.55V819.858H1814.18V835.56Z" fill="black"/>
<path d="M1814.18 839.398H1644.02V815.903H1814.18V839.398ZM1647.85 835.56H1810.22V819.858H1647.85V835.56Z" fill="black"/>
<path d="M1980.39 859.055H1810.23V835.561H1980.39V859.055ZM1814.18 855.217H1976.55V839.515H1814.18V855.217Z" fill="black"/>
<path d="M1814.18 859.055H1644.02V835.561H1814.18V859.055ZM1647.85 855.217H1810.22V839.515H1647.85V855.217Z" fill="black"/>
<path d="M1980.39 878.711H1810.23V855.216H1980.39V878.711ZM1814.18 874.873H1976.55V859.171H1814.18V874.873Z" fill="black"/>
<path d="M1814.18 878.711H1644.02V855.216H1814.18V878.711ZM1647.85 874.873H1810.22V859.171H1647.85V874.873Z" fill="black"/>
<path d="M1980.39 898.367H1810.23V874.873H1980.39V898.367ZM1814.18 894.529H1976.55V878.827H1814.18V894.529Z" fill="black"/>
<path d="M1814.18 898.367H1644.02V874.873H1814.18V898.367ZM1647.85 894.529H1810.22V878.827H1647.85V894.529Z" fill="black"/>
<path d="M1814.18 760.774H1644.02V737.279H1814.18V760.774ZM1647.85 756.935H1810.22V741.234H1647.85V756.935Z" fill="black"/>
<path d="M1814.18 780.43H1644.02V756.935H1814.18V780.43ZM1647.85 776.591H1810.22V760.773H1647.85V776.591Z" fill="black"/>
<path d="M1814.18 800.086H1644.02V776.592H1814.18V800.086ZM1647.85 796.248H1810.22V780.546H1647.85V796.248Z" fill="black"/>
<path d="M1814.18 819.742H1644.02V796.248H1814.18V819.742ZM1647.85 815.904H1810.22V800.202H1647.85V815.904Z" fill="black"/>
<path d="M1980.39 760.774H1810.23V737.279H1980.39V760.774ZM1814.18 756.935H1976.55V741.234H1814.18V756.935Z" fill="black"/>
<path d="M1980.39 780.43H1810.23V756.935H1980.39V780.43ZM1814.18 776.591H1976.55V760.773H1814.18V776.591Z" fill="black"/>
<path d="M1980.39 800.086H1810.23V776.592H1980.39V800.086ZM1814.18 796.248H1976.55V780.546H1814.18V796.248Z" fill="black"/>
<path d="M1980.39 819.742H1810.23V796.248H1980.39V819.742ZM1814.18 815.904H1976.55V800.202H1814.18V815.904Z" fill="black"/>
<path d="M1980.39 918.023H1810.23V894.528H1980.39V918.023ZM1814.18 914.185H1976.55V898.483H1814.18V914.185Z" fill="black"/>
<path d="M1814.18 918.023H1644.02V894.529H1814.18V918.023ZM1647.85 914.185H1810.22V898.483H1647.85V914.185Z" fill="black"/>
<path d="M1980.39 937.679H1810.23V914.185H1980.39V937.679ZM1814.18 933.841H1976.55V918.139H1814.18V933.841Z" fill="black"/>
<path d="M1814.18 937.679H1644.02V914.185H1814.18V937.679ZM1647.85 933.841H1810.22V918.139H1647.85V933.841Z" fill="black"/>
<path d="M1980.39 957.336H1810.23V933.841H1980.39V957.336ZM1814.18 953.497H1976.55V937.796H1814.18V953.497Z" fill="black"/>
<path d="M1814.18 957.336H1644.02V933.841H1814.18V957.336ZM1647.85 953.497H1810.22V937.796H1647.85V953.497Z" fill="black"/>
<path d="M1980.39 976.991H1810.23V953.497H1980.39V976.991ZM1814.18 973.037H1976.55V957.335H1814.18V973.037Z" fill="black"/>
<path d="M1814.18 976.991H1644.02V953.497H1814.18V976.991ZM1647.85 973.037H1810.22V957.335H1647.85V973.037Z" fill="black"/>
<path d="M1814.18 682.265H1644.02V658.771H1814.18V682.265ZM1647.85 678.311H1810.22V662.609H1647.85V678.311Z" fill="black"/>
<path d="M1814.18 701.921H1644.02V678.427H1814.18V701.921ZM1647.85 697.967H1810.22V682.265H1647.85V697.967Z" fill="black"/>
<path d="M1814.18 721.577H1644.02V697.966H1814.18V721.577ZM1647.85 717.623H1810.22V701.921H1647.85V717.623Z" fill="black"/>
<path d="M1814.18 741.233H1644.02V717.739H1814.18V741.233ZM1647.85 737.279H1810.22V721.577H1647.85V737.279Z" fill="black"/>
<path d="M1980.39 682.265H1810.23V658.771H1980.39V682.265ZM1814.18 678.311H1976.55V662.609H1814.18V678.311Z" fill="black"/>
<path d="M1980.39 701.921H1810.23V678.427H1980.39V701.921ZM1814.18 697.967H1976.55V682.265H1814.18V697.967Z" fill="black"/>
<path d="M1980.39 721.577H1810.23V697.966H1980.39V721.577ZM1814.18 717.623H1976.55V701.921H1814.18V717.623Z" fill="black"/>
<path d="M1980.39 741.233H1810.23V717.739H1980.39V741.233ZM1814.18 737.279H1976.55V721.577H1814.18V737.279Z" fill="black"/>
<path d="M1814.18 1094.93H1644.02V1071.32H1814.18V1094.93ZM1647.85 1090.98H1810.22V1075.27H1647.85V1090.98Z" fill="black"/>
<path d="M1980.39 1094.93H1810.23V1071.32H1980.39V1094.93ZM1814.18 1090.98H1976.55V1075.27H1814.18V1090.98Z" fill="black"/>
<path d="M1814.18 1075.27H1644.02V1051.78H1814.18V1075.27ZM1647.85 1071.32H1810.22V1055.62H1647.85V1071.32Z" fill="black"/>
<path d="M1980.39 1075.27H1810.23V1051.78H1980.39V1075.27ZM1814.18 1071.32H1976.55V1055.62H1814.18V1071.32Z" fill="black"/>
<path d="M1980.39 1055.62H1810.23V1032.12H1980.39V1055.62ZM1814.18 1051.66H1976.55V1035.96H1814.18V1051.66Z" fill="black"/>
<path d="M1980.39 1035.96H1810.23V1012.47H1980.39V1035.96ZM1814.18 1032.01H1976.55V1016.3H1814.18V1032.01Z" fill="black"/>
<path d="M1980.39 1016.3H1810.23V992.81H1980.39V1016.3ZM1814.18 1012.35H1976.55V996.648H1814.18V1012.35Z" fill="black"/>
<path d="M1980.39 996.649H1810.23V973.154H1980.39V996.649ZM1814.18 992.694H1976.55V976.993H1814.18V992.694Z" fill="black"/>
<path d="M1814.18 1055.62H1644.02V1032.12H1814.18V1055.62ZM1647.85 1051.66H1810.22V1035.96H1647.85V1051.66Z" fill="black"/>
<path d="M1814.18 1035.96H1644.02V1012.47H1814.18V1035.96ZM1647.85 1032.01H1810.22V1016.3H1647.85V1032.01Z" fill="black"/>
<path d="M1814.18 1016.3H1644.02V992.81H1814.18V1016.3ZM1647.85 1012.35H1810.22V996.648H1647.85V1012.35Z" fill="black"/>
<path d="M1814.18 996.649H1644.02V973.154H1814.18V996.649ZM1647.85 992.694H1810.22V976.993H1647.85V992.694Z" fill="black"/>
</g>
</g>
<defs>
<clipPath id="clip0_4039_18369">
<rect width="1920" height="1080" fill="white"/>
</clipPath>
<clipPath id="clip1_4039_18369">
<rect width="2514" height="2122" fill="white" transform="translate(-209 -890)"/>
</clipPath>
</defs>
</svg>
