<svg width="1920" height="1080" viewBox="0 0 1920 1080" fill="none" xmlns="http://www.w3.org/2000/svg">
<g clip-path="url(#clip0_4041_23972)">
<path d="M1297.01 252.2H1443.21V232H1297.01V252.2ZM1440.01 248.8H1300.41V235.4H1440.01V248.8Z" fill="black"/>
<path d="M1154.21 252.2H1300.41V232H1154.21V252.2ZM1297.01 248.8H1157.41V235.4H1297.01V248.8Z" fill="black"/>
<path d="M1297.01 269.2H1443.21V248.8H1297.01V269.2ZM1440.01 265.8H1300.41V252.2H1440.01V265.8Z" fill="black"/>
<path d="M1154.21 269.2H1300.41V248.8H1154.21V269.2ZM1297.01 265.8H1157.41V252.2H1297.01V265.8Z" fill="black"/>
<path d="M1297.01 286H1443.21V265.8H1297.01V286ZM1440.01 282.6H1300.41V269H1440.01V282.6Z" fill="black"/>
<path d="M1154.21 286H1300.41V265.8H1154.21V286ZM1297.01 282.6H1157.41V269H1297.01V282.6Z" fill="black"/>
<path d="M1297.01 303H1443.21V282.6H1297.01V303ZM1440.01 299.6H1300.41V286H1440.01V299.6Z" fill="black"/>
<path d="M1154.21 303H1300.41V282.6H1154.21V303ZM1297.01 299.6H1157.41V286H1297.01V299.6Z" fill="black"/>
<path d="M1297.01 387.4H1443.21V367.2H1297.01V387.4ZM1440.01 384H1300.41V370.4H1440.01V384Z" fill="black"/>
<path d="M1154.21 387.4H1300.41V367.2H1154.21V387.4ZM1297.01 384H1157.41V370.4H1297.01V384Z" fill="black"/>
<path d="M1297.01 404.4H1443.21V384H1297.01V404.4ZM1440.01 401H1300.41V387.4H1440.01V401Z" fill="black"/>
<path d="M1154.21 404.4H1300.41V384H1154.21V404.4ZM1297.01 401H1157.41V387.4H1297.01V401Z" fill="black"/>
<path d="M1297.01 421.2H1443.21V401H1297.01V421.2ZM1440.01 417.8H1300.41V404.2H1440.01V417.8Z" fill="black"/>
<path d="M1154.21 421.2H1300.41V401H1154.21V421.2ZM1297.01 417.8H1157.41V404.2H1297.01V417.8Z" fill="black"/>
<path d="M1297.01 438H1443.21V417.8H1297.01V438ZM1440.01 434.8H1300.41V421.2H1440.01V434.8Z" fill="black"/>
<path d="M1154.21 438H1300.41V417.8H1154.21V438ZM1297.01 434.8H1157.41V421.2H1297.01V434.8Z" fill="black"/>
<path d="M1297.01 455H1443.21V434.8H1297.01V455ZM1440.01 451.6H1300.41V438H1440.01V451.6Z" fill="black"/>
<path d="M1154.21 455H1300.41V434.8H1154.21V455ZM1297.01 451.6H1157.41V438H1297.01V451.6Z" fill="black"/>
<path d="M1297.01 471.8H1443.21V451.6H1297.01V471.8ZM1440.01 468.6H1300.41V455H1440.01V468.6Z" fill="black"/>
<path d="M1154.21 471.8H1300.41V451.6H1154.21V471.8ZM1297.01 468.6H1157.41V455H1297.01V468.6Z" fill="black"/>
<path d="M1297.01 488.8H1443.21V468.6H1297.01V488.8ZM1440.01 485.4H1300.41V471.8H1440.01V485.4Z" fill="black"/>
<path d="M1154.21 488.8H1300.41V468.6H1154.21V488.8ZM1297.01 485.4H1157.41V471.8H1297.01V485.4Z" fill="black"/>
<path d="M1297.01 505.6H1443.21V485.4H1297.01V505.6ZM1440.01 502.4H1300.41V488.8H1440.01V502.4Z" fill="black"/>
<path d="M1154.21 505.6H1300.41V485.4H1154.21V505.6ZM1297.01 502.4H1157.41V488.8H1297.01V502.4Z" fill="black"/>
<path d="M1011.21 505.6H1157.41V485.4H1011.21V505.6ZM1154.21 502.4H1014.61V488.8H1154.21V502.4Z" fill="black"/>
<path d="M1297.01 336.8H1443.21V316.4H1297.01V336.8ZM1440.01 333.4H1300.41V319.8H1440.01V333.4Z" fill="black"/>
<path d="M1154.21 336.8H1300.41V316.4H1154.21V336.8ZM1297.01 333.4H1157.41V319.8H1297.01V333.4Z" fill="black"/>
<path d="M1297.01 353.6H1443.21V333.4H1297.01V353.6ZM1440.01 350.2H1300.41V336.6H1440.01V350.2Z" fill="black"/>
<path d="M1154.21 353.6H1300.41V333.4H1154.21V353.6ZM1297.01 350.2H1157.41V336.6H1297.01V350.2Z" fill="black"/>
<path d="M1297.01 370.6H1443.21V350.2H1297.01V370.6ZM1440.01 367.2H1300.41V353.6H1440.01V367.2Z" fill="black"/>
<path d="M1154.21 370.6H1300.41V350.2H1154.21V370.6ZM1297.01 367.2H1157.41V353.6H1297.01V367.2Z" fill="black"/>
<path d="M1297.01 319.8H1443.21V299.6H1297.01V319.8ZM1440.01 316.4H1300.41V302.8H1440.01V316.4Z" fill="black"/>
<path d="M1154.21 319.8H1300.41V299.6H1154.21V319.8ZM1297.01 316.4H1157.41V302.8H1297.01V316.4Z" fill="black"/>
<path d="M1011.21 252.2H1157.41V232H1011.21V252.2ZM1154.21 248.8H1014.61V235.4H1154.21V248.8Z" fill="black"/>
<path d="M1011.21 269.2H1157.41V248.8H1011.21V269.2ZM1154.21 265.8H1014.61V252.2H1154.21V265.8Z" fill="black"/>
<path d="M1011.21 286H1157.41V265.8H1011.21V286ZM1154.21 282.6H1014.61V269H1154.21V282.6Z" fill="black"/>
<path d="M1011.21 303H1157.41V282.6H1011.21V303ZM1154.21 299.6H1014.61V286H1154.21V299.6Z" fill="black"/>
<path d="M1011.21 387.4H1157.41V367.2H1011.21V387.4ZM1154.21 384H1014.61V370.4H1154.21V384Z" fill="black"/>
<path d="M1011.21 404.4H1157.41V384H1011.21V404.4ZM1154.21 401H1014.61V387.4H1154.21V401Z" fill="black"/>
<path d="M1011.21 421.2H1157.41V401H1011.21V421.2ZM1154.21 417.8H1014.61V404.2H1154.21V417.8Z" fill="black"/>
<path d="M1011.21 438H1157.41V417.8H1011.21V438ZM1154.21 434.8H1014.61V421.2H1154.21V434.8Z" fill="black"/>
<path d="M1011.21 455H1157.41V434.8H1011.21V455ZM1154.21 451.6H1014.61V438H1154.21V451.6Z" fill="black"/>
<path d="M1011.21 471.8H1157.41V451.6H1011.21V471.8ZM1154.21 468.6H1014.61V455H1154.21V468.6Z" fill="black"/>
<path d="M1011.21 488.8H1157.41V468.6H1011.21V488.8ZM1154.21 485.4H1014.61V471.8H1154.21V485.4Z" fill="black"/>
<path d="M1011.21 336.8H1157.41V316.4H1011.21V336.8ZM1154.21 333.4H1014.61V319.8H1154.21V333.4Z" fill="black"/>
<path d="M1011.21 353.6H1157.41V333.4H1011.21V353.6ZM1154.21 350.2H1014.61V336.6H1154.21V350.2Z" fill="black"/>
<path d="M1011.21 370.6H1157.41V350.2H1011.21V370.6ZM1154.21 367.2H1014.61V353.6H1154.21V367.2Z" fill="black"/>
<path d="M1011.21 319.8H1157.41V299.6H1011.21V319.8ZM1154.21 316.4H1014.61V302.8H1154.21V316.4Z" fill="black"/>
<path d="M1440.01 505.6H1586.21V485.4H1440.01V505.6ZM1583.01 502.4H1443.41V488.8H1583.01V502.4Z" fill="black"/>
<path d="M1440.01 252.2H1586.21V232H1440.01V252.2ZM1583.01 248.8H1443.41V235.4H1583.01V248.8Z" fill="black"/>
<path d="M1440.01 269.2H1586.21V248.8H1440.01V269.2ZM1583.01 265.8H1443.41V252.2H1583.01V265.8Z" fill="black"/>
<path d="M1440.01 286H1586.21V265.8H1440.01V286ZM1583.01 282.6H1443.41V269H1583.01V282.6Z" fill="black"/>
<path d="M1440.01 303H1586.21V282.6H1440.01V303ZM1583.01 299.6H1443.41V286H1583.01V299.6Z" fill="black"/>
<path d="M1440.01 387.4H1586.21V367.2H1440.01V387.4ZM1583.01 384H1443.41V370.4H1583.01V384Z" fill="black"/>
<path d="M1440.01 404.4H1586.21V384H1440.01V404.4ZM1583.01 401H1443.41V387.4H1583.01V401Z" fill="black"/>
<path d="M1440.01 421.2H1586.21V401H1440.01V421.2ZM1583.01 417.8H1443.41V404.2H1583.01V417.8Z" fill="black"/>
<path d="M1440.01 438H1586.21V417.8H1440.01V438ZM1583.01 434.8H1443.41V421.2H1583.01V434.8Z" fill="black"/>
<path d="M1440.01 455H1586.21V434.8H1440.01V455ZM1583.01 451.6H1443.41V438H1583.01V451.6Z" fill="black"/>
<path d="M1440.01 471.8H1586.21V451.6H1440.01V471.8ZM1583.01 468.6H1443.41V455H1583.01V468.6Z" fill="black"/>
<path d="M1440.01 488.8H1586.21V468.6H1440.01V488.8ZM1583.01 485.4H1443.41V471.8H1583.01V485.4Z" fill="black"/>
<path d="M1440.01 336.8H1586.21V316.4H1440.01V336.8ZM1583.01 333.4H1443.41V319.8H1583.01V333.4Z" fill="black"/>
<path d="M1440.01 353.6H1586.21V333.4H1440.01V353.6ZM1583.01 350.2H1443.41V336.6H1583.01V350.2Z" fill="black"/>
<path d="M1440.01 370.6H1586.21V350.2H1440.01V370.6ZM1583.01 367.2H1443.41V353.6H1583.01V367.2Z" fill="black"/>
<path d="M1440.01 319.8H1586.21V299.6H1440.01V319.8ZM1583.01 316.4H1443.41V302.8H1583.01V316.4Z" fill="black"/>
<path d="M1493.6 691.6H1640V671.4H1493.8V691.6H1493.6ZM1636.6 688.2H1497V674.6H1636.6V688.2Z" fill="black"/>
<path d="M1350.8 691.6H1497V671.4H1350.8V691.6ZM1493.6 688.2H1354V674.6H1493.6V688.2Z" fill="black"/>
<path d="M1493.6 708.4H1640V688.2H1493.8V708.4H1493.6ZM1636.6 705H1497V691.4H1636.6V705Z" fill="black"/>
<path d="M1350.8 708.4H1497V688.2H1350.8V708.4ZM1493.6 705H1354V691.4H1493.6V705Z" fill="black"/>
<path d="M1493.6 725.4H1640V705.2H1493.8V725.4H1493.6ZM1636.6 722H1497V708.4H1636.6V722Z" fill="black"/>
<path d="M1350.8 725.4H1497V705.2H1350.8V725.4ZM1493.6 722H1354V708.4H1493.6V722Z" fill="black"/>
<path d="M1493.6 742.2H1640V722H1493.8V742.2H1493.6ZM1636.6 738.8H1497V725.2H1636.6V738.8Z" fill="black"/>
<path d="M1350.8 742.2H1497V722H1350.8V742.2ZM1493.6 738.8H1354V725.2H1493.6V738.8Z" fill="black"/>
<path d="M1493.6 826.6H1640V806.4H1493.8V826.6H1493.6ZM1636.6 823.4H1497V809.8H1636.6V823.4Z" fill="black"/>
<path d="M1350.8 826.6H1497V806.4H1350.8V826.6ZM1493.6 823.4H1354V809.8H1493.6V823.4Z" fill="black"/>
<path d="M1493.6 843.6H1640V823.4H1493.8V843.6H1493.6ZM1636.6 840.2H1497V826.6H1636.6V840.2Z" fill="black"/>
<path d="M1350.8 843.6H1497V823.4H1350.8V843.6ZM1493.6 840.2H1354V826.6H1493.6V840.2Z" fill="black"/>
<path d="M1493.6 860.4H1640V840.2H1493.8V860.4H1493.6ZM1636.6 857.2H1497V843.6H1636.6V857.2Z" fill="black"/>
<path d="M1350.8 860.4H1497V840.2H1350.8V860.4ZM1493.6 857.2H1354V843.6H1493.6V857.2Z" fill="black"/>
<path d="M1493.6 877.4H1640V857.2H1493.8V877.4H1493.6ZM1636.6 874H1497V860.4H1636.6V874Z" fill="black"/>
<path d="M1350.8 877.4H1497V857.2H1350.8V877.4ZM1493.6 874H1354V860.4H1493.6V874Z" fill="black"/>
<path d="M1493.6 894.2H1640V874H1493.8V894.2H1493.6ZM1636.6 891H1497V877.4H1636.6V891Z" fill="black"/>
<path d="M1350.8 894.2H1497V874H1350.8V894.2ZM1493.6 891H1354V877.4H1493.6V891Z" fill="black"/>
<path d="M1493.6 911.2H1640V891H1493.8V911.2H1493.6ZM1636.6 907.8H1497V894.2H1636.6V907.8Z" fill="black"/>
<path d="M1350.8 911.2H1497V891H1350.8V911.2ZM1493.6 907.8H1354V894.2H1493.6V907.8Z" fill="black"/>
<path d="M1493.6 928H1640V907.8H1493.8V928H1493.6ZM1636.6 924.8H1497V911.2H1636.6V924.8Z" fill="black"/>
<path d="M1350.8 928H1497V907.8H1350.8V928ZM1493.6 924.8H1354V911.2H1493.6V924.8Z" fill="black"/>
<path d="M1493.6 945H1640V924.8H1493.8V945H1493.6ZM1636.6 941.6H1497V928H1636.6V941.6Z" fill="black"/>
<path d="M1350.8 945H1497V924.8H1350.8V945ZM1493.6 941.6H1354V928H1493.6V941.6Z" fill="black"/>
<path d="M1207.8 945H1354V924.8H1207.8V945ZM1350.8 941.6H1211.2V928H1350.8V941.6Z" fill="black"/>
<path d="M1493.6 776H1640V755.8H1493.8V776H1493.6ZM1636.6 772.6H1497V759H1636.6V772.6Z" fill="black"/>
<path d="M1350.8 776H1497V755.8H1350.8V776ZM1493.6 772.6H1354V759H1493.6V772.6Z" fill="black"/>
<path d="M1493.6 792.8H1640V772.6H1493.8V792.8H1493.6ZM1636.6 789.6H1497V776H1636.6V789.6Z" fill="black"/>
<path d="M1350.8 792.8H1497V772.6H1350.8V792.8ZM1493.6 789.6H1354V776H1493.6V789.6Z" fill="black"/>
<path d="M1493.6 809.8H1640V789.6H1493.8V809.8H1493.6ZM1636.6 806.4H1497V792.8H1636.6V806.4Z" fill="black"/>
<path d="M1350.8 809.8H1497V789.6H1350.8V809.8ZM1493.6 806.4H1354V792.8H1493.6V806.4Z" fill="black"/>
<path d="M1493.6 759.2H1640V739H1493.8V759.2H1493.6ZM1636.6 755.8H1497V742.2H1636.6V755.8Z" fill="black"/>
<path d="M1350.8 759.2H1497V739H1350.8V759.2ZM1493.6 755.8H1354V742.2H1493.6V755.8Z" fill="black"/>
<path d="M1207.8 691.6H1354V671.4H1207.8V691.6ZM1350.8 688.2H1211.2V674.6H1350.8V688.2Z" fill="black"/>
<path d="M1207.8 708.4H1354V688.2H1207.8V708.4ZM1350.8 705H1211.2V691.4H1350.8V705Z" fill="black"/>
<path d="M1207.8 725.4H1354V705.2H1207.8V725.4ZM1350.8 722H1211.2V708.4H1350.8V722Z" fill="black"/>
<path d="M1207.8 742.2H1354V722H1207.8V742.2ZM1350.8 738.8H1211.2V725.2H1350.8V738.8Z" fill="black"/>
<path d="M1207.8 826.6H1354V806.4H1207.8V826.6ZM1350.8 823.4H1211.2V809.8H1350.8V823.4Z" fill="black"/>
<path d="M1207.8 843.6H1354V823.4H1207.8V843.6ZM1350.8 840.2H1211.2V826.6H1350.8V840.2Z" fill="black"/>
<path d="M1207.8 860.4H1354V840.2H1207.8V860.4ZM1350.8 857.2H1211.2V843.6H1350.8V857.2Z" fill="black"/>
<path d="M1207.8 877.4H1354V857.2H1207.8V877.4ZM1350.8 874H1211.2V860.4H1350.8V874Z" fill="black"/>
<path d="M1207.8 894.2H1354V874H1207.8V894.2ZM1350.8 891H1211.2V877.4H1350.8V891Z" fill="black"/>
<path d="M1207.8 911.2H1354V891H1207.8V911.2ZM1350.8 907.8H1211.2V894.2H1350.8V907.8Z" fill="black"/>
<path d="M1207.8 928H1354V907.8H1207.8V928ZM1350.8 924.8H1211.2V911.2H1350.8V924.8Z" fill="black"/>
<path d="M1207.8 776H1354V755.8H1207.8V776ZM1350.8 772.6H1211.2V759H1350.8V772.6Z" fill="black"/>
<path d="M1207.8 792.8H1354V772.6H1207.8V792.8ZM1350.8 789.6H1211.2V776H1350.8V789.6Z" fill="black"/>
<path d="M1207.8 809.8H1354V789.6H1207.8V809.8ZM1350.8 806.4H1211.2V792.8H1350.8V806.4Z" fill="black"/>
<path d="M1207.8 759.2H1354V739H1207.8V759.2ZM1350.8 755.8H1211.2V742.2H1350.8V755.8Z" fill="black"/>
<path d="M1065 945H1211.2V924.8H1065V945ZM1207.8 941.6H1068.2V928H1207.8V941.6Z" fill="black"/>
<path d="M1065 691.6H1211.2V671.4H1065V691.6ZM1207.8 688.2H1068.2V674.6H1207.8V688.2Z" fill="black"/>
<path d="M1065 708.4H1211.2V688.2H1065V708.4ZM1207.8 705H1068.2V691.4H1207.8V705Z" fill="black"/>
<path d="M1065 725.4H1211.2V705.2H1065V725.4ZM1207.8 722H1068.2V708.4H1207.8V722Z" fill="black"/>
<path d="M1065 742.2H1211.2V722H1065V742.2ZM1207.8 738.8H1068.2V725.2H1207.8V738.8Z" fill="black"/>
<path d="M1065 826.6H1211.2V806.4H1065V826.6ZM1207.8 823.4H1068.2V809.8H1207.8V823.4Z" fill="black"/>
<path d="M1065 843.6H1211.2V823.4H1065V843.6ZM1207.8 840.2H1068.2V826.6H1207.8V840.2Z" fill="black"/>
<path d="M1065 860.4H1211.2V840.2H1065V860.4ZM1207.8 857.2H1068.2V843.6H1207.8V857.2Z" fill="black"/>
<path d="M1065 877.4H1211.2V857.2H1065V877.4ZM1207.8 874H1068.2V860.4H1207.8V874Z" fill="black"/>
<path d="M1065 894.2H1211.2V874H1065V894.2ZM1207.8 891H1068.2V877.4H1207.8V891Z" fill="black"/>
<path d="M1065 911.2H1211.2V891H1065V911.2ZM1207.8 907.8H1068.2V894.2H1207.8V907.8Z" fill="black"/>
<path d="M1065 928H1211.2V907.8H1065V928ZM1207.8 924.8H1068.2V911.2H1207.8V924.8Z" fill="black"/>
<path d="M1065 776H1211.2V755.8H1065V776ZM1207.8 772.6H1068.2V759H1207.8V772.6Z" fill="black"/>
<path d="M1065 792.8H1211.2V772.6H1065V792.8ZM1207.8 789.6H1068.2V776H1207.8V789.6Z" fill="black"/>
<path d="M1065 809.8H1211.2V789.6H1065V809.8ZM1207.8 806.4H1068.2V792.8H1207.8V806.4Z" fill="black"/>
<path d="M1065 759.2H1211.2V739H1065V759.2ZM1207.8 755.8H1068.2V742.2H1207.8V755.8Z" fill="black"/>
<path d="M921.999 945H1068.2V924.8H921.999V945ZM1065 941.6H925.399V928H1065V941.6Z" fill="black"/>
<path d="M921.999 691.6H1068.2V671.4H921.999V691.6ZM1065 688.2H925.399V674.6H1065V688.2Z" fill="black"/>
<path d="M921.999 708.4H1068.2V688.2H921.999V708.4ZM1065 705H925.399V691.4H1065V705Z" fill="black"/>
<path d="M921.999 725.4H1068.2V705.2H921.999V725.4ZM1065 722H925.399V708.4H1065V722Z" fill="black"/>
<path d="M921.999 742.2H1068.2V722H921.999V742.2ZM1065 738.8H925.399V725.2H1065V738.8Z" fill="black"/>
<path d="M921.999 826.6H1068.2V806.4H921.999V826.6ZM1065 823.4H925.399V809.8H1065V823.4Z" fill="black"/>
<path d="M921.999 843.6H1068.2V823.4H921.999V843.6ZM1065 840.2H925.399V826.6H1065V840.2Z" fill="black"/>
<path d="M921.999 860.4H1068.2V840.2H921.999V860.4ZM1065 857.2H925.399V843.6H1065V857.2Z" fill="black"/>
<path d="M921.999 877.4H1068.2V857.2H921.999V877.4ZM1065 874H925.399V860.4H1065V874Z" fill="black"/>
<path d="M921.999 894.2H1068.2V874H921.999V894.2ZM1065 891H925.399V877.4H1065V891Z" fill="black"/>
<path d="M921.999 911.2H1068.2V891H921.999V911.2ZM1065 907.8H925.399V894.2H1065V907.8Z" fill="black"/>
<path d="M921.999 928H1068.2V907.8H921.999V928ZM1065 924.8H925.399V911.2H1065V924.8Z" fill="black"/>
<path d="M921.999 776H1068.2V755.8H921.999V776ZM1065 772.6H925.399V759H1065V772.6Z" fill="black"/>
<path d="M921.999 792.8H1068.2V772.6H921.999V792.8ZM1065 789.6H925.399V776H1065V789.6Z" fill="black"/>
<path d="M921.999 809.8H1068.2V789.6H921.999V809.8ZM1065 806.4H925.399V792.8H1065V806.4Z" fill="black"/>
<path d="M921.999 759.2H1068.2V739H921.999V759.2ZM1065 755.8H925.399V742.2H1065V755.8Z" fill="black"/>
<path d="M778.999 945H925.199V924.8H778.999V945ZM921.999 941.6H782.399V928H921.999V941.6Z" fill="black"/>
<path d="M778.999 691.6H925.199V671.4H778.999V691.6ZM921.999 688.2H782.399V674.6H921.999V688.2Z" fill="black"/>
<path d="M778.999 708.4H925.199V688.2H778.999V708.4ZM921.999 705H782.399V691.4H921.999V705Z" fill="black"/>
<path d="M778.999 725.4H925.199V705.2H778.999V725.4ZM921.999 722H782.399V708.4H921.999V722Z" fill="black"/>
<path d="M778.999 742.2H925.199V722H778.999V742.2ZM921.999 738.8H782.399V725.2H921.999V738.8Z" fill="black"/>
<path d="M778.999 826.6H925.199V806.4H778.999V826.6ZM921.999 823.4H782.399V809.8H921.999V823.4Z" fill="black"/>
<path d="M778.999 843.6H925.199V823.4H778.999V843.6ZM921.999 840.2H782.399V826.6H921.999V840.2Z" fill="black"/>
<path d="M778.999 860.4H925.199V840.2H778.999V860.4ZM921.999 857.2H782.399V843.6H921.999V857.2Z" fill="black"/>
<path d="M778.999 877.4H925.199V857.2H778.999V877.4ZM921.999 874H782.399V860.4H921.999V874Z" fill="black"/>
<path d="M778.999 894.2H925.199V874H778.999V894.2ZM921.999 891H782.399V877.4H921.999V891Z" fill="black"/>
<path d="M778.999 911.2H925.199V891H778.999V911.2ZM921.999 907.8H782.399V894.2H921.999V907.8Z" fill="black"/>
<path d="M778.999 928H925.199V907.8H778.999V928ZM921.999 924.8H782.399V911.2H921.999V924.8Z" fill="black"/>
<path d="M778.999 776H925.199V755.8H778.999V776ZM921.999 772.6H782.399V759H921.999V772.6Z" fill="black"/>
<path d="M778.999 792.8H925.199V772.6H778.999V792.8ZM921.999 789.6H782.399V776H921.999V789.6Z" fill="black"/>
<path d="M778.999 809.8H925.199V789.6H778.999V809.8ZM921.999 806.4H782.399V792.8H921.999V806.4Z" fill="black"/>
<path d="M778.999 759.2H925.199V739H778.999V759.2ZM921.999 755.8H782.399V742.2H921.999V755.8Z" fill="black"/>
<path d="M1636.6 945H1782.8V924.8H1636.6V945ZM1779.6 941.6H1640V928H1779.6V941.6Z" fill="black"/>
<path d="M1636.6 691.6H1782.8V671.4H1636.6V691.6ZM1779.6 688.2H1640V674.6H1779.6V688.2Z" fill="black"/>
<path d="M1636.6 708.4H1782.8V688.2H1636.6V708.4ZM1779.6 705H1640V691.4H1779.6V705Z" fill="black"/>
<path d="M1636.6 725.4H1782.8V705.2H1636.6V725.4ZM1779.6 722H1640V708.4H1779.6V722Z" fill="black"/>
<path d="M1636.6 742.2H1782.8V722H1636.6V742.2ZM1779.6 738.8H1640V725.2H1779.6V738.8Z" fill="black"/>
<path d="M1636.6 826.6H1782.8V806.4H1636.6V826.6ZM1779.6 823.4H1640V809.8H1779.6V823.4Z" fill="black"/>
<path d="M1636.6 843.6H1782.8V823.4H1636.6V843.6ZM1779.6 840.2H1640V826.6H1779.6V840.2Z" fill="black"/>
<path d="M1636.6 860.4H1782.8V840.2H1636.6V860.4ZM1779.6 857.2H1640V843.6H1779.6V857.2Z" fill="black"/>
<path d="M1636.6 877.4H1782.8V857.2H1636.6V877.4ZM1779.6 874H1640V860.4H1779.6V874Z" fill="black"/>
<path d="M1636.6 894.2H1782.8V874H1636.6V894.2ZM1779.6 891H1640V877.4H1779.6V891Z" fill="black"/>
<path d="M1636.6 911.2H1782.8V891H1636.6V911.2ZM1779.6 907.8H1640V894.2H1779.6V907.8Z" fill="black"/>
<path d="M1636.6 928H1782.8V907.8H1636.6V928ZM1779.6 924.8H1640V911.2H1779.6V924.8Z" fill="black"/>
<path d="M1636.6 776H1782.8V755.8H1636.6V776ZM1779.6 772.6H1640V759H1779.6V772.6Z" fill="black"/>
<path d="M1636.6 792.8H1782.8V772.6H1636.6V792.8ZM1779.6 789.6H1640V776H1779.6V789.6Z" fill="black"/>
<path d="M1636.6 809.8H1782.8V789.6H1636.6V809.8ZM1779.6 806.4H1640V792.8H1779.6V806.4Z" fill="black"/>
<path d="M1636.6 759.2H1782.8V739H1636.6V759.2ZM1779.6 755.8H1640V742.2H1779.6V755.8Z" fill="black"/>
<path d="M1636.6 673H1640C1640 668.8 1639.6 664.6 1639 660.8C1638.4 657.2 1637.4 653.6 1636.4 650.2C1635.2 647 1633.8 644 1632.2 641C1630.6 638.2 1628.8 635.6 1627 633.2C1625.2 630.8 1623 628.6 1620.8 626.4C1618.6 624.4 1616.4 622.4 1613.8 620.4C1611.4 618.6 1609 616.8 1606.2 615.2C1603.8 613.6 1601 612.2 1598.2 610.6C1595.6 609.2 1592.8 607.8 1589.8 606.6C1587 605.4 1584.2 604.2 1581.2 603C1578.4 601.8 1575.6 600.8 1572.4 599.6C1569.4 598.6 1566.4 597.4 1563.4 596.4C1560.4 595.4 1557.4 594.4 1554.4 593.4C1551.4 592.4 1548.4 591.4 1545.2 590.4L1536 587.6C1533 586.6 1530 585.6 1526.8 584.6C1523.8 583.6 1520.8 582.6 1517.8 581.6C1514.8 580.6 1511.8 579.4 1508.8 578.4C1505.6 577.2 1502.8 576 1500 575C1497 573.8 1494.2 572.4 1491.6 571.2C1488.8 569.8 1486 568.4 1483.4 567C1480.6 565.4 1478 564 1475.6 562.4C1473 560.6 1470.6 559 1468.4 557.2C1466 555.2 1463.8 553.2 1461.8 551.2C1459.6 549 1457.6 546.6 1455.8 544.4C1454 541.8 1452.2 539.2 1450.8 536.4C1449.2 533.4 1448 530.4 1446.8 527.2C1445.6 523.8 1444.8 520.2 1444.2 516.6C1443.6 512.6 1443.2 508.4 1443.2 504.2H1439.8C1439.8 508.6 1440.2 513 1440.8 517.2C1441.4 521 1442.4 524.8 1443.4 528.4C1444.6 531.8 1445.8 535 1447.6 538C1449.2 540.8 1450.8 543.6 1452.8 546.4C1454.6 548.8 1456.8 551.4 1459 553.6C1461.2 555.8 1463.4 557.8 1466 559.8C1468.4 561.6 1470.8 563.6 1473.6 565.2C1476 566.8 1478.8 568.4 1481.6 570C1484.2 571.4 1487 572.8 1490 574.2C1492.8 575.4 1495.6 576.8 1498.6 578C1501.4 579.2 1504.2 580.4 1507.4 581.6C1510.4 582.8 1513.4 583.8 1516.4 584.8C1519.4 585.8 1522.4 586.8 1525.4 587.8C1528.4 588.8 1531.4 589.8 1534.6 590.8L1543.8 593.6C1546.8 594.6 1549.8 595.6 1553 596.4C1556 597.4 1559 598.4 1562 599.4C1565 600.4 1568 601.4 1571 602.6C1574.2 603.8 1577 604.8 1579.8 606C1582.8 607.2 1585.6 608.4 1588.4 609.6C1591.2 611 1594 612.2 1596.6 613.6C1599.4 615 1602 616.6 1604.4 618C1607 619.6 1609.4 621.2 1611.6 623C1614 624.8 1616.2 626.8 1618.2 628.6C1620.4 630.6 1622.4 632.8 1624.2 635C1626 637.4 1627.8 639.8 1629.2 642.4C1630.8 645.2 1632 648 1633 651C1634.2 654.2 1635 657.6 1635.6 661C1636.2 665 1636.6 668.8 1636.6 673Z" fill="black"/>
<path d="M1779.6 673H1783C1783 668.8 1782.6 664.6 1782 660.8C1781.4 657.2 1780.4 653.6 1779.4 650.2C1778.2 647 1776.8 644 1775.2 641C1773.6 638.2 1771.8 635.6 1770 633.2C1768.2 630.8 1766 628.6 1763.8 626.4C1761.6 624.4 1759.4 622.4 1756.8 620.4C1754.4 618.6 1752 616.8 1749.2 615.2C1746.8 613.6 1744 612.2 1741.2 610.6C1738.6 609.2 1735.8 607.8 1732.8 606.6C1730 605.4 1727.2 604.2 1724.2 603C1721.4 601.8 1718.6 600.8 1715.4 599.6C1712.4 598.6 1709.4 597.4 1706.4 596.4C1703.4 595.4 1700.4 594.4 1697.4 593.4C1694.4 592.4 1691.4 591.4 1688.2 590.4L1679 587.6C1676 586.6 1673 585.6 1669.8 584.6C1666.8 583.6 1663.8 582.6 1660.8 581.6C1657.8 580.6 1654.8 579.4 1651.8 578.4C1648.6 577.2 1645.8 576 1643 575C1640 573.8 1637.2 572.4 1634.6 571.2C1631.8 569.8 1629 568.4 1626.4 567C1623.6 565.4 1621 564 1618.6 562.4C1616 560.6 1613.6 559 1611.4 557.2C1609 555.2 1606.8 553.2 1604.8 551.2C1602.6 549 1600.6 546.6 1598.8 544.4C1597 541.8 1595.2 539.2 1593.8 536.4C1592.2 533.4 1591 530.4 1589.8 527.2C1588.6 523.8 1587.8 520.2 1587.2 516.6C1586.6 512.6 1586.2 508.4 1586.2 504.2H1582.8C1582.8 508.6 1583.2 513 1583.8 517.2C1584.4 521 1585.4 524.8 1586.4 528.4C1587.6 531.8 1588.8 535 1590.6 538C1592.2 540.8 1593.8 543.6 1595.8 546.4C1597.6 548.8 1599.8 551.4 1602 553.6C1604.2 555.8 1606.4 557.8 1609 559.8C1611.4 561.6 1613.8 563.6 1616.6 565.2C1619 566.8 1621.8 568.4 1624.6 570C1627.2 571.4 1630 572.8 1633 574.2C1635.8 575.4 1638.6 576.8 1641.6 578C1644.4 579.2 1647.2 580.4 1650.4 581.6C1653.4 582.8 1656.4 583.8 1659.4 584.8C1662.4 585.8 1665.4 586.8 1668.4 587.8C1671.4 588.8 1674.4 589.8 1677.6 590.8L1686.8 593.6C1689.8 594.6 1692.8 595.6 1696 596.4C1699 597.4 1702 598.4 1705 599.4C1708 600.4 1711 601.4 1714 602.6C1717.2 603.8 1720 604.8 1722.8 606C1725.8 607.2 1728.6 608.4 1731.4 609.6C1734.2 611 1737 612.2 1739.6 613.6C1742.4 615 1745 616.6 1747.4 618C1750 619.6 1752.4 621.2 1754.6 623C1757 624.8 1759.2 626.8 1761.2 628.6C1763.4 630.6 1765.4 632.8 1767.2 635C1769 637.4 1770.8 639.8 1772.2 642.4C1773.8 645.2 1775 648 1776 651C1777.2 654.2 1778 657.6 1778.6 661C1779.2 665 1779.6 668.8 1779.6 673Z" fill="black"/>
<path d="M1207.81 673H1211.21C1211.21 669.2 1211.61 665.4 1212.21 661.8C1212.81 658.4 1213.61 655.2 1214.81 652C1215.81 649 1217.21 646.2 1218.61 643.4C1220.01 640.8 1221.81 638.2 1223.61 635.8C1225.41 633.6 1227.41 631.2 1229.61 629.2C1231.61 627.2 1234.01 625.2 1236.41 623.4C1238.61 621.6 1241.21 619.8 1243.81 618.2C1246.21 616.6 1249.01 615 1251.81 613.6C1254.41 612.2 1257.41 610.8 1260.21 609.4C1263.01 608.2 1266.01 606.8 1269.01 605.6C1271.81 604.4 1275.01 603.4 1278.21 602.2C1281.21 601.2 1284.41 600 1287.61 599C1290.81 598 1294.01 597 1297.21 596C1300.41 595 1303.61 594.2 1306.81 593.2C1310.01 592.2 1313.21 591.4 1316.61 590.6C1319.81 589.8 1323.21 588.8 1326.41 588L1336.21 585.4C1339.41 584.6 1342.81 583.6 1346.01 582.8C1349.21 582 1352.41 581 1355.61 580C1358.81 579 1362.01 578.2 1365.21 577.2C1368.41 576.2 1371.61 575.2 1374.61 574.2C1377.81 573 1381.01 572 1383.81 570.8C1387.01 569.6 1390.01 568.4 1392.81 567.2C1395.81 565.8 1398.81 564.6 1401.41 563.2C1404.21 561.8 1407.01 560.2 1409.61 558.8C1412.41 557.2 1415.01 555.4 1417.21 553.8C1419.81 552 1422.21 550 1424.21 548C1426.41 546 1428.61 543.8 1430.41 541.4C1432.41 539 1434.21 536.4 1435.61 533.8C1437.21 531 1438.61 528.2 1439.61 525.2C1440.81 522 1441.61 518.8 1442.21 515.4C1442.81 511.8 1443.21 508 1443.21 504.2H1439.81C1439.81 507.8 1439.41 511.4 1438.81 514.8C1438.21 518 1437.41 521.2 1436.21 524C1435.21 526.8 1433.81 529.4 1432.41 532C1431.01 534.4 1429.21 536.8 1427.41 539C1425.61 541.2 1423.61 543.2 1421.41 545.2C1419.41 547 1417.01 549 1414.61 550.8C1412.21 552.4 1409.81 554.2 1407.21 555.6C1404.81 557 1402.01 558.6 1399.21 560C1396.61 561.4 1393.81 562.6 1390.81 564C1388.01 565.2 1385.01 566.4 1382.01 567.6C1379.21 568.6 1376.01 569.8 1372.81 570.8C1369.81 571.8 1366.61 572.8 1363.41 573.8C1360.21 574.8 1357.01 575.8 1353.81 576.6C1350.61 577.6 1347.41 578.4 1344.21 579.4C1341.01 580.2 1337.81 581.2 1334.41 582L1324.61 584.6C1321.41 585.4 1318.01 586.4 1314.81 587.2C1311.61 588 1308.21 589 1305.01 589.8C1301.81 590.8 1298.61 591.6 1295.21 592.6C1292.01 593.6 1288.81 594.6 1285.61 595.6C1282.41 596.6 1279.21 597.8 1276.21 598.8C1273.01 600 1269.81 601.2 1267.01 602.2C1263.81 603.4 1260.81 604.8 1258.01 606C1255.01 607.4 1252.01 608.8 1249.41 610.2C1246.41 611.8 1243.81 613.4 1241.21 615C1238.41 616.8 1235.81 618.6 1233.61 620.4C1231.01 622.4 1228.61 624.4 1226.61 626.6C1224.41 628.8 1222.21 631.2 1220.41 633.6C1218.41 636.2 1216.61 638.8 1215.21 641.6C1213.61 644.4 1212.21 647.6 1211.21 650.6C1210.01 654 1209.21 657.4 1208.61 661C1208.21 664.8 1207.81 668.8 1207.81 673Z" fill="black"/>
<path d="M1065.01 673H1068.41C1068.41 669.4 1068.81 665.8 1069.41 662.4C1070.01 659.2 1070.81 656 1072.01 653.2C1073.01 650.4 1074.41 647.8 1075.81 645.2C1077.21 642.8 1079.01 640.4 1080.81 638.2C1082.61 636 1084.61 634 1086.81 632C1088.81 630.2 1091.21 628.2 1093.61 626.4C1096.01 624.8 1098.41 623 1101.01 621.4C1103.41 620 1106.21 618.4 1109.01 617C1111.61 615.6 1114.41 614.4 1117.41 613C1120.21 611.8 1123.01 610.6 1126.21 609.4C1129.01 608.4 1132.21 607.2 1135.41 606.2C1138.41 605.2 1141.61 604.2 1144.81 603.2C1148.01 602.2 1151.21 601.2 1154.41 600.4C1157.61 599.4 1160.81 598.6 1164.01 597.6C1167.21 596.8 1170.41 595.8 1173.81 595L1183.61 592.4C1186.81 591.6 1190.21 590.6 1193.41 589.8C1196.61 589 1200.01 588 1203.21 587.2C1206.41 586.2 1209.61 585.4 1213.01 584.4C1216.21 583.4 1219.41 582.4 1222.61 581.4C1225.81 580.4 1229.01 579.2 1232.01 578.2C1235.21 577 1238.41 575.8 1241.21 574.8C1244.41 573.6 1247.41 572.2 1250.21 571C1253.21 569.6 1256.21 568.2 1258.81 566.8C1261.61 565.2 1264.41 563.6 1267.01 562C1269.81 560.2 1272.41 558.4 1274.61 556.6C1277.21 554.6 1279.61 552.6 1281.61 550.4C1283.81 548.2 1286.01 545.8 1287.81 543.4C1289.81 540.8 1291.61 538.2 1293.01 535.4C1294.61 532.4 1296.01 529.4 1297.01 526.4C1298.21 523 1299.01 519.6 1299.61 516C1300.21 512.2 1300.61 508.2 1300.61 504.2H1297.21C1297.21 508 1296.81 511.8 1296.21 515.4C1295.61 518.8 1294.81 522 1293.61 525.2C1292.61 528.2 1291.21 531 1289.81 533.8C1288.41 536.4 1286.61 539 1284.81 541.4C1283.01 543.6 1281.01 545.8 1278.81 548C1276.81 550 1274.41 552 1272.01 553.8C1269.81 555.6 1267.21 557.4 1264.61 559C1262.21 560.6 1259.41 562.2 1256.61 563.6C1254.01 565 1251.01 566.4 1248.21 567.8C1245.41 569 1242.41 570.4 1239.41 571.6C1236.61 572.8 1233.41 573.8 1230.21 575C1227.21 576 1224.01 577.2 1220.81 578.2C1217.61 579.2 1214.41 580.2 1211.21 581.2C1208.01 582.2 1204.81 583 1201.61 584C1198.41 585 1195.21 585.8 1191.81 586.6C1188.61 587.4 1185.21 588.4 1182.01 589.2L1172.21 591.8C1169.01 592.6 1165.61 593.6 1162.41 594.4C1159.21 595.2 1156.01 596.2 1152.81 597.2C1149.61 598.2 1146.41 599 1143.21 600C1140.01 601 1136.81 602 1133.81 603C1130.61 604.2 1127.41 605.2 1124.61 606.4C1121.41 607.6 1118.41 608.8 1115.61 610C1112.61 611.4 1109.61 612.6 1107.01 614C1104.21 615.4 1101.41 617 1098.81 618.4C1096.01 620 1093.41 621.8 1091.21 623.4C1088.61 625.2 1086.41 627.2 1084.21 629.2C1082.01 631.2 1079.81 633.6 1078.01 635.8C1076.01 638.2 1074.21 640.8 1072.81 643.4C1071.21 646.2 1069.81 649 1068.81 652C1067.61 655.2 1066.81 658.4 1066.21 661.8C1065.21 665.4 1065.01 669 1065.01 673Z" fill="black"/>
<path d="M922.005 673H925.406C925.406 669.4 925.806 665.8 926.406 662.4C927.006 659.2 927.805 656 929.005 653.2C930.005 650.4 931.406 647.8 932.806 645.2C934.206 642.8 936.006 640.4 937.806 638.2C939.606 636 941.606 634 943.806 632C945.806 630.2 948.205 628.2 950.605 626.4C953.005 624.8 955.405 623 958.005 621.4C960.405 620 963.205 618.4 966.005 617C968.605 615.6 971.406 614.4 974.406 613C977.206 611.8 980.005 610.6 983.205 609.4C986.005 608.4 989.206 607.2 992.406 606.2C995.406 605.2 998.606 604.2 1001.81 603.2C1005.01 602.2 1008.21 601.2 1011.41 600.4C1014.61 599.4 1017.81 598.6 1021.01 597.6C1024.21 596.8 1027.41 595.8 1030.81 595L1040.61 592.4C1043.81 591.6 1047.21 590.6 1050.41 589.8C1053.61 589 1057.01 588 1060.21 587.2C1063.41 586.2 1066.61 585.4 1070.01 584.4C1073.21 583.4 1076.41 582.4 1079.61 581.4C1082.81 580.4 1086.01 579.2 1089.01 578.2C1092.21 577 1095.41 575.8 1098.21 574.8C1101.41 573.6 1104.41 572.2 1107.21 571C1110.21 569.6 1113.21 568.2 1115.81 566.8C1118.61 565.2 1121.41 563.6 1124.01 562C1126.81 560.2 1129.41 558.4 1131.61 556.6C1134.21 554.6 1136.41 552.6 1138.61 550.4C1140.81 548.2 1143.01 545.8 1144.81 543.4C1146.81 540.8 1148.61 538.2 1150.01 535.4C1151.61 532.4 1153.01 529.4 1154.01 526.4C1155.21 523 1156.01 519.6 1156.61 516C1157.21 512.2 1157.61 508.2 1157.61 504.2H1154.21C1154.21 508 1153.81 511.8 1153.21 515.4C1152.61 518.8 1151.81 522 1150.61 525.2C1149.61 528.2 1148.21 531 1146.81 533.8C1145.41 536.4 1143.61 539 1141.81 541.4C1140.01 543.6 1138.01 545.8 1135.81 548C1133.81 550 1131.41 552 1129.01 553.8C1126.81 555.6 1124.21 557.4 1121.61 559C1119.21 560.6 1116.41 562.2 1113.61 563.6C1111.01 565 1108.01 566.4 1105.21 567.8C1102.41 569 1099.41 570.4 1096.41 571.6C1093.61 572.8 1090.41 573.8 1087.21 575C1084.21 576 1081.01 577.2 1077.81 578.2C1074.61 579.2 1071.41 580.2 1068.21 581.2C1065.01 582.2 1061.81 583 1058.61 584C1055.41 585 1052.21 585.8 1048.81 586.6C1045.61 587.4 1042.21 588.4 1039.01 589.2L1029.21 591.8C1026.01 592.6 1022.61 593.6 1019.41 594.4C1016.21 595.2 1013.01 596.2 1009.81 597.2C1006.61 598.2 1003.41 599 1000.21 600C997.005 601 993.806 602 990.806 603C987.606 604.2 984.405 605.2 981.605 606.4C978.405 607.6 975.405 608.8 972.605 610C969.605 611.4 966.605 612.6 964.005 614C961.205 615.4 958.406 617 955.806 618.4C953.006 620 950.405 621.8 948.205 623.4C945.605 625.2 943.405 627.2 941.205 629.2C939.005 631.2 936.805 633.6 935.005 635.8C933.005 638.2 931.206 640.8 929.806 643.4C928.206 646.2 926.806 649 925.806 652C924.606 655.2 923.805 658.4 923.205 661.8C922.405 665.4 922.005 669 922.005 673Z" fill="black"/>
<path d="M779.005 673H782.406C782.406 669.4 782.806 665.8 783.406 662.4C784.006 659.2 784.805 656.2 786.005 653.2C787.005 650.4 788.406 647.8 789.806 645.2C791.206 642.8 793.006 640.4 794.806 638.2C796.606 636 798.606 634 800.806 632C802.806 630.2 805.205 628.2 807.605 626.4C810.005 624.8 812.405 623 815.005 621.4C817.405 620 820.205 618.4 823.005 617C825.605 615.6 828.406 614.4 831.406 613C834.206 611.8 837.005 610.6 840.205 609.4C843.005 608.4 846.006 607.2 849.406 606.2C852.406 605.2 855.606 604.2 858.806 603.2C862.006 602.2 865.206 601.2 868.406 600.4C871.606 599.4 874.805 598.6 878.005 597.6C881.205 596.8 884.406 595.8 887.806 595L897.605 592.4C900.805 591.6 904.206 590.6 907.406 589.8C910.606 589 914.005 588 917.205 587.2C920.405 586.2 923.605 585.4 927.005 584.4C930.205 583.4 933.405 582.4 936.605 581.4C939.805 580.4 943.005 579.2 946.005 578.2C949.205 577 952.405 575.8 955.205 574.8C958.405 573.6 961.405 572.2 964.205 571C967.205 569.6 970.206 568.2 972.806 566.8C975.606 565.2 978.405 563.6 981.005 562C983.805 560.2 986.405 558.4 988.605 556.6C991.205 554.6 993.405 552.6 995.605 550.4C997.805 548.2 1000.01 545.8 1001.81 543.4C1003.81 540.8 1005.61 538.2 1007.01 535.4C1008.61 532.4 1010.01 529.4 1011.01 526.4C1012.21 523 1013.01 519.6 1013.61 516C1014.21 512.2 1014.61 508.2 1014.61 504.2H1011.21C1011.21 508 1010.81 511.8 1010.21 515.4C1009.61 518.8 1008.81 522 1007.61 525.2C1006.61 528.2 1005.21 531 1003.81 533.8C1002.41 536.4 1000.61 539 998.806 541.4C997.006 543.6 995.006 545.8 992.806 548C990.806 550 988.405 552 986.005 553.8C983.805 555.6 981.205 557.4 978.605 559C976.205 560.6 973.405 562.2 970.605 563.6C968.005 565 965.005 566.4 962.205 567.8C959.405 569 956.406 570.4 953.406 571.6C950.606 572.8 947.405 573.8 944.205 575C941.205 576 938.006 577.2 934.806 578.2C931.606 579.2 928.405 580.2 925.205 581.2C922.005 582.2 918.805 583 915.605 584C912.405 585 909.206 585.8 905.806 586.6C902.606 587.4 899.205 588.4 896.005 589.2L886.205 591.8C883.005 592.6 879.606 593.6 876.406 594.4C873.206 595.2 870.006 596.2 866.806 597.2C863.606 598.2 860.405 599 857.205 600C854.005 601 850.806 602 847.806 603C844.606 604.2 841.405 605.2 838.605 606.4C835.405 607.6 832.405 608.8 829.605 610C826.605 611.4 823.605 612.6 821.005 614C818.205 615.4 815.406 617 812.806 618.4C810.006 620 807.405 621.8 805.205 623.4C802.605 625.2 800.405 627.2 798.205 629.2C796.005 631.2 793.805 633.6 792.005 635.8C790.005 638.2 788.206 640.8 786.806 643.4C785.206 646.2 783.806 649 782.806 652C781.606 655.2 780.805 658.4 780.205 661.8C779.405 665.4 779.005 669 779.005 673Z" fill="black"/>
</g>
<defs>
<clipPath id="clip0_4041_23972">
<rect width="1920" height="1080" fill="white"/>
</clipPath>
</defs>
</svg>
