<svg width="1920" height="1080" viewBox="0 0 1920 1080" fill="none" xmlns="http://www.w3.org/2000/svg">
<g clip-path="url(#clip0_4039_12282)">
<path d="M1386.01 252.2H1532.21V232H1386.01V252.2ZM1529.01 248.8H1389.41V235.4H1529.01V248.8Z" fill="black"/>
<path d="M1243.21 252.2H1389.41V232H1243.21V252.2ZM1386.01 248.8H1246.41V235.4H1386.01V248.8Z" fill="black"/>
<path d="M1386.01 269.2H1532.21V248.8H1386.01V269.2ZM1529.01 265.8H1389.41V252.2H1529.01V265.8Z" fill="black"/>
<path d="M1243.21 269.2H1389.41V248.8H1243.21V269.2ZM1386.01 265.8H1246.41V252.2H1386.01V265.8Z" fill="black"/>
<path d="M1386.01 286H1532.21V265.8H1386.01V286ZM1529.01 282.6H1389.41V269H1529.01V282.6Z" fill="black"/>
<path d="M1243.21 286H1389.41V265.8H1243.21V286ZM1386.01 282.6H1246.41V269H1386.01V282.6Z" fill="black"/>
<path d="M1386.01 303H1532.21V282.6H1386.01V303ZM1529.01 299.6H1389.41V286H1529.01V299.6Z" fill="black"/>
<path d="M1243.21 303H1389.41V282.6H1243.21V303ZM1386.01 299.6H1246.41V286H1386.01V299.6Z" fill="black"/>
<path d="M1386.01 387.4H1532.21V367.2H1386.01V387.4ZM1529.01 384H1389.41V370.4H1529.01V384Z" fill="black"/>
<path d="M1243.21 387.4H1389.41V367.2H1243.21V387.4ZM1386.01 384H1246.41V370.4H1386.01V384Z" fill="black"/>
<path d="M1386.01 404.4H1532.21V384H1386.01V404.4ZM1529.01 401H1389.41V387.4H1529.01V401Z" fill="black"/>
<path d="M1243.21 404.4H1389.41V384H1243.21V404.4ZM1386.01 401H1246.41V387.4H1386.01V401Z" fill="black"/>
<path d="M1386.01 421.2H1532.21V401H1386.01V421.2ZM1529.01 417.8H1389.41V404.2H1529.01V417.8Z" fill="black"/>
<path d="M1243.21 421.2H1389.41V401H1243.21V421.2ZM1386.01 417.8H1246.41V404.2H1386.01V417.8Z" fill="black"/>
<path d="M1386.01 438H1532.21V417.8H1386.01V438ZM1529.01 434.8H1389.41V421.2H1529.01V434.8Z" fill="black"/>
<path d="M1243.21 438H1389.41V417.8H1243.21V438ZM1386.01 434.8H1246.41V421.2H1386.01V434.8Z" fill="black"/>
<path d="M1386.01 455H1532.21V434.8H1386.01V455ZM1529.01 451.6H1389.41V438H1529.01V451.6Z" fill="black"/>
<path d="M1243.21 455H1389.41V434.8H1243.21V455ZM1386.01 451.6H1246.41V438H1386.01V451.6Z" fill="black"/>
<path d="M1386.01 471.8H1532.21V451.6H1386.01V471.8ZM1529.01 468.6H1389.41V455H1529.01V468.6Z" fill="black"/>
<path d="M1243.21 471.8H1389.41V451.6H1243.21V471.8ZM1386.01 468.6H1246.41V455H1386.01V468.6Z" fill="black"/>
<path d="M1386.01 488.8H1532.21V468.6H1386.01V488.8ZM1529.01 485.4H1389.41V471.8H1529.01V485.4Z" fill="black"/>
<path d="M1243.21 488.8H1389.41V468.6H1243.21V488.8ZM1386.01 485.4H1246.41V471.8H1386.01V485.4Z" fill="black"/>
<path d="M1386.01 505.6H1532.21V485.4H1386.01V505.6ZM1529.01 502.4H1389.41V488.8H1529.01V502.4Z" fill="black"/>
<path d="M1243.21 505.6H1389.41V485.4H1243.21V505.6ZM1386.01 502.4H1246.41V488.8H1386.01V502.4Z" fill="black"/>
<path d="M1100.21 505.6H1246.41V485.4H1100.21V505.6ZM1243.21 502.4H1103.61V488.8H1243.21V502.4Z" fill="black"/>
<path d="M1386.01 336.8H1532.21V316.4H1386.01V336.8ZM1529.01 333.4H1389.41V319.8H1529.01V333.4Z" fill="black"/>
<path d="M1243.21 336.8H1389.41V316.4H1243.21V336.8ZM1386.01 333.4H1246.41V319.8H1386.01V333.4Z" fill="black"/>
<path d="M1386.01 353.6H1532.21V333.4H1386.01V353.6ZM1529.01 350.2H1389.41V336.6H1529.01V350.2Z" fill="black"/>
<path d="M1243.21 353.6H1389.41V333.4H1243.21V353.6ZM1386.01 350.2H1246.41V336.6H1386.01V350.2Z" fill="black"/>
<path d="M1386.01 370.6H1532.21V350.2H1386.01V370.6ZM1529.01 367.2H1389.41V353.6H1529.01V367.2Z" fill="black"/>
<path d="M1243.21 370.6H1389.41V350.2H1243.21V370.6ZM1386.01 367.2H1246.41V353.6H1386.01V367.2Z" fill="black"/>
<path d="M1386.01 319.8H1532.21V299.6H1386.01V319.8ZM1529.01 316.4H1389.41V302.8H1529.01V316.4Z" fill="black"/>
<path d="M1243.21 319.8H1389.41V299.6H1243.21V319.8ZM1386.01 316.4H1246.41V302.8H1386.01V316.4Z" fill="black"/>
<path d="M1100.21 252.2H1246.41V232H1100.21V252.2ZM1243.21 248.8H1103.61V235.4H1243.21V248.8Z" fill="black"/>
<path d="M1100.21 269.2H1246.41V248.8H1100.21V269.2ZM1243.21 265.8H1103.61V252.2H1243.21V265.8Z" fill="black"/>
<path d="M1100.21 286H1246.41V265.8H1100.21V286ZM1243.21 282.6H1103.61V269H1243.21V282.6Z" fill="black"/>
<path d="M1100.21 303H1246.41V282.6H1100.21V303ZM1243.21 299.6H1103.61V286H1243.21V299.6Z" fill="black"/>
<path d="M1100.21 387.4H1246.41V367.2H1100.21V387.4ZM1243.21 384H1103.61V370.4H1243.21V384Z" fill="black"/>
<path d="M1100.21 404.4H1246.41V384H1100.21V404.4ZM1243.21 401H1103.61V387.4H1243.21V401Z" fill="black"/>
<path d="M1100.21 421.2H1246.41V401H1100.21V421.2ZM1243.21 417.8H1103.61V404.2H1243.21V417.8Z" fill="black"/>
<path d="M1100.21 438H1246.41V417.8H1100.21V438ZM1243.21 434.8H1103.61V421.2H1243.21V434.8Z" fill="black"/>
<path d="M1100.21 455H1246.41V434.8H1100.21V455ZM1243.21 451.6H1103.61V438H1243.21V451.6Z" fill="black"/>
<path d="M1100.21 471.8H1246.41V451.6H1100.21V471.8ZM1243.21 468.6H1103.61V455H1243.21V468.6Z" fill="black"/>
<path d="M1100.21 488.8H1246.41V468.6H1100.21V488.8ZM1243.21 485.4H1103.61V471.8H1243.21V485.4Z" fill="black"/>
<path d="M1100.21 336.8H1246.41V316.4H1100.21V336.8ZM1243.21 333.4H1103.61V319.8H1243.21V333.4Z" fill="black"/>
<path d="M1100.21 353.6H1246.41V333.4H1100.21V353.6ZM1243.21 350.2H1103.61V336.6H1243.21V350.2Z" fill="black"/>
<path d="M1100.21 370.6H1246.41V350.2H1100.21V370.6ZM1243.21 367.2H1103.61V353.6H1243.21V367.2Z" fill="black"/>
<path d="M1100.21 319.8H1246.41V299.6H1100.21V319.8ZM1243.21 316.4H1103.61V302.8H1243.21V316.4Z" fill="black"/>
<path d="M1529.01 505.6H1675.21V485.4H1529.01V505.6ZM1672.01 502.4H1532.41V488.8H1672.01V502.4Z" fill="black"/>
<path d="M1529.01 252.2H1675.21V232H1529.01V252.2ZM1672.01 248.8H1532.41V235.4H1672.01V248.8Z" fill="black"/>
<path d="M1529.01 269.2H1675.21V248.8H1529.01V269.2ZM1672.01 265.8H1532.41V252.2H1672.01V265.8Z" fill="black"/>
<path d="M1529.01 286H1675.21V265.8H1529.01V286ZM1672.01 282.6H1532.41V269H1672.01V282.6Z" fill="black"/>
<path d="M1529.01 303H1675.21V282.6H1529.01V303ZM1672.01 299.6H1532.41V286H1672.01V299.6Z" fill="black"/>
<path d="M1529.01 387.4H1675.21V367.2H1529.01V387.4ZM1672.01 384H1532.41V370.4H1672.01V384Z" fill="black"/>
<path d="M1529.01 404.4H1675.21V384H1529.01V404.4ZM1672.01 401H1532.41V387.4H1672.01V401Z" fill="black"/>
<path d="M1529.01 421.2H1675.21V401H1529.01V421.2ZM1672.01 417.8H1532.41V404.2H1672.01V417.8Z" fill="black"/>
<path d="M1529.01 438H1675.21V417.8H1529.01V438ZM1672.01 434.8H1532.41V421.2H1672.01V434.8Z" fill="black"/>
<path d="M1529.01 455H1675.21V434.8H1529.01V455ZM1672.01 451.6H1532.41V438H1672.01V451.6Z" fill="black"/>
<path d="M1529.01 471.8H1675.21V451.6H1529.01V471.8ZM1672.01 468.6H1532.41V455H1672.01V468.6Z" fill="black"/>
<path d="M1529.01 488.8H1675.21V468.6H1529.01V488.8ZM1672.01 485.4H1532.41V471.8H1672.01V485.4Z" fill="black"/>
<path d="M1529.01 336.8H1675.21V316.4H1529.01V336.8ZM1672.01 333.4H1532.41V319.8H1672.01V333.4Z" fill="black"/>
<path d="M1529.01 353.6H1675.21V333.4H1529.01V353.6ZM1672.01 350.2H1532.41V336.6H1672.01V350.2Z" fill="black"/>
<path d="M1529.01 370.6H1675.21V350.2H1529.01V370.6ZM1672.01 367.2H1532.41V353.6H1672.01V367.2Z" fill="black"/>
<path d="M1529.01 319.8H1675.21V299.6H1529.01V319.8ZM1672.01 316.4H1532.41V302.8H1672.01V316.4Z" fill="black"/>
</g>
<defs>
<clipPath id="clip0_4039_12282">
<rect width="1920" height="1080" fill="white"/>
</clipPath>
</defs>
</svg>
