<svg width="1920" height="1080" viewBox="0 0 1920 1080" fill="none" xmlns="http://www.w3.org/2000/svg">
<g clip-path="url(#clip0_4039_12282)">
<path d="M1297.01 252.2H1443.21V232H1297.01V252.2ZM1440.01 248.8H1300.41V235.4H1440.01V248.8Z" fill="black"/>
<path d="M1154.21 252.2H1300.41V232H1154.21V252.2ZM1297.01 248.8H1157.41V235.4H1297.01V248.8Z" fill="black"/>
<path d="M1297.01 269.2H1443.21V248.8H1297.01V269.2ZM1440.01 265.8H1300.41V252.2H1440.01V265.8Z" fill="black"/>
<path d="M1154.21 269.2H1300.41V248.8H1154.21V269.2ZM1297.01 265.8H1157.41V252.2H1297.01V265.8Z" fill="black"/>
<path d="M1297.01 286H1443.21V265.8H1297.01V286ZM1440.01 282.6H1300.41V269H1440.01V282.6Z" fill="black"/>
<path d="M1154.21 286H1300.41V265.8H1154.21V286ZM1297.01 282.6H1157.41V269H1297.01V282.6Z" fill="black"/>
<path d="M1297.01 303H1443.21V282.6H1297.01V303ZM1440.01 299.6H1300.41V286H1440.01V299.6Z" fill="black"/>
<path d="M1154.21 303H1300.41V282.6H1154.21V303ZM1297.01 299.6H1157.41V286H1297.01V299.6Z" fill="black"/>
<path d="M1297.01 387.4H1443.21V367.2H1297.01V387.4ZM1440.01 384H1300.41V370.4H1440.01V384Z" fill="black"/>
<path d="M1154.21 387.4H1300.41V367.2H1154.21V387.4ZM1297.01 384H1157.41V370.4H1297.01V384Z" fill="black"/>
<path d="M1297.01 404.4H1443.21V384H1297.01V404.4ZM1440.01 401H1300.41V387.4H1440.01V401Z" fill="black"/>
<path d="M1154.21 404.4H1300.41V384H1154.21V404.4ZM1297.01 401H1157.41V387.4H1297.01V401Z" fill="black"/>
<path d="M1297.01 421.2H1443.21V401H1297.01V421.2ZM1440.01 417.8H1300.41V404.2H1440.01V417.8Z" fill="black"/>
<path d="M1154.21 421.2H1300.41V401H1154.21V421.2ZM1297.01 417.8H1157.41V404.2H1297.01V417.8Z" fill="black"/>
<path d="M1297.01 438H1443.21V417.8H1297.01V438ZM1440.01 434.8H1300.41V421.2H1440.01V434.8Z" fill="black"/>
<path d="M1154.21 438H1300.41V417.8H1154.21V438ZM1297.01 434.8H1157.41V421.2H1297.01V434.8Z" fill="black"/>
<path d="M1297.01 455H1443.21V434.8H1297.01V455ZM1440.01 451.6H1300.41V438H1440.01V451.6Z" fill="black"/>
<path d="M1154.21 455H1300.41V434.8H1154.21V455ZM1297.01 451.6H1157.41V438H1297.01V451.6Z" fill="black"/>
<path d="M1297.01 471.8H1443.21V451.6H1297.01V471.8ZM1440.01 468.6H1300.41V455H1440.01V468.6Z" fill="black"/>
<path d="M1154.21 471.8H1300.41V451.6H1154.21V471.8ZM1297.01 468.6H1157.41V455H1297.01V468.6Z" fill="black"/>
<path d="M1297.01 488.8H1443.21V468.6H1297.01V488.8ZM1440.01 485.4H1300.41V471.8H1440.01V485.4Z" fill="black"/>
<path d="M1154.21 488.8H1300.41V468.6H1154.21V488.8ZM1297.01 485.4H1157.41V471.8H1297.01V485.4Z" fill="black"/>
<path d="M1297.01 505.6H1443.21V485.4H1297.01V505.6ZM1440.01 502.4H1300.41V488.8H1440.01V502.4Z" fill="black"/>
<path d="M1154.21 505.6H1300.41V485.4H1154.21V505.6ZM1297.01 502.4H1157.41V488.8H1297.01V502.4Z" fill="black"/>
<path d="M1011.21 505.6H1157.41V485.4H1011.21V505.6ZM1154.21 502.4H1014.61V488.8H1154.21V502.4Z" fill="black"/>
<path d="M1297.01 336.8H1443.21V316.4H1297.01V336.8ZM1440.01 333.4H1300.41V319.8H1440.01V333.4Z" fill="black"/>
<path d="M1154.21 336.8H1300.41V316.4H1154.21V336.8ZM1297.01 333.4H1157.41V319.8H1297.01V333.4Z" fill="black"/>
<path d="M1297.01 353.6H1443.21V333.4H1297.01V353.6ZM1440.01 350.2H1300.41V336.6H1440.01V350.2Z" fill="black"/>
<path d="M1154.21 353.6H1300.41V333.4H1154.21V353.6ZM1297.01 350.2H1157.41V336.6H1297.01V350.2Z" fill="black"/>
<path d="M1297.01 370.6H1443.21V350.2H1297.01V370.6ZM1440.01 367.2H1300.41V353.6H1440.01V367.2Z" fill="black"/>
<path d="M1154.21 370.6H1300.41V350.2H1154.21V370.6ZM1297.01 367.2H1157.41V353.6H1297.01V367.2Z" fill="black"/>
<path d="M1297.01 319.8H1443.21V299.6H1297.01V319.8ZM1440.01 316.4H1300.41V302.8H1440.01V316.4Z" fill="black"/>
<path d="M1154.21 319.8H1300.41V299.6H1154.21V319.8ZM1297.01 316.4H1157.41V302.8H1297.01V316.4Z" fill="black"/>
<path d="M1011.21 252.2H1157.41V232H1011.21V252.2ZM1154.21 248.8H1014.61V235.4H1154.21V248.8Z" fill="black"/>
<path d="M1011.21 269.2H1157.41V248.8H1011.21V269.2ZM1154.21 265.8H1014.61V252.2H1154.21V265.8Z" fill="black"/>
<path d="M1011.21 286H1157.41V265.8H1011.21V286ZM1154.21 282.6H1014.61V269H1154.21V282.6Z" fill="black"/>
<path d="M1011.21 303H1157.41V282.6H1011.21V303ZM1154.21 299.6H1014.61V286H1154.21V299.6Z" fill="black"/>
<path d="M1011.21 387.4H1157.41V367.2H1011.21V387.4ZM1154.21 384H1014.61V370.4H1154.21V384Z" fill="black"/>
<path d="M1011.21 404.4H1157.41V384H1011.21V404.4ZM1154.21 401H1014.61V387.4H1154.21V401Z" fill="black"/>
<path d="M1011.21 421.2H1157.41V401H1011.21V421.2ZM1154.21 417.8H1014.61V404.2H1154.21V417.8Z" fill="black"/>
<path d="M1011.21 438H1157.41V417.8H1011.21V438ZM1154.21 434.8H1014.61V421.2H1154.21V434.8Z" fill="black"/>
<path d="M1011.21 455H1157.41V434.8H1011.21V455ZM1154.21 451.6H1014.61V438H1154.21V451.6Z" fill="black"/>
<path d="M1011.21 471.8H1157.41V451.6H1011.21V471.8ZM1154.21 468.6H1014.61V455H1154.21V468.6Z" fill="black"/>
<path d="M1011.21 488.8H1157.41V468.6H1011.21V488.8ZM1154.21 485.4H1014.61V471.8H1154.21V485.4Z" fill="black"/>
<path d="M1011.21 336.8H1157.41V316.4H1011.21V336.8ZM1154.21 333.4H1014.61V319.8H1154.21V333.4Z" fill="black"/>
<path d="M1011.21 353.6H1157.41V333.4H1011.21V353.6ZM1154.21 350.2H1014.61V336.6H1154.21V350.2Z" fill="black"/>
<path d="M1011.21 370.6H1157.41V350.2H1011.21V370.6ZM1154.21 367.2H1014.61V353.6H1154.21V367.2Z" fill="black"/>
<path d="M1011.21 319.8H1157.41V299.6H1011.21V319.8ZM1154.21 316.4H1014.61V302.8H1154.21V316.4Z" fill="black"/>
<path d="M1440.01 505.6H1586.21V485.4H1440.01V505.6ZM1583.01 502.4H1443.41V488.8H1583.01V502.4Z" fill="black"/>
<path d="M1440.01 252.2H1586.21V232H1440.01V252.2ZM1583.01 248.8H1443.41V235.4H1583.01V248.8Z" fill="black"/>
<path d="M1440.01 269.2H1586.21V248.8H1440.01V269.2ZM1583.01 265.8H1443.41V252.2H1583.01V265.8Z" fill="black"/>
<path d="M1440.01 286H1586.21V265.8H1440.01V286ZM1583.01 282.6H1443.41V269H1583.01V282.6Z" fill="black"/>
<path d="M1440.01 303H1586.21V282.6H1440.01V303ZM1583.01 299.6H1443.41V286H1583.01V299.6Z" fill="black"/>
<path d="M1440.01 387.4H1586.21V367.2H1440.01V387.4ZM1583.01 384H1443.41V370.4H1583.01V384Z" fill="black"/>
<path d="M1440.01 404.4H1586.21V384H1440.01V404.4ZM1583.01 401H1443.41V387.4H1583.01V401Z" fill="black"/>
<path d="M1440.01 421.2H1586.21V401H1440.01V421.2ZM1583.01 417.8H1443.41V404.2H1583.01V417.8Z" fill="black"/>
<path d="M1440.01 438H1586.21V417.8H1440.01V438ZM1583.01 434.8H1443.41V421.2H1583.01V434.8Z" fill="black"/>
<path d="M1440.01 455H1586.21V434.8H1440.01V455ZM1583.01 451.6H1443.41V438H1583.01V451.6Z" fill="black"/>
<path d="M1440.01 471.8H1586.21V451.6H1440.01V471.8ZM1583.01 468.6H1443.41V455H1583.01V468.6Z" fill="black"/>
<path d="M1440.01 488.8H1586.21V468.6H1440.01V488.8ZM1583.01 485.4H1443.41V471.8H1583.01V485.4Z" fill="black"/>
<path d="M1440.01 336.8H1586.21V316.4H1440.01V336.8ZM1583.01 333.4H1443.41V319.8H1583.01V333.4Z" fill="black"/>
<path d="M1440.01 353.6H1586.21V333.4H1440.01V353.6ZM1583.01 350.2H1443.41V336.6H1583.01V350.2Z" fill="black"/>
<path d="M1440.01 370.6H1586.21V350.2H1440.01V370.6ZM1583.01 367.2H1443.41V353.6H1583.01V367.2Z" fill="black"/>
<path d="M1440.01 319.8H1586.21V299.6H1440.01V319.8ZM1583.01 316.4H1443.41V302.8H1583.01V316.4Z" fill="black"/>
</g>
<defs>
<clipPath id="clip0_4039_12282">
<rect width="1920" height="1080" fill="white"/>
</clipPath>
</defs>
</svg>
