<svg width="1920" height="1080" viewBox="0 0 1920 1080" fill="none" xmlns="http://www.w3.org/2000/svg">
<g clip-path="url(#clip0_4041_23972)">
<g clip-path="url(#clip1_4041_23972)">
<path d="M1386.05 252.202H1532.27V232H1386.05V252.202ZM1529.07 248.802H1389.45V235.4H1529.07V248.802Z" fill="black"/>
<path d="M1243.03 252.202H1389.25V232H1243.03V252.202ZM1386.05 248.802H1246.43V235.4H1386.05V248.802Z" fill="black"/>
<path d="M1386.05 269.204H1532.27V248.802H1386.05V269.204ZM1529.07 265.804H1389.45V252.202H1529.07V265.804Z" fill="black"/>
<path d="M1243.03 269.204H1389.25V248.802H1243.03V269.204ZM1386.05 265.804H1246.43V252.202H1386.05V265.804Z" fill="black"/>
<path d="M1386.05 286.006H1532.27V265.804H1386.05V286.006ZM1529.07 282.606H1389.45V269.004H1529.07V282.606Z" fill="black"/>
<path d="M1243.03 286.006H1389.25V265.804H1243.03V286.006ZM1386.05 282.606H1246.43V269.004H1386.05V282.606Z" fill="black"/>
<path d="M1386.05 303.008H1532.27V282.606H1386.05V303.008ZM1529.07 299.608H1389.45V286.006H1529.07V299.608Z" fill="black"/>
<path d="M1243.03 303.008H1389.25V282.606H1243.03V303.008ZM1386.05 299.608H1246.43V286.006H1386.05V299.608Z" fill="black"/>
<path d="M1386.05 387.419H1532.27V367.217H1386.05V387.419ZM1529.07 384.019H1389.45V370.417H1529.07V384.019Z" fill="black"/>
<path d="M1243.03 387.419H1389.25V367.217H1243.03V387.419ZM1386.05 384.019H1246.43V370.417H1386.05V384.019Z" fill="black"/>
<path d="M1386.05 404.421H1532.27V384.019H1386.05V404.421ZM1529.07 401.021H1389.45V387.419H1529.07V401.021Z" fill="black"/>
<path d="M1243.03 404.421H1389.25V384.019H1243.03V404.421ZM1386.05 401.021H1246.43V387.419H1386.05V401.021Z" fill="black"/>
<path d="M1386.05 421.223H1532.27V401.021H1386.05V421.223ZM1529.07 417.823H1389.45V404.221H1529.07V417.823Z" fill="black"/>
<path d="M1243.03 421.223H1389.25V401.021H1243.03V421.223ZM1386.05 417.823H1246.43V404.221H1386.05V417.823Z" fill="black"/>
<path d="M1386.05 438.025H1532.27V417.823H1386.05V438.025ZM1529.07 434.825H1389.45V421.223H1529.07V434.825Z" fill="black"/>
<path d="M1243.03 438.025H1389.25V417.823H1243.03V438.025ZM1386.05 434.825H1246.43V421.223H1386.05V434.825Z" fill="black"/>
<path d="M1386.05 455.027H1532.27V434.825H1386.05V455.027ZM1529.07 451.627H1389.45V438.025H1529.07V451.627Z" fill="black"/>
<path d="M1243.03 455.027H1389.25V434.825H1243.03V455.027ZM1386.05 451.627H1246.43V438.025H1386.05V451.627Z" fill="black"/>
<path d="M1386.05 471.83H1532.27V451.627H1386.05V471.83ZM1529.07 468.629H1389.45V455.028H1529.07V468.629Z" fill="black"/>
<path d="M1243.03 471.83H1389.25V451.627H1243.03V471.83ZM1386.05 468.629H1246.43V455.028H1386.05V468.629Z" fill="black"/>
<path d="M1386.05 488.832H1532.27V468.629H1386.05V488.832ZM1529.07 485.431H1389.45V471.83H1529.07V485.431Z" fill="black"/>
<path d="M1243.03 488.832H1389.25V468.629H1243.03V488.832ZM1386.05 485.431H1246.43V471.83H1386.05V485.431Z" fill="black"/>
<path d="M1386.05 505.633H1532.27V485.431H1386.05V505.633ZM1529.07 502.433H1389.45V488.831H1529.07V502.433Z" fill="black"/>
<path d="M1243.03 505.633H1389.25V485.431H1243.03V505.633ZM1386.05 502.433H1246.43V488.831H1386.05V502.433Z" fill="black"/>
<path d="M1100.22 505.633H1246.43V485.431H1100.22V505.633ZM1243.03 502.433H1103.42V488.831H1243.03V502.433Z" fill="black"/>
<path d="M1386.05 336.813H1532.27V316.41H1386.05V336.813ZM1529.07 333.412H1389.45V319.811H1529.07V333.412Z" fill="black"/>
<path d="M1243.03 336.813H1389.25V316.41H1243.03V336.813ZM1386.05 333.412H1246.43V319.811H1386.05V333.412Z" fill="black"/>
<path d="M1386.05 353.615H1532.27V333.412H1386.05V353.615ZM1529.07 350.214H1389.45V336.613H1529.07V350.214Z" fill="black"/>
<path d="M1243.03 353.615H1389.25V333.412H1243.03V353.615ZM1386.05 350.214H1246.43V336.613H1386.05V350.214Z" fill="black"/>
<path d="M1386.05 370.617H1532.27V350.215H1386.05V370.617ZM1529.07 367.217H1389.45V353.615H1529.07V367.217Z" fill="black"/>
<path d="M1243.03 370.617H1389.25V350.215H1243.03V370.617ZM1386.05 367.217H1246.43V353.615H1386.05V367.217Z" fill="black"/>
<path d="M1386.05 319.811H1532.27V299.608H1386.05V319.811ZM1529.07 316.41H1389.45V302.809H1529.07V316.41Z" fill="black"/>
<path d="M1243.03 319.811H1389.25V299.608H1243.03V319.811ZM1386.05 316.41H1246.43V302.809H1386.05V316.41Z" fill="black"/>
<path d="M1100.22 252.202H1246.43V232H1100.22V252.202ZM1243.03 248.802H1103.42V235.4H1243.03V248.802Z" fill="black"/>
<path d="M1100.22 269.204H1246.43V248.802H1100.22V269.204ZM1243.03 265.804H1103.42V252.202H1243.03V265.804Z" fill="black"/>
<path d="M1100.22 286.006H1246.43V265.804H1100.22V286.006ZM1243.03 282.606H1103.42V269.004H1243.03V282.606Z" fill="black"/>
<path d="M1100.22 303.008H1246.43V282.606H1100.22V303.008ZM1243.03 299.608H1103.42V286.006H1243.03V299.608Z" fill="black"/>
<path d="M1100.22 387.419H1246.43V367.217H1100.22V387.419ZM1243.03 384.019H1103.42V370.417H1243.03V384.019Z" fill="black"/>
<path d="M1100.22 404.421H1246.43V384.019H1100.22V404.421ZM1243.03 401.021H1103.42V387.419H1243.03V401.021Z" fill="black"/>
<path d="M1100.22 421.223H1246.43V401.021H1100.22V421.223ZM1243.03 417.823H1103.42V404.221H1243.03V417.823Z" fill="black"/>
<path d="M1100.22 438.025H1246.43V417.823H1100.22V438.025ZM1243.03 434.825H1103.42V421.223H1243.03V434.825Z" fill="black"/>
<path d="M1100.22 455.027H1246.43V434.825H1100.22V455.027ZM1243.03 451.627H1103.42V438.025H1243.03V451.627Z" fill="black"/>
<path d="M1100.22 471.83H1246.43V451.627H1100.22V471.83ZM1243.03 468.629H1103.42V455.028H1243.03V468.629Z" fill="black"/>
<path d="M1100.22 488.832H1246.43V468.629H1100.22V488.832ZM1243.03 485.431H1103.42V471.83H1243.03V485.431Z" fill="black"/>
<path d="M1100.22 336.813H1246.43V316.41H1100.22V336.813ZM1243.03 333.412H1103.42V319.811H1243.03V333.412Z" fill="black"/>
<path d="M1100.22 353.615H1246.43V333.412H1100.22V353.615ZM1243.03 350.214H1103.42V336.613H1243.03V350.214Z" fill="black"/>
<path d="M1100.22 370.617H1246.43V350.215H1100.22V370.617ZM1243.03 367.217H1103.42V353.615H1243.03V367.217Z" fill="black"/>
<path d="M1100.22 319.811H1246.43V299.608H1100.22V319.811ZM1243.03 316.41H1103.42V302.809H1243.03V316.41Z" fill="black"/>
<path d="M1529.06 505.633H1675.28V485.431H1529.06V505.633ZM1671.88 502.433H1532.26V488.831H1671.88V502.433Z" fill="black"/>
<path d="M1529.06 252.202H1675.28V232H1529.06V252.202ZM1671.88 248.802H1532.26V235.4H1671.88V248.802Z" fill="black"/>
<path d="M1529.06 269.204H1675.28V248.802H1529.06V269.204ZM1671.88 265.804H1532.26V252.202H1671.88V265.804Z" fill="black"/>
<path d="M1529.06 286.006H1675.28V265.804H1529.06V286.006ZM1671.88 282.606H1532.26V269.004H1671.88V282.606Z" fill="black"/>
<path d="M1529.06 303.009H1675.28V282.606H1529.06V303.009ZM1671.88 299.609H1532.26V286.007H1671.88V299.609Z" fill="black"/>
<path d="M1529.06 387.419H1675.28V367.217H1529.06V387.419ZM1671.88 384.019H1532.26V370.417H1671.88V384.019Z" fill="black"/>
<path d="M1529.06 404.421H1675.28V384.019H1529.06V404.421ZM1671.88 401.021H1532.26V387.419H1671.88V401.021Z" fill="black"/>
<path d="M1529.06 421.223H1675.28V401.021H1529.06V421.223ZM1671.88 417.823H1532.26V404.221H1671.88V417.823Z" fill="black"/>
<path d="M1529.06 438.025H1675.28V417.823H1529.06V438.025ZM1671.88 434.825H1532.26V421.223H1671.88V434.825Z" fill="black"/>
<path d="M1529.06 455.027H1675.28V434.825H1529.06V455.027ZM1671.88 451.627H1532.26V438.025H1671.88V451.627Z" fill="black"/>
<path d="M1529.06 471.83H1675.28V451.627H1529.06V471.83ZM1671.88 468.629H1532.26V455.028H1671.88V468.629Z" fill="black"/>
<path d="M1529.06 488.832H1675.28V468.629H1529.06V488.832ZM1671.88 485.431H1532.26V471.83H1671.88V485.431Z" fill="black"/>
<path d="M1529.06 336.813H1675.28V316.41H1529.06V336.813ZM1671.88 333.412H1532.26V319.811H1671.88V333.412Z" fill="black"/>
<path d="M1529.06 353.615H1675.28V333.412H1529.06V353.615ZM1671.88 350.214H1532.26V336.613H1671.88V350.214Z" fill="black"/>
<path d="M1529.06 370.617H1675.28V350.215H1529.06V370.617ZM1671.88 367.217H1532.26V353.615H1671.88V367.217Z" fill="black"/>
<path d="M1529.06 319.811H1675.28V299.608H1529.06V319.811ZM1671.88 316.41H1532.26V302.809H1671.88V316.41Z" fill="black"/>
<path d="M1386.05 691.656H1532.27V671.454H1386.05V691.656ZM1529.07 688.256H1389.45V674.654H1529.07V688.256Z" fill="black"/>
<path d="M1243.03 691.656H1389.25V671.454H1243.03V691.656ZM1386.05 688.256H1246.43V674.654H1386.05V688.256Z" fill="black"/>
<path d="M1386.05 708.458H1532.27V688.256H1386.05V708.458ZM1529.07 705.058H1389.45V691.456H1529.07V705.058Z" fill="black"/>
<path d="M1243.03 708.458H1389.25V688.256H1243.03V708.458ZM1386.05 705.058H1246.43V691.456H1386.05V705.058Z" fill="black"/>
<path d="M1386.05 725.46H1532.27V705.258H1386.05V725.46ZM1529.07 722.06H1389.45V708.458H1529.07V722.06Z" fill="black"/>
<path d="M1243.03 725.46H1389.25V705.258H1243.03V725.46ZM1386.05 722.06H1246.43V708.458H1386.05V722.06Z" fill="black"/>
<path d="M1386.05 742.263H1532.27V722.06H1386.05V742.263ZM1529.07 738.862H1389.45V725.26H1529.07V738.862Z" fill="black"/>
<path d="M1243.03 742.263H1389.25V722.06H1243.03V742.263ZM1386.05 738.862H1246.43V725.26H1386.05V738.862Z" fill="black"/>
<path d="M1386.05 826.673H1532.27V806.47H1386.05V826.673ZM1529.07 823.473H1389.45V809.871H1529.07V823.473Z" fill="black"/>
<path d="M1243.03 826.673H1389.25V806.47H1243.03V826.673ZM1386.05 823.473H1246.43V809.871H1386.05V823.473Z" fill="black"/>
<path d="M1386.05 843.675H1532.27V823.472H1386.05V843.675ZM1529.07 840.274H1389.45V826.673H1529.07V840.274Z" fill="black"/>
<path d="M1243.03 843.675H1389.25V823.472H1243.03V843.675ZM1386.05 840.274H1246.43V826.673H1386.05V840.274Z" fill="black"/>
<path d="M1386.05 860.477H1532.27V840.274H1386.05V860.477ZM1529.07 857.277H1389.45V843.675H1529.07V857.277Z" fill="black"/>
<path d="M1243.03 860.477H1389.25V840.274H1243.03V860.477ZM1386.05 857.277H1246.43V843.675H1386.05V857.277Z" fill="black"/>
<path d="M1386.05 877.479H1532.27V857.276H1386.05V877.479ZM1529.07 874.078H1389.45V860.477H1529.07V874.078Z" fill="black"/>
<path d="M1243.03 877.479H1389.25V857.276H1243.03V877.479ZM1386.05 874.078H1246.43V860.477H1386.05V874.078Z" fill="black"/>
<path d="M1386.05 894.282H1532.27V874.079H1386.05V894.282ZM1529.07 891.081H1389.45V877.48H1529.07V891.081Z" fill="black"/>
<path d="M1243.03 894.282H1389.25V874.079H1243.03V894.282ZM1386.05 891.081H1246.43V877.48H1386.05V891.081Z" fill="black"/>
<path d="M1386.05 911.284H1532.27V891.081H1386.05V911.284ZM1529.07 907.883H1389.45V894.281H1529.07V907.883Z" fill="black"/>
<path d="M1243.03 911.284H1389.25V891.081H1243.03V911.284ZM1386.05 907.883H1246.43V894.281H1386.05V907.883Z" fill="black"/>
<path d="M1386.05 928.085H1532.27V907.883H1386.05V928.085ZM1529.07 924.885H1389.45V911.283H1529.07V924.885Z" fill="black"/>
<path d="M1243.03 928.085H1389.25V907.883H1243.03V928.085ZM1386.05 924.885H1246.43V911.283H1386.05V924.885Z" fill="black"/>
<path d="M1386.05 945.087H1532.27V924.885H1386.05V945.087ZM1529.07 941.687H1389.45V928.085H1529.07V941.687Z" fill="black"/>
<path d="M1243.03 945.087H1389.25V924.885H1243.03V945.087ZM1386.05 941.687H1246.43V928.085H1386.05V941.687Z" fill="black"/>
<path d="M1100.22 945.087H1246.43V924.885H1100.22V945.087ZM1243.03 941.687H1103.42V928.085H1243.03V941.687Z" fill="black"/>
<path d="M1386.05 776.067H1532.27V755.864H1386.05V776.067ZM1529.07 772.666H1389.45V759.065H1529.07V772.666Z" fill="black"/>
<path d="M1243.03 776.067H1389.25V755.864H1243.03V776.067ZM1386.05 772.666H1246.43V759.065H1386.05V772.666Z" fill="black"/>
<path d="M1386.05 792.869H1532.27V772.667H1386.05V792.869ZM1529.07 789.669H1389.45V776.067H1529.07V789.669Z" fill="black"/>
<path d="M1243.03 792.869H1389.25V772.667H1243.03V792.869ZM1386.05 789.669H1246.43V776.067H1386.05V789.669Z" fill="black"/>
<path d="M1386.05 809.871H1532.27V789.668H1386.05V809.871ZM1529.07 806.471H1389.45V792.869H1529.07V806.471Z" fill="black"/>
<path d="M1243.03 809.871H1389.25V789.668H1243.03V809.871ZM1386.05 806.471H1246.43V792.869H1386.05V806.471Z" fill="black"/>
<path d="M1386.05 759.265H1532.27V739.062H1386.05V759.265ZM1529.07 755.865H1389.45V742.263H1529.07V755.865Z" fill="black"/>
<path d="M1243.03 759.265H1389.25V739.062H1243.03V759.265ZM1386.05 755.865H1246.43V742.263H1386.05V755.865Z" fill="black"/>
<path d="M1100.22 691.656H1246.43V671.454H1100.22V691.656ZM1243.03 688.256H1103.42V674.654H1243.03V688.256Z" fill="black"/>
<path d="M1100.22 708.458H1246.43V688.256H1100.22V708.458ZM1243.03 705.058H1103.42V691.456H1243.03V705.058Z" fill="black"/>
<path d="M1100.22 725.46H1246.43V705.258H1100.22V725.46ZM1243.03 722.06H1103.42V708.458H1243.03V722.06Z" fill="black"/>
<path d="M1100.22 742.263H1246.43V722.06H1100.22V742.263ZM1243.03 738.862H1103.42V725.26H1243.03V738.862Z" fill="black"/>
<path d="M1100.22 826.673H1246.43V806.47H1100.22V826.673ZM1243.03 823.473H1103.42V809.871H1243.03V823.473Z" fill="black"/>
<path d="M1100.22 843.675H1246.43V823.472H1100.22V843.675ZM1243.03 840.274H1103.42V826.673H1243.03V840.274Z" fill="black"/>
<path d="M1100.22 860.477H1246.43V840.274H1100.22V860.477ZM1243.03 857.277H1103.42V843.675H1243.03V857.277Z" fill="black"/>
<path d="M1100.22 877.479H1246.43V857.276H1100.22V877.479ZM1243.03 874.078H1103.42V860.477H1243.03V874.078Z" fill="black"/>
<path d="M1100.22 894.282H1246.43V874.079H1100.22V894.282ZM1243.03 891.081H1103.42V877.48H1243.03V891.081Z" fill="black"/>
<path d="M1100.22 911.284H1246.43V891.081H1100.22V911.284ZM1243.03 907.883H1103.42V894.281H1243.03V907.883Z" fill="black"/>
<path d="M1100.22 928.085H1246.43V907.883H1100.22V928.085ZM1243.03 924.885H1103.42V911.283H1243.03V924.885Z" fill="black"/>
<path d="M1100.22 776.067H1246.43V755.864H1100.22V776.067ZM1243.03 772.666H1103.42V759.065H1243.03V772.666Z" fill="black"/>
<path d="M1100.22 792.869H1246.43V772.667H1100.22V792.869ZM1243.03 789.669H1103.42V776.067H1243.03V789.669Z" fill="black"/>
<path d="M1100.22 809.871H1246.43V789.668H1100.22V809.871ZM1243.03 806.471H1103.42V792.869H1243.03V806.471Z" fill="black"/>
<path d="M1100.22 759.265H1246.43V739.062H1100.22V759.265ZM1243.03 755.865H1103.42V742.263H1243.03V755.865Z" fill="black"/>
<path d="M957.196 945.087H1103.41V924.885H957.196V945.087ZM1100.21 941.687H960.597V928.085H1100.21V941.687Z" fill="black"/>
<path d="M957.196 691.656H1103.41V671.454H957.196V691.656ZM1100.21 688.256H960.597V674.654H1100.21V688.256Z" fill="black"/>
<path d="M957.196 708.458H1103.41V688.256H957.196V708.458ZM1100.21 705.058H960.597V691.456H1100.21V705.058Z" fill="black"/>
<path d="M957.196 725.46H1103.41V705.258H957.196V725.46ZM1100.21 722.06H960.597V708.458H1100.21V722.06Z" fill="black"/>
<path d="M957.196 742.263H1103.41V722.06H957.196V742.263ZM1100.21 738.862H960.597V725.26H1100.21V738.862Z" fill="black"/>
<path d="M957.196 826.673H1103.41V806.47H957.196V826.673ZM1100.21 823.473H960.597V809.871H1100.21V823.473Z" fill="black"/>
<path d="M957.196 843.675H1103.41V823.472H957.196V843.675ZM1100.21 840.274H960.597V826.673H1100.21V840.274Z" fill="black"/>
<path d="M957.196 860.477H1103.41V840.274H957.196V860.477ZM1100.21 857.277H960.597V843.675H1100.21V857.277Z" fill="black"/>
<path d="M957.196 877.479H1103.41V857.276H957.196V877.479ZM1100.21 874.078H960.597V860.477H1100.21V874.078Z" fill="black"/>
<path d="M957.196 894.282H1103.41V874.079H957.196V894.282ZM1100.21 891.081H960.597V877.48H1100.21V891.081Z" fill="black"/>
<path d="M957.196 911.284H1103.41V891.081H957.196V911.284ZM1100.21 907.883H960.597V894.281H1100.21V907.883Z" fill="black"/>
<path d="M957.196 928.085H1103.41V907.883H957.196V928.085ZM1100.21 924.885H960.597V911.283H1100.21V924.885Z" fill="black"/>
<path d="M957.196 776.067H1103.41V755.864H957.196V776.067ZM1100.21 772.666H960.597V759.065H1100.21V772.666Z" fill="black"/>
<path d="M957.196 792.869H1103.41V772.667H957.196V792.869ZM1100.21 789.669H960.597V776.067H1100.21V789.669Z" fill="black"/>
<path d="M957.196 809.871H1103.41V789.668H957.196V809.871ZM1100.21 806.471H960.597V792.869H1100.21V806.471Z" fill="black"/>
<path d="M957.196 759.265H1103.41V739.062H957.196V759.265ZM1100.21 755.865H960.597V742.263H1100.21V755.865Z" fill="black"/>
<path d="M814.376 945.087H960.594V924.885H814.376V945.087ZM957.193 941.687H817.576V928.085H957.193V941.687Z" fill="black"/>
<path d="M814.376 691.656H960.594V671.454H814.376V691.656ZM957.193 688.256H817.576V674.654H957.193V688.256Z" fill="black"/>
<path d="M814.376 708.458H960.594V688.256H814.376V708.458ZM957.193 705.058H817.576V691.456H957.193V705.058Z" fill="black"/>
<path d="M814.376 725.46H960.594V705.258H814.376V725.46ZM957.193 722.06H817.576V708.458H957.193V722.06Z" fill="black"/>
<path d="M814.376 742.263H960.594V722.06H814.376V742.263ZM957.193 738.862H817.576V725.26H957.193V738.862Z" fill="black"/>
<path d="M814.376 826.673H960.594V806.47H814.376V826.673ZM957.193 823.473H817.576V809.871H957.193V823.473Z" fill="black"/>
<path d="M814.376 843.675H960.594V823.472H814.376V843.675ZM957.193 840.274H817.576V826.673H957.193V840.274Z" fill="black"/>
<path d="M814.376 860.477H960.594V840.274H814.376V860.477ZM957.193 857.277H817.576V843.675H957.193V857.277Z" fill="black"/>
<path d="M814.376 877.479H960.594V857.276H814.376V877.479ZM957.193 874.078H817.576V860.477H957.193V874.078Z" fill="black"/>
<path d="M814.376 894.282H960.594V874.079H814.376V894.282ZM957.193 891.081H817.576V877.48H957.193V891.081Z" fill="black"/>
<path d="M814.376 911.284H960.594V891.081H814.376V911.284ZM957.193 907.883H817.576V894.281H957.193V907.883Z" fill="black"/>
<path d="M814.376 928.085H960.594V907.883H814.376V928.085ZM957.193 924.885H817.576V911.283H957.193V924.885Z" fill="black"/>
<path d="M814.376 776.067H960.594V755.864H814.376V776.067ZM957.193 772.666H817.576V759.065H957.193V772.666Z" fill="black"/>
<path d="M814.376 792.869H960.594V772.667H814.376V792.869ZM957.193 789.669H817.576V776.067H957.193V789.669Z" fill="black"/>
<path d="M814.376 809.871H960.594V789.668H814.376V809.871ZM957.193 806.471H817.576V792.869H957.193V806.471Z" fill="black"/>
<path d="M814.376 759.265H960.594V739.062H814.376V759.265ZM957.193 755.865H817.576V742.263H957.193V755.865Z" fill="black"/>
<path d="M671.352 945.087H817.57V924.885H671.352V945.087ZM814.37 941.687H674.753V928.085H814.37V941.687Z" fill="black"/>
<path d="M671.352 691.656H817.57V671.454H671.352V691.656ZM814.37 688.256H674.753V674.654H814.37V688.256Z" fill="black"/>
<path d="M671.352 708.458H817.57V688.256H671.352V708.458ZM814.37 705.058H674.753V691.456H814.37V705.058Z" fill="black"/>
<path d="M671.352 725.46H817.57V705.258H671.352V725.46ZM814.37 722.06H674.753V708.458H814.37V722.06Z" fill="black"/>
<path d="M671.352 742.263H817.57V722.06H671.352V742.263ZM814.37 738.862H674.753V725.26H814.37V738.862Z" fill="black"/>
<path d="M671.352 826.673H817.57V806.47H671.352V826.673ZM814.37 823.473H674.753V809.871H814.37V823.473Z" fill="black"/>
<path d="M671.352 843.675H817.57V823.472H671.352V843.675ZM814.37 840.274H674.753V826.673H814.37V840.274Z" fill="black"/>
<path d="M671.352 860.477H817.57V840.274H671.352V860.477ZM814.37 857.277H674.753V843.675H814.37V857.277Z" fill="black"/>
<path d="M671.352 877.479H817.57V857.276H671.352V877.479ZM814.37 874.078H674.753V860.477H814.37V874.078Z" fill="black"/>
<path d="M671.352 894.282H817.57V874.079H671.352V894.282ZM814.37 891.081H674.753V877.48H814.37V891.081Z" fill="black"/>
<path d="M671.352 911.284H817.57V891.081H671.352V911.284ZM814.37 907.883H674.753V894.281H814.37V907.883Z" fill="black"/>
<path d="M671.352 928.085H817.57V907.883H671.352V928.085ZM814.37 924.885H674.753V911.283H814.37V924.885Z" fill="black"/>
<path d="M671.352 776.067H817.57V755.864H671.352V776.067ZM814.37 772.666H674.753V759.065H814.37V772.666Z" fill="black"/>
<path d="M671.352 792.869H817.57V772.667H671.352V792.869ZM814.37 789.669H674.753V776.067H814.37V789.669Z" fill="black"/>
<path d="M671.352 809.871H817.57V789.668H671.352V809.871ZM814.37 806.471H674.753V792.869H814.37V806.471Z" fill="black"/>
<path d="M671.352 759.265H817.57V739.062H671.352V759.265ZM814.37 755.865H674.753V742.263H814.37V755.865Z" fill="black"/>
<path d="M1529.06 945.087H1675.28V924.885H1529.06V945.087ZM1671.88 941.687H1532.26V928.085H1671.88V941.687Z" fill="black"/>
<path d="M1529.06 691.656H1675.28V671.454H1529.06V691.656ZM1671.88 688.256H1532.26V674.654H1671.88V688.256Z" fill="black"/>
<path d="M1529.06 708.458H1675.28V688.256H1529.06V708.458ZM1671.88 705.058H1532.26V691.456H1671.88V705.058Z" fill="black"/>
<path d="M1529.06 725.46H1675.28V705.258H1529.06V725.46ZM1671.88 722.06H1532.26V708.458H1671.88V722.06Z" fill="black"/>
<path d="M1529.06 742.263H1675.28V722.06H1529.06V742.263ZM1671.88 738.862H1532.26V725.26H1671.88V738.862Z" fill="black"/>
<path d="M1529.06 826.673H1675.28V806.47H1529.06V826.673ZM1671.88 823.473H1532.26V809.871H1671.88V823.473Z" fill="black"/>
<path d="M1529.06 843.675H1675.28V823.472H1529.06V843.675ZM1671.88 840.274H1532.26V826.673H1671.88V840.274Z" fill="black"/>
<path d="M1529.06 860.477H1675.28V840.274H1529.06V860.477ZM1671.88 857.277H1532.26V843.675H1671.88V857.277Z" fill="black"/>
<path d="M1529.06 877.479H1675.28V857.276H1529.06V877.479ZM1671.88 874.078H1532.26V860.477H1671.88V874.078Z" fill="black"/>
<path d="M1529.06 894.282H1675.28V874.079H1529.06V894.282ZM1671.88 891.081H1532.26V877.48H1671.88V891.081Z" fill="black"/>
<path d="M1529.06 911.284H1675.28V891.081H1529.06V911.284ZM1671.88 907.883H1532.26V894.281H1671.88V907.883Z" fill="black"/>
<path d="M1529.06 928.085H1675.28V907.883H1529.06V928.085ZM1671.88 924.885H1532.26V911.283H1671.88V924.885Z" fill="black"/>
<path d="M1529.06 776.067H1675.28V755.864H1529.06V776.067ZM1671.88 772.666H1532.26V759.065H1671.88V772.666Z" fill="black"/>
<path d="M1529.06 792.869H1675.28V772.667H1529.06V792.869ZM1671.88 789.669H1532.26V776.067H1671.88V789.669Z" fill="black"/>
<path d="M1529.06 809.871H1675.28V789.668H1529.06V809.871ZM1671.88 806.471H1532.26V792.869H1671.88V806.471Z" fill="black"/>
<path d="M1529.06 759.265H1675.28V739.062H1529.06V759.265ZM1671.88 755.865H1532.26V742.263H1671.88V755.865Z" fill="black"/>
<g opacity="0.5">
<path d="M1528.87 504.033H1532.27V673.054H1528.87V504.033Z" fill="black"/>
<path d="M1671.88 504.033H1675.28V673.054H1671.88V504.033Z" fill="black"/>
<path d="M1100.21 673.054H1103.61C1103.61 670.654 1103.81 668.053 1104.21 665.853C1104.61 663.653 1105.21 661.453 1106.21 659.252C1107.01 657.252 1108.01 655.052 1109.41 653.052C1110.61 651.051 1112.01 649.251 1113.61 647.451C1115.21 645.651 1116.81 643.85 1118.81 642.25C1120.61 640.65 1122.61 639.05 1124.81 637.45C1126.81 635.849 1129.21 634.449 1131.61 633.049C1134.01 631.649 1136.41 630.249 1139.01 628.849C1141.61 627.648 1144.21 626.248 1147.01 625.048C1149.81 623.848 1152.61 622.648 1155.61 621.448C1158.41 620.448 1161.41 619.247 1164.61 618.247C1167.62 617.247 1170.82 616.247 1174.02 615.247C1177.22 614.247 1180.42 613.247 1183.82 612.447C1187.22 611.446 1190.62 610.646 1194.02 609.846C1197.42 609.046 1200.82 608.246 1204.42 607.446C1208.02 606.646 1211.42 605.846 1215.02 605.046C1218.62 604.246 1222.22 603.646 1225.82 602.845C1229.42 602.045 1233.22 601.445 1236.82 600.845C1240.42 600.245 1244.22 599.445 1248.03 598.845C1251.83 598.245 1255.63 597.645 1259.23 597.045C1263.03 596.445 1266.83 595.845 1270.63 595.245C1274.43 594.644 1278.23 594.044 1282.03 593.444C1285.83 592.844 1289.63 592.244 1293.63 591.644C1297.43 591.044 1301.23 590.444 1305.23 590.044L1340.04 585.043C1343.84 584.443 1347.64 583.843 1351.64 583.443C1355.44 582.843 1359.24 582.243 1363.04 581.643C1366.84 581.043 1370.64 580.443 1374.44 579.843C1378.24 579.243 1382.04 578.642 1385.84 578.042C1389.64 577.442 1393.24 576.842 1397.04 576.042C1400.84 575.442 1404.44 574.642 1408.04 574.042C1411.65 573.442 1415.25 572.642 1418.85 572.042C1422.45 571.242 1426.05 570.641 1429.45 569.841C1433.05 569.041 1436.45 568.241 1439.85 567.441C1443.25 566.641 1446.65 565.841 1450.05 564.841C1453.45 564.041 1456.85 563.041 1459.85 562.24C1463.05 561.24 1466.25 560.24 1469.45 559.44C1472.65 558.44 1475.65 557.44 1478.65 556.24C1481.65 555.24 1484.65 554.039 1487.45 552.839C1490.25 551.639 1493.06 550.439 1495.66 549.239C1498.26 548.039 1500.86 546.639 1503.26 545.238C1505.66 543.838 1508.06 542.438 1510.26 540.838C1512.46 539.238 1514.66 537.637 1516.46 536.037C1518.46 534.437 1520.26 532.637 1521.86 530.837C1523.46 529.036 1525.06 527.036 1526.26 525.036C1527.66 523.036 1528.66 520.835 1529.66 518.835C1530.66 516.635 1531.26 514.235 1531.86 512.034C1532.26 509.634 1532.66 507.034 1532.66 504.433H1529.26C1529.26 506.834 1529.06 509.034 1528.66 511.234C1528.26 513.434 1527.66 515.435 1526.66 517.435C1525.86 519.435 1524.86 521.235 1523.66 523.236C1522.46 525.036 1521.06 526.836 1519.46 528.636C1517.86 530.237 1516.26 532.037 1514.46 533.637C1512.66 535.237 1510.66 536.637 1508.46 538.238C1506.46 539.638 1504.06 541.038 1501.66 542.438C1499.26 543.838 1496.86 545.038 1494.26 546.239C1491.66 547.439 1489.05 548.639 1486.25 549.839C1483.45 551.039 1480.65 552.039 1477.65 553.239C1474.85 554.239 1471.65 555.24 1468.65 556.24C1465.65 557.24 1462.45 558.24 1459.25 559.04C1456.05 560.04 1452.85 560.84 1449.45 561.64C1446.05 562.44 1442.65 563.241 1439.25 564.041C1435.85 564.841 1432.45 565.641 1428.85 566.441C1425.25 567.241 1421.85 567.841 1418.25 568.641C1414.65 569.441 1411.05 570.041 1407.44 570.641C1403.84 571.242 1400.04 572.042 1396.44 572.642C1392.84 573.242 1389.04 573.842 1385.24 574.642C1381.44 575.242 1377.64 575.842 1374.04 576.442C1370.24 577.042 1366.44 577.642 1362.64 578.242C1358.84 578.843 1355.04 579.443 1351.24 580.043C1347.44 580.643 1343.64 581.243 1339.64 581.643L1304.83 586.643C1301.03 587.244 1297.03 587.844 1293.23 588.244C1289.43 588.844 1285.63 589.444 1281.63 590.044C1277.83 590.644 1274.03 591.244 1270.23 591.844C1266.43 592.444 1262.63 593.044 1258.83 593.644C1255.03 594.244 1251.23 594.844 1247.43 595.445C1243.62 596.045 1240.02 596.845 1236.22 597.445C1232.42 598.045 1228.82 598.845 1225.22 599.445C1221.62 600.245 1218.02 600.845 1214.42 601.645C1210.82 602.445 1207.22 603.245 1203.82 604.046C1200.22 604.846 1196.82 605.646 1193.42 606.446C1190.02 607.246 1186.62 608.246 1183.22 609.046C1179.82 610.046 1176.42 610.846 1173.22 611.847C1170.02 612.847 1166.82 613.847 1163.61 614.847C1160.41 615.847 1157.41 617.047 1154.41 618.247C1151.41 619.447 1148.41 620.648 1145.61 621.848C1142.81 623.048 1140.01 624.448 1137.41 625.648C1134.81 627.048 1132.21 628.449 1129.81 629.849C1127.41 631.249 1125.01 632.849 1122.81 634.449C1120.61 636.05 1118.41 637.85 1116.61 639.45C1114.61 641.25 1112.81 643.05 1111.21 645.051C1109.61 647.051 1108.01 649.051 1106.81 651.051C1105.41 653.252 1104.41 655.452 1103.41 657.652C1102.41 660.052 1101.81 662.453 1101.21 664.853C1100.41 667.653 1100.21 670.254 1100.21 673.054Z" fill="black"/>
<path d="M957.196 673.054H960.597C960.597 670.654 960.797 668.453 961.197 666.253C961.597 664.053 962.197 662.053 963.197 660.052C963.997 658.052 964.997 656.252 966.197 654.252C967.397 652.451 968.798 650.651 970.398 648.851C971.998 647.251 973.598 645.451 975.398 643.85C977.199 642.25 979.199 640.85 981.399 639.25C983.399 637.85 985.8 636.449 988.2 635.049C990.6 633.649 993.001 632.449 995.601 631.249C998.201 630.049 1000.8 628.848 1003.6 627.648C1006.2 626.448 1009.2 625.448 1012.2 624.248C1015 623.248 1018 622.248 1021.2 621.248C1024.2 620.247 1027.4 619.247 1030.61 618.447C1033.61 617.647 1037.01 616.647 1040.41 615.847C1043.81 615.047 1047.21 614.247 1050.61 613.447C1054.01 612.646 1057.41 611.846 1061.01 611.046C1064.61 610.246 1068.01 609.646 1071.61 608.846C1075.21 608.046 1078.81 607.446 1082.41 606.846C1086.01 606.246 1089.81 605.446 1093.41 604.846C1097.01 604.245 1100.81 603.645 1104.61 602.845C1108.41 602.245 1112.22 601.645 1115.82 601.045C1119.62 600.445 1123.42 599.845 1127.22 599.245C1131.02 598.645 1134.82 598.045 1138.62 597.445C1142.42 596.845 1146.22 596.244 1150.22 595.844L1185.02 590.844C1188.82 590.244 1192.83 589.644 1196.63 589.244C1200.43 588.644 1204.23 588.043 1208.23 587.443C1212.03 586.843 1215.83 586.243 1219.63 585.643C1223.43 585.043 1227.23 584.443 1231.03 583.843C1234.83 583.243 1238.63 582.643 1242.43 582.043C1246.23 581.443 1249.83 580.643 1253.63 580.042C1257.43 579.442 1261.03 578.642 1264.63 578.042C1268.23 577.242 1271.83 576.642 1275.44 575.842C1279.04 575.042 1282.64 574.242 1286.04 573.442C1289.64 572.642 1293.04 571.841 1296.44 571.041C1299.84 570.241 1303.24 569.241 1306.64 568.441C1310.04 567.441 1313.24 566.641 1316.64 565.641C1319.84 564.641 1323.24 563.64 1326.24 562.64C1329.44 561.64 1332.44 560.44 1335.44 559.24C1338.44 558.04 1341.44 556.84 1344.24 555.64C1347.04 554.439 1349.84 553.039 1352.44 551.839C1355.04 550.439 1357.65 549.039 1360.05 547.639C1362.45 546.238 1364.85 544.638 1367.05 543.038C1369.25 541.438 1371.45 539.638 1373.25 538.037C1375.25 536.237 1377.05 534.437 1378.65 532.437C1380.25 530.436 1381.85 528.436 1383.05 526.436C1384.45 524.236 1385.45 522.035 1386.45 519.835C1387.45 517.435 1388.05 515.035 1388.65 512.634C1389.05 510.034 1389.45 507.434 1389.45 504.833H1386.05C1386.05 507.234 1385.85 509.834 1385.45 512.034C1385.05 514.234 1384.45 516.435 1383.45 518.635C1382.65 520.635 1381.65 522.835 1380.25 524.836C1379.05 526.836 1377.65 528.636 1376.05 530.436C1374.45 532.237 1372.85 534.037 1370.85 535.637C1369.05 537.237 1367.05 538.837 1364.85 540.438C1362.85 542.038 1360.45 543.438 1358.05 544.838C1355.65 546.238 1353.24 547.639 1350.64 549.039C1348.04 550.239 1345.44 551.639 1342.64 552.839C1339.84 554.039 1337.04 555.239 1334.04 556.44C1331.24 557.64 1328.04 558.64 1325.04 559.64C1322.04 560.64 1318.84 561.64 1315.64 562.64C1312.44 563.64 1309.24 564.641 1305.84 565.441C1302.44 566.441 1299.04 567.241 1295.64 568.041C1292.24 568.841 1288.84 569.641 1285.24 570.441C1281.64 571.241 1278.24 572.042 1274.64 572.842C1271.03 573.642 1267.43 574.242 1263.83 575.042C1260.23 575.842 1256.43 576.442 1252.83 577.042C1249.23 577.642 1245.43 578.442 1241.63 579.042C1237.83 579.642 1234.03 580.243 1230.43 580.843C1226.63 581.443 1222.83 582.043 1219.03 582.643C1215.23 583.243 1211.43 583.843 1207.63 584.443C1203.83 585.043 1200.03 585.643 1196.03 586.243C1192.22 586.843 1188.42 587.443 1184.42 587.843L1149.62 592.844C1145.82 593.444 1142.02 594.044 1138.02 594.444C1134.22 595.044 1130.42 595.644 1126.62 596.244C1122.82 596.845 1119.02 597.445 1115.22 598.045C1111.42 598.645 1107.61 599.245 1103.81 599.845C1100.01 600.445 1096.41 601.045 1092.61 601.845C1088.81 602.445 1085.21 603.245 1081.61 603.845C1078.01 604.445 1074.41 605.246 1070.81 606.046C1067.21 606.846 1063.61 607.446 1060.21 608.246C1056.61 609.046 1053.21 609.846 1049.81 610.646C1046.41 611.446 1043.01 612.246 1039.61 613.247C1036.21 614.047 1032.81 615.047 1029.8 615.847C1026.6 616.847 1023.4 617.847 1020.2 618.647C1017 619.647 1014 620.647 1011 621.848C1008 623.048 1005 624.048 1002.2 625.248C999.401 626.448 996.601 627.648 994.001 628.848C991.4 630.049 988.8 631.449 986.4 632.849C983.999 634.249 981.599 635.649 979.399 637.25C977.199 638.85 974.998 640.45 973.198 642.05C971.198 643.65 969.398 645.451 967.797 647.251C966.197 649.051 964.597 651.051 963.397 653.051C961.997 655.052 960.997 657.252 959.996 659.252C958.996 661.453 958.396 663.853 957.796 666.053C957.596 667.853 957.196 670.454 957.196 673.054Z" fill="black"/>
<path d="M814.376 673.054H817.776C817.776 670.654 817.976 668.453 818.376 666.253C818.776 664.053 819.376 662.053 820.377 660.052C821.177 658.052 822.177 656.252 823.377 654.252C824.577 652.451 825.977 650.651 827.577 648.851C829.178 647.251 830.778 645.451 832.578 643.85C834.378 642.25 836.379 640.85 838.579 639.25C840.579 637.85 842.979 636.449 845.38 635.049C847.78 633.649 850.18 632.449 852.781 631.249C855.381 630.049 857.981 628.848 860.782 627.648C863.382 626.448 866.382 625.448 869.383 624.248C872.183 623.248 875.183 622.248 878.384 621.248C881.384 620.247 884.584 619.247 887.785 618.447C890.785 617.647 894.186 616.647 897.586 615.847C900.987 615.047 904.387 614.247 907.787 613.447C911.188 612.646 914.588 611.846 918.189 611.046C921.789 610.246 925.189 609.646 928.79 608.846C932.39 608.046 935.991 607.446 939.591 606.846C943.192 606.246 946.992 605.446 950.593 604.846C954.193 604.245 957.993 603.645 961.794 602.845C965.594 602.245 969.395 601.645 972.995 601.045C976.796 600.445 980.596 599.845 984.397 599.245C988.197 598.645 991.998 598.045 995.798 597.445C999.599 596.845 1003.4 596.244 1007.4 595.844L1042.2 590.844C1046 590.244 1050 589.644 1053.81 589.244C1057.61 588.644 1061.41 588.043 1065.41 587.443C1069.21 586.843 1073.01 586.243 1076.81 585.643C1080.61 585.043 1084.41 584.443 1088.21 583.843C1092.01 583.243 1095.81 582.643 1099.61 582.043C1103.41 581.443 1107.01 580.643 1110.81 580.042C1114.61 579.442 1118.21 578.642 1121.81 578.042C1125.41 577.242 1129.01 576.642 1132.61 575.842C1136.22 575.042 1139.82 574.242 1143.22 573.442C1146.82 572.642 1150.22 571.841 1153.62 571.041C1157.02 570.241 1160.42 569.241 1163.82 568.441C1167.22 567.441 1170.42 566.641 1173.82 565.641C1177.02 564.641 1180.42 563.64 1183.42 562.64C1186.62 561.64 1189.62 560.44 1192.62 559.24C1195.62 558.04 1198.62 556.84 1201.42 555.64C1204.22 554.439 1207.02 553.039 1209.62 551.839C1212.22 550.439 1214.83 549.039 1217.23 547.639C1219.63 546.238 1222.03 544.638 1224.23 543.038C1226.43 541.438 1228.63 539.638 1230.43 538.037C1232.43 536.237 1234.23 534.437 1235.83 532.437C1237.43 530.436 1239.03 528.436 1240.23 526.436C1241.63 524.236 1242.63 522.035 1243.63 519.835C1244.63 517.435 1245.23 515.035 1245.83 512.634C1246.23 510.034 1246.63 507.434 1246.63 504.833H1243.23C1243.23 507.234 1243.03 509.834 1242.63 512.034C1242.23 514.234 1241.63 516.435 1240.63 518.635C1239.83 520.635 1238.83 522.835 1237.43 524.836C1236.23 526.836 1234.83 528.636 1233.23 530.436C1231.63 532.237 1230.03 534.037 1228.03 535.637C1226.23 537.237 1224.23 538.837 1222.03 540.438C1220.03 542.038 1217.63 543.438 1215.23 544.838C1212.82 546.238 1210.42 547.639 1207.82 549.039C1205.22 550.239 1202.62 551.639 1199.82 552.839C1197.02 554.039 1194.22 555.239 1191.22 556.44C1188.42 557.64 1185.22 558.64 1182.22 559.64C1179.22 560.64 1176.02 561.64 1172.82 562.64C1169.62 563.64 1166.42 564.641 1163.02 565.441C1159.62 566.441 1156.22 567.241 1152.82 568.041C1149.42 568.841 1146.02 569.641 1142.42 570.441C1138.82 571.241 1135.42 572.042 1131.81 572.842C1128.21 573.642 1124.61 574.242 1121.01 575.042C1117.41 575.842 1113.61 576.442 1110.01 577.042C1106.41 577.642 1102.61 578.442 1098.81 579.042C1095.01 579.642 1091.21 580.243 1087.61 580.843C1083.81 581.443 1080.01 582.043 1076.21 582.643C1072.41 583.243 1068.61 583.843 1064.81 584.443C1061.01 585.043 1057.21 585.643 1053.21 586.243C1049.4 586.843 1045.6 587.443 1041.6 587.843L1006.8 592.844C1003 593.444 999.199 594.044 995.198 594.444C991.398 595.044 987.597 595.644 983.797 596.244C979.996 596.845 976.196 597.445 972.395 598.045C968.595 598.645 964.794 599.245 960.994 599.845C957.193 600.445 953.593 601.045 949.792 601.845C945.992 602.445 942.392 603.245 938.791 603.845C935.191 604.445 931.59 605.246 927.99 606.046C924.389 606.846 920.789 607.446 917.389 608.246C913.788 609.046 910.388 609.846 906.987 610.646C903.587 611.446 900.186 612.246 896.786 613.247C893.386 614.047 889.985 615.047 886.985 615.847C883.784 616.847 880.584 617.847 877.384 618.647C874.183 619.647 871.183 620.647 868.182 621.848C865.182 623.048 862.182 624.048 859.381 625.248C856.581 626.448 853.781 627.648 851.18 628.848C848.58 630.049 845.98 631.449 843.579 632.849C841.179 634.249 838.779 635.649 836.579 637.25C834.378 638.85 832.178 640.45 830.378 642.05C828.378 643.65 826.577 645.451 824.977 647.251C823.377 649.051 821.777 651.051 820.577 653.051C819.176 655.052 818.176 657.252 817.176 659.252C816.176 661.453 815.576 663.853 814.976 666.053C814.576 667.853 814.376 670.454 814.376 673.054Z" fill="black"/>
<path d="M671.356 673.054H674.757C674.757 670.654 674.957 668.453 675.357 666.253C675.757 664.053 676.357 662.053 677.357 660.052C678.157 658.052 679.157 656.252 680.357 654.252C681.557 652.451 682.958 650.651 684.558 648.851C686.158 647.251 687.758 645.451 689.558 643.85C691.359 642.25 693.359 640.85 695.559 639.25C697.559 637.85 699.96 636.449 702.36 635.049C704.76 633.649 707.161 632.449 709.761 631.249C712.361 630.049 714.962 628.848 717.762 627.648C720.362 626.448 723.363 625.448 726.363 624.248C729.163 623.248 732.164 622.248 735.364 621.248C738.364 620.247 741.565 619.247 744.765 618.447C747.766 617.647 751.166 616.647 754.566 615.847C757.967 615.047 761.367 614.247 764.768 613.447C768.168 612.646 771.569 611.846 775.169 611.046C778.769 610.246 782.17 609.646 785.77 608.846C789.371 608.046 792.971 607.446 796.572 606.846C800.172 606.246 803.973 605.446 807.573 604.846C811.173 604.245 814.974 603.645 818.774 602.845C822.575 602.245 826.375 601.645 829.976 601.045C833.776 600.445 837.577 599.845 841.377 599.245C845.178 598.645 848.978 598.045 852.779 597.445C856.579 596.845 860.379 596.244 864.38 595.844L899.184 590.844C902.985 590.244 906.985 589.644 910.786 589.244C914.586 588.644 918.387 588.043 922.387 587.443C926.188 586.843 929.988 586.243 933.788 585.643C937.589 585.043 941.389 584.443 945.19 583.843C948.99 583.243 952.791 582.643 956.591 582.043C960.392 581.443 963.992 580.643 967.793 580.042C971.593 579.442 975.194 578.642 978.794 578.042C982.394 577.242 985.995 576.642 989.595 575.842C993.196 575.042 996.796 574.242 1000.2 573.442C1003.8 572.642 1007.2 571.841 1010.6 571.041C1014 570.241 1017.4 569.241 1020.8 568.441C1024.2 567.441 1027.4 566.641 1030.8 565.641C1034 564.641 1037.4 563.64 1040.4 562.64C1043.6 561.64 1046.6 560.44 1049.6 559.24C1052.6 558.04 1055.6 556.84 1058.4 555.64C1061.2 554.439 1064 553.039 1066.6 551.839C1069.21 550.439 1071.81 549.039 1074.21 547.639C1076.61 546.238 1079.01 544.638 1081.21 543.038C1083.41 541.438 1085.61 539.638 1087.41 538.037C1089.41 536.237 1091.21 534.437 1092.81 532.437C1094.41 530.436 1096.01 528.436 1097.21 526.436C1098.61 524.236 1099.61 522.035 1100.61 519.835C1101.61 517.435 1102.21 515.035 1102.81 512.634C1103.21 510.034 1103.61 507.434 1103.61 504.833H1100.21C1100.21 507.234 1100.01 509.834 1099.61 512.034C1099.21 514.234 1098.61 516.435 1097.61 518.635C1096.81 520.635 1095.81 522.835 1094.41 524.836C1093.21 526.836 1091.81 528.636 1090.21 530.436C1088.61 532.237 1087.01 534.037 1085.01 535.637C1083.21 537.237 1081.21 538.837 1079.01 540.438C1077.01 542.038 1074.61 543.438 1072.21 544.838C1069.81 546.238 1067.4 547.639 1064.8 549.039C1062.2 550.239 1059.6 551.639 1056.8 552.839C1054 554.039 1051.2 555.239 1048.2 556.44C1045.4 557.64 1042.2 558.64 1039.2 559.64C1036.2 560.64 1033 561.64 1029.8 562.64C1026.6 563.64 1023.4 564.641 1020 565.441C1016.6 566.441 1013.2 567.241 1009.8 568.041C1006.4 568.841 1003 569.641 999.397 570.441C995.796 571.241 992.396 572.042 988.795 572.842C985.195 573.642 981.594 574.242 977.994 575.042C974.393 575.842 970.593 576.442 966.993 577.042C963.392 577.642 959.592 578.442 955.791 579.042C951.991 579.642 948.19 580.243 944.59 580.843C940.789 581.443 936.989 582.043 933.188 582.643C929.388 583.243 925.587 583.843 921.787 584.443C917.987 585.043 914.186 585.643 910.186 586.243C906.385 586.843 902.585 587.443 898.584 587.843L863.78 592.844C859.979 593.444 856.179 594.044 852.178 594.444C848.378 595.044 844.577 595.644 840.777 596.244C836.977 596.845 833.176 597.445 829.376 598.045C825.575 598.645 821.775 599.245 817.974 599.845C814.174 600.445 810.573 601.045 806.773 601.845C802.972 602.445 799.372 603.245 795.771 603.845C792.171 604.445 788.571 605.246 784.97 606.046C781.37 606.846 777.769 607.446 774.369 608.246C770.768 609.046 767.368 609.846 763.968 610.646C760.567 611.446 757.167 612.246 753.766 613.247C750.366 614.047 746.966 615.047 743.965 615.847C740.765 616.847 737.564 617.847 734.364 618.647C731.164 619.647 728.163 620.647 725.163 621.848C722.162 623.048 719.162 624.048 716.362 625.248C713.561 626.448 710.761 627.648 708.161 628.848C705.56 630.049 702.96 631.449 700.56 632.849C698.16 634.249 695.759 635.649 693.559 637.25C691.359 638.85 689.158 640.45 687.358 642.05C685.358 643.65 683.558 645.451 681.958 647.251C680.357 649.051 678.757 651.051 677.557 653.051C676.157 655.052 675.157 657.252 674.157 659.252C673.156 661.453 672.556 663.853 671.956 666.053C671.556 667.853 671.356 670.454 671.356 673.054Z" fill="black"/>
</g>
</g>
</g>
<defs>
<clipPath id="clip0_4041_23972">
<rect width="1920" height="1080" fill="white"/>
</clipPath>
<clipPath id="clip1_4041_23972">
<rect width="2290.28" height="2031.05" fill="white" transform="matrix(-1 0 0 1 1675.28 232)"/>
</clipPath>
</defs>
</svg>
