<svg width="1920" height="1080" viewBox="0 0 1920 1080" fill="none" xmlns="http://www.w3.org/2000/svg">
<g clip-path="url(#clip0_4039_2)">
<g opacity="0.5">
<path d="M1146.83 426.775H977.969V403.213H1146.83V426.775ZM981.896 422.848H1143.13V407.14H981.896V422.848Z" fill="black"/>
<path d="M1312.01 426.775H1143.15V403.213H1312.01V426.775ZM1146.84 422.848H1308.08V407.14H1146.84V422.848Z" fill="black"/>
<path d="M1477.17 426.775H1308.31V403.213H1477.17V426.775ZM1312.01 422.848H1473.25V407.14H1312.01V422.848Z" fill="black"/>
<path d="M1642.11 426.775H1473.25V403.213H1642.11V426.775ZM1477.18 422.848H1638.41V407.14H1477.18V422.848Z" fill="black"/>
<path d="M1146.83 446.179H977.969V422.848H1146.83V446.179ZM981.896 442.252H1143.13V426.544H981.896V442.252Z" fill="black"/>
<path d="M1312.01 446.179H1143.15V422.848H1312.01V446.179ZM1146.84 442.252H1308.08V426.544H1146.84V442.252Z" fill="black"/>
<path d="M1477.17 446.179H1308.31V422.848H1477.17V446.179ZM1312.01 442.252H1473.25V426.544H1312.01V442.252Z" fill="black"/>
<path d="M1642.11 446.179H1473.25V422.848H1642.11V446.179ZM1477.18 442.252H1638.41V426.544H1477.18V442.252Z" fill="black"/>
<path d="M1146.83 465.813H977.969V442.251H1146.83V465.813ZM981.896 461.886H1143.13V446.178H981.896V461.886Z" fill="black"/>
<path d="M1312.01 465.813H1143.15V442.251H1312.01V465.813ZM1146.84 461.886H1308.08V446.178H1146.84V461.886Z" fill="black"/>
<path d="M1477.17 465.813H1308.31V442.251H1477.17V465.813ZM1312.01 461.886H1473.25V446.178H1312.01V461.886Z" fill="black"/>
<path d="M1642.11 465.813H1473.25V442.251H1642.11V465.813ZM1477.18 461.886H1638.41V446.178H1477.18V461.886Z" fill="black"/>
<path d="M1146.83 485.217H977.969V461.886H1146.83V485.217ZM981.896 481.29H1143.13V465.582H981.896V481.29Z" fill="black"/>
<path d="M1312.01 485.217H1143.15V461.886H1312.01V485.217ZM1146.84 481.29H1308.08V465.582H1146.84V481.29Z" fill="black"/>
<path d="M1477.17 485.217H1308.31V461.886H1477.17V485.217ZM1312.01 481.29H1473.25V465.582H1312.01V481.29Z" fill="black"/>
<path d="M1642.11 485.217H1473.25V461.886H1642.11V485.217ZM1477.18 481.29H1638.41V465.582H1477.18V481.29Z" fill="black"/>
<path d="M1146.83 504.852H977.969V481.29H1146.83V504.852ZM981.896 500.925H1143.13V485.217H981.896V500.925Z" fill="black"/>
<path d="M1312.01 504.852H1143.15V481.29H1312.01V504.852ZM1146.84 500.925H1308.08V485.217H1146.84V500.925Z" fill="black"/>
<path d="M1477.17 504.852H1308.31V481.29H1477.17V504.852ZM1312.01 500.925H1473.25V485.217H1312.01V500.925Z" fill="black"/>
<path d="M1642.11 504.852H1473.25V481.29H1642.11V504.852ZM1477.18 500.925H1638.41V485.217H1477.18V500.925Z" fill="black"/>
<path d="M1146.83 524.256H977.969V500.925H1146.83V524.256ZM981.896 520.329H1143.13V504.621H981.896V520.329Z" fill="black"/>
<path d="M1312.01 524.256H1143.15V500.925H1312.01V524.256ZM1146.84 520.329H1308.08V504.621H1146.84V520.329Z" fill="black"/>
<path d="M1477.17 524.256H1308.31V500.925H1477.17V524.256ZM1312.01 520.329H1473.25V504.621H1312.01V520.329Z" fill="black"/>
<path d="M1642.11 524.256H1473.25V500.925H1642.11V524.256ZM1477.18 520.329H1638.41V504.621H1477.18V520.329Z" fill="black"/>
<path d="M1146.83 545.278H977.969V521.947H1146.83V545.278ZM981.896 541.351H1143.13V525.643H981.896V541.351Z" fill="black"/>
<path d="M1312.01 545.278H1143.15V521.947H1312.01V545.278ZM1146.84 541.351H1308.08V525.643H1146.84V541.351Z" fill="black"/>
<path d="M1477.17 545.278H1308.31V521.947H1477.17V545.278ZM1312.01 541.351H1473.25V525.643H1312.01V541.351Z" fill="black"/>
<path d="M1642.11 545.278H1473.25V521.947H1642.11V545.278ZM1477.18 541.351H1638.41V525.643H1477.18V541.351Z" fill="black"/>
<path d="M1146.83 564.681H977.969V541.35H1146.83V564.681ZM981.896 560.754H1143.13V545.046H981.896V560.754Z" fill="black"/>
<path d="M1312.01 564.681H1143.15V541.35H1312.01V564.681ZM1146.84 560.754H1308.08V545.046H1146.84V560.754Z" fill="black"/>
<path d="M1477.17 564.681H1308.31V541.35H1477.17V564.681ZM1312.01 560.754H1473.25V545.046H1312.01V560.754Z" fill="black"/>
<path d="M1642.11 564.681H1473.25V541.35H1642.11V564.681ZM1477.18 560.754H1638.41V545.046H1477.18V560.754Z" fill="black"/>
<path d="M1146.83 584.317H977.969V560.986H1146.83V584.317ZM981.896 580.39H1143.13V564.682H981.896V580.39Z" fill="black"/>
<path d="M1312.01 584.317H1143.15V560.986H1312.01V584.317ZM1146.84 580.39H1308.08V564.682H1146.84V580.39Z" fill="black"/>
<path d="M1477.17 584.317H1308.31V560.986H1477.17V584.317ZM1312.01 580.39H1473.25V564.682H1312.01V580.39Z" fill="black"/>
<path d="M1642.11 584.317H1473.25V560.986H1642.11V584.317ZM1477.18 580.39H1638.41V564.682H1477.18V580.39Z" fill="black"/>
</g>
<g opacity="0.5">
<path d="M1146.83 289.331H977.969V266H1146.83V289.331ZM981.896 285.404H1143.13V269.927H981.896V285.404Z" fill="black"/>
<path d="M1312 289.331H1143.14V266H1312V289.331ZM1146.84 285.404H1308.07V269.927H1146.84V285.404Z" fill="black"/>
<path d="M1477.17 289.331H1308.3V266H1477.17V289.331ZM1312 285.404H1473.24V269.927H1312V285.404Z" fill="black"/>
<path d="M1642.1 289.331H1473.24V266H1642.1V289.331ZM1477.17 285.404H1638.41V269.927H1477.17V285.404Z" fill="black"/>
<path d="M1146.83 308.966H977.969V285.404H1146.83V308.966ZM981.896 305.039H1143.13V289.331H981.896V305.039Z" fill="black"/>
<path d="M1312 308.966H1143.14V285.404H1312V308.966ZM1146.84 305.039H1308.07V289.331H1146.84V305.039Z" fill="black"/>
<path d="M1477.17 308.966H1308.3V285.404H1477.17V308.966ZM1312 305.039H1473.24V289.331H1312V305.039Z" fill="black"/>
<path d="M1642.1 308.966H1473.24V285.404H1642.1V308.966ZM1477.17 305.039H1638.41V289.331H1477.17V305.039Z" fill="black"/>
<path d="M1146.83 328.369H977.969V305.038H1146.83V328.369ZM981.896 324.442H1143.13V308.734H981.896V324.442Z" fill="black"/>
<path d="M1312 328.369H1143.14V305.038H1312V328.369ZM1146.84 324.442H1308.07V308.734H1146.84V324.442Z" fill="black"/>
<path d="M1477.17 328.369H1308.3V305.038H1477.17V328.369ZM1312 324.442H1473.24V308.734H1312V324.442Z" fill="black"/>
<path d="M1642.1 328.369H1473.24V305.038H1642.1V328.369ZM1477.17 324.442H1638.41V308.734H1477.17V324.442Z" fill="black"/>
<path d="M1146.83 348.005H977.969V324.443H1146.83V348.005ZM981.896 344.078H1143.13V328.37H981.896V344.078Z" fill="black"/>
<path d="M1312 348.005H1143.14V324.443H1312V348.005ZM1146.84 344.078H1308.07V328.37H1146.84V344.078Z" fill="black"/>
<path d="M1477.17 348.005H1308.3V324.443H1477.17V348.005ZM1312 344.078H1473.24V328.37H1312V344.078Z" fill="black"/>
<path d="M1642.1 348.005H1473.24V324.443H1642.1V348.005ZM1477.17 344.078H1638.41V328.37H1477.17V344.078Z" fill="black"/>
</g>
<path d="M1147.14 387.736H978.281V364.174H1147.14V387.736ZM981.977 383.809H1143.22V368.101H981.977V383.809Z" fill="black"/>
<path d="M1312.07 387.736H1143.21V364.174H1312.07V387.736ZM1147.14 383.809H1308.38V368.101H1147.14V383.809Z" fill="black"/>
<path d="M1477.24 387.736H1308.38V364.174H1477.24V387.736ZM1312.08 383.809H1473.32V368.101H1312.08V383.809Z" fill="black"/>
<path d="M1642.18 387.736H1473.32V364.174H1642.18V387.736ZM1477.25 383.809H1638.49V368.101H1477.25V383.809Z" fill="black"/>
<path d="M796.955 387.043H628.094V363.481H796.955V387.043ZM632.021 383.116H793.259V367.408H632.021V383.116Z" fill="black"/>
<path d="M446.994 387.043H278.133V363.481H446.994V387.043ZM281.829 383.116H443.067V367.408H281.829V383.116Z" fill="black"/>
<path d="M446.994 780.205H278.133V756.874H446.994V780.205ZM281.829 776.278H443.067V760.57H281.829V776.278Z" fill="black"/>
<path d="M446.994 583.624H278.133V560.293H446.994V583.624ZM281.829 579.697H443.067V563.989H281.829V579.697Z" fill="black"/>
<path d="M97.0295 583.624H-72.0625V560.293H96.7985V583.624H97.0295ZM-68.1355 579.697H93.1025V563.989H-68.1355V579.697Z" fill="black"/>
<path d="M97.0295 387.043H-72.0625V363.481H96.7985V387.043H97.0295ZM-68.1355 383.116H93.1025V367.408H-68.1355V383.116Z" fill="black"/>
<path d="M97.0295 780.205H-72.0625V756.874H96.7985V780.205H97.0295ZM-68.1355 776.278H93.1025V760.57H-68.1355V776.278Z" fill="black"/>
<path d="M97.0295 976.786H-72.0625V953.455H96.7985V976.786H97.0295ZM-68.1355 972.859H93.1025V957.151H-68.1355V972.859Z" fill="black"/>
<path d="M796.955 583.624H628.094V560.293H796.955V583.624ZM632.021 579.697H793.259V563.989H632.021V579.697Z" fill="black"/>
<g opacity="0.5">
<path d="M980.14 368.102C969.976 368.102 961.198 368.102 953.344 368.102C945.49 368.102 938.791 368.102 933.016 368.102L843.85 367.409C840.385 367.409 836.458 367.409 832.069 367.409H795.109V363.482H832.069C836.689 363.482 840.385 363.482 843.85 363.482L933.016 364.175C939.022 364.175 945.721 364.175 953.344 364.175C961.198 364.175 969.976 364.175 980.14 364.175V368.102Z" fill="black"/>
<path d="M980.14 387.736L836.689 387.043C831.607 387.043 825.601 387.043 818.671 387.043C811.741 387.043 804.118 387.043 795.109 387.043V383.116C804.118 383.116 811.972 383.116 818.671 383.116C825.601 383.116 831.376 383.116 836.689 383.116L980.14 383.809V387.736Z" fill="black"/>
<path d="M630.179 363.482H445.148V367.409H630.179V363.482Z" fill="black"/>
<path d="M630.179 383.116H445.148V387.043H630.179V383.116Z" fill="black"/>
<path d="M795.109 583.625V579.698C799.96 579.698 804.58 579.236 808.738 578.543C812.665 577.85 816.592 576.926 820.057 575.54C823.291 574.385 826.525 572.768 829.528 571.151C832.3 569.534 835.072 567.686 837.613 565.607C839.923 563.759 842.233 561.449 844.312 559.139C846.391 556.829 848.239 554.519 850.087 551.747C851.704 549.206 853.552 546.665 854.938 543.662C856.324 541.121 857.941 538.118 859.327 535.115C860.713 532.343 861.868 529.34 863.023 526.106C864.178 523.334 865.333 520.1 866.488 516.866C867.643 513.632 868.567 510.629 869.722 507.395C870.646 504.161 871.801 500.927 872.725 497.693C873.418 494.921 874.342 492.38 875.035 489.608L875.497 487.991C876.421 484.757 877.345 481.523 878.5 478.289C879.424 475.055 880.579 471.821 881.503 468.587C882.658 465.353 883.582 462.119 884.737 458.885C885.892 455.42 887.047 452.417 888.433 449.183C889.819 445.949 891.205 442.715 892.591 439.712C893.977 436.478 895.594 433.475 897.211 430.472C899.059 427.469 900.676 424.466 902.755 421.694C904.834 418.691 906.913 415.919 909.223 413.378C911.533 410.606 914.074 408.065 916.615 405.524C919.387 402.983 922.39 400.673 925.393 398.594C928.627 396.284 932.092 394.436 935.788 392.588C939.715 390.74 943.873 389.123 948.031 387.968C952.651 386.582 957.502 385.658 962.584 384.965C967.897 384.272 973.672 383.81 979.678 383.81V387.737C973.903 387.737 968.359 388.199 963.046 388.892C958.195 389.585 953.575 390.509 949.186 391.895C945.028 393.05 941.101 394.667 937.405 396.284C933.94 397.901 930.706 399.749 927.472 401.828C924.469 403.907 921.697 405.986 919.156 408.527C916.615 410.837 914.305 413.378 911.995 415.919C909.916 418.46 907.837 421.001 905.989 424.004C904.141 426.545 902.524 429.548 900.676 432.551C899.059 435.323 897.673 438.326 896.056 441.56C894.67 444.563 893.284 447.566 892.129 450.8C890.974 453.803 889.819 456.806 888.433 460.271C887.278 463.505 886.123 466.739 885.199 469.973C884.044 473.207 883.12 476.441 882.196 479.675C881.272 482.909 880.117 486.143 879.193 489.377L878.731 490.994C878.038 493.766 877.114 496.307 876.421 499.079C875.497 502.313 874.342 505.547 873.418 508.781C872.494 512.015 871.339 515.249 870.184 518.483C869.029 521.948 867.874 524.951 866.719 527.954C865.333 531.188 864.178 534.191 862.792 537.194C861.406 540.197 859.789 543.2 858.403 545.972C856.786 548.975 854.938 551.747 853.321 554.288C851.473 557.06 849.394 559.601 847.315 562.142C845.005 564.683 842.695 566.993 840.154 569.072C837.382 571.382 834.61 573.23 831.607 575.078C828.373 576.926 824.908 578.543 821.443 579.698C817.747 581.084 813.589 582.008 809.431 582.701C805.042 583.163 800.191 583.625 795.109 583.625Z" fill="black"/>
<path d="M795.109 563.99V560.063C800.191 560.063 805.042 559.601 809.662 558.908C813.82 558.215 817.978 557.291 821.674 555.905C825.139 554.75 828.604 553.133 831.838 551.516C834.841 549.899 837.613 548.051 840.385 545.972C842.926 543.893 845.467 541.814 847.777 539.273C849.856 536.963 851.935 534.653 854.014 531.881C855.862 529.34 857.71 526.799 859.327 523.796C860.944 521.255 862.561 518.252 863.947 515.249C865.333 512.477 866.719 509.474 868.105 506.24C869.26 503.237 870.646 500.234 871.801 497C872.956 493.997 874.111 490.994 875.266 487.529C876.421 484.295 877.345 481.061 878.5 477.827C879.655 474.593 880.579 471.359 881.503 468.125L884.506 458.423C885.43 455.189 886.585 451.955 887.74 448.721C888.895 445.487 889.819 442.253 890.974 439.019C892.129 435.554 893.284 432.32 894.67 429.317C896.056 425.852 897.211 422.849 898.597 419.846C899.983 416.612 901.6 413.609 902.986 410.606C904.603 407.603 906.451 404.6 908.068 401.828C909.916 398.825 911.995 396.053 914.074 393.512C916.384 390.74 918.694 388.199 921.004 385.658C923.545 383.117 926.317 380.807 929.32 378.728C932.323 376.418 935.557 374.57 939.022 372.722C942.718 370.874 946.414 369.257 950.341 368.102C954.499 366.716 959.119 365.792 963.739 365.099C968.821 364.406 974.134 363.944 979.678 363.944V367.871C974.365 367.871 969.283 368.333 964.432 369.026C960.043 369.719 955.654 370.643 951.496 372.029C947.8 373.184 944.104 374.801 940.639 376.418C937.405 378.035 934.402 379.883 931.399 381.962C928.627 384.041 926.086 386.12 923.545 388.661C921.235 390.971 918.925 393.512 916.846 396.053C914.767 398.594 912.919 401.135 911.071 404.138C909.454 406.679 907.606 409.682 905.989 412.685C904.603 415.457 902.986 418.46 901.6 421.694C900.214 424.697 899.059 427.7 897.673 430.934C896.518 433.937 895.363 436.94 894.208 440.405C893.053 443.639 891.898 446.873 890.974 450.107C889.819 453.341 888.895 456.575 887.74 459.809L884.737 469.511C883.813 472.745 882.658 475.979 881.734 479.213C880.579 482.447 879.655 485.681 878.5 488.915C877.345 492.38 876.19 495.614 875.035 498.617C873.649 502.082 872.494 505.085 871.339 508.088C869.953 511.322 868.567 514.325 867.181 517.328C865.564 520.331 863.947 523.334 862.33 526.106C860.482 529.109 858.634 531.881 856.786 534.422C854.707 537.194 852.397 539.735 850.318 542.276C847.777 544.817 845.236 547.127 842.695 549.206C839.923 551.516 836.689 553.364 833.455 555.212C829.99 557.06 826.525 558.677 822.598 559.832C818.671 561.218 814.282 562.142 809.893 562.835C805.504 563.528 800.422 563.99 795.109 563.99Z" fill="black"/>
<path d="M630.179 560.062H445.148V563.989H630.179V560.062Z" fill="black"/>
<path d="M630.179 579.697H445.148V583.624H630.179V579.697Z" fill="black"/>
<path d="M170.02 367.409H94.9453V363.482H279.976V367.409H170.02Z" fill="black"/>
<path d="M206.749 387.043H94.9453V383.116H279.976V387.043H206.749Z" fill="black"/>
<path d="M279.976 560.062H94.9453V563.989H279.976V560.062Z" fill="black"/>
<path d="M194.968 583.624H94.9453V579.697H279.976V583.624H194.968Z" fill="black"/>
<path d="M279.976 756.643H94.9453V760.57H279.976V756.643Z" fill="black"/>
<path d="M150.154 780.205H94.9453V776.278H279.976V780.205H150.154Z" fill="black"/>
<path d="M94.9453 583.625V579.698C99.7963 579.698 104.416 579.236 108.574 578.543C112.501 577.85 116.428 576.926 119.893 575.54C123.127 574.385 126.361 572.768 129.364 571.151C132.136 569.534 134.908 567.686 137.449 565.607C139.759 563.759 142.069 561.449 144.148 559.139C146.227 556.829 148.075 554.519 149.923 551.747C151.54 549.206 153.388 546.665 154.774 543.662C156.16 540.89 157.777 538.118 159.163 535.115C160.549 532.343 161.704 529.34 162.859 526.106C164.014 523.334 165.169 520.1 166.324 516.866C167.479 513.632 168.403 510.629 169.558 507.395C170.482 504.161 171.637 500.927 172.561 497.693C173.485 494.921 174.178 491.918 175.102 489.146L175.333 487.991C176.257 484.757 177.181 481.523 178.336 478.289C179.26 475.055 180.415 471.821 181.339 468.587C182.494 465.353 183.418 462.119 184.573 458.885C185.728 455.42 186.883 452.186 188.269 449.183C189.655 445.949 191.041 442.715 192.427 439.712C194.044 436.478 195.43 433.475 197.047 430.472C198.895 427.238 200.512 424.466 202.591 421.694C204.67 418.691 206.749 415.919 209.059 413.378C211.369 410.606 213.91 408.065 216.451 405.524C219.223 402.983 222.226 400.673 225.229 398.594C228.463 396.284 231.928 394.436 235.624 392.588C239.551 390.74 243.709 389.123 247.867 387.968C252.487 386.582 257.338 385.658 262.42 384.965C267.733 384.272 273.508 383.81 279.514 383.81V387.737C273.739 387.737 268.195 388.199 262.882 388.892C258.031 389.585 253.411 390.509 249.022 391.895C244.864 393.05 240.937 394.667 237.241 396.284C233.776 397.901 230.542 399.749 227.308 401.828C224.305 403.907 221.533 405.986 218.992 408.527C216.451 410.837 214.141 413.147 211.831 415.919C209.752 418.46 207.673 421.001 205.825 424.004C203.977 426.545 202.36 429.548 200.512 432.551C198.895 435.323 197.509 438.326 195.892 441.56C194.506 444.563 193.12 447.566 191.965 450.8C190.81 453.803 189.655 456.806 188.269 460.271C187.114 463.505 185.959 466.739 185.035 469.973C183.88 473.207 182.956 476.441 182.032 479.675C181.108 482.909 179.953 486.143 179.029 489.377L178.798 490.532C177.874 493.304 177.181 496.307 176.257 499.079C175.333 502.313 174.178 505.547 173.254 508.781C172.33 512.015 171.175 515.249 170.02 518.483C168.865 521.948 167.71 524.951 166.555 527.954C165.169 531.188 164.014 534.191 162.628 537.194C161.242 540.197 159.625 543.2 158.239 545.972C156.622 548.975 154.774 551.747 153.157 554.288C151.309 557.06 149.23 559.601 147.151 562.142C144.841 564.683 142.531 566.993 139.99 569.072C137.218 571.382 134.446 573.23 131.443 575.078C128.209 576.926 124.744 578.543 121.279 579.698C117.583 581.084 113.425 582.008 109.267 582.701C104.878 583.163 100.027 583.625 94.9453 583.625Z" fill="black"/>
<path d="M94.9453 563.99V560.063C100.027 560.063 104.878 559.601 109.498 558.908C113.656 558.215 117.814 557.291 121.51 555.905C124.975 554.75 128.44 553.133 131.674 551.516C134.677 549.899 137.449 548.051 140.221 545.972C142.762 544.124 145.303 541.814 147.613 539.273C149.692 536.963 152.002 534.422 153.85 531.881C155.698 529.34 157.546 526.799 159.163 523.796C160.78 521.024 162.397 518.252 163.783 515.249C165.169 512.477 166.555 509.474 167.941 506.24C169.096 503.237 170.482 500.234 171.637 497C172.792 493.997 173.947 490.994 175.102 487.529C176.257 484.295 177.181 481.061 178.336 477.827C179.491 474.593 180.415 471.359 181.339 468.125L184.342 458.423C185.266 455.189 186.421 451.955 187.576 448.721C188.731 445.487 189.655 442.253 190.81 439.019C191.965 435.554 193.12 432.32 194.506 429.317C195.892 425.852 197.047 422.849 198.433 419.846C199.819 416.612 201.436 413.609 202.822 410.606C204.439 407.603 206.287 404.6 207.904 401.828C209.752 398.825 211.831 396.053 213.91 393.512C216.22 390.74 218.53 388.199 220.84 385.658C223.381 383.117 226.153 380.807 229.156 378.728C232.159 376.418 235.393 374.57 238.858 372.722C242.554 370.874 246.25 369.257 250.177 368.102C254.335 366.716 258.955 365.792 263.575 365.099C268.657 364.406 273.97 363.944 279.514 363.944V367.871C274.201 367.871 269.119 368.333 264.268 369.026C259.879 369.719 255.49 370.643 251.332 372.029C247.636 373.184 243.94 374.801 240.475 376.418C237.241 378.035 234.238 379.883 231.235 381.962C228.463 384.041 225.922 386.12 223.381 388.661C221.071 390.971 218.761 393.512 216.682 396.053C214.603 398.594 212.755 401.135 210.907 404.138C209.29 406.679 207.442 409.682 205.825 412.685C204.439 415.457 202.822 418.46 201.436 421.694C200.05 424.697 198.895 427.7 197.509 430.934C196.354 433.937 195.199 436.94 194.044 440.405C192.889 443.639 191.734 446.873 190.81 450.107C189.655 453.341 188.731 456.575 187.576 459.809L184.573 469.511C183.649 472.745 182.494 475.979 181.57 479.213C180.415 482.447 179.491 485.681 178.336 488.915C177.181 492.38 176.026 495.614 174.871 498.617C173.716 502.082 172.33 505.085 171.175 508.088C169.789 511.322 168.403 514.325 167.017 517.328C165.4 520.331 163.783 523.334 162.166 526.106C160.318 529.109 158.47 531.881 156.622 534.422C154.543 537.194 152.233 539.735 150.154 542.276C147.613 544.817 145.072 547.127 142.531 549.206C139.759 551.516 136.525 553.364 133.291 555.212C129.826 557.06 126.361 558.677 122.434 559.832C118.507 561.218 114.118 562.142 109.729 562.835C105.34 563.528 100.258 563.99 94.9453 563.99Z" fill="black"/>
<path d="M445.148 779.742V775.815C449.999 775.815 454.619 775.353 458.777 774.66C462.704 773.967 466.631 773.043 470.096 771.657C473.33 770.502 476.564 768.885 479.567 767.268C482.339 765.651 485.111 763.804 487.652 761.725C489.962 759.877 492.272 757.567 494.351 755.257C496.43 752.947 498.278 750.637 500.126 747.865C501.743 745.324 503.591 742.783 504.977 739.78C506.363 737.239 507.98 734.235 509.366 731.232C510.752 728.46 511.907 725.458 513.062 722.224C514.217 719.221 515.372 716.218 516.527 712.984C517.682 709.75 518.606 706.746 519.761 703.512C520.685 700.278 521.84 697.044 522.764 693.81C523.688 691.038 524.381 688.267 525.305 685.495L525.767 684.109C526.691 680.875 527.615 677.641 528.77 674.407C529.694 671.173 530.849 667.939 531.773 664.705C532.928 661.471 533.852 658.236 535.007 655.002C536.162 651.537 537.317 648.303 538.703 645.3C540.089 642.066 541.475 638.833 542.861 635.83C544.478 632.596 545.864 629.593 547.481 626.59C549.098 623.587 550.946 620.584 553.025 617.812C555.104 614.809 557.183 612.036 559.493 609.495C561.803 606.723 564.344 604.183 566.885 601.642C569.657 599.101 572.66 596.791 575.663 594.712C578.897 592.402 582.362 590.553 586.058 588.705C589.985 586.857 594.143 585.24 598.301 584.085C602.921 582.699 607.772 581.775 612.854 581.082C618.167 580.389 623.942 579.927 629.948 579.927V583.855C624.173 583.855 618.629 584.317 613.316 585.01C608.465 585.703 603.845 586.626 599.456 588.012C595.298 589.167 591.371 590.785 587.675 592.402C584.21 594.019 580.976 595.866 577.742 597.945C574.739 600.024 571.967 602.104 569.426 604.645C566.885 606.955 564.575 609.496 562.265 612.037C560.186 614.578 558.107 617.119 556.259 620.122C554.411 622.894 552.563 625.666 550.946 628.669C549.329 631.441 547.943 634.443 546.326 637.677C544.94 640.68 543.554 643.683 542.399 646.917C541.244 649.92 540.089 652.924 538.703 656.389C537.548 659.623 536.393 662.856 535.469 666.09C534.314 669.324 533.39 672.558 532.466 675.792C531.542 679.026 530.387 682.261 529.463 685.495L529.001 686.88C528.077 689.652 527.384 692.425 526.46 695.197C525.536 698.431 524.381 701.665 523.457 704.899C522.533 708.133 521.378 711.366 520.223 714.6C519.068 718.065 517.913 721.069 516.758 724.072C515.372 727.306 514.217 730.309 512.831 733.312C511.445 736.315 509.828 739.318 508.442 742.09C506.825 745.093 504.977 747.864 503.36 750.405C501.512 753.177 499.433 755.719 497.354 758.26C495.044 760.801 492.734 763.111 490.193 765.19C487.421 767.5 484.649 769.347 481.646 771.195C478.412 773.043 474.947 774.66 471.482 775.815C467.786 777.201 463.628 778.125 459.47 778.818C454.85 779.28 449.999 779.742 445.148 779.742Z" fill="black"/>
<path d="M445.148 760.339V756.412C450.23 756.412 455.081 755.95 459.701 755.257C463.859 754.564 468.017 753.64 471.713 752.254C475.178 751.099 478.643 749.482 481.877 747.865C484.88 746.248 487.652 744.4 490.424 742.321C492.965 740.242 495.506 738.163 497.816 735.622C499.895 733.312 502.205 730.771 504.053 728.23C505.901 725.689 507.749 723.148 509.366 720.145C510.983 717.373 512.6 714.601 513.986 711.598C515.372 708.826 516.758 705.823 518.144 702.589C519.299 699.586 520.685 696.583 521.84 693.349C522.995 690.346 524.15 687.343 525.305 683.878C526.46 680.644 527.384 677.41 528.539 674.176C529.694 670.942 530.618 667.708 531.542 664.474L534.545 654.772C535.469 651.538 536.624 648.304 537.779 645.07C538.934 641.836 539.858 638.602 541.013 635.368C542.168 631.903 543.323 628.669 544.709 625.666C546.095 622.201 547.25 619.198 548.636 616.195C550.022 612.961 551.639 609.958 553.025 606.955C554.642 603.952 556.49 600.949 558.107 598.177C559.955 595.174 562.034 592.402 564.113 589.861C566.423 587.089 568.733 584.548 571.043 582.007C573.584 579.466 576.356 577.156 579.359 575.077C582.362 572.767 585.596 570.919 589.061 569.071C592.757 567.223 596.453 565.606 600.38 564.451C604.538 563.065 609.158 562.141 613.778 561.448C618.86 560.755 624.173 560.293 629.717 560.293V564.22C624.404 564.22 619.322 564.682 614.471 565.375C610.082 566.068 605.693 566.992 601.535 568.378C597.839 569.533 594.143 571.15 590.678 572.767C587.444 574.384 584.441 576.232 581.438 578.311C578.666 580.39 576.125 582.469 573.584 585.01C571.274 587.32 568.964 589.861 566.885 592.402C564.806 594.943 562.958 597.484 561.11 600.487C559.493 603.028 557.645 606.031 556.028 609.034C554.642 611.806 553.025 614.809 551.639 618.043C550.253 621.046 549.098 624.049 547.712 627.283C546.557 630.286 545.402 633.289 544.247 636.754C543.092 639.988 541.937 643.222 541.013 646.456C539.858 649.69 538.934 652.924 537.779 656.158L534.776 665.86C533.852 669.094 532.697 672.328 531.773 675.562C530.618 678.796 529.694 682.03 528.539 685.264C527.384 688.729 526.229 691.963 525.074 694.966C523.688 698.431 522.533 701.434 521.378 704.437C519.992 707.671 518.606 710.674 517.22 713.677C515.603 716.68 513.986 719.683 512.369 722.455C510.521 725.458 508.673 728.23 506.825 730.771C504.746 733.543 502.436 736.084 500.357 738.625C497.816 741.166 495.275 743.476 492.734 745.555C489.962 747.865 486.728 749.713 483.494 751.561C480.029 753.409 476.564 755.026 472.637 756.181C468.71 757.567 464.321 758.491 459.932 759.184C455.312 759.877 450.23 760.339 445.148 760.339Z" fill="black"/>
<path d="M94.9453 779.743V775.816C99.7963 775.816 104.416 775.354 108.574 774.661C112.501 773.968 116.428 773.044 119.893 771.658C123.127 770.503 126.361 768.886 129.364 767.269C132.136 765.652 134.908 763.804 137.449 761.725C139.759 759.877 142.069 757.567 144.148 755.257C146.227 752.947 148.075 750.637 149.923 747.865C151.54 745.324 153.388 742.783 154.774 739.78C156.16 737.239 157.777 734.236 159.163 731.233C160.549 728.461 161.704 725.458 162.859 722.224C164.014 719.221 165.169 716.218 166.324 712.984C167.479 709.75 168.403 706.747 169.558 703.513C170.482 700.279 171.637 697.045 172.561 693.811C173.254 691.27 174.178 688.498 174.871 685.957L175.333 684.109C176.257 680.875 177.181 677.641 178.336 674.407C179.26 671.173 180.415 667.939 181.339 664.705C182.494 661.471 183.418 658.237 184.573 655.003C185.728 651.538 186.883 648.535 188.269 645.301C189.655 641.836 191.041 638.833 192.427 635.83C194.044 632.596 195.43 629.593 197.047 626.59C198.895 623.587 200.512 620.584 202.591 617.812C204.67 614.809 206.749 612.037 209.059 609.496C211.369 606.724 213.91 604.183 216.451 601.642C219.223 599.101 222.226 596.791 225.229 594.712C228.463 592.402 231.928 590.554 235.624 588.706C239.551 586.858 243.709 585.241 247.867 584.086C252.487 582.7 257.338 581.776 262.42 581.083C267.733 580.39 273.508 579.928 279.514 579.928V583.855C273.739 583.855 268.195 584.317 262.882 585.01C258.031 585.703 253.411 586.627 249.022 588.013C244.864 589.168 240.937 590.785 237.241 592.402C233.776 594.019 230.542 595.867 227.308 597.946C224.305 600.025 221.533 602.104 218.992 604.645C216.451 606.955 214.141 609.496 211.831 612.037C209.752 614.578 207.673 617.119 205.825 620.122C203.977 622.894 202.129 625.666 200.512 628.669C198.895 631.441 197.509 634.444 195.892 637.678C194.506 640.681 193.12 643.684 191.965 646.918C190.81 649.921 189.655 652.924 188.269 656.389C187.114 659.623 185.959 662.857 185.035 666.091C183.88 669.325 182.956 672.559 182.032 675.793C181.108 679.027 179.953 682.261 179.029 685.495L178.567 687.343C177.874 689.884 176.95 692.656 176.257 695.197C175.333 698.431 174.178 701.665 173.254 704.899C172.33 708.133 171.175 711.367 170.02 714.601C168.865 718.066 167.71 721.069 166.555 724.072C165.169 727.306 164.014 730.309 162.628 733.312C161.242 736.546 159.625 739.318 158.239 742.09C156.622 745.093 154.774 747.865 153.157 750.406C151.309 753.178 149.23 755.719 147.151 758.26C144.841 760.801 142.531 763.111 139.99 765.19C137.218 767.5 134.446 769.348 131.443 771.196C128.209 773.044 124.744 774.661 121.279 775.816C117.583 777.202 113.425 778.126 109.267 778.819C104.878 779.281 100.027 779.743 94.9453 779.743Z" fill="black"/>
<path d="M94.9453 760.339V756.412C100.027 756.412 104.878 755.95 109.498 755.257C113.656 754.564 117.814 753.64 121.51 752.254C124.975 751.099 128.44 749.482 131.674 747.865C134.677 746.248 137.449 744.4 140.221 742.321C142.762 740.242 145.303 738.163 147.613 735.622C149.692 733.312 151.771 731.002 153.85 728.23C155.698 725.689 157.546 723.148 159.163 720.145C160.78 717.604 162.397 714.601 163.783 711.598C165.169 708.826 166.555 705.823 167.941 702.589C169.096 699.586 170.482 696.583 171.637 693.349C172.792 690.346 173.947 687.343 175.102 683.878C176.257 680.644 177.181 677.41 178.336 674.176C179.491 670.942 180.415 667.708 181.339 664.474L184.342 654.772C185.266 651.538 186.421 648.304 187.576 645.07C188.731 641.836 189.655 638.602 190.81 635.368C191.965 631.903 193.12 628.669 194.506 625.666C195.892 622.201 197.047 619.198 198.433 616.195C199.819 612.961 201.436 609.958 202.822 606.955C204.439 603.952 206.287 600.949 207.904 598.177C209.752 595.174 211.831 592.402 213.91 589.861C216.22 587.089 218.53 584.548 220.84 582.007C223.381 579.466 226.153 577.156 229.156 575.077C232.159 572.767 235.393 570.919 238.858 569.071C242.554 567.223 246.25 565.606 250.177 564.451C254.335 563.065 258.955 562.141 263.575 561.448C268.657 560.755 273.97 560.293 279.514 560.293V564.22C274.201 564.22 269.119 564.682 264.268 565.375C259.879 566.068 255.49 566.992 251.332 568.378C247.636 569.533 243.94 571.15 240.475 572.767C237.241 574.384 234.238 576.232 231.235 578.311C228.463 580.39 225.922 582.469 223.381 585.01C221.071 587.32 218.761 589.861 216.682 592.402C214.603 594.943 212.755 597.484 210.907 600.487C209.29 603.028 207.442 606.031 205.825 609.034C204.439 611.806 202.822 614.809 201.436 618.043C200.05 621.046 198.895 624.049 197.509 627.283C196.354 630.286 195.199 633.289 194.044 636.754C192.889 639.988 191.734 643.222 190.81 646.456C189.655 649.69 188.731 652.924 187.576 656.158L184.573 665.86C183.649 669.094 182.494 672.328 181.57 675.562C180.415 678.796 179.491 682.03 178.336 685.264C177.181 688.729 176.026 691.963 174.871 694.966C173.485 698.431 172.33 701.434 171.175 704.437C169.789 707.671 168.403 710.674 167.017 713.677C165.4 716.911 163.783 719.683 162.166 722.455C160.318 725.458 158.47 728.23 156.622 730.771C154.543 733.543 152.233 736.084 150.154 738.625C147.613 741.166 145.072 743.476 142.531 745.555C139.759 747.865 136.525 749.713 133.291 751.561C129.826 753.409 126.361 755.026 122.434 756.181C118.507 757.567 114.118 758.491 109.729 759.184C105.34 759.877 100.258 760.339 94.9453 760.339Z" fill="black"/>
<path d="M94.9453 976.324V972.397C99.7963 972.397 104.416 971.935 108.574 971.242C112.501 970.549 116.428 969.625 119.893 968.239C123.127 967.084 126.361 965.468 129.364 963.851C132.136 962.234 134.908 960.386 137.449 958.307C139.759 956.228 142.069 954.148 144.148 951.838C146.227 949.528 148.075 947.219 149.923 944.447C151.54 941.906 153.388 939.365 154.774 936.362C156.16 933.59 157.546 930.817 159.163 927.814C160.549 925.042 161.704 922.04 162.859 918.806C164.014 915.803 165.169 912.8 166.324 909.566C167.479 906.332 168.403 903.328 169.558 900.094C170.482 896.86 171.637 893.626 172.561 890.392C173.254 887.851 174.178 885.079 174.871 882.538L175.333 880.691C176.257 877.457 177.181 874.222 178.336 870.988C179.26 867.754 180.415 864.521 181.339 861.287C182.494 858.053 183.418 854.818 184.573 851.584C185.728 848.119 186.883 845.116 188.269 841.882C189.655 838.417 191.041 835.414 192.427 832.411C194.044 829.177 195.43 826.174 197.047 823.171C198.895 820.168 200.512 817.165 202.591 814.393C204.67 811.39 206.749 808.618 209.059 806.077C211.369 803.305 213.91 800.764 216.451 798.223C219.223 795.682 222.226 793.372 225.229 791.293C228.463 788.983 231.928 787.135 235.624 785.287C239.551 783.439 243.709 781.822 247.867 780.667C252.487 779.281 257.338 778.357 262.42 777.664C267.733 776.971 273.508 776.509 279.514 776.509V780.436C273.739 780.436 268.195 780.898 262.882 781.591C258.031 782.284 253.411 783.208 249.022 784.594C244.864 785.749 240.937 787.366 237.241 788.983C233.776 790.6 230.542 792.448 227.308 794.527C224.305 796.606 221.533 798.685 218.992 801.226C216.451 803.536 214.141 806.077 211.831 808.618C209.752 811.159 207.673 813.7 205.825 816.703C203.977 819.244 202.129 822.248 200.512 825.251C198.895 828.023 197.509 831.025 195.892 834.259C194.506 837.262 193.12 840.265 191.965 843.499C190.81 846.502 189.655 849.506 188.269 852.971C187.114 856.205 185.959 859.438 185.035 862.672C183.88 865.906 182.956 869.14 182.032 872.374C181.108 875.608 179.953 878.843 179.029 882.077L178.567 883.924C177.874 886.465 176.95 889.237 176.257 891.778C175.333 895.012 174.178 898.247 173.254 901.481C172.33 904.715 171.175 907.948 170.02 911.182C168.865 914.647 167.71 917.65 166.555 920.653C165.169 923.887 164.014 926.89 162.628 929.893C161.242 933.127 159.625 935.9 158.239 938.672C156.622 941.675 154.774 944.446 153.157 946.987C151.309 949.759 149.23 952.301 147.151 954.842C144.841 957.383 142.531 959.693 139.99 961.772C137.218 964.082 134.446 965.929 131.443 967.777C128.209 969.625 124.744 971.242 121.279 972.397C117.583 973.783 113.425 974.708 109.267 975.401C104.878 975.863 100.027 976.324 94.9453 976.324Z" fill="black"/>
<path d="M94.9453 956.921V952.994C100.027 952.994 104.878 952.532 109.498 951.839C113.656 951.146 117.814 950.222 121.51 948.836C124.975 947.681 128.44 946.064 131.674 944.447C134.677 942.83 137.68 940.982 140.221 938.903C142.762 937.055 145.303 934.745 147.613 932.204C149.692 929.894 152.002 927.353 153.85 924.812C155.698 922.271 157.546 919.73 159.163 916.727C160.78 914.186 162.397 911.183 163.783 908.18C165.169 905.408 166.555 902.405 167.941 899.171C169.096 896.168 170.482 893.165 171.637 889.931C172.792 886.928 173.947 883.925 175.102 880.46C176.257 877.226 177.181 873.992 178.336 870.758C179.491 867.524 180.415 864.29 181.339 861.056L184.342 851.354C185.266 848.12 186.421 844.886 187.576 841.652C188.731 838.418 189.655 835.184 190.81 831.95C191.965 828.485 193.12 825.482 194.506 822.248C195.892 818.783 197.047 815.78 198.433 812.777C199.819 809.543 201.436 806.54 202.822 803.537C204.439 800.303 206.287 797.531 207.904 794.759C209.752 791.756 211.831 788.984 213.91 786.443C216.22 783.671 218.53 781.13 220.84 778.589C223.381 776.048 226.153 773.738 229.156 771.659C232.159 769.349 235.393 767.501 238.858 765.653C242.554 763.805 246.25 762.188 250.177 761.033C254.335 759.647 258.955 758.723 263.575 758.03C268.657 757.337 273.97 756.875 279.514 756.875V760.802C274.201 760.802 269.119 761.264 264.268 761.957C259.879 762.65 255.49 763.574 251.332 764.96C247.636 766.115 243.94 767.732 240.475 769.349C237.241 770.966 234.238 772.814 231.235 774.893C228.463 776.972 225.922 779.051 223.381 781.592C221.071 783.902 218.761 786.212 216.682 788.984C214.603 791.525 212.755 794.066 210.907 797.069C209.29 799.61 207.442 802.613 205.825 805.616C204.439 808.388 202.822 811.391 201.436 814.625C200.05 817.628 198.895 820.631 197.509 823.865C196.354 826.868 195.199 829.871 194.044 833.336C192.889 836.57 191.734 839.804 190.81 843.038C189.655 846.272 188.731 849.506 187.576 852.74L184.573 862.442C183.649 865.676 182.494 868.91 181.57 872.144C180.415 875.378 179.491 878.612 178.336 881.846C177.181 885.311 176.026 888.545 174.871 891.548C173.485 895.013 172.33 898.016 171.175 901.019C169.789 904.253 168.403 907.256 167.017 910.259C165.4 913.262 163.783 916.265 162.166 919.037C160.318 922.04 158.47 924.812 156.622 927.353C154.543 930.125 152.233 932.666 150.154 935.207C147.613 937.748 145.072 940.058 142.531 942.137C139.759 944.447 136.525 946.295 133.291 948.143C129.826 949.991 126.361 951.608 122.434 952.763C118.507 954.149 114.118 955.073 109.729 955.766C105.34 956.459 100.258 956.921 94.9453 956.921Z" fill="black"/>
</g>
</g>
<defs>
<clipPath id="clip0_4039_2">
<rect width="1920" height="1080" fill="white"/>
</clipPath>
</defs>
</svg>
