<svg width="1920" height="1080" viewBox="0 0 1920 1080" fill="none" xmlns="http://www.w3.org/2000/svg">
<g clip-path="url(#clip0_4039_419)">
<g opacity="0.5">
<path d="M1146.83 426.775H977.969V403.213H1146.83V426.775ZM981.896 422.848H1143.13V407.14H981.896V422.848Z" fill="black"/>
<path d="M1312.01 426.775H1143.15V403.213H1312.01V426.775ZM1146.84 422.848H1308.08V407.14H1146.84V422.848Z" fill="black"/>
<path d="M1477.17 426.775H1308.31V403.213H1477.17V426.775ZM1312.01 422.848H1473.25V407.14H1312.01V422.848Z" fill="black"/>
<path d="M1642.11 426.775H1473.25V403.213H1642.11V426.775ZM1477.18 422.848H1638.41V407.14H1477.18V422.848Z" fill="black"/>
<path d="M1146.83 446.179H977.969V422.848H1146.83V446.179ZM981.896 442.252H1143.13V426.544H981.896V442.252Z" fill="black"/>
<path d="M1312.01 446.179H1143.15V422.848H1312.01V446.179ZM1146.84 442.252H1308.08V426.544H1146.84V442.252Z" fill="black"/>
<path d="M1477.17 446.179H1308.31V422.848H1477.17V446.179ZM1312.01 442.252H1473.25V426.544H1312.01V442.252Z" fill="black"/>
<path d="M1642.11 446.179H1473.25V422.848H1642.11V446.179ZM1477.18 442.252H1638.41V426.544H1477.18V442.252Z" fill="black"/>
<path d="M1146.83 465.813H977.969V442.251H1146.83V465.813ZM981.896 461.886H1143.13V446.178H981.896V461.886Z" fill="black"/>
<path d="M1312.01 465.813H1143.15V442.251H1312.01V465.813ZM1146.84 461.886H1308.08V446.178H1146.84V461.886Z" fill="black"/>
<path d="M1477.17 465.813H1308.31V442.251H1477.17V465.813ZM1312.01 461.886H1473.25V446.178H1312.01V461.886Z" fill="black"/>
<path d="M1642.11 465.813H1473.25V442.251H1642.11V465.813ZM1477.18 461.886H1638.41V446.178H1477.18V461.886Z" fill="black"/>
<path d="M1146.83 485.217H977.969V461.886H1146.83V485.217ZM981.896 481.29H1143.13V465.582H981.896V481.29Z" fill="black"/>
<path d="M1312.01 485.217H1143.15V461.886H1312.01V485.217ZM1146.84 481.29H1308.08V465.582H1146.84V481.29Z" fill="black"/>
<path d="M1477.17 485.217H1308.31V461.886H1477.17V485.217ZM1312.01 481.29H1473.25V465.582H1312.01V481.29Z" fill="black"/>
<path d="M1642.11 485.217H1473.25V461.886H1642.11V485.217ZM1477.18 481.29H1638.41V465.582H1477.18V481.29Z" fill="black"/>
<path d="M1146.83 504.852H977.969V481.29H1146.83V504.852ZM981.896 500.925H1143.13V485.217H981.896V500.925Z" fill="black"/>
<path d="M1312.01 504.852H1143.15V481.29H1312.01V504.852ZM1146.84 500.925H1308.08V485.217H1146.84V500.925Z" fill="black"/>
<path d="M1477.17 504.852H1308.31V481.29H1477.17V504.852ZM1312.01 500.925H1473.25V485.217H1312.01V500.925Z" fill="black"/>
<path d="M1642.11 504.852H1473.25V481.29H1642.11V504.852ZM1477.18 500.925H1638.41V485.217H1477.18V500.925Z" fill="black"/>
<path d="M1146.83 524.256H977.969V500.925H1146.83V524.256ZM981.896 520.329H1143.13V504.621H981.896V520.329Z" fill="black"/>
<path d="M1312.01 524.256H1143.15V500.925H1312.01V524.256ZM1146.84 520.329H1308.08V504.621H1146.84V520.329Z" fill="black"/>
<path d="M1477.17 524.256H1308.31V500.925H1477.17V524.256ZM1312.01 520.329H1473.25V504.621H1312.01V520.329Z" fill="black"/>
<path d="M1642.11 524.256H1473.25V500.925H1642.11V524.256ZM1477.18 520.329H1638.41V504.621H1477.18V520.329Z" fill="black"/>
<path d="M1146.83 545.278H977.969V521.947H1146.83V545.278ZM981.896 541.351H1143.13V525.643H981.896V541.351Z" fill="black"/>
<path d="M1312.01 545.278H1143.15V521.947H1312.01V545.278ZM1146.84 541.351H1308.08V525.643H1146.84V541.351Z" fill="black"/>
<path d="M1477.17 545.278H1308.31V521.947H1477.17V545.278ZM1312.01 541.351H1473.25V525.643H1312.01V541.351Z" fill="black"/>
<path d="M1642.11 545.278H1473.25V521.947H1642.11V545.278ZM1477.18 541.351H1638.41V525.643H1477.18V541.351Z" fill="black"/>
<path d="M1146.83 564.681H977.969V541.35H1146.83V564.681ZM981.896 560.754H1143.13V545.046H981.896V560.754Z" fill="black"/>
<path d="M1312.01 564.681H1143.15V541.35H1312.01V564.681ZM1146.84 560.754H1308.08V545.046H1146.84V560.754Z" fill="black"/>
<path d="M1477.17 564.681H1308.31V541.35H1477.17V564.681ZM1312.01 560.754H1473.25V545.046H1312.01V560.754Z" fill="black"/>
<path d="M1642.11 564.681H1473.25V541.35H1642.11V564.681ZM1477.18 560.754H1638.41V545.046H1477.18V560.754Z" fill="black"/>
<path d="M1146.83 584.317H977.969V560.986H1146.83V584.317ZM981.896 580.39H1143.13V564.682H981.896V580.39Z" fill="black"/>
<path d="M1312.01 584.317H1143.15V560.986H1312.01V584.317ZM1146.84 580.39H1308.08V564.682H1146.84V580.39Z" fill="black"/>
<path d="M1477.17 584.317H1308.31V560.986H1477.17V584.317ZM1312.01 580.39H1473.25V564.682H1312.01V580.39Z" fill="black"/>
<path d="M1642.11 584.317H1473.25V560.986H1642.11V584.317ZM1477.18 580.39H1638.41V564.682H1477.18V580.39Z" fill="black"/>
</g>
<g opacity="0.5">
<path d="M1146.83 289.331H977.969V266H1146.83V289.331ZM981.896 285.404H1143.13V269.927H981.896V285.404Z" fill="black"/>
<path d="M1312 289.331H1143.14V266H1312V289.331ZM1146.84 285.404H1308.07V269.927H1146.84V285.404Z" fill="black"/>
<path d="M1477.17 289.331H1308.3V266H1477.17V289.331ZM1312 285.404H1473.24V269.927H1312V285.404Z" fill="black"/>
<path d="M1642.1 289.331H1473.24V266H1642.1V289.331ZM1477.17 285.404H1638.41V269.927H1477.17V285.404Z" fill="black"/>
<path d="M1146.83 308.966H977.969V285.404H1146.83V308.966ZM981.896 305.039H1143.13V289.331H981.896V305.039Z" fill="black"/>
<path d="M1312 308.966H1143.14V285.404H1312V308.966ZM1146.84 305.039H1308.07V289.331H1146.84V305.039Z" fill="black"/>
<path d="M1477.17 308.966H1308.3V285.404H1477.17V308.966ZM1312 305.039H1473.24V289.331H1312V305.039Z" fill="black"/>
<path d="M1642.1 308.966H1473.24V285.404H1642.1V308.966ZM1477.17 305.039H1638.41V289.331H1477.17V305.039Z" fill="black"/>
<path d="M1146.83 328.369H977.969V305.038H1146.83V328.369ZM981.896 324.442H1143.13V308.734H981.896V324.442Z" fill="black"/>
<path d="M1312 328.369H1143.14V305.038H1312V328.369ZM1146.84 324.442H1308.07V308.734H1146.84V324.442Z" fill="black"/>
<path d="M1477.17 328.369H1308.3V305.038H1477.17V328.369ZM1312 324.442H1473.24V308.734H1312V324.442Z" fill="black"/>
<path d="M1642.1 328.369H1473.24V305.038H1642.1V328.369ZM1477.17 324.442H1638.41V308.734H1477.17V324.442Z" fill="black"/>
<path d="M1146.83 348.005H977.969V324.443H1146.83V348.005ZM981.896 344.078H1143.13V328.37H981.896V344.078Z" fill="black"/>
<path d="M1312 348.005H1143.14V324.443H1312V348.005ZM1146.84 344.078H1308.07V328.37H1146.84V344.078Z" fill="black"/>
<path d="M1477.17 348.005H1308.3V324.443H1477.17V348.005ZM1312 344.078H1473.24V328.37H1312V344.078Z" fill="black"/>
<path d="M1642.1 348.005H1473.24V324.443H1642.1V348.005ZM1477.17 344.078H1638.41V328.37H1477.17V344.078Z" fill="black"/>
</g>
<path d="M1147.14 387.736H978.281V364.174H1147.14V387.736ZM981.977 383.809H1143.22V368.101H981.977V383.809Z" fill="black"/>
<path d="M1312.07 387.736H1143.21V364.174H1312.07V387.736ZM1147.14 383.809H1308.38V368.101H1147.14V383.809Z" fill="black"/>
<path d="M1477.24 387.736H1308.38V364.174H1477.24V387.736ZM1312.08 383.809H1473.32V368.101H1312.08V383.809Z" fill="black"/>
<path d="M1642.18 387.736H1473.32V364.174H1642.18V387.736ZM1477.25 383.809H1638.49V368.101H1477.25V383.809Z" fill="black"/>
</g>
<defs>
<clipPath id="clip0_4039_419">
<rect width="1920" height="1080" fill="white"/>
</clipPath>
</defs>
</svg>
